<svg width="773" height="325" viewBox="0 0 773 325" fill="none" xmlns="http://www.w3.org/2000/svg">
<g filter="url(#filter0_f_995_294)">
<rect x="50" y="50" width="673" height="225" fill="black"/>
</g>
<path d="M372.187 155.641H380.687V159.109C382.624 157.484 384.374 156.359 385.937 155.734C387.52 155.089 389.135 154.766 390.78 154.766C394.155 154.766 397.02 155.943 399.374 158.297C401.353 160.297 402.343 163.255 402.343 167.172V189.641H393.905V174.734C393.905 170.672 393.718 167.974 393.343 166.641C392.989 165.307 392.353 164.297 391.437 163.609C390.541 162.901 389.426 162.547 388.093 162.547C386.364 162.547 384.874 163.13 383.624 164.297C382.395 165.443 381.541 167.036 381.062 169.078C380.812 170.141 380.687 172.443 380.687 175.984V189.641H372.187V155.641ZM406.843 155.641H415.562L424.405 176.984L434.155 155.641H442.905L421.593 202.078H412.78L419.78 187.109L406.843 155.641ZM447.718 155.641H456.343V172.016C456.343 175.203 456.562 177.422 456.999 178.672C457.437 179.901 458.135 180.859 459.093 181.547C460.072 182.234 461.27 182.578 462.687 182.578C464.103 182.578 465.301 182.245 466.28 181.578C467.28 180.891 468.02 179.891 468.499 178.578C468.853 177.599 469.03 175.505 469.03 172.297V155.641H477.593V170.047C477.593 175.984 477.124 180.047 476.187 182.234C475.041 184.901 473.353 186.953 471.124 188.391C468.895 189.807 466.062 190.516 462.624 190.516C458.895 190.516 455.874 189.682 453.562 188.016C451.27 186.349 449.655 184.026 448.718 181.047C448.051 178.984 447.718 175.234 447.718 169.797V155.641ZM486.187 155.641H494.687V159.109C496.624 157.484 498.374 156.359 499.937 155.734C501.52 155.089 503.135 154.766 504.78 154.766C508.155 154.766 511.02 155.943 513.374 158.297C515.353 160.297 516.343 163.255 516.343 167.172V189.641H507.905V174.734C507.905 170.672 507.718 167.974 507.343 166.641C506.989 165.307 506.353 164.297 505.437 163.609C504.541 162.901 503.426 162.547 502.093 162.547C500.364 162.547 498.874 163.13 497.624 164.297C496.395 165.443 495.541 167.036 495.062 169.078C494.812 170.141 494.687 172.443 494.687 175.984V189.641H486.187V155.641Z" fill="white"/>
<path d="M523.155 155.641H549.249L533.937 182.422H548.374V189.641H520.812L536.187 162.859H523.155V155.641ZM588.124 175.109H560.718C561.114 177.526 562.166 179.453 563.874 180.891C565.603 182.307 567.801 183.016 570.468 183.016C573.655 183.016 576.395 181.901 578.687 179.672L585.874 183.047C584.082 185.589 581.937 187.474 579.437 188.703C576.937 189.911 573.968 190.516 570.53 190.516C565.197 190.516 560.853 188.839 557.499 185.484C554.145 182.109 552.468 177.891 552.468 172.828C552.468 167.641 554.135 163.339 557.468 159.922C560.822 156.484 565.02 154.766 570.062 154.766C575.416 154.766 579.77 156.484 583.124 159.922C586.478 163.339 588.155 167.859 588.155 173.484L588.124 175.109ZM579.562 168.391C578.999 166.495 577.885 164.953 576.218 163.766C574.572 162.578 572.655 161.984 570.468 161.984C568.093 161.984 566.01 162.651 564.218 163.984C563.093 164.818 562.051 166.286 561.093 168.391H579.562ZM593.062 155.641H600.374V159.922C601.166 158.234 602.218 156.953 603.53 156.078C604.843 155.203 606.28 154.766 607.843 154.766C608.947 154.766 610.103 155.057 611.312 155.641L608.655 162.984C607.655 162.484 606.832 162.234 606.187 162.234C604.874 162.234 603.76 163.047 602.843 164.672C601.947 166.297 601.499 169.484 601.499 174.234L601.53 175.891V189.641H593.062V155.641ZM631.53 154.766C634.739 154.766 637.749 155.568 640.562 157.172C643.395 158.776 645.603 160.953 647.187 163.703C648.77 166.453 649.562 169.422 649.562 172.609C649.562 175.818 648.76 178.818 647.155 181.609C645.572 184.401 643.405 186.589 640.655 188.172C637.905 189.734 634.874 190.516 631.562 190.516C626.687 190.516 622.52 188.786 619.062 185.328C615.624 181.849 613.905 177.63 613.905 172.672C613.905 167.359 615.853 162.932 619.749 159.391C623.166 156.307 627.093 154.766 631.53 154.766ZM631.655 162.797C629.01 162.797 626.801 163.724 625.03 165.578C623.28 167.411 622.405 169.766 622.405 172.641C622.405 175.599 623.27 177.995 624.999 179.828C626.749 181.661 628.957 182.578 631.624 182.578C634.291 182.578 636.51 181.651 638.28 179.797C640.051 177.943 640.937 175.557 640.937 172.641C640.937 169.724 640.062 167.359 638.312 165.547C636.582 163.714 634.364 162.797 631.655 162.797Z" fill="#B0CB42"/>
<rect x="135" y="112" width="144" height="144" fill="#124E85"/>
<rect x="179.308" y="94" width="117.692" height="114.923" fill="#B0CB42"/>
<rect x="179.308" y="112" width="99.692" height="96.9228" fill="#67B827"/>
<defs>
<filter id="filter0_f_995_294" x="0" y="0" width="773" height="325" filterUnits="userSpaceOnUse" color-interpolation-filters="sRGB">
<feFlood flood-opacity="0" result="BackgroundImageFix"/>
<feBlend mode="normal" in="SourceGraphic" in2="BackgroundImageFix" result="shape"/>
<feGaussianBlur stdDeviation="25" result="effect1_foregroundBlur_995_294"/>
</filter>
</defs>
</svg>
