<svg width="224" height="61" viewBox="0 0 224 61" fill="none" xmlns="http://www.w3.org/2000/svg">
<path d="M93.4706 23.248H98.2518V25.1992C99.3417 24.2852 100.326 23.6523 101.205 23.3008C102.096 22.9375 103.004 22.7559 103.93 22.7559C105.828 22.7559 107.439 23.418 108.764 24.7422C109.877 25.8672 110.433 27.5312 110.433 29.7344V42.373H105.687V33.9883C105.687 31.7031 105.582 30.1855 105.371 29.4355C105.172 28.6855 104.814 28.1172 104.299 27.7305C103.795 27.332 103.168 27.1328 102.418 27.1328C101.445 27.1328 100.607 27.4609 99.9042 28.1172C99.2128 28.7617 98.7323 29.6582 98.4628 30.8066C98.3221 31.4043 98.2518 32.6992 98.2518 34.6914V42.373H93.4706V23.248ZM112.965 23.248H117.869L122.844 35.2539L128.328 23.248H133.25L121.262 49.3691H116.305L120.242 40.9492L112.965 23.248ZM135.957 23.248H140.808V32.459C140.808 34.252 140.932 35.5 141.178 36.2031C141.424 36.8945 141.816 37.4336 142.355 37.8203C142.906 38.207 143.58 38.4004 144.377 38.4004C145.174 38.4004 145.848 38.2129 146.398 37.8379C146.961 37.4512 147.377 36.8887 147.646 36.1504C147.846 35.5996 147.945 34.4219 147.945 32.6172V23.248H152.762V31.3516C152.762 34.6914 152.498 36.9766 151.971 38.207C151.326 39.707 150.377 40.8613 149.123 41.6699C147.869 42.4668 146.275 42.8652 144.342 42.8652C142.244 42.8652 140.545 42.3965 139.244 41.459C137.955 40.5215 137.047 39.2148 136.519 37.5391C136.144 36.3789 135.957 34.2695 135.957 31.2109V23.248ZM157.596 23.248H162.377V25.1992C163.467 24.2852 164.451 23.6523 165.33 23.3008C166.221 22.9375 167.129 22.7559 168.055 22.7559C169.953 22.7559 171.564 23.418 172.889 24.7422C174.002 25.8672 174.558 27.5312 174.558 29.7344V42.373H169.812V33.9883C169.812 31.7031 169.707 30.1855 169.496 29.4355C169.297 28.6855 168.939 28.1172 168.424 27.7305C167.92 27.332 167.293 27.1328 166.543 27.1328C165.57 27.1328 164.732 27.4609 164.029 28.1172C163.338 28.7617 162.857 29.6582 162.588 30.8066C162.447 31.4043 162.377 32.6992 162.377 34.6914V42.373H157.596V23.248Z" fill="white"/>
<path d="M193.349 23.248H198.131V42.373H193.349V40.3516C192.412 41.2422 191.469 41.8867 190.519 42.2852C189.582 42.6719 188.562 42.8652 187.461 42.8652C184.988 42.8652 182.849 41.9102 181.045 40C179.24 38.0781 178.338 35.6934 178.338 32.8457C178.338 29.8926 179.211 27.4727 180.957 25.5859C182.703 23.6992 184.824 22.7559 187.32 22.7559C188.469 22.7559 189.547 22.9727 190.555 23.4062C191.562 23.8398 192.494 24.4902 193.349 25.3574V23.248ZM188.305 27.1855C186.816 27.1855 185.58 27.7129 184.596 28.7676C183.611 29.8105 183.119 31.1523 183.119 32.793C183.119 34.4453 183.617 35.8047 184.613 36.8711C185.621 37.9375 186.857 38.4707 188.322 38.4707C189.834 38.4707 191.088 37.9492 192.084 36.9062C193.08 35.8516 193.578 34.4746 193.578 32.7754C193.578 31.1113 193.08 29.7637 192.084 28.7324C191.088 27.7012 189.828 27.1855 188.305 27.1855ZM204.863 15.373C205.707 15.373 206.428 15.6777 207.025 16.2871C207.635 16.8965 207.939 17.6348 207.939 18.502C207.939 19.3574 207.641 20.0898 207.043 20.6992C206.445 21.2969 205.73 21.5957 204.898 21.5957C204.043 21.5957 203.31 21.291 202.701 20.6816C202.103 20.0605 201.805 19.3105 201.805 18.4316C201.805 17.5879 202.103 16.8672 202.701 16.2695C203.299 15.6719 204.019 15.373 204.863 15.373ZM202.455 23.248H207.271V42.373H202.455V23.248Z" fill="#67B827"/>
<rect y="6.4209" width="54.579" height="54.579" fill="#124E85"/>
<rect x="16.8553" width="44.1447" height="43.3421" fill="#B0CB42"/>
<rect x="16.8553" y="6.4209" width="37.7237" height="36.9211" fill="#67B827"/>
</svg>
