<svg width="128" height="118" viewBox="0 0 128 118" fill="none" xmlns="http://www.w3.org/2000/svg">
<rect x="32.9928" y="25.7759" width="82.7999" height="82.7999" fill="white"/>
<rect x="44.4926" y="14.2758" width="6.94325" height="103.5" fill="white"/>
<rect x="99.6927" y="14.2757" width="6.94325" height="103.5" fill="white"/>
<rect x="72.0927" y="14.2757" width="6.94325" height="103.5" fill="white"/>
<rect x="127.293" y="34.9758" width="6.94325" height="103.5" transform="rotate(90 127.293 34.9758)" fill="white"/>
<rect x="127.293" y="90.1757" width="6.94325" height="103.5" transform="rotate(90 127.293 90.1757)" fill="white"/>
<rect x="127.293" y="62.5759" width="6.94325" height="103.5" transform="rotate(90 127.293 62.5759)" fill="white"/>
<path d="M85.6334 54.1293V59.9153" stroke="#124E85" stroke-width="6"/>
<path d="M62.4892 88.8456V80.7451" stroke="#124E85" stroke-width="6"/>
<rect width="23.7931" height="23.7931" fill="white"/>
<rect y="48.7758" width="11.8965" height="11.8965" fill="white"/>
<path d="M86.7906 53.5828H74.4471M61.332 88.2348H74.4471M74.4471 42.5572V53.5828M74.4471 53.5828H63.6464V70.9088H84.4762V88.2348H74.4471M74.4471 88.2348V93.7476V99.2604" stroke="#124E85" stroke-width="6"/>
</svg>
