<svg width="233" height="139" viewBox="0 0 233 139" fill="none" xmlns="http://www.w3.org/2000/svg">
<rect x="167.393" y="4" width="65.6075" height="65.6075" fill="white"/>
<rect x="167.393" y="68.3458" width="31.5421" height="31.5421" fill="white"/>
<rect x="137.112" y="39.3271" width="31.5421" height="30.2804" fill="white"/>
<path d="M121.972 84.7477H152.252V115.028H121.972V84.7477Z" fill="white"/>
<rect x="119.449" y="123.86" width="15.1402" height="15.1402" fill="white"/>
<rect x="98" y="102.411" width="15.1402" height="15.1402" fill="white"/>
<path d="M97.7888 12.2931L66.4657 75.8639L79.8372 86.7095L95.9999 81L97.7888 12.2931Z" fill="white"/>
<rect x="13.7704" y="54.0566" width="14" height="44" transform="rotate(18.2379 13.7704 54.0566)" fill="white"/>
<rect x="47.4076" y="17.7606" width="14" height="44" transform="rotate(44.6733 47.4076 17.7606)" fill="white"/>
<rect x="93.976" y="0.466003" width="14" height="44" transform="rotate(71.8151 93.976 0.466003)" fill="white"/>
<rect x="142.69" y="4.93622" width="14" height="44" transform="rotate(96.4414 142.69 4.93622)" fill="white"/>
</svg>
