<svg width="127" height="185" viewBox="0 0 127 185" fill="none" xmlns="http://www.w3.org/2000/svg">
<rect width="9.90019" height="9.90019" transform="matrix(0.712652 0.701517 -0.712652 0.701517 43.9998 86)" fill="white"/>
<rect width="9.90019" height="9.90019" transform="matrix(0.712652 0.701517 -0.712652 0.701517 68.9445 110.555)" fill="white"/>
<rect width="9.90019" height="9.90019" transform="matrix(0.712652 0.701517 -0.712652 0.701517 43.9998 135.11)" fill="white"/>
<rect width="9.90019" height="9.90019" transform="matrix(0.712652 0.701517 -0.712652 0.701517 19.0555 110.555)" fill="white"/>
<path fill-rule="evenodd" clip-rule="evenodd" d="M61.664 99.5363H25.824V135.32H61.664V99.5363ZM48.8638 112.208H38.6239V122.288H48.8638V112.208Z" fill="white"/>
<rect x="103" width="23.5897" height="23.5897" fill="white"/>
<rect x="112.436" y="46" width="14.1538" height="14.1538" fill="white"/>
<path fill-rule="evenodd" clip-rule="evenodd" d="M88.1482 39H0V184.41H88.1482V39ZM23.9906 48.3455H8.63257V176H23.9905H23.9906H64.1576V56.3239H23.9906V48.3455ZM79.5157 48.3455H64.1577V176H79.5157V48.3455Z" fill="white"/>
</svg>
