<svg xmlns="http://www.w3.org/2000/svg" xmlns:xlink="http://www.w3.org/1999/xlink" width="192" height="44" viewBox="0 0 192 44">
  <defs>
    <clipPath id="clip-path">
      <rect id="Rectangle_1" data-name="Rectangle 1" width="192" height="44" transform="translate(115 41)" fill="#fff"/>
    </clipPath>
  </defs>
  <g id="Mask_Group_1" data-name="Mask Group 1" transform="translate(-115 -41)" clip-path="url(#clip-path)">
    <g id="ne1" transform="translate(154.777 35.242)">
      <path id="Path_1" data-name="Path 1" d="M11.621,17.805a1.623,1.623,0,0,0,2.305-.276,1.888,1.888,0,0,0-.888-2.321,1.642,1.642,0,0,0-2.4.235,1.921,1.921,0,0,0,.987,2.362m10.613-1.771-.021-.005a3.309,3.309,0,0,1,3.616,1.316.921.921,0,0,0,1.11.37,1.024,1.024,0,0,0,.4-1.341.988.988,0,0,0-1.25-.642l-.046.021c-1.158.4-2.664-.334-3.71-1.738a.943.943,0,0,0-.069-.1v0a1.4,1.4,0,0,0-1.492-.569v0l0,0a1.155,1.155,0,0,0-.139.059c-2.165.923-3.3.574-4.422-.953a2.594,2.594,0,0,0-.56-.642,1.737,1.737,0,0,0-2.494-.06,1.9,1.9,0,0,0,.727,2.479,2.141,2.141,0,0,0,1.6.459h0c.062-.012.125-.027.185-.044,1.113-.265,3.563-.751,4.653.727l.037.059c.036.053.073.1.112.153a4.161,4.161,0,0,1-.178,4.528.832.832,0,0,0-.066.117,1.063,1.063,0,0,0,.608,1.341.979.979,0,0,0,1.341-.386.959.959,0,0,0-.125-.946c-1.092-1.645-.724-3.838.18-4.2m-.044-.011-.03-.009.009-.005.023-.016,0,.03Zm5.78-5.215A3.174,3.174,0,0,1,24.429,8.66c-.014-.068-.032-.135-.052-.2s-.05-.149-.08-.224c-.406-1-1.348-1.6-2.1-1.325s-1,1.35-.546,2.351a2.075,2.075,0,0,0,1.567,1.293h.005c.027,0,.052,0,.078,0,1.983.108,3.182.562,4.02,1.958a1.365,1.365,0,0,0,1.058.987c1.416.251,2.558.88,2.874,1.876a.809.809,0,0,0,.724.637.792.792,0,0,0,.683-.9.887.887,0,0,0-.754-.927.7.7,0,0,0-.087.005.572.572,0,0,0-.112.027A2.078,2.078,0,0,1,29.37,12.69a1.436,1.436,0,0,0,.036-.235c.423-1.713,1-2.691,2.558-3.209a.925.925,0,0,0,.173-.053,1.524,1.524,0,0,0,.74-1.494,1.868,1.868,0,0,0-1.3-1.9c-.615-.085-1.1.459-1.188,1.247v0a2.5,2.5,0,0,0-.011.329c-.08,2.106-.35,3.175-2.285,3.408a.372.372,0,0,0-.06.007c-.021,0-.041.007-.062.012m11.689-.265a3.623,3.623,0,0,0,.608,3.289.568.568,0,0,1,.165.1.215.215,0,0,1,.028.028c.912.873,1.731.8,2.743-.18a.556.556,0,0,1,.944.032,1.5,1.5,0,0,1-.092,1.528c-.286.416-.706.493-.976.192-.987-.752-1.492-.822-2.769-.041a.483.483,0,0,1-.617-.009.986.986,0,0,1-.267-.888v0c0-.025.009-.05.014-.075A3.639,3.639,0,0,0,38.332,11.2a1.752,1.752,0,0,1-.4-1.766c.212-.735.788-1.067,1.273-.736a1.607,1.607,0,0,1,.53,1.5v0a1.8,1.8,0,0,1-.073.347ZM11.765,22.524a1.506,1.506,0,0,0,2.077-.713,1.864,1.864,0,0,0-1.309-2.035c-.98-.4-1.967-.082-2.175.7a1.9,1.9,0,0,0,1.407,2.044m34.622-5.012a.827.827,0,0,0-.157.832c.108.237.35.26.544.053a.842.842,0,0,0,.165-.818c-.1-.251-.354-.285-.553-.068M33.866,14.931a.882.882,0,0,0,.564,1c.361.078.7-.235.768-.7a.9.9,0,0,0-.546-1.023c-.372-.092-.729.231-.786.719m-5.441.973a.974.974,0,0,0,1.072.834.963.963,0,0,0,.606-1.192.986.986,0,0,0-1.064-.87.966.966,0,0,0-.615,1.227m-4.88,3.145a.974.974,0,0,0,1.354.334,1.051,1.051,0,0,0,.144-1.428.984.984,0,0,0-1.373-.366,1.049,1.049,0,0,0-.125,1.46M37.023,13a1.163,1.163,0,0,0,.413,1.33c.372.194.8-.064.959-.582a1.185,1.185,0,0,0-.384-1.339c-.382-.221-.829.044-.987.59m-2.922-1a1.238,1.238,0,0,0,.713,1.377c.461.125.9-.274.984-.893a1.262,1.262,0,0,0-.683-1.4c-.478-.144-.936.269-1.014.916m-3.376-.222a1.31,1.31,0,0,0,1.064,1.343c.537.018.955-.532.934-1.241a1.331,1.331,0,0,0-1.037-1.382c-.567-.041-1,.539-.96,1.281m-6.871,1.864a1.3,1.3,0,0,0,1.59.843,1.292,1.292,0,0,0,.475-1.716,1.323,1.323,0,0,0-1.6-.9,1.291,1.291,0,0,0-.464,1.777m-6.862,6.3a1.275,1.275,0,0,0,1.729-.532,1.383,1.383,0,0,0-.864-1.659,1.288,1.288,0,0,0-1.789.509,1.4,1.4,0,0,0,.925,1.683m28.034-4.167a1.238,1.238,0,0,0-.235,1.241c.164.354.525.388.813.078a1.248,1.248,0,0,0,.247-1.218c-.157-.375-.526-.425-.825-.1m-4.2-4.318a1.543,1.543,0,0,0,.174,1.659c.356.336.848.164,1.113-.382a1.565,1.565,0,0,0-.141-1.647c-.357-.372-.875-.208-1.147.37M34.407,8.055a1.819,1.819,0,0,0,.921,1.951c.592.2,1.163-.318,1.282-1.161a1.865,1.865,0,0,0-.873-1.987c-.624-.238-1.225.3-1.33,1.2M26.033,7.79c.242,1,1.021,1.7,1.741,1.59s1.119-.96.923-1.939c-.206-1-.976-1.763-1.725-1.677s-1.185,1-.939,2.026m-8.708,3.694a1.762,1.762,0,0,0,2.31.749A1.789,1.789,0,0,0,19.749,9.8a1.8,1.8,0,0,0-2.366-.852,1.816,1.816,0,0,0-.059,2.534" fill="#68448b" fill-rule="evenodd"/>
      <path id="Path_2" data-name="Path 2" d="M26.334,47.744c.037-1.049-.573-1.878-1.364-1.878a1.888,1.888,0,0,0-1.6,1.9c-.085,1.1.532,2,1.377,1.987a1.922,1.922,0,0,0,1.583-2.013m-6.72-8.406.005.021a3.309,3.309,0,0,1-.612-3.8.92.92,0,0,0-.217-1.149,1.021,1.021,0,0,0-1.364.306.989.989,0,0,0,.048,1.405c.012.011.027.02.041.03.911.816,1.007,2.488.29,4.085-.018.036-.036.071-.05.108a1.392,1.392,0,0,0,.228,1.581h0c.037.034.078.064.119.094,1.86,1.441,2.111,2.6,1.321,4.324a2.617,2.617,0,0,0-.288.8c-.2,1.1.318,2.1,1.163,2.205s1.658-.735,1.811-1.843a2.138,2.138,0,0,0-.381-1.624l0,0c-.041-.048-.085-.1-.13-.141-.774-.843-2.39-2.744-1.631-4.418.011-.02.021-.039.032-.06a1.356,1.356,0,0,0,.078-.173,4.161,4.161,0,0,1,4.041-2.051.858.858,0,0,0,.135,0,1.062,1.062,0,0,0,.875-1.183.978.978,0,0,0-.991-.984.949.949,0,0,0-.765.569c-.905,1.755-3,2.5-3.76,1.891m.012.044.009.032-.011-.005L19.6,39.4Zm-7.37-2.506a3.171,3.171,0,0,1-.151,4.139c-.052.046-.1.092-.151.144s-.107.116-.157.18a1.841,1.841,0,0,0-.133,2.479c.617.525,1.667.217,2.319-.669a2.073,2.073,0,0,0,.365-2l0,0c-.011-.023-.023-.048-.036-.071-.872-1.784-1.058-3.05-.249-4.462a1.365,1.365,0,0,0,.347-1.407c-.471-1.357-.477-2.663.238-3.424a.809.809,0,0,0,.2-.943.791.791,0,0,0-1.115-.16.886.886,0,0,0-.441,1.11.571.571,0,0,0,.046.073v0a.719.719,0,0,0,.078.085,2.077,2.077,0,0,1-.2,2.787,1.637,1.637,0,0,0-.224.084c-1.7.464-2.835.441-4.048-.671a.77.77,0,0,0-.13-.123v0a1.524,1.524,0,0,0-1.665.082,1.872,1.872,0,0,0-1.024,2.058c.226.58.941.742,1.668.43h0a2.555,2.555,0,0,0,.293-.151c1.876-.959,2.942-1.241,4.087.334l.037.05c.012.016.027.032.041.048M6.33,26.8a3.63,3.63,0,0,0,2.575-2.134.525.525,0,0,1,.009-.2l.011-.037c.318-1.224-.142-1.9-1.492-2.307A.556.556,0,0,1,7,21.284a1.5,1.5,0,0,1,1.378-.663c.5.046.775.375.644.759-.176,1.227.009,1.7,1.313,2.438a.482.482,0,0,1,.293.542.992.992,0,0,1-.644.665l0,0-.073.023a3.637,3.637,0,0,0-2.36,2.588A1.754,1.754,0,0,1,6.2,28.852c-.745.171-1.316-.169-1.265-.756A1.614,1.614,0,0,1,5.989,26.9h0a1.73,1.73,0,0,1,.338-.1ZM30.382,45.318c-.162-.989-.889-1.638-1.633-1.466a1.864,1.864,0,0,0-1.14,2.134c.132,1.049.888,1.757,1.675,1.556a1.9,1.9,0,0,0,1.1-2.225M9.135,17.528a.828.828,0,0,0,.8-.269c.155-.21.055-.434-.219-.5a.835.835,0,0,0-.793.254c-.169.213-.078.446.208.516M12.982,29.72a.884.884,0,0,0,.6-.982.709.709,0,0,0-.987-.331.9.9,0,0,0-.628.975.7.7,0,0,0,1.01.338M16.484,34A.874.874,0,1,0,15.353,32.7a.986.986,0,0,0-.238,1.354A.965.965,0,0,0,16.484,34m5.126,2.73a.976.976,0,0,0-.37-1.345,1.051,1.051,0,0,0-1.316.569.985.985,0,0,0,.349,1.378,1.054,1.054,0,0,0,1.337-.6M9.756,27.9a1.161,1.161,0,0,0,.962-1.008c-.012-.42-.445-.665-.975-.553a1.181,1.181,0,0,0-.982.987c-.007.443.441.7.994.574m.55,3.041a1.233,1.233,0,0,0,.854-1.293c-.116-.462-.676-.651-1.257-.425a1.266,1.266,0,0,0-.891,1.279c.107.489.692.687,1.295.439M11.756,34a1.311,1.311,0,0,0,.655-1.583,1.069,1.069,0,0,0-1.54-.21,1.334,1.334,0,0,0-.7,1.579c.242.516.96.61,1.588.213m4.976,5.092a1.3,1.3,0,0,0-.041-1.8,1.292,1.292,0,0,0-1.729.422,1.323,1.323,0,0,0-.011,1.839,1.3,1.3,0,0,0,1.78-.461m8.843,2.922a1.277,1.277,0,0,0-1.307-1.25,1.381,1.381,0,0,0-1.028,1.563,1.286,1.286,0,0,0,1.316,1.314,1.4,1.4,0,0,0,1.019-1.627M8.274,19.566a1.239,1.239,0,0,0,1.2-.4c.229-.315.082-.647-.327-.749a1.258,1.258,0,0,0-1.186.379c-.251.32-.114.667.313.77M6.549,25.334a1.544,1.544,0,0,0,1.364-.96c.119-.473-.272-.82-.877-.786a1.562,1.562,0,0,0-1.37.927c-.151.493.245.864.882.82M6.716,32.6A1.821,1.821,0,0,0,7.97,30.842c-.117-.612-.845-.861-1.638-.555a1.865,1.865,0,0,0-1.309,1.731c.1.662.859.923,1.693.58m3.849,7.442a1.822,1.822,0,0,0,.541-2.3c-.438-.566-1.386-.509-2.143.139a1.869,1.869,0,0,0-.624,2.325c.445.624,1.455.546,2.227-.167m7.47,5.8a1.765,1.765,0,0,0-.471-2.383,1.791,1.791,0,0,0-2.181,1.087,1.8,1.8,0,0,0,.409,2.481,1.818,1.818,0,0,0,2.243-1.185" fill="#916ba4" fill-rule="evenodd"/>
      <g id="Group_1" data-name="Group 1">
        <path id="Path_3" data-name="Path 3" d="M26.912,23.1v3.7h-.829V21.54h.651l3.009,3.794V21.548h.838V26.8h-.69Zm8.464,2.97V26.8H31.766V21.54h3.543v.733H32.6v1.5h2.35v.688H32.6v1.608Zm3.052.023a1.252,1.252,0,0,0,1.131-.589,1.816,1.816,0,0,0,.237-.6,3.42,3.42,0,0,0,.071-.692V21.54H40.7v2.668a3.908,3.908,0,0,1-.126,1.017,2.318,2.318,0,0,1-.4.838,1.908,1.908,0,0,1-.708.567,2.381,2.381,0,0,1-1.04.206,2.347,2.347,0,0,1-1.064-.217,1.92,1.92,0,0,1-.7-.587,2.386,2.386,0,0,1-.384-.839,4.008,4.008,0,0,1-.119-.985V21.54h.831v2.668a3.481,3.481,0,0,0,.069.7,1.809,1.809,0,0,0,.238.6,1.235,1.235,0,0,0,.445.422,1.35,1.35,0,0,0,.685.16m3.379.711V21.54H44.1a1.467,1.467,0,0,1,.655.148,1.7,1.7,0,0,1,.516.39,1.8,1.8,0,0,1,.336.548,1.677,1.677,0,0,1,.123.626,1.81,1.81,0,0,1-.073.512,1.832,1.832,0,0,1-.208.452,1.459,1.459,0,0,1-.325.359,1.371,1.371,0,0,1-.423.226l1.238,2h-.943l-1.14-1.83H42.638V26.8Zm.831-2.565h1.453a.665.665,0,0,0,.32-.076.8.8,0,0,0,.249-.215,1.149,1.149,0,0,0,.164-.315,1.207,1.207,0,0,0,.059-.379,1.038,1.038,0,0,0-.069-.379,1.122,1.122,0,0,0-.187-.309.847.847,0,0,0-.267-.212.682.682,0,0,0-.315-.078H42.638Zm5.535-2.7H48.9L50.974,26.8H50.1l-.555-1.43H47.513l-.548,1.43h-.882l2.09-5.261Zm1.208,3.216L48.536,22.5l-.873,2.261ZM51.627,26.8V21.54h.829v4.527H55.28V26.8Zm5.958,0V21.54h.829V26.8Zm2.844-3.7v3.7H59.6V21.54h.651l3.009,3.794V21.548H64.1V26.8H63.41l-2.981-3.7Zm4.856,3.7V21.54h3.5v.733H66.114v1.572h2.239v.688H66.114V26.8Zm6.358.036a2.33,2.33,0,0,1-1.028-.224,2.581,2.581,0,0,1-.8-.6,2.664,2.664,0,0,1-.516-.855,2.776,2.776,0,0,1-.181-.985,2.7,2.7,0,0,1,.192-1.008,2.8,2.8,0,0,1,.53-.852,2.565,2.565,0,0,1,.8-.59,2.365,2.365,0,0,1,1.012-.217,2.238,2.238,0,0,1,1.026.233,2.563,2.563,0,0,1,.793.612,2.81,2.81,0,0,1,.51.855,2.75,2.75,0,0,1-.007,1.983,2.652,2.652,0,0,1-.53.847,2.591,2.591,0,0,1-.8.587,2.322,2.322,0,0,1-1,.217m-1.675-2.666a2.191,2.191,0,0,0,.119.719,1.946,1.946,0,0,0,.336.615,1.624,1.624,0,0,0,.53.425,1.5,1.5,0,0,0,.7.16,1.476,1.476,0,0,0,.708-.167,1.661,1.661,0,0,0,.521-.441,1.978,1.978,0,0,0,.327-.614,2.275,2.275,0,0,0-.007-1.421,1.941,1.941,0,0,0-.338-.606,1.692,1.692,0,0,0-.526-.423,1.587,1.587,0,0,0-1.4.007,1.692,1.692,0,0,0-.526.434,1.9,1.9,0,0,0-.329.612,2.2,2.2,0,0,0-.116.7M75.03,26.8V21.54h2.289a1.48,1.48,0,0,1,.656.148,1.666,1.666,0,0,1,.514.39,1.8,1.8,0,0,1,.338.548,1.677,1.677,0,0,1,.123.626,1.749,1.749,0,0,1-.075.512,1.832,1.832,0,0,1-.208.452,1.459,1.459,0,0,1-.325.359,1.332,1.332,0,0,1-.423.226l1.238,2h-.941l-1.14-1.83H75.858V26.8Zm.829-2.565h1.453a.672.672,0,0,0,.322-.076.8.8,0,0,0,.249-.215,1.1,1.1,0,0,0,.162-.315,1.158,1.158,0,0,0,.059-.379,1,1,0,0,0-.069-.379,1.076,1.076,0,0,0-.185-.309.846.846,0,0,0-.267-.212.687.687,0,0,0-.315-.078H75.858ZM84.351,26.8V23.015l-1.563,2.867h-.461l-1.57-2.867V26.8h-.829V21.54h.888l1.743,3.216L84.3,21.54h.889V26.8Zm3.571-5.261h.727L90.724,26.8h-.875l-.555-1.43H87.265l-.55,1.43h-.882l2.09-5.261Zm1.208,3.216L88.285,22.5l-.873,2.261Zm5.588-2.483H92.97V26.8h-.838V22.273H90.375V21.54h4.343Zm.7,4.528V21.54h.831V26.8Zm4.2.036a2.328,2.328,0,0,1-1.026-.224,2.588,2.588,0,0,1-.8-.6,2.691,2.691,0,0,1-.514-.856,2.776,2.776,0,0,1-.181-.985,2.7,2.7,0,0,1,.192-1.008,2.8,2.8,0,0,1,.53-.852,2.545,2.545,0,0,1,.8-.59A2.359,2.359,0,0,1,99.64,21.5a2.238,2.238,0,0,1,1.026.233,2.584,2.584,0,0,1,.793.612,2.811,2.811,0,0,1,.51.855,2.75,2.75,0,0,1-.007,1.983,2.652,2.652,0,0,1-.53.847,2.59,2.59,0,0,1-.8.587,2.324,2.324,0,0,1-1,.217M97.95,24.171a2.191,2.191,0,0,0,.119.719,1.946,1.946,0,0,0,.336.615,1.624,1.624,0,0,0,.53.425,1.5,1.5,0,0,0,.7.16,1.464,1.464,0,0,0,.706-.167,1.648,1.648,0,0,0,.523-.441,1.937,1.937,0,0,0,.325-.614,2.225,2.225,0,0,0,.112-.7,2.191,2.191,0,0,0-.119-.724,1.9,1.9,0,0,0-.336-.606,1.692,1.692,0,0,0-.526-.423,1.587,1.587,0,0,0-1.4.007,1.692,1.692,0,0,0-.526.434,1.935,1.935,0,0,0-.331.612,2.2,2.2,0,0,0-.114.7m5.891-1.074v3.7h-.831V21.54h.653l3.008,3.794V21.548h.839V26.8h-.69Z" fill="#323539"/>
        <path id="Path_4" data-name="Path 4" d="M26.083,34.378V29.172h2.184a1.45,1.45,0,0,1,.649.148,1.656,1.656,0,0,1,.509.384,1.8,1.8,0,0,1,.334.544,1.674,1.674,0,0,1,.121.619,1.791,1.791,0,0,1-.114.635,1.862,1.862,0,0,1-.318.542,1.593,1.593,0,0,1-.5.381,1.44,1.44,0,0,1-.64.142H26.9v1.811Zm.82-2.536H28.26a.7.7,0,0,0,.318-.073.719.719,0,0,0,.245-.206,1.011,1.011,0,0,0,.162-.308,1.223,1.223,0,0,0,.059-.388,1.152,1.152,0,0,0-.066-.4.932.932,0,0,0-.183-.3.84.84,0,0,0-.267-.2.749.749,0,0,0-.313-.069H26.9Zm3.813,2.536V29.172H32.98a1.444,1.444,0,0,1,.649.148,1.664,1.664,0,0,1,.51.384,1.827,1.827,0,0,1,.333.544,1.639,1.639,0,0,1,.121.619,1.737,1.737,0,0,1-.279.953,1.421,1.421,0,0,1-.322.354,1.286,1.286,0,0,1-.418.224l1.225,1.98h-.932l-1.129-1.811h-1.2v1.811Zm.82-2.536h1.437a.665.665,0,0,0,.32-.076.777.777,0,0,0,.245-.213,1.1,1.1,0,0,0,.16-.311,1.173,1.173,0,0,0,.059-.374,1,1,0,0,0-.069-.374,1.016,1.016,0,0,0-.183-.308.853.853,0,0,0-.263-.21.676.676,0,0,0-.311-.076H31.536Zm6.254,2.574a2.281,2.281,0,0,1-1.016-.224,2.523,2.523,0,0,1-.786-.594,2.66,2.66,0,0,1-.51-.847,2.756,2.756,0,0,1-.18-.975,2.683,2.683,0,0,1,.19-1,2.789,2.789,0,0,1,.523-.843,2.53,2.53,0,0,1,.793-.582,2.292,2.292,0,0,1,1-.217,2.22,2.22,0,0,1,1.016.231,2.573,2.573,0,0,1,.783.6,2.744,2.744,0,0,1,.507.847,2.718,2.718,0,0,1-.007,1.962,2.625,2.625,0,0,1-.525.839,2.584,2.584,0,0,1-.8.578,2.3,2.3,0,0,1-.994.217m-1.656-2.639a2.241,2.241,0,0,0,.116.711,1.978,1.978,0,0,0,.334.608,1.616,1.616,0,0,0,.525.422,1.493,1.493,0,0,0,.69.157,1.439,1.439,0,0,0,.7-.164,1.676,1.676,0,0,0,.518-.436,2,2,0,0,0,.322-.608,2.231,2.231,0,0,0,.11-.69,2.184,2.184,0,0,0-.117-.715,1.886,1.886,0,0,0-.334-.6,1.673,1.673,0,0,0-.519-.418,1.453,1.453,0,0,0-.678-.158,1.481,1.481,0,0,0-.7.165,1.676,1.676,0,0,0-.521.429,1.907,1.907,0,0,0-.325.6,2.164,2.164,0,0,0-.114.694m4.743-.036a2.688,2.688,0,0,1,.169-.936,2.55,2.55,0,0,1,.494-.836,2.477,2.477,0,0,1,.8-.6,2.413,2.413,0,0,1,1.064-.228,2.26,2.26,0,0,1,1.217.315,2.063,2.063,0,0,1,.763.822l-.646.432a1.471,1.471,0,0,0-.263-.395,1.292,1.292,0,0,0-.34-.258,1.45,1.45,0,0,0-.381-.135,1.914,1.914,0,0,0-.381-.041,1.514,1.514,0,0,0-.719.165,1.636,1.636,0,0,0-.518.436,1.968,1.968,0,0,0-.315.61,2.276,2.276,0,0,0-.1.674,2.1,2.1,0,0,0,.125.726,1.935,1.935,0,0,0,.347.608,1.722,1.722,0,0,0,.532.422,1.464,1.464,0,0,0,.674.158,1.7,1.7,0,0,0,.393-.048,1.473,1.473,0,0,0,.388-.155,1.535,1.535,0,0,0,.345-.267,1.3,1.3,0,0,0,.26-.39l.683.39a1.611,1.611,0,0,1-.352.518,2.3,2.3,0,0,1-.512.377,2.7,2.7,0,0,1-.606.235,2.561,2.561,0,0,1-.626.08,2.162,2.162,0,0,1-1-.235,2.67,2.67,0,0,1-.784-.612,2.812,2.812,0,0,1-.512-.859,2.7,2.7,0,0,1-.183-.976m8.98,1.912v.726H46.286V29.172h3.506V29.9H47.108v1.48h2.325v.683H47.108v1.59ZM53.744,30.4a1.25,1.25,0,0,0-.213-.173,2.067,2.067,0,0,0-.327-.173,2.348,2.348,0,0,0-.409-.132,2.074,2.074,0,0,0-.459-.052,1.255,1.255,0,0,0-.767.19.634.634,0,0,0-.245.528.55.55,0,0,0,.078.311.641.641,0,0,0,.238.213,1.884,1.884,0,0,0,.4.162q.243.069.566.149a6.649,6.649,0,0,1,.715.213,2.036,2.036,0,0,1,.537.285,1.162,1.162,0,0,1,.341.414,1.326,1.326,0,0,1,.121.6,1.466,1.466,0,0,1-.149.683,1.294,1.294,0,0,1-.411.464,1.849,1.849,0,0,1-.6.265,3.168,3.168,0,0,1-.742.084,3.667,3.667,0,0,1-1.147-.18,3.274,3.274,0,0,1-1-.525l.374-.7a1.811,1.811,0,0,0,.276.212,2.521,2.521,0,0,0,.416.217,3.756,3.756,0,0,0,.518.169,2.386,2.386,0,0,0,.58.069,1.391,1.391,0,0,0,.747-.169.551.551,0,0,0,.263-.5.537.537,0,0,0-.1-.331.853.853,0,0,0-.283-.231,2.447,2.447,0,0,0-.446-.18c-.176-.053-.377-.11-.6-.169a5.953,5.953,0,0,1-.679-.215,1.683,1.683,0,0,1-.478-.276,1.059,1.059,0,0,1-.29-.377,1.255,1.255,0,0,1-.1-.525,1.506,1.506,0,0,1,.146-.678,1.442,1.442,0,0,1,.4-.5,1.725,1.725,0,0,1,.6-.3,2.575,2.575,0,0,1,.749-.1,2.75,2.75,0,0,1,.975.169,3.219,3.219,0,0,1,.784.418l-.374.674m4.544,0a1.162,1.162,0,0,0-.212-.173,2.148,2.148,0,0,0-.327-.173,2.368,2.368,0,0,0-.411-.132,2.058,2.058,0,0,0-.457-.052,1.252,1.252,0,0,0-.767.19.634.634,0,0,0-.245.528.564.564,0,0,0,.076.311.655.655,0,0,0,.238.213,1.865,1.865,0,0,0,.4.162c.162.046.349.1.564.149a6.413,6.413,0,0,1,.715.213,2.021,2.021,0,0,1,.539.285,1.181,1.181,0,0,1,.341.414,1.351,1.351,0,0,1,.121.6,1.444,1.444,0,0,1-.151.683,1.262,1.262,0,0,1-.411.464,1.833,1.833,0,0,1-.6.265,3.163,3.163,0,0,1-.74.084,3.659,3.659,0,0,1-1.147-.18,3.3,3.3,0,0,1-1-.525l.375-.7a1.783,1.783,0,0,0,.274.212,2.543,2.543,0,0,0,.418.217,3.679,3.679,0,0,0,.518.169,2.382,2.382,0,0,0,.578.069,1.4,1.4,0,0,0,.749-.169.555.555,0,0,0,.263-.5.526.526,0,0,0-.1-.331.864.864,0,0,0-.281-.231,2.468,2.468,0,0,0-.448-.18c-.174-.053-.375-.11-.6-.169a5.916,5.916,0,0,1-.678-.215,1.7,1.7,0,0,1-.48-.276,1.059,1.059,0,0,1-.29-.377,1.256,1.256,0,0,1-.1-.525,1.506,1.506,0,0,1,.146-.678,1.441,1.441,0,0,1,.4-.5,1.709,1.709,0,0,1,.6-.3,2.571,2.571,0,0,1,.747-.1,2.743,2.743,0,0,1,.975.169,3.155,3.155,0,0,1,.784.418l-.374.674m1.466,3.98V29.172h.822v5.206Zm2.881-3.666v3.666h-.82V29.172h.644l2.977,3.755V29.181h.829v5.2h-.683Zm8.512,3.02a2.053,2.053,0,0,1-1.517.683,2.186,2.186,0,0,1-.968-.217,2.512,2.512,0,0,1-.779-.582,2.812,2.812,0,0,1-.516-2.867,2.673,2.673,0,0,1,.516-.836,2.414,2.414,0,0,1,.786-.567,2.321,2.321,0,0,1,.989-.21,2.346,2.346,0,0,1,1.254.311,2.038,2.038,0,0,1,.763.825l-.631.454a1.457,1.457,0,0,0-.585-.637,1.635,1.635,0,0,0-.822-.212,1.413,1.413,0,0,0-.667.157,1.627,1.627,0,0,0-.514.418,1.9,1.9,0,0,0-.325.6,2.259,2.259,0,0,0-.114.719,2.107,2.107,0,0,0,.128.74,1.92,1.92,0,0,0,.352.6,1.659,1.659,0,0,0,.532.407,1.5,1.5,0,0,0,.667.149,1.668,1.668,0,0,0,.758-.181,2.257,2.257,0,0,0,.694-.58v-.557H70.055v-.61h1.782v2.632h-.69ZM77.73,30.4a1.162,1.162,0,0,0-.212-.173,2.067,2.067,0,0,0-.327-.173,2.4,2.4,0,0,0-.409-.132,2.074,2.074,0,0,0-.459-.052,1.255,1.255,0,0,0-.767.19.634.634,0,0,0-.245.528.58.58,0,0,0,.076.311.655.655,0,0,0,.238.213,1.9,1.9,0,0,0,.4.162q.243.069.566.149a6.649,6.649,0,0,1,.715.213,2.036,2.036,0,0,1,.537.285,1.162,1.162,0,0,1,.341.414,1.326,1.326,0,0,1,.121.6,1.444,1.444,0,0,1-.151.683,1.273,1.273,0,0,1-.409.464,1.849,1.849,0,0,1-.6.265,3.168,3.168,0,0,1-.742.084,3.667,3.667,0,0,1-1.147-.18,3.275,3.275,0,0,1-1-.525l.374-.7a1.876,1.876,0,0,0,.274.212,2.616,2.616,0,0,0,.418.217,3.756,3.756,0,0,0,.518.169,2.386,2.386,0,0,0,.58.069,1.391,1.391,0,0,0,.747-.169.551.551,0,0,0,.263-.5.537.537,0,0,0-.1-.331.853.853,0,0,0-.283-.231,2.447,2.447,0,0,0-.446-.18c-.176-.053-.377-.11-.6-.169a6.031,6.031,0,0,1-.678-.215,1.683,1.683,0,0,1-.478-.276,1.059,1.059,0,0,1-.29-.377,1.255,1.255,0,0,1-.1-.525,1.507,1.507,0,0,1,.146-.678,1.442,1.442,0,0,1,.4-.5,1.725,1.725,0,0,1,.6-.3,2.571,2.571,0,0,1,.747-.1,2.76,2.76,0,0,1,.976.169,3.174,3.174,0,0,1,.783.418l-.374.674m1.738-1.225L80.9,31.783l1.451-2.611h.9l-1.942,3.344v1.862h-.822V32.5l-1.928-3.33ZM86.909,30.4a1.162,1.162,0,0,0-.212-.173,2.236,2.236,0,0,0-.327-.173,2.368,2.368,0,0,0-.411-.132,2.058,2.058,0,0,0-.457-.052,1.252,1.252,0,0,0-.767.19.634.634,0,0,0-.245.528.564.564,0,0,0,.076.311.655.655,0,0,0,.238.213,1.865,1.865,0,0,0,.4.162c.16.046.349.1.564.149a6.414,6.414,0,0,1,.715.213,2.049,2.049,0,0,1,.539.285,1.181,1.181,0,0,1,.341.414,1.35,1.35,0,0,1,.121.6,1.466,1.466,0,0,1-.151.683,1.262,1.262,0,0,1-.411.464,1.833,1.833,0,0,1-.6.265,3.163,3.163,0,0,1-.74.084,3.651,3.651,0,0,1-1.147-.18,3.3,3.3,0,0,1-1-.525l.373-.7a1.906,1.906,0,0,0,.276.212,2.543,2.543,0,0,0,.418.217,3.6,3.6,0,0,0,.518.169,2.382,2.382,0,0,0,.578.069,1.4,1.4,0,0,0,.749-.169.551.551,0,0,0,.263-.5.538.538,0,0,0-.1-.331.845.845,0,0,0-.281-.231,2.469,2.469,0,0,0-.448-.18c-.176-.053-.375-.11-.6-.169A5.916,5.916,0,0,1,84.5,31.9a1.67,1.67,0,0,1-.48-.276,1.08,1.08,0,0,1-.29-.377,1.256,1.256,0,0,1-.1-.525,1.507,1.507,0,0,1,.146-.678,1.457,1.457,0,0,1,.4-.5,1.725,1.725,0,0,1,.6-.3,2.592,2.592,0,0,1,.749-.1,2.743,2.743,0,0,1,.975.169,3.155,3.155,0,0,1,.784.418l-.374.674m5.249-.5H90.429v4.478H89.6V29.9H87.862v-.727h4.3Zm4.333,3.753v.726h-3.57V29.172h3.5V29.9H93.742v1.48h2.325v.683H93.742v1.59Zm5.293.726V30.633l-1.546,2.837h-.455l-1.554-2.837v3.746h-.82V29.172h.879l1.723,3.184,1.723-3.184h.879v5.206Zm5.147-3.98a1.25,1.25,0,0,0-.213-.173,2.124,2.124,0,0,0-.325-.173,2.368,2.368,0,0,0-.411-.132,2.07,2.07,0,0,0-.457-.052,1.252,1.252,0,0,0-.767.19.634.634,0,0,0-.245.528.564.564,0,0,0,.076.311.641.641,0,0,0,.238.213,1.865,1.865,0,0,0,.4.162c.16.046.349.1.564.149a6.649,6.649,0,0,1,.715.213,2.077,2.077,0,0,1,.539.285,1.2,1.2,0,0,1,.341.414,1.351,1.351,0,0,1,.121.6,1.466,1.466,0,0,1-.151.683,1.262,1.262,0,0,1-.411.464,1.849,1.849,0,0,1-.6.265,3.164,3.164,0,0,1-.74.084,3.651,3.651,0,0,1-1.147-.18,3.284,3.284,0,0,1-1-.525l.373-.7a1.908,1.908,0,0,0,.276.212,2.543,2.543,0,0,0,.418.217,3.653,3.653,0,0,0,.516.169,2.4,2.4,0,0,0,.58.069,1.387,1.387,0,0,0,.747-.169.552.552,0,0,0,.265-.5.538.538,0,0,0-.1-.331.853.853,0,0,0-.283-.231,2.4,2.4,0,0,0-.446-.18c-.176-.053-.375-.11-.6-.169a5.8,5.8,0,0,1-.678-.215,1.67,1.67,0,0,1-.48-.276,1.059,1.059,0,0,1-.29-.377,1.255,1.255,0,0,1-.1-.525,1.507,1.507,0,0,1,.148-.678,1.457,1.457,0,0,1,.4-.5,1.725,1.725,0,0,1,.6-.3,2.592,2.592,0,0,1,.749-.1,2.75,2.75,0,0,1,.975.169,3.155,3.155,0,0,1,.784.418l-.373.674" fill="#323539"/>
      </g>
    </g>
  </g>
</svg>
