<svg width="720" height="720" viewBox="0 0 720 720" fill="none" xmlns="http://www.w3.org/2000/svg">
<rect width="720" height="720" fill="#01396C"/>
<rect x="81" y="216.775" width="2.11182" height="433.714" fill="#878787" fill-opacity="0.1"/>
<rect x="199.262" y="216.775" width="2.11182" height="433.714" fill="#878787" fill-opacity="0.1"/>
<rect x="317.523" y="216.775" width="2.11182" height="433.714" fill="#878787" fill-opacity="0.1"/>
<rect x="435.785" y="216.775" width="2.11182" height="433.714" fill="#878787" fill-opacity="0.1"/>
<rect x="554.047" y="216.775" width="2.11182" height="433.714" fill="#878787" fill-opacity="0.1"/>
<rect x="120.421" y="216.775" width="2.11182" height="433.714" fill="#878787" fill-opacity="0.1"/>
<rect x="238.682" y="216.775" width="2.11182" height="433.714" fill="#878787" fill-opacity="0.1"/>
<rect x="356.944" y="216.775" width="2.11182" height="433.714" fill="#878787" fill-opacity="0.1"/>
<rect x="475.206" y="216.775" width="2.11182" height="433.714" fill="#878787" fill-opacity="0.1"/>
<rect x="593.468" y="216.775" width="2.11182" height="433.714" fill="#878787" fill-opacity="0.1"/>
<rect x="159.841" y="216.775" width="2.11182" height="433.714" fill="#878787" fill-opacity="0.1"/>
<rect x="278.103" y="216.775" width="2.11182" height="433.714" fill="#878787" fill-opacity="0.1"/>
<rect x="396.365" y="216.775" width="2.11182" height="433.714" fill="#878787" fill-opacity="0.1"/>
<rect x="514.626" y="216.775" width="2.11182" height="433.714" fill="#878787" fill-opacity="0.1"/>
<rect x="632.888" y="216.775" width="2.11182" height="433.714" fill="#878787" fill-opacity="0.1"/>
<g filter="url(#filter0_if_1153_479)">
<rect x="85" y="252" width="7" height="406" fill="#D9D9D9"/>
</g>
<rect x="81" y="238" width="4" height="382" fill="white" fill-opacity="0.8"/>
<g filter="url(#filter1_d_1153_479)">
<path d="M442.326 293.994C444.426 292.006 447.086 291.012 450.306 291.012C453.526 291.012 456.186 292.006 458.286 293.994C460.414 295.982 461.478 298.46 461.478 301.428C461.478 303.388 460.75 305.516 459.294 307.812L450.768 321H444.3L450.348 311.592H449.508C446.456 311.452 443.964 310.43 442.032 308.526C440.128 306.622 439.176 304.256 439.176 301.428C439.176 298.46 440.226 295.982 442.326 293.994ZM446.358 305.124C447.366 306.104 448.682 306.594 450.306 306.594C451.93 306.594 453.246 306.104 454.254 305.124C455.262 304.116 455.766 302.884 455.766 301.428C455.766 299.916 455.262 298.67 454.254 297.69C453.246 296.682 451.93 296.178 450.306 296.178C448.682 296.178 447.366 296.682 446.358 297.69C445.378 298.67 444.888 299.916 444.888 301.428C444.888 302.912 445.378 304.144 446.358 305.124ZM463.104 321.336C462.124 321.336 461.298 321 460.626 320.328C459.982 319.656 459.66 318.844 459.66 317.892C459.66 316.996 459.996 316.226 460.668 315.582C461.34 314.938 462.152 314.616 463.104 314.616C464.056 314.616 464.854 314.938 465.498 315.582C466.17 316.226 466.506 316.996 466.506 317.892C466.506 318.844 466.17 319.656 465.498 320.328C464.854 321 464.056 321.336 463.104 321.336ZM487.545 304.998C490.933 306.51 492.627 309.016 492.627 312.516C492.627 315.092 491.577 317.248 489.477 318.984C487.377 320.72 484.633 321.588 481.245 321.588C477.857 321.588 475.113 320.734 473.013 319.026C470.913 317.29 469.863 315.12 469.863 312.516C469.863 308.988 471.557 306.482 474.945 304.998C472.397 303.71 471.123 301.666 471.123 298.866C471.123 296.654 472.047 294.792 473.895 293.28C475.743 291.768 478.193 291.012 481.245 291.012C484.269 291.012 486.705 291.768 488.553 293.28C490.429 294.792 491.367 296.654 491.367 298.866C491.367 301.666 490.093 303.71 487.545 304.998ZM481.245 295.59C479.845 295.59 478.739 295.954 477.927 296.682C477.115 297.41 476.709 298.306 476.709 299.37C476.709 300.434 477.115 301.33 477.927 302.058C478.739 302.786 479.845 303.15 481.245 303.15C482.617 303.15 483.709 302.786 484.521 302.058C485.361 301.33 485.781 300.434 485.781 299.37C485.781 298.306 485.361 297.41 484.521 296.682C483.709 295.954 482.617 295.59 481.245 295.59ZM477.171 315.414C478.179 316.282 479.537 316.716 481.245 316.716C482.953 316.716 484.311 316.282 485.319 315.414C486.327 314.518 486.831 313.398 486.831 312.054C486.831 310.71 486.327 309.604 485.319 308.736C484.311 307.84 482.953 307.392 481.245 307.392C479.509 307.392 478.137 307.826 477.129 308.694C476.149 309.562 475.659 310.682 475.659 312.054C475.659 313.398 476.163 314.518 477.171 315.414ZM516.915 321H510.573L505.575 314.238L500.577 321H494.277L502.215 310.248L494.613 299.748H500.913L505.575 306.174L510.279 299.748H516.537L508.977 310.248L516.915 321Z" fill="white"/>
</g>
<g filter="url(#filter2_d_1153_479)">
<path d="M537.66 406.6H542.574V436H536.736V413.026L530.142 416.092L528.756 411.178L537.66 406.6ZM556.215 430.792H568.689V436H547.437V432.052L558.903 421.258C560.135 420.11 561.045 419.116 561.633 418.276C562.221 417.436 562.515 416.526 562.515 415.546C562.515 414.202 562.109 413.138 561.297 412.354C560.485 411.57 559.351 411.178 557.895 411.178C556.551 411.178 555.389 411.626 554.409 412.522C553.457 413.39 552.827 414.552 552.519 416.008L547.353 414.538C547.661 412.214 548.767 410.212 550.671 408.532C552.603 406.852 554.969 406.012 557.769 406.012C560.905 406.012 563.425 406.824 565.329 408.448C567.261 410.072 568.227 412.34 568.227 415.252C568.227 416.988 567.793 418.57 566.925 419.998C566.057 421.398 564.699 422.952 562.851 424.66L556.215 430.792ZM576.236 436.336C575.256 436.336 574.43 436 573.758 435.328C573.114 434.656 572.792 433.844 572.792 432.892C572.792 431.996 573.128 431.226 573.8 430.582C574.472 429.938 575.284 429.616 576.236 429.616C577.188 429.616 577.986 429.938 578.63 430.582C579.302 431.226 579.638 431.996 579.638 432.892C579.638 433.844 579.302 434.656 578.63 435.328C577.986 436 577.188 436.336 576.236 436.336ZM595.091 416.848C597.919 416.848 600.257 417.772 602.105 419.62C603.953 421.468 604.877 423.778 604.877 426.55C604.877 429.378 603.869 431.758 601.853 433.69C599.837 435.622 597.303 436.588 594.251 436.588C591.171 436.588 588.679 435.818 586.775 434.278C584.871 432.71 583.597 430.778 582.953 428.482L588.119 427.054C588.567 428.37 589.295 429.448 590.303 430.288C591.339 431.128 592.543 431.548 593.915 431.548C595.567 431.548 596.883 431.072 597.863 430.12C598.843 429.14 599.333 427.922 599.333 426.466C599.333 425.01 598.843 423.806 597.863 422.854C596.911 421.902 595.581 421.426 593.873 421.426C591.885 421.426 590.149 421.986 588.665 423.106L584.129 421.72L585.389 406.6H603.491V411.766H590.513L590.051 417.856C591.535 417.184 593.215 416.848 595.091 416.848ZM628.859 436H622.517L617.519 429.238L612.521 436H606.221L614.159 425.248L606.557 414.748H612.857L617.519 421.174L622.223 414.748H628.481L620.921 425.248L628.859 436Z" fill="white"/>
</g>
<rect x="84.3049" y="274.979" width="334.891" height="59.2997" fill="#D9D9D9"/>
<g filter="url(#filter3_if_1153_479)">
<path d="M410.338 326.412V283.562L158.449 289.367L83.9282 279.271L424.847 274.979L421.724 331.015L162.752 326.412H410.338Z" fill="#7D4E4E" fill-opacity="0.02"/>
</g>
<g filter="url(#filter4_if_1153_479)">
<path d="M422.761 280.652L288.985 276.316L422.963 274.979L422.761 280.652L421.03 329.092L420.845 334.279L179.988 329.092H421.03L422.761 280.652Z" fill="#607D4E" fill-opacity="0.02"/>
</g>
<g filter="url(#filter5_if_1153_479)">
<path d="M417.689 278.788H354.403L411.007 285.603L417.689 327.751V278.788Z" fill="#446EDA" fill-opacity="0.1"/>
</g>
<rect x="84.4087" y="387.648" width="427.159" height="59.2997" fill="#D9D9D9"/>
<g filter="url(#filter6_if_1153_479)">
<path d="M500.269 439.081V396.23L178.981 402.036L83.9282 391.939L518.776 387.648L514.792 443.684L184.47 439.081H500.269Z" fill="#7D4E4E" fill-opacity="0.02"/>
</g>
<g filter="url(#filter7_if_1153_479)">
<path d="M516.115 393.321L345.481 388.985L516.373 387.648L516.115 393.321L513.908 441.761L513.671 446.948L206.455 441.761H513.908L516.115 393.321Z" fill="#607D4E" fill-opacity="0.02"/>
</g>
<g filter="url(#filter8_if_1153_479)">
<path d="M509.646 391.457H428.923L501.123 398.271L509.646 440.42V391.457Z" fill="#446EDA" fill-opacity="0.1"/>
</g>
<g filter="url(#filter9_d_1153_479)">
<path d="M569.66 516.6H574.574V546H568.736V523.026L562.142 526.092L560.756 521.178L569.66 516.6ZM593.675 527.772C595.999 528.136 597.861 529.102 599.261 530.67C600.689 532.21 601.403 534.198 601.403 536.634C601.403 539.434 600.381 541.8 598.337 543.732C596.321 545.636 593.787 546.588 590.735 546.588C587.403 546.588 584.757 545.72 582.797 543.984C580.837 542.248 579.633 540.148 579.185 537.684L584.351 536.214C584.603 537.698 585.289 538.958 586.409 539.994C587.529 541.03 588.873 541.548 590.441 541.548C592.093 541.548 593.395 541.072 594.347 540.12C595.327 539.14 595.817 537.978 595.817 536.634C595.817 535.262 595.369 534.128 594.473 533.232C593.577 532.308 592.345 531.846 590.777 531.846C589.601 531.846 588.593 532.084 587.753 532.56L586.787 529.158L592.751 521.766H580.109V516.6H600.311V520.464L593.675 527.772ZM608.031 546.336C607.051 546.336 606.225 546 605.553 545.328C604.909 544.656 604.587 543.844 604.587 542.892C604.587 541.996 604.923 541.226 605.595 540.582C606.267 539.938 607.079 539.616 608.031 539.616C608.983 539.616 609.781 539.938 610.425 540.582C611.097 541.226 611.433 541.996 611.433 542.892C611.433 543.844 611.097 544.656 610.425 545.328C609.781 546 608.983 546.336 608.031 546.336ZM638.184 535.206V540.288H634.53V546H628.776V540.288H614.58V536.088L624.702 516.6H630.918L621.342 535.206H628.776V529.2H634.53V535.206H638.184ZM661.884 546H655.542L650.544 539.238L645.546 546H639.246L647.184 535.248L639.582 524.748H645.882L650.544 531.174L655.248 524.748H661.506L653.946 535.248L661.884 546Z" fill="white"/>
</g>
<rect x="84.4434" y="500.129" width="457.915" height="59.2997" fill="#D9D9D9"/>
<g filter="url(#filter10_if_1153_479)">
<path d="M530.246 551.562V508.711L185.825 514.516L83.9282 504.42L550.085 500.129L545.814 556.164L191.709 551.562H530.246Z" fill="#7D4E4E" fill-opacity="0.02"/>
</g>
<g filter="url(#filter11_if_1153_479)">
<path d="M547.232 505.801L364.313 501.466L547.509 500.129L547.232 505.801L544.866 554.241L544.613 559.429L215.276 554.241H544.866L547.232 505.801Z" fill="#607D4E" fill-opacity="0.02"/>
</g>
<g filter="url(#filter12_if_1153_479)">
<path d="M540.298 503.938H453.763L531.161 510.752L540.298 552.901V503.938Z" fill="#446EDA" fill-opacity="0.1"/>
</g>
<path d="M98.7245 67.0506H105.972L93.0791 100.649H85.8791L72.2765 67.0506H79.5245L89.3909 92.2972L98.7245 67.0506ZM116.358 101.321C112.966 101.321 110.105 100.105 107.776 97.6729C105.446 95.209 104.262 92.1532 104.223 88.5054C104.184 84.8256 105.304 81.7697 107.582 79.3379C109.861 76.906 112.696 75.6901 116.088 75.6901C119.416 75.6901 122.036 76.89 123.95 79.2899L123.919 76.362H130.303L130.559 100.649H124.175L124.144 97.6729C122.281 100.105 119.686 101.321 116.358 101.321ZM117.402 95.657C119.354 95.657 120.979 94.985 122.277 93.6411C123.607 92.2652 124.26 90.5373 124.239 88.4574C124.217 86.4095 123.527 84.7136 122.169 83.3697C120.843 82.0257 119.204 81.3538 117.252 81.3538C115.268 81.3538 113.643 82.0257 112.377 83.3697C111.111 84.6816 110.489 86.3775 110.511 88.4574C110.533 90.5693 111.191 92.2972 112.485 93.6411C113.779 94.985 115.418 95.657 117.402 95.657ZM150.673 75.6901C153.777 75.6901 156.155 76.65 157.808 78.5699C159.46 80.4898 160.304 83.1137 160.339 86.4415L160.489 100.649H154.153L154.015 87.6414C153.995 85.7535 153.532 84.2816 152.625 83.2257C151.749 82.1377 150.464 81.5938 148.768 81.5938C147.008 81.5938 145.59 82.2337 144.516 83.5136C143.473 84.7936 142.963 86.5055 142.986 88.6494L143.113 100.649H136.777L136.52 76.362H142.856L142.889 79.4339C144.814 76.938 147.409 75.6901 150.673 75.6901ZM172.096 71.8983C171.367 72.6023 170.475 72.9542 169.419 72.9542C168.363 72.9542 167.463 72.6023 166.72 71.8983C165.976 71.1623 165.599 70.2664 165.588 69.2104C165.577 68.1865 165.936 67.3225 166.664 66.6186C167.393 65.9146 168.285 65.5626 169.341 65.5626C170.397 65.5626 171.297 65.9146 172.04 66.6186C172.784 67.3225 173.161 68.1865 173.172 69.2104C173.183 70.2664 172.824 71.1623 172.096 71.8983ZM166.447 100.649L166.191 76.362H172.575L172.831 100.649H166.447ZM179.152 100.649L178.782 65.6106H185.118L185.488 100.649H179.152ZM191.714 100.649L191.344 65.6106H197.68L198.05 100.649H191.714ZM214.796 101.321C211.404 101.321 208.543 100.105 206.213 97.6729C203.883 95.209 202.699 92.1532 202.661 88.5054C202.622 84.8256 203.741 81.7697 206.02 79.3379C208.298 76.906 211.133 75.6901 214.525 75.6901C217.853 75.6901 220.474 76.89 222.387 79.2899L222.356 76.362H228.74L228.997 100.649H222.613L222.581 97.6729C220.719 100.105 218.124 101.321 214.796 101.321ZM215.84 95.657C217.792 95.657 219.417 94.985 220.715 93.6411C222.044 92.2652 222.698 90.5373 222.676 88.4574C222.654 86.4095 221.965 84.7136 220.606 83.3697C219.28 82.0257 217.641 81.3538 215.689 81.3538C213.705 81.3538 212.08 82.0257 210.814 83.3697C209.548 84.6816 208.926 86.3775 208.948 88.4574C208.97 90.5693 209.629 92.2972 210.923 93.6411C212.217 94.985 213.856 95.657 215.84 95.657ZM257.18 67.0506H263.756L264.11 100.649H258.686L241.56 78.8099L241.79 100.649H235.214L234.86 67.0506H240.284L257.41 88.8414L257.18 67.0506ZM282.09 101.321C278.186 101.321 274.989 100.153 272.501 97.8169C270.044 95.449 268.795 92.3452 268.754 88.5054C268.715 84.8256 269.851 81.7697 272.162 79.3379C274.504 76.906 277.563 75.6901 281.339 75.6901C285.211 75.6901 288.28 76.874 290.545 79.2419C292.81 81.6098 293.961 84.5856 293.999 88.1694C294.009 89.1613 293.969 89.9133 293.879 90.4253H275.015C275.256 92.0892 275.974 93.4331 277.169 94.457C278.364 95.449 280.017 95.945 282.129 95.945C284.945 95.945 286.901 94.873 287.999 92.7291L293.729 94.409C292.948 96.2329 291.541 97.8489 289.508 99.2568C287.506 100.633 285.034 101.321 282.09 101.321ZM274.972 86.4415H287.788C287.612 84.9056 286.943 83.6256 285.78 82.6017C284.649 81.5778 283.172 81.0658 281.348 81.0658C279.588 81.0658 278.121 81.5938 276.948 82.6497C275.808 83.7056 275.149 84.9696 274.972 86.4415ZM312.024 94.745L313.614 99.8807C311.702 100.649 309.818 101.033 307.962 101.033C305.274 101.033 303.234 100.265 301.842 98.7288C300.482 97.1929 299.787 95.065 299.759 92.3452L299.649 81.9297H295.569L295.51 76.362H299.59L299.507 68.4905H305.891L305.974 76.362H313.078L313.137 81.9297H306.033L306.143 92.3452C306.164 94.393 307.167 95.417 309.151 95.417C310.175 95.417 311.133 95.193 312.024 94.745ZM83.5649 156.542H78.9209C76.1128 151.982 74.6771 146.702 74.6138 140.702C74.5502 134.679 75.8745 129.399 78.5866 124.863H83.2306C80.519 129.447 79.1947 134.727 79.2578 140.702C79.3203 146.63 80.756 151.91 83.5649 156.542ZM86.4138 151.646L86.1478 126.447H91.1518L91.4178 151.646H86.4138ZM117.664 132.927C119.872 132.927 121.632 133.623 122.942 135.015C124.253 136.383 124.921 138.315 124.947 140.81L125.062 151.646H120.31L120.206 141.818C120.175 138.843 118.995 137.355 116.667 137.355C115.419 137.355 114.464 137.799 113.801 138.687C113.162 139.551 112.851 140.774 112.868 142.358L112.966 151.646H108.178L108.074 141.818C108.043 138.843 106.887 137.355 104.607 137.355C103.335 137.355 102.368 137.811 101.705 138.723C101.043 139.611 100.72 140.87 100.737 142.502L100.834 151.646H96.0817L95.8895 133.431H100.642L100.664 135.591C102.014 133.815 103.804 132.927 106.036 132.927C108.508 132.927 110.342 133.839 111.537 135.663C112.958 133.839 115 132.927 117.664 132.927ZM137.44 152.15C134.896 152.15 132.75 151.238 131.003 149.414C129.255 147.566 128.367 145.274 128.338 142.538C128.309 139.779 129.149 137.487 130.858 135.663C132.567 133.839 134.693 132.927 137.237 132.927C139.733 132.927 141.698 133.827 143.133 135.627L143.11 133.431H147.898L148.09 151.646H143.302L143.279 149.414C141.882 151.238 139.936 152.15 137.44 152.15ZM138.223 147.902C139.687 147.902 140.906 147.398 141.879 146.39C142.876 145.358 143.366 144.062 143.35 142.502C143.334 140.966 142.816 139.695 141.798 138.687C140.803 137.679 139.574 137.175 138.11 137.175C136.622 137.175 135.403 137.679 134.454 138.687C133.504 139.671 133.038 140.942 133.054 142.502C133.071 144.086 133.564 145.382 134.535 146.39C135.506 147.398 136.735 147.902 138.223 147.902ZM166.205 133.431H170.957L171.143 150.998C171.17 153.566 170.328 155.654 168.617 157.262C166.906 158.893 164.647 159.709 161.839 159.709C157.735 159.709 154.79 158.114 153.004 154.922L157.129 153.446C158.129 155.006 159.721 155.786 161.905 155.786C163.345 155.786 164.445 155.342 165.203 154.454C165.986 153.566 166.382 152.414 166.391 150.998L166.368 148.802C164.97 150.554 163.059 151.43 160.635 151.43C158.043 151.43 155.886 150.542 154.163 148.766C152.44 146.99 151.565 144.794 151.538 142.178C151.509 139.467 152.326 137.247 153.987 135.519C155.673 133.791 157.824 132.927 160.44 132.927C162.864 132.927 164.793 133.803 166.228 135.555L166.205 133.431ZM161.418 147.146C162.882 147.146 164.077 146.69 165.004 145.778C165.954 144.842 166.421 143.642 166.406 142.178C166.39 140.714 165.898 139.527 164.928 138.615C163.982 137.679 162.777 137.211 161.313 137.211C159.801 137.211 158.57 137.679 157.62 138.615C156.694 139.527 156.238 140.714 156.254 142.178C156.269 143.642 156.75 144.842 157.696 145.778C158.665 146.69 159.906 147.146 161.418 147.146ZM184.605 152.15C181.677 152.15 179.28 151.274 177.414 149.522C175.571 147.746 174.634 145.418 174.604 142.538C174.575 139.779 175.427 137.487 177.159 135.663C178.916 133.839 181.211 132.927 184.043 132.927C186.947 132.927 189.248 133.815 190.947 135.591C192.645 137.367 193.509 139.599 193.537 142.286C193.545 143.03 193.515 143.594 193.447 143.978H179.299C179.48 145.226 180.019 146.234 180.915 147.002C181.811 147.746 183.051 148.118 184.635 148.118C186.747 148.118 188.214 147.314 189.037 145.706L193.335 146.966C192.749 148.334 191.694 149.546 190.169 150.602C188.668 151.634 186.813 152.15 184.605 152.15ZM179.268 140.99H188.88C188.748 139.839 188.245 138.879 187.373 138.111C186.525 137.343 185.417 136.959 184.049 136.959C182.729 136.959 181.629 137.355 180.75 138.147C179.894 138.939 179.4 139.887 179.268 140.99ZM218.295 152.15C214.503 152.15 211.334 150.902 208.787 148.406C206.241 145.886 204.948 142.754 204.908 139.011C204.869 135.291 206.084 132.183 208.554 129.687C211.048 127.191 214.166 125.943 217.91 125.943C221.102 125.943 223.775 126.759 225.928 128.391C228.105 129.999 229.529 131.907 230.201 134.115L225.389 135.303C224.943 133.983 224.055 132.867 222.726 131.955C221.396 131.043 219.819 130.587 217.995 130.587C215.571 130.587 213.612 131.403 212.117 133.035C210.646 134.667 209.923 136.647 209.948 138.975C209.973 141.326 210.75 143.342 212.28 145.022C213.809 146.678 215.774 147.506 218.174 147.506C219.998 147.506 221.565 147.062 222.876 146.174C224.186 145.262 225.051 144.146 225.469 142.826L230.269 144.05C229.669 146.258 228.297 148.166 226.154 149.774C224.035 151.358 221.415 152.15 218.295 152.15ZM234 151.646L233.722 125.367H238.474L238.752 151.646H234ZM251.311 152.15C248.767 152.15 246.621 151.238 244.874 149.414C243.127 147.566 242.238 145.274 242.209 142.538C242.18 139.779 243.02 137.487 244.729 135.663C246.438 133.839 248.564 132.927 251.108 132.927C253.604 132.927 255.57 133.827 257.005 135.627L256.981 133.431H261.769L261.962 151.646H257.174L257.15 149.414C255.753 151.238 253.807 152.15 251.311 152.15ZM252.094 147.902C253.558 147.902 254.777 147.398 255.75 146.39C256.747 145.358 257.238 144.062 257.221 142.502C257.205 140.966 256.687 139.695 255.669 138.687C254.674 137.679 253.445 137.175 251.981 137.175C250.493 137.175 249.274 137.679 248.325 138.687C247.375 139.671 246.909 140.942 246.925 142.502C246.942 144.086 247.435 145.382 248.406 146.39C249.377 147.398 250.606 147.902 252.094 147.902ZM273.794 152.15C271.634 152.15 269.732 151.598 268.089 150.494C266.445 149.39 265.375 148.07 264.879 146.534L269.149 145.274C269.471 146.162 270.055 146.894 270.901 147.47C271.746 148.022 272.757 148.298 273.933 148.298C274.821 148.298 275.539 148.118 276.088 147.758C276.66 147.398 276.943 146.954 276.938 146.426C276.929 145.634 276.251 145.034 274.903 144.626L270.244 143.258C267.235 142.394 265.718 140.774 265.693 138.399C265.677 136.887 266.371 135.603 267.776 134.547C269.205 133.467 270.927 132.927 272.943 132.927C274.863 132.927 276.548 133.347 277.996 134.187C279.445 135.027 280.465 136.143 281.056 137.535L276.857 138.759C276.05 137.343 274.746 136.635 272.946 136.635C272.226 136.635 271.616 136.803 271.116 137.139C270.615 137.475 270.367 137.859 270.372 138.291C270.379 138.963 270.888 139.443 271.899 139.731L276.449 141.026C278.086 141.506 279.352 142.118 280.248 142.862C281.144 143.606 281.6 144.722 281.615 146.21C281.634 147.938 280.905 149.366 279.429 150.494C277.976 151.598 276.098 152.15 273.794 152.15ZM292.11 152.15C289.95 152.15 288.049 151.598 286.405 150.494C284.761 149.39 283.691 148.07 283.195 146.534L287.466 145.274C287.787 146.162 288.371 146.894 289.217 147.47C290.063 148.022 291.074 148.298 292.25 148.298C293.138 148.298 293.856 148.118 294.404 147.758C294.976 147.398 295.26 146.954 295.254 146.426C295.246 145.634 294.567 145.034 293.219 144.626L288.561 143.258C285.551 142.394 284.034 140.774 284.009 138.399C283.993 136.887 284.688 135.603 286.093 134.547C287.521 133.467 289.244 132.927 291.26 132.927C293.18 132.927 294.864 133.347 296.313 134.187C297.762 135.027 298.782 136.143 299.372 137.535L295.173 138.759C294.366 137.343 293.063 136.635 291.263 136.635C290.543 136.635 289.932 136.803 289.432 137.139C288.932 137.475 288.684 137.859 288.688 138.291C288.695 138.963 289.204 139.443 290.215 139.731L294.765 141.026C296.402 141.506 297.669 142.118 298.564 142.862C299.46 143.606 299.916 144.722 299.932 146.21C299.95 147.938 299.221 149.366 297.745 150.494C296.293 151.598 294.414 152.15 292.11 152.15ZM307.81 130.083C307.263 130.611 306.594 130.875 305.802 130.875C305.01 130.875 304.335 130.611 303.778 130.083C303.22 129.531 302.937 128.859 302.928 128.067C302.92 127.299 303.189 126.651 303.736 126.123C304.282 125.595 304.951 125.331 305.743 125.331C306.535 125.331 307.21 125.595 307.768 126.123C308.325 126.651 308.608 127.299 308.616 128.067C308.625 128.859 308.356 129.531 307.81 130.083ZM303.573 151.646L303.381 133.431H308.169L308.361 151.646H303.573ZM331.377 133.431L331.569 151.646H326.781L326.633 137.607H319.541L319.689 151.646H314.937L314.789 137.607H311.297L311.253 133.431H314.745L314.728 131.775C314.705 129.615 315.299 127.923 316.51 126.699C317.745 125.475 319.551 124.863 321.927 124.863C324.423 124.863 326.553 125.427 328.316 126.555L327.205 130.371C325.635 129.459 324.058 129.003 322.474 129.003C321.586 129.003 320.857 129.255 320.286 129.759C319.74 130.263 319.471 130.935 319.48 131.775L319.497 133.431H331.377ZM344.35 152.15C341.566 152.15 339.241 151.226 337.373 149.378C335.53 147.53 334.593 145.238 334.565 142.502C334.536 139.767 335.424 137.487 337.228 135.663C339.057 133.839 341.352 132.927 344.112 132.927C346.44 132.927 348.402 133.539 349.999 134.763C351.62 135.987 352.642 137.367 353.067 138.903L348.652 140.163C348.427 139.347 347.904 138.639 347.081 138.039C346.259 137.439 345.284 137.139 344.156 137.139C342.692 137.139 341.498 137.667 340.573 138.723C339.672 139.755 339.229 141.014 339.245 142.502C339.26 143.966 339.729 145.238 340.653 146.318C341.6 147.374 342.806 147.902 344.27 147.902C345.398 147.902 346.367 147.614 347.176 147.038C347.986 146.462 348.495 145.778 348.703 144.986L353.144 146.21C352.752 147.77 351.771 149.15 350.199 150.35C348.628 151.55 346.678 152.15 344.35 152.15ZM364.549 152.15C362.005 152.15 359.86 151.238 358.112 149.414C356.365 147.566 355.477 145.274 355.448 142.538C355.419 139.779 356.258 137.487 357.967 135.663C359.676 133.839 361.802 132.927 364.346 132.927C366.842 132.927 368.808 133.827 370.243 135.627L370.22 133.431H375.008L375.2 151.646H370.412L370.388 149.414C368.992 151.238 367.045 152.15 364.549 152.15ZM365.332 147.902C366.796 147.902 368.015 147.398 368.988 146.39C369.986 145.358 370.476 144.062 370.459 142.502C370.443 140.966 369.926 139.695 368.907 138.687C367.912 137.679 366.683 137.175 365.219 137.175C363.731 137.175 362.512 137.679 361.563 138.687C360.613 139.671 360.147 140.942 360.163 142.502C360.18 144.086 360.674 145.382 361.644 146.39C362.615 147.398 363.844 147.902 365.332 147.902ZM390.22 147.218L391.413 151.07C389.979 151.646 388.566 151.934 387.174 151.934C385.158 151.934 383.628 151.358 382.584 150.206C381.564 149.054 381.043 147.458 381.021 145.418L380.939 137.607H377.879L377.835 133.431H380.895L380.832 127.527H385.62L385.683 133.431H391.011L391.055 137.607H385.727L385.809 145.418C385.825 146.954 386.578 147.722 388.066 147.722C388.834 147.722 389.552 147.554 390.22 147.218ZM398.899 130.083C398.353 130.611 397.684 130.875 396.892 130.875C396.1 130.875 395.425 130.611 394.867 130.083C394.31 129.531 394.026 128.859 394.018 128.067C394.01 127.299 394.279 126.651 394.826 126.123C395.372 125.595 396.041 125.331 396.833 125.331C397.625 125.331 398.3 125.595 398.858 126.123C399.415 126.651 399.698 127.299 399.706 128.067C399.714 128.859 399.446 129.531 398.899 130.083ZM394.663 151.646L394.471 133.431H399.259L399.451 151.646H394.663ZM412.836 152.15C410.028 152.15 407.691 151.238 405.824 149.414C403.956 147.566 403.008 145.274 402.979 142.538C402.95 139.803 403.85 137.523 405.679 135.699C407.507 133.851 409.826 132.927 412.634 132.927C415.442 132.927 417.767 133.851 419.611 135.699C421.478 137.523 422.426 139.803 422.455 142.538C422.484 145.274 421.584 147.566 419.756 149.414C417.927 151.238 415.62 152.15 412.836 152.15ZM409.067 146.354C410.038 147.338 411.279 147.83 412.791 147.83C414.303 147.83 415.522 147.338 416.447 146.354C417.397 145.346 417.863 144.074 417.847 142.538C417.831 141.002 417.337 139.743 416.367 138.759C415.42 137.751 414.191 137.247 412.679 137.247C411.167 137.247 409.936 137.751 408.987 138.759C408.061 139.743 407.607 141.002 407.623 142.538C407.639 144.074 408.121 145.346 409.067 146.354ZM436.586 132.927C438.914 132.927 440.698 133.647 441.937 135.087C443.176 136.527 443.809 138.495 443.835 140.99L443.948 151.646H439.196L439.093 141.89C439.078 140.474 438.73 139.371 438.05 138.579C437.393 137.763 436.429 137.355 435.157 137.355C433.837 137.355 432.774 137.835 431.968 138.795C431.186 139.755 430.804 141.038 430.821 142.646L430.916 151.646H426.164L425.972 133.431H430.724L430.748 135.735C432.192 133.863 434.138 132.927 436.586 132.927ZM446.74 156.542C449.452 151.91 450.776 146.63 450.713 140.702C450.65 134.727 449.215 129.447 446.406 124.863H451.05C453.906 129.399 455.342 134.679 455.357 140.702C455.421 146.75 454.097 152.03 451.384 156.542H446.74Z" fill="white"/>
<path d="M91.7629 186.2L91.7811 187.952H85.5891L85.7457 202.999H83.8257L83.6691 187.952H77.4531L77.4349 186.2H91.7629ZM97.0422 203.311C95.1862 203.311 93.6602 202.735 92.4642 201.583C91.2843 200.431 90.6844 198.903 90.6646 196.999C90.6459 195.207 91.1984 193.719 92.3221 192.535C93.4456 191.335 94.9034 190.735 96.6954 190.735C98.5514 190.735 100.021 191.303 101.105 192.439C102.189 193.575 102.74 195.007 102.758 196.735C102.762 197.103 102.749 197.391 102.719 197.599H92.4948C92.5874 198.815 93.0377 199.799 93.8455 200.551C94.6533 201.303 95.7132 201.679 97.0252 201.679C98.0012 201.679 98.823 201.463 99.4905 201.031C100.158 200.583 100.648 200.023 100.961 199.351L102.67 199.855C102.232 200.831 101.537 201.655 100.584 202.327C99.6308 202.983 98.4502 203.311 97.0422 203.311ZM92.4806 196.231L100.928 196.207C100.836 195.055 100.419 194.127 99.6754 193.423C98.932 192.719 97.9444 192.367 96.7124 192.367C95.5284 192.367 94.5403 192.743 93.7481 193.495C92.9719 194.247 92.5494 195.159 92.4806 196.231ZM110.046 203.311C108.718 203.311 107.539 202.967 106.508 202.279C105.492 201.575 104.827 200.711 104.513 199.687L106.236 199.207C106.467 199.927 106.93 200.527 107.623 201.007C108.331 201.471 109.15 201.703 110.078 201.703C110.958 201.703 111.676 201.511 112.232 201.127C112.788 200.743 113.063 200.279 113.057 199.735C113.052 199.271 112.913 198.919 112.638 198.679C112.364 198.423 111.913 198.199 111.287 198.007L107.869 196.999C106.007 196.455 105.069 195.487 105.055 194.095C105.045 193.183 105.461 192.399 106.302 191.743C107.143 191.071 108.18 190.735 109.412 190.735C110.644 190.735 111.703 191.015 112.588 191.575C113.49 192.135 114.13 192.847 114.507 193.711L112.832 194.215C112.602 193.671 112.181 193.215 111.57 192.847C110.958 192.479 110.236 192.295 109.404 192.295C108.652 192.295 108.038 192.479 107.562 192.847C107.101 193.215 106.874 193.623 106.878 194.071C106.885 194.711 107.426 195.191 108.501 195.511L111.92 196.519C112.835 196.791 113.551 197.167 114.068 197.647C114.6 198.111 114.871 198.775 114.88 199.639C114.891 200.695 114.436 201.575 113.516 202.279C112.611 202.967 111.454 203.311 110.046 203.311ZM124.207 201.055L124.727 202.639C123.915 202.991 123.085 203.167 122.237 203.167C121.069 203.167 120.185 202.831 119.586 202.159C119.003 201.471 118.706 200.535 118.693 199.351L118.624 192.703H116.248L116.231 191.023H118.607L118.564 186.896H120.412L120.455 191.023H124.559L124.576 192.703H120.472L120.541 199.351C120.556 200.759 121.211 201.463 122.507 201.463C123.099 201.463 123.666 201.327 124.207 201.055ZM132.269 203.311C130.413 203.311 128.887 202.735 127.691 201.583C126.511 200.431 125.911 198.903 125.891 196.999C125.872 195.207 126.425 193.719 127.549 192.535C128.672 191.335 130.13 190.735 131.922 190.735C133.778 190.735 135.248 191.303 136.332 192.439C137.416 193.575 137.966 195.007 137.984 196.735C137.988 197.103 137.975 197.391 137.945 197.599H127.721C127.814 198.815 128.264 199.799 129.072 200.551C129.88 201.303 130.94 201.679 132.252 201.679C133.228 201.679 134.05 201.463 134.717 201.031C135.384 200.583 135.875 200.023 136.188 199.351L137.897 199.855C137.459 200.831 136.764 201.655 135.811 202.327C134.857 202.983 133.677 203.311 132.269 203.311ZM127.707 196.231L136.155 196.207C136.063 195.055 135.645 194.127 134.902 193.423C134.159 192.719 133.171 192.367 131.939 192.367C130.755 192.367 129.767 192.743 128.975 193.495C128.198 194.247 127.776 195.159 127.707 196.231ZM150.704 185.48H152.552L152.734 202.999H150.886L150.863 200.815C149.84 202.479 148.273 203.311 146.161 203.311C144.433 203.311 142.987 202.711 141.822 201.511C140.658 200.311 140.066 198.807 140.047 196.999C140.029 195.207 140.589 193.719 141.729 192.535C142.868 191.335 144.302 190.735 146.03 190.735C148.126 190.735 149.711 191.551 150.784 193.183L150.704 185.48ZM146.408 201.631C147.656 201.631 148.715 201.191 149.586 200.311C150.457 199.431 150.885 198.335 150.872 197.023C150.858 195.711 150.407 194.615 149.517 193.735C148.628 192.855 147.56 192.415 146.312 192.415C145 192.415 143.924 192.847 143.085 193.711C142.262 194.575 141.858 195.679 141.872 197.023C141.885 198.351 142.313 199.455 143.154 200.335C144.011 201.199 145.096 201.631 146.408 201.631ZM172.599 201.511C171.411 202.711 169.913 203.311 168.105 203.311C166.297 203.311 164.779 202.711 163.551 201.511C162.338 200.295 161.722 198.791 161.704 196.999C161.685 195.207 162.27 193.719 163.457 192.535C164.661 191.335 166.166 190.735 167.974 190.735C169.782 190.735 171.293 191.335 172.505 192.535C173.718 193.719 174.333 195.207 174.352 196.999C174.37 198.791 173.786 200.295 172.599 201.511ZM168.088 201.607C169.368 201.607 170.427 201.175 171.266 200.311C172.121 199.431 172.542 198.335 172.528 197.023C172.514 195.711 172.071 194.615 171.198 193.735C170.341 192.855 169.272 192.415 167.992 192.415C166.696 192.415 165.621 192.855 164.766 193.735C163.911 194.615 163.49 195.711 163.504 197.023C163.518 198.335 163.961 199.431 164.834 200.311C165.707 201.175 166.792 201.607 168.088 201.607ZM183.413 190.735C184.901 190.735 186.074 191.199 186.932 192.127C187.805 193.055 188.251 194.335 188.268 195.967L188.341 202.999H186.493L186.422 196.231C186.41 195.047 186.104 194.127 185.506 193.471C184.923 192.799 184.095 192.463 183.023 192.463C181.823 192.463 180.852 192.879 180.108 193.711C179.381 194.543 179.024 195.631 179.038 196.975L179.101 202.999H177.253L177.128 191.023H178.976L178.998 193.135C179.439 192.415 180.033 191.839 180.78 191.407C181.544 190.959 182.421 190.735 183.413 190.735ZM214.317 194.095L214.328 195.127C214.338 197.655 213.567 199.655 212.014 201.127C210.462 202.583 208.469 203.311 206.037 203.311C203.541 203.311 201.444 202.479 199.747 200.815C198.05 199.135 197.188 197.047 197.162 194.551C197.137 192.103 197.947 190.047 199.594 188.383C201.24 186.72 203.296 185.888 205.76 185.888C207.648 185.888 209.293 186.352 210.694 187.28C212.096 188.192 213.092 189.383 213.684 190.855L211.889 191.335C211.397 190.231 210.62 189.351 209.557 188.695C208.51 188.024 207.259 187.688 205.803 187.688C203.803 187.688 202.177 188.351 200.927 189.679C199.677 191.007 199.062 192.623 199.082 194.527C199.102 196.479 199.751 198.135 201.029 199.495C202.324 200.855 204.011 201.535 206.091 201.535C207.915 201.535 209.405 201.015 210.562 199.975C211.719 198.919 212.345 197.511 212.438 195.751H205.838L205.821 194.095H214.317ZM224.455 186.2C226.135 186.2 227.477 186.752 228.48 187.856C229.484 188.959 229.993 190.215 230.007 191.623C230.022 193.063 229.532 194.327 228.535 195.415C227.554 196.487 226.2 197.023 224.472 197.023H219.048L219.11 202.999H217.214L217.039 186.2H224.455ZM224.406 195.295C225.558 195.295 226.474 194.935 227.154 194.215C227.835 193.479 228.17 192.615 228.159 191.623C228.149 190.631 227.788 189.775 227.077 189.055C226.381 188.319 225.497 187.952 224.425 187.952H218.953L219.03 195.295H224.406ZM244.149 186.2H246.069L246.174 196.327C246.196 198.439 245.598 200.135 244.379 201.415C243.176 202.679 241.495 203.311 239.335 203.311C237.175 203.311 235.472 202.679 234.227 201.415C232.998 200.135 232.372 198.439 232.35 196.327L232.245 186.2H234.189L234.294 196.279C234.31 197.879 234.748 199.159 235.606 200.119C236.479 201.063 237.716 201.535 239.316 201.535C240.916 201.535 242.143 201.063 242.998 200.119C243.852 199.159 244.27 197.879 244.254 196.279L244.149 186.2ZM249.439 196.351L249.422 194.767H257.942L257.959 196.351H249.439ZM263.412 201.247H272.724L272.743 202.999H261.511L261.336 186.2H263.256L263.412 201.247ZM286.997 197.551L287.015 199.279H284.711L284.75 202.999H282.854L282.815 199.279H274.103L274.088 197.839L280.231 186.2H282.319L276.317 197.551H282.797L282.753 193.303H284.649L284.693 197.551H286.997ZM305.461 185.48H307.309L307.492 202.999H305.644L305.621 200.815C304.598 202.479 303.031 203.311 300.919 203.311C299.191 203.311 297.745 202.711 296.58 201.511C295.416 200.311 294.824 198.807 294.805 196.999C294.787 195.207 295.347 193.719 296.487 192.535C297.626 191.335 299.06 190.735 300.788 190.735C302.884 190.735 304.469 191.551 305.541 193.183L305.461 185.48ZM301.165 201.631C302.413 201.631 303.473 201.191 304.344 200.311C305.214 199.431 305.643 198.335 305.629 197.023C305.616 195.711 305.164 194.615 304.275 193.735C303.386 192.855 302.317 192.415 301.069 192.415C299.757 192.415 298.682 192.847 297.843 193.711C297.02 194.575 296.615 195.679 296.629 197.023C296.643 198.351 297.071 199.455 297.912 200.335C298.769 201.199 299.853 201.631 301.165 201.631ZM316.628 203.311C314.772 203.311 313.246 202.735 312.05 201.583C310.87 200.431 310.27 198.903 310.25 196.999C310.232 195.207 310.784 193.719 311.908 192.535C313.032 191.335 314.489 190.735 316.281 190.735C318.137 190.735 319.607 191.303 320.691 192.439C321.775 193.575 322.326 195.007 322.344 196.735C322.348 197.103 322.335 197.391 322.305 197.599H312.081C312.173 198.815 312.624 199.799 313.431 200.551C314.239 201.303 315.299 201.679 316.611 201.679C317.587 201.679 318.409 201.463 319.076 201.031C319.744 200.583 320.234 200.023 320.547 199.351L322.256 199.855C321.818 200.831 321.123 201.655 320.17 202.327C319.217 202.983 318.036 203.311 316.628 203.311ZM312.067 196.231L320.514 196.207C320.422 195.055 320.005 194.127 319.261 193.423C318.518 192.719 317.53 192.367 316.298 192.367C315.114 192.367 314.126 192.743 313.334 193.495C312.558 194.247 312.135 195.159 312.067 196.231ZM333.431 191.023H335.423L330.34 202.999H328.3L322.967 191.023H324.959L329.311 200.983L333.431 191.023ZM339.381 188.431C339.143 188.671 338.84 188.791 338.472 188.791C338.104 188.791 337.799 188.671 337.557 188.431C337.314 188.192 337.191 187.888 337.187 187.52C337.184 187.184 337.301 186.896 337.538 186.656C337.792 186.416 338.094 186.296 338.446 186.296C338.798 186.296 339.096 186.416 339.338 186.656C339.597 186.896 339.728 187.184 339.731 187.52C339.735 187.888 339.618 188.192 339.381 188.431ZM337.708 202.999L337.584 191.023H339.432L339.556 202.999H337.708ZM348.736 203.311C346.944 203.311 345.45 202.711 344.253 201.511C343.056 200.295 342.449 198.783 342.43 196.975C342.411 195.199 342.988 193.719 344.16 192.535C345.331 191.335 346.813 190.735 348.605 190.735C350.029 190.735 351.241 191.111 352.241 191.863C353.256 192.599 353.905 193.431 354.187 194.359L352.464 194.863C352.249 194.207 351.787 193.631 351.078 193.135C350.369 192.639 349.55 192.391 348.622 192.391C347.31 192.391 346.251 192.847 345.444 193.759C344.638 194.655 344.241 195.743 344.254 197.023C344.268 198.287 344.687 199.375 345.512 200.287C346.354 201.183 347.422 201.631 348.718 201.631C349.662 201.631 350.476 201.399 351.159 200.935C351.858 200.455 352.308 199.887 352.509 199.231L354.242 199.687C353.98 200.631 353.357 201.471 352.372 202.207C351.388 202.943 350.176 203.311 348.736 203.311ZM362.659 203.311C360.803 203.311 359.277 202.735 358.081 201.583C356.901 200.431 356.302 198.903 356.282 196.999C356.263 195.207 356.816 193.719 357.939 192.535C359.063 191.335 360.521 190.735 362.313 190.735C364.169 190.735 365.638 191.303 366.722 192.439C367.806 193.575 368.357 195.007 368.375 196.735C368.379 197.103 368.366 197.391 368.336 197.599H358.112C358.205 198.815 358.655 199.799 359.463 200.551C360.271 201.303 361.33 201.679 362.642 201.679C363.618 201.679 364.44 201.463 365.108 201.031C365.775 200.583 366.265 200.023 366.578 199.351L368.287 199.855C367.85 200.831 367.154 201.655 366.201 202.327C365.248 202.983 364.067 203.311 362.659 203.311ZM358.098 196.231L366.546 196.207C366.454 195.055 366.036 194.127 365.293 193.423C364.549 192.719 363.562 192.367 362.33 192.367C361.146 192.367 360.157 192.743 359.365 193.495C358.589 194.247 358.167 195.159 358.098 196.231ZM375.664 203.311C374.336 203.311 373.156 202.967 372.125 202.279C371.11 201.575 370.445 200.711 370.13 199.687L371.853 199.207C372.084 199.927 372.547 200.527 373.24 201.007C373.949 201.471 374.767 201.703 375.695 201.703C376.575 201.703 377.293 201.511 377.849 201.127C378.405 200.743 378.68 200.279 378.674 199.735C378.67 199.271 378.53 198.919 378.255 198.679C377.981 198.423 377.53 198.199 376.904 198.007L373.486 196.999C371.624 196.455 370.686 195.487 370.672 194.095C370.662 193.183 371.078 192.399 371.919 191.743C372.76 191.071 373.797 190.735 375.029 190.735C376.261 190.735 377.32 191.015 378.206 191.575C379.107 192.135 379.747 192.847 380.124 193.711L378.449 194.215C378.219 193.671 377.799 193.215 377.187 192.847C376.575 192.479 375.853 192.295 375.021 192.295C374.269 192.295 373.655 192.479 373.179 192.847C372.719 193.215 372.491 193.623 372.496 194.071C372.502 194.711 373.043 195.191 374.119 195.511L377.537 196.519C378.452 196.791 379.168 197.167 379.685 197.647C380.218 198.111 380.488 198.775 380.497 199.639C380.508 200.695 380.054 201.575 379.133 202.279C378.228 202.967 377.072 203.311 375.664 203.311Z" fill="#5292C8"/>
<path d="M278.84 633L275.18 627.5H271.08V633H269.5V619H275.98C277.34 619 278.42 619.433 279.22 620.3C280.02 621.167 280.42 622.153 280.42 623.26C280.42 624.247 280.107 625.14 279.48 625.94C278.867 626.727 278.013 627.22 276.92 627.42L280.68 633H278.84ZM271.08 620.44V626.08H275.92C276.813 626.08 277.527 625.807 278.06 625.26C278.607 624.7 278.88 624.033 278.88 623.26C278.88 622.5 278.607 621.84 278.06 621.28C277.527 620.72 276.82 620.44 275.94 620.44H271.08ZM290.42 623.02H291.96V633H290.42V631.26C289.607 632.593 288.38 633.26 286.74 633.26C285.487 633.26 284.5 632.873 283.78 632.1C283.074 631.327 282.72 630.253 282.72 628.88V623.02H284.26V628.66C284.26 629.647 284.5 630.42 284.98 630.98C285.474 631.527 286.167 631.8 287.06 631.8C288.074 631.8 288.887 631.453 289.5 630.76C290.114 630.067 290.42 629.16 290.42 628.04V623.02ZM300.209 622.78C301.449 622.78 302.422 623.167 303.129 623.94C303.849 624.713 304.209 625.78 304.209 627.14V633H302.669V627.36C302.669 626.373 302.422 625.607 301.929 625.06C301.449 624.5 300.762 624.22 299.869 624.22C298.869 624.22 298.055 624.567 297.429 625.26C296.815 625.953 296.509 626.86 296.509 627.98V633H294.969V623.02H296.509V624.78C296.882 624.18 297.382 623.7 298.009 623.34C298.649 622.967 299.382 622.78 300.209 622.78ZM312.597 631.38L313.017 632.7C312.337 632.993 311.644 633.14 310.937 633.14C309.964 633.14 309.231 632.86 308.737 632.3C308.257 631.727 308.017 630.947 308.017 629.96V624.42H306.037V623.02H308.017V619.58H309.557V623.02H312.977V624.42H309.557V629.96C309.557 631.133 310.097 631.72 311.177 631.72C311.671 631.72 312.144 631.607 312.597 631.38ZM316.901 620.86C316.701 621.06 316.447 621.16 316.141 621.16C315.834 621.16 315.581 621.06 315.381 620.86C315.181 620.66 315.081 620.407 315.081 620.1C315.081 619.82 315.181 619.58 315.381 619.38C315.594 619.18 315.847 619.08 316.141 619.08C316.434 619.08 316.681 619.18 316.881 619.38C317.094 619.58 317.201 619.82 317.201 620.1C317.201 620.407 317.101 620.66 316.901 620.86ZM315.381 633V623.02H316.921V633H315.381ZM331.648 622.78C332.848 622.78 333.794 623.153 334.488 623.9C335.181 624.633 335.528 625.667 335.528 627V633H333.988V627.24C333.988 626.28 333.768 625.54 333.328 625.02C332.888 624.487 332.241 624.22 331.388 624.22C330.534 624.22 329.841 624.533 329.308 625.16C328.788 625.787 328.528 626.62 328.528 627.66V633H326.988V627.24C326.988 626.293 326.774 625.553 326.348 625.02C325.934 624.487 325.328 624.22 324.528 624.22C323.648 624.22 322.928 624.56 322.368 625.24C321.821 625.907 321.548 626.793 321.548 627.9V633H320.008V623.02H321.548V624.66C322.294 623.407 323.401 622.78 324.868 622.78C326.388 622.78 327.454 623.42 328.068 624.7C328.801 623.42 329.994 622.78 331.648 622.78ZM343.046 633.26C341.499 633.26 340.232 632.78 339.246 631.82C338.272 630.86 337.786 629.587 337.786 628C337.786 626.507 338.259 625.267 339.206 624.28C340.152 623.28 341.372 622.78 342.866 622.78C344.412 622.78 345.632 623.253 346.526 624.2C347.419 625.147 347.866 626.34 347.866 627.78C347.866 628.087 347.852 628.327 347.826 628.5H339.306C339.372 629.513 339.739 630.333 340.406 630.96C341.072 631.587 341.952 631.9 343.046 631.9C343.859 631.9 344.546 631.72 345.106 631.36C345.666 630.987 346.079 630.52 346.346 629.96L347.766 630.38C347.392 631.193 346.806 631.88 346.006 632.44C345.206 632.987 344.219 633.26 343.046 633.26ZM339.306 627.36L346.346 627.34C346.279 626.38 345.939 625.607 345.326 625.02C344.712 624.433 343.892 624.14 342.866 624.14C341.879 624.14 341.052 624.453 340.386 625.08C339.732 625.707 339.372 626.467 339.306 627.36ZM367.038 622.78C368.238 622.78 369.185 623.153 369.878 623.9C370.572 624.633 370.918 625.667 370.918 627V633H369.378V627.24C369.378 626.28 369.158 625.54 368.718 625.02C368.278 624.487 367.632 624.22 366.778 624.22C365.925 624.22 365.232 624.533 364.698 625.16C364.178 625.787 363.918 626.62 363.918 627.66V633H362.378V627.24C362.378 626.293 362.165 625.553 361.738 625.02C361.325 624.487 360.718 624.22 359.918 624.22C359.038 624.22 358.318 624.56 357.758 625.24C357.212 625.907 356.938 626.793 356.938 627.9V633H355.398V623.02H356.938V624.66C357.685 623.407 358.792 622.78 360.258 622.78C361.778 622.78 362.845 623.42 363.458 624.7C364.192 623.42 365.385 622.78 367.038 622.78ZM381.319 623.02H382.859V633H381.319V631.26C380.505 632.593 379.279 633.26 377.639 633.26C376.385 633.26 375.399 632.873 374.679 632.1C373.972 631.327 373.619 630.253 373.619 628.88V623.02H375.159V628.66C375.159 629.647 375.399 630.42 375.879 630.98C376.372 631.527 377.065 631.8 377.959 631.8C378.972 631.8 379.785 631.453 380.399 630.76C381.012 630.067 381.319 629.16 381.319 628.04V623.02ZM385.867 633V618.4H387.407V633H385.867ZM395.878 631.38L396.298 632.7C395.618 632.993 394.925 633.14 394.218 633.14C393.245 633.14 392.512 632.86 392.018 632.3C391.538 631.727 391.298 630.947 391.298 629.96V624.42H389.318V623.02H391.298V619.58H392.838V623.02H396.258V624.42H392.838V629.96C392.838 631.133 393.378 631.72 394.458 631.72C394.952 631.72 395.425 631.607 395.878 631.38ZM400.182 620.86C399.982 621.06 399.729 621.16 399.422 621.16C399.115 621.16 398.862 621.06 398.662 620.86C398.462 620.66 398.362 620.407 398.362 620.1C398.362 619.82 398.462 619.58 398.662 619.38C398.875 619.18 399.129 619.08 399.422 619.08C399.715 619.08 399.962 619.18 400.162 619.38C400.375 619.58 400.482 619.82 400.482 620.1C400.482 620.407 400.382 620.66 400.182 620.86ZM398.662 633V623.02H400.202V633H398.662ZM408.769 622.78C410.209 622.78 411.409 623.28 412.369 624.28C413.329 625.267 413.809 626.507 413.809 628C413.809 629.507 413.329 630.76 412.369 631.76C411.409 632.76 410.209 633.26 408.769 633.26C407.889 633.26 407.109 633.08 406.429 632.72C405.762 632.347 405.229 631.833 404.829 631.18V637.2H403.289V623.02H404.829V624.82C405.682 623.46 406.996 622.78 408.769 622.78ZM408.549 631.86C409.642 631.86 410.536 631.5 411.229 630.78C411.936 630.047 412.289 629.127 412.289 628.02C412.289 626.9 411.936 625.98 411.229 625.26C410.536 624.54 409.642 624.18 408.549 624.18C407.509 624.18 406.622 624.547 405.889 625.28C405.156 626.013 404.789 626.927 404.789 628.02C404.789 629.113 405.156 630.027 405.889 630.76C406.622 631.493 407.509 631.86 408.549 631.86ZM416.16 633V618.4H417.7V633H416.16ZM422.291 620.86C422.091 621.06 421.838 621.16 421.531 621.16C421.225 621.16 420.971 621.06 420.771 620.86C420.571 620.66 420.471 620.407 420.471 620.1C420.471 619.82 420.571 619.58 420.771 619.38C420.985 619.18 421.238 619.08 421.531 619.08C421.825 619.08 422.071 619.18 422.271 619.38C422.485 619.58 422.591 619.82 422.591 620.1C422.591 620.407 422.491 620.66 422.291 620.86ZM420.771 633V623.02H422.311V633H420.771ZM430.018 633.26C428.472 633.26 427.205 632.78 426.218 631.82C425.245 630.86 424.758 629.587 424.758 628C424.758 626.507 425.232 625.267 426.178 624.28C427.125 623.28 428.345 622.78 429.838 622.78C431.385 622.78 432.605 623.253 433.498 624.2C434.392 625.147 434.838 626.34 434.838 627.78C434.838 628.087 434.825 628.327 434.798 628.5H426.278C426.345 629.513 426.712 630.333 427.378 630.96C428.045 631.587 428.925 631.9 430.018 631.9C430.832 631.9 431.518 631.72 432.078 631.36C432.638 630.987 433.052 630.52 433.318 629.96L434.738 630.38C434.365 631.193 433.778 631.88 432.978 632.44C432.178 632.987 431.192 633.26 430.018 633.26ZM426.278 627.36L433.318 627.34C433.252 626.38 432.912 625.607 432.298 625.02C431.685 624.433 430.865 624.14 429.838 624.14C428.852 624.14 428.025 624.453 427.358 625.08C426.705 625.707 426.345 626.467 426.278 627.36ZM438.735 624.74C439.042 624.06 439.502 623.553 440.115 623.22C440.729 622.887 441.462 622.78 442.315 622.9V624.34C441.195 624.193 440.315 624.447 439.675 625.1C439.049 625.74 438.735 626.82 438.735 628.34V633H437.195V623.02H438.735V624.74Z" fill="#3287CE"/>
<path d="M230.58 310H237.94V312H228.4V298H230.58V310ZM243.893 312.26C242.467 312.26 241.273 311.76 240.313 310.76C239.367 309.747 238.893 308.48 238.893 306.96C238.893 305.453 239.367 304.2 240.313 303.2C241.273 302.187 242.467 301.68 243.893 301.68C245.467 301.68 246.673 302.273 247.513 303.46V301.94H249.593V312H247.513V310.48C246.673 311.667 245.467 312.26 243.893 312.26ZM244.233 310.38C245.167 310.38 245.953 310.06 246.593 309.42C247.233 308.767 247.553 307.947 247.553 306.96C247.553 305.987 247.233 305.18 246.593 304.54C245.953 303.887 245.167 303.56 244.233 303.56C243.273 303.56 242.487 303.88 241.873 304.52C241.26 305.16 240.953 305.973 240.953 306.96C240.953 307.947 241.26 308.767 241.873 309.42C242.487 310.06 243.273 310.38 244.233 310.38ZM258.024 309.96L258.544 311.68C257.784 312 257.044 312.16 256.324 312.16C255.271 312.16 254.484 311.86 253.964 311.26C253.444 310.647 253.184 309.807 253.184 308.74V303.8H251.344V301.94H253.184V298.58H255.264V301.94H258.464V303.8H255.264V308.74C255.264 309.767 255.744 310.28 256.704 310.28C257.144 310.28 257.584 310.173 258.024 309.96ZM264.781 312.26C263.194 312.26 261.901 311.773 260.901 310.8C259.914 309.827 259.421 308.553 259.421 306.98C259.421 305.46 259.901 304.2 260.861 303.2C261.821 302.187 263.067 301.68 264.601 301.68C266.187 301.68 267.434 302.167 268.341 303.14C269.261 304.1 269.721 305.313 269.721 306.78C269.721 307.033 269.701 307.313 269.661 307.62H261.481C261.547 308.473 261.874 309.16 262.461 309.68C263.047 310.2 263.834 310.46 264.821 310.46C266.207 310.46 267.161 309.92 267.681 308.84L269.601 309.4C269.241 310.187 268.647 310.86 267.821 311.42C266.994 311.98 265.981 312.26 264.781 312.26ZM261.481 306.22L267.661 306.2C267.594 305.4 267.287 304.747 266.741 304.24C266.207 303.733 265.494 303.48 264.601 303.48C263.734 303.48 263.014 303.747 262.441 304.28C261.881 304.813 261.561 305.46 261.481 306.22ZM277.437 301.68C278.717 301.68 279.703 302.073 280.397 302.86C281.09 303.647 281.437 304.727 281.437 306.1V312H279.357V306.48C279.357 305.587 279.143 304.893 278.717 304.4C278.303 303.893 277.69 303.64 276.877 303.64C275.997 303.64 275.29 303.947 274.757 304.56C274.237 305.173 273.977 305.987 273.977 307V312H271.877V301.94H273.977V303.44C274.803 302.267 275.957 301.68 277.437 301.68ZM288.802 312.26C287.282 312.26 286.022 311.753 285.022 310.74C284.022 309.727 283.522 308.467 283.522 306.96C283.522 305.453 284.016 304.2 285.002 303.2C286.002 302.187 287.262 301.68 288.782 301.68C290.036 301.68 291.089 302.007 291.942 302.66C292.809 303.3 293.349 304.033 293.562 304.86L291.622 305.42C291.476 304.927 291.142 304.493 290.622 304.12C290.102 303.747 289.496 303.56 288.802 303.56C287.842 303.56 287.062 303.893 286.462 304.56C285.862 305.213 285.562 306.013 285.562 306.96C285.562 307.893 285.862 308.7 286.462 309.38C287.076 310.047 287.856 310.38 288.802 310.38C289.496 310.38 290.102 310.207 290.622 309.86C291.142 309.5 291.476 309.073 291.622 308.58L293.562 309.12C293.349 309.933 292.816 310.66 291.962 311.3C291.109 311.94 290.056 312.26 288.802 312.26ZM302.951 301.94H305.191L299.071 316.2H296.911L298.791 311.78L294.191 301.94H296.471L299.831 309.42L302.951 301.94ZM315.638 312.26C314.491 312.26 313.478 311.967 312.598 311.38C311.731 310.78 311.165 310.053 310.898 309.2L312.798 308.64C312.985 309.187 313.338 309.64 313.858 310C314.391 310.36 315.005 310.54 315.698 310.54C316.325 310.54 316.831 310.407 317.218 310.14C317.605 309.873 317.798 309.553 317.798 309.18C317.798 308.873 317.698 308.633 317.498 308.46C317.298 308.273 316.965 308.113 316.498 307.98L313.798 307.18C312.198 306.7 311.398 305.84 311.398 304.6C311.398 303.8 311.771 303.113 312.518 302.54C313.265 301.967 314.171 301.68 315.238 301.68C316.291 301.68 317.205 301.913 317.978 302.38C318.751 302.847 319.291 303.46 319.598 304.22L317.738 304.76C317.538 304.36 317.218 304.027 316.778 303.76C316.338 303.493 315.818 303.36 315.218 303.36C314.711 303.36 314.291 303.487 313.958 303.74C313.625 303.98 313.458 304.26 313.458 304.58C313.458 305.02 313.818 305.353 314.538 305.58L317.218 306.36C318.045 306.6 318.691 306.927 319.158 307.34C319.625 307.74 319.858 308.327 319.858 309.1C319.858 310.007 319.458 310.76 318.658 311.36C317.871 311.96 316.865 312.26 315.638 312.26ZM327.811 301.68C329.238 301.68 330.431 302.187 331.391 303.2C332.351 304.2 332.831 305.453 332.831 306.96C332.831 308.48 332.351 309.747 331.391 310.76C330.431 311.76 329.238 312.26 327.811 312.26C326.251 312.26 325.051 311.667 324.211 310.48V316.2H322.111V301.94H324.211V303.46C325.051 302.273 326.251 301.68 327.811 301.68ZM327.471 310.38C328.431 310.38 329.218 310.06 329.831 309.42C330.444 308.767 330.751 307.947 330.751 306.96C330.751 305.973 330.444 305.16 329.831 304.52C329.218 303.88 328.431 303.56 327.471 303.56C326.538 303.56 325.751 303.887 325.111 304.54C324.471 305.18 324.151 305.987 324.151 306.96C324.151 307.947 324.471 308.767 325.111 309.42C325.751 310.06 326.538 310.38 327.471 310.38ZM339.722 312.26C338.135 312.26 336.842 311.773 335.842 310.8C334.855 309.827 334.362 308.553 334.362 306.98C334.362 305.46 334.842 304.2 335.802 303.2C336.762 302.187 338.009 301.68 339.542 301.68C341.129 301.68 342.375 302.167 343.282 303.14C344.202 304.1 344.662 305.313 344.662 306.78C344.662 307.033 344.642 307.313 344.602 307.62H336.422C336.489 308.473 336.815 309.16 337.402 309.68C337.989 310.2 338.775 310.46 339.762 310.46C341.149 310.46 342.102 309.92 342.622 308.84L344.542 309.4C344.182 310.187 343.589 310.86 342.762 311.42C341.935 311.98 340.922 312.26 339.722 312.26ZM336.422 306.22L342.602 306.2C342.535 305.4 342.229 304.747 341.682 304.24C341.149 303.733 340.435 303.48 339.542 303.48C338.675 303.48 337.955 303.747 337.382 304.28C336.822 304.813 336.502 305.46 336.422 306.22ZM351.558 312.26C349.971 312.26 348.678 311.773 347.678 310.8C346.691 309.827 346.198 308.553 346.198 306.98C346.198 305.46 346.678 304.2 347.638 303.2C348.598 302.187 349.845 301.68 351.378 301.68C352.965 301.68 354.211 302.167 355.118 303.14C356.038 304.1 356.498 305.313 356.498 306.78C356.498 307.033 356.478 307.313 356.438 307.62H348.258C348.325 308.473 348.651 309.16 349.238 309.68C349.825 310.2 350.611 310.46 351.598 310.46C352.985 310.46 353.938 309.92 354.458 308.84L356.378 309.4C356.018 310.187 355.425 310.86 354.598 311.42C353.771 311.98 352.758 312.26 351.558 312.26ZM348.258 306.22L354.438 306.2C354.371 305.4 354.065 304.747 353.518 304.24C352.985 303.733 352.271 303.48 351.378 303.48C350.511 303.48 349.791 303.747 349.218 304.28C348.658 304.813 348.338 305.46 348.258 306.22ZM366.654 297.4H368.734V312H366.654V310.48C365.814 311.667 364.607 312.26 363.034 312.26C361.607 312.26 360.414 311.76 359.454 310.76C358.507 309.747 358.034 308.48 358.034 306.96C358.034 305.453 358.507 304.2 359.454 303.2C360.414 302.187 361.607 301.68 363.034 301.68C364.607 301.68 365.814 302.273 366.654 303.46V297.4ZM363.374 310.38C364.307 310.38 365.094 310.06 365.734 309.42C366.374 308.767 366.694 307.947 366.694 306.96C366.694 305.987 366.374 305.18 365.734 304.54C365.094 303.887 364.307 303.56 363.374 303.56C362.414 303.56 361.627 303.88 361.014 304.52C360.401 305.16 360.094 305.973 360.094 306.96C360.094 307.947 360.401 308.767 361.014 309.42C361.627 310.06 362.414 310.38 363.374 310.38ZM378.905 301.94H380.985V312H378.905V310.48C378.092 311.667 376.932 312.26 375.425 312.26C374.158 312.26 373.172 311.867 372.465 311.08C371.772 310.293 371.425 309.213 371.425 307.84V301.94H373.525V307.46C373.525 308.353 373.732 309.053 374.145 309.56C374.572 310.053 375.192 310.3 376.005 310.3C376.872 310.3 377.572 309.993 378.105 309.38C378.638 308.767 378.905 307.953 378.905 306.94V301.94ZM389.491 301.68C390.917 301.68 392.111 302.187 393.071 303.2C394.031 304.2 394.511 305.453 394.511 306.96C394.511 308.48 394.031 309.747 393.071 310.76C392.111 311.76 390.917 312.26 389.491 312.26C387.931 312.26 386.731 311.667 385.891 310.48V316.2H383.791V301.94H385.891V303.46C386.731 302.273 387.931 301.68 389.491 301.68ZM389.151 310.38C390.111 310.38 390.897 310.06 391.511 309.42C392.124 308.767 392.431 307.947 392.431 306.96C392.431 305.973 392.124 305.16 391.511 304.52C390.897 303.88 390.111 303.56 389.151 303.56C388.217 303.56 387.431 303.887 386.791 304.54C386.151 305.18 385.831 305.987 385.831 306.96C385.831 307.947 386.151 308.767 386.791 309.42C387.431 310.06 388.217 310.38 389.151 310.38Z" fill="#01396C"/>
<path d="M333.26 412H335.34V426H333.16V415.76L328.36 422.48L323.58 415.76V426H321.4V412H323.48L328.38 419.04L333.26 412ZM342.878 426.26C341.292 426.26 339.998 425.773 338.998 424.8C338.012 423.827 337.518 422.553 337.518 420.98C337.518 419.46 337.998 418.2 338.958 417.2C339.918 416.187 341.165 415.68 342.698 415.68C344.285 415.68 345.532 416.167 346.438 417.14C347.358 418.1 347.818 419.313 347.818 420.78C347.818 421.033 347.798 421.313 347.758 421.62H339.578C339.645 422.473 339.972 423.16 340.558 423.68C341.145 424.2 341.932 424.46 342.918 424.46C344.305 424.46 345.258 423.92 345.778 422.84L347.698 423.4C347.338 424.187 346.745 424.86 345.918 425.42C345.092 425.98 344.078 426.26 342.878 426.26ZM339.578 420.22L345.758 420.2C345.692 419.4 345.385 418.747 344.838 418.24C344.305 417.733 343.592 417.48 342.698 417.48C341.832 417.48 341.112 417.747 340.538 418.28C339.978 418.813 339.658 419.46 339.578 420.22ZM361.854 415.68C363.054 415.68 364.008 416.06 364.714 416.82C365.434 417.58 365.794 418.633 365.794 419.98V426H363.694V420.38C363.694 419.513 363.501 418.84 363.114 418.36C362.741 417.88 362.181 417.64 361.434 417.64C360.661 417.64 360.048 417.92 359.594 418.48C359.141 419.04 358.914 419.793 358.914 420.74V426H356.834V420.38C356.834 419.513 356.648 418.84 356.274 418.36C355.914 417.88 355.374 417.64 354.654 417.64C353.854 417.64 353.221 417.933 352.754 418.52C352.301 419.107 352.074 419.907 352.074 420.92V426H349.974V415.94H352.074V417.34C352.834 416.233 353.888 415.68 355.234 415.68C356.701 415.68 357.734 416.253 358.334 417.4C359.094 416.253 360.268 415.68 361.854 415.68ZM377.03 424.76C376.017 425.76 374.743 426.26 373.21 426.26C371.677 426.26 370.403 425.76 369.39 424.76C368.377 423.747 367.87 422.48 367.87 420.96C367.87 419.453 368.377 418.2 369.39 417.2C370.403 416.187 371.677 415.68 373.21 415.68C374.743 415.68 376.017 416.187 377.03 417.2C378.043 418.2 378.55 419.453 378.55 420.96C378.55 422.48 378.043 423.747 377.03 424.76ZM370.83 423.4C371.457 424.04 372.25 424.36 373.21 424.36C374.17 424.36 374.957 424.04 375.57 423.4C376.197 422.747 376.51 421.94 376.51 420.98C376.51 420.007 376.197 419.2 375.57 418.56C374.957 417.907 374.17 417.58 373.21 417.58C372.25 417.58 371.457 417.907 370.83 418.56C370.217 419.2 369.91 420.007 369.91 420.98C369.91 421.94 370.217 422.747 370.83 423.4ZM382.816 417.54C383.123 416.913 383.57 416.447 384.156 416.14C384.756 415.82 385.456 415.713 386.256 415.82V417.78C385.15 417.62 384.296 417.84 383.696 418.44C383.11 419.027 382.816 420.033 382.816 421.46V426H380.716V415.94H382.816V417.54ZM395.834 415.94H398.074L391.954 430.2H389.794L391.674 425.78L387.074 415.94H389.354L392.714 423.42L395.834 415.94ZM410.241 426.26C408.681 426.26 407.341 425.853 406.221 425.04C405.101 424.227 404.341 423.227 403.941 422.04L406.001 421.42C406.321 422.273 406.861 422.973 407.621 423.52C408.394 424.067 409.307 424.34 410.361 424.34C411.294 424.34 412.054 424.12 412.641 423.68C413.241 423.24 413.541 422.733 413.541 422.16C413.541 421.693 413.367 421.3 413.021 420.98C412.687 420.66 412.121 420.373 411.321 420.12L407.801 419C405.707 418.347 404.661 417.207 404.661 415.58C404.661 414.527 405.121 413.627 406.041 412.88C406.961 412.12 408.114 411.74 409.501 411.74C410.927 411.74 412.154 412.073 413.181 412.74C414.221 413.393 414.954 414.22 415.381 415.22L413.361 415.82C413.027 415.167 412.521 414.647 411.841 414.26C411.174 413.86 410.394 413.66 409.501 413.66C408.727 413.66 408.087 413.847 407.581 414.22C407.087 414.58 406.841 415.013 406.841 415.52C406.841 415.92 406.981 416.253 407.261 416.52C407.541 416.773 407.994 416.993 408.621 417.18L412.061 418.28C413.274 418.667 414.187 419.14 414.801 419.7C415.414 420.247 415.721 421.02 415.721 422.02C415.721 423.22 415.207 424.227 414.181 425.04C413.167 425.853 411.854 426.26 410.241 426.26ZM422.382 426.26C420.955 426.26 419.762 425.76 418.802 424.76C417.855 423.747 417.382 422.48 417.382 420.96C417.382 419.453 417.855 418.2 418.802 417.2C419.762 416.187 420.955 415.68 422.382 415.68C423.955 415.68 425.162 416.273 426.002 417.46V415.94H428.082V426H426.002V424.48C425.162 425.667 423.955 426.26 422.382 426.26ZM422.722 424.38C423.655 424.38 424.442 424.06 425.082 423.42C425.722 422.767 426.042 421.947 426.042 420.96C426.042 419.987 425.722 419.18 425.082 418.54C424.442 417.887 423.655 417.56 422.722 417.56C421.762 417.56 420.975 417.88 420.362 418.52C419.748 419.16 419.442 419.973 419.442 420.96C419.442 421.947 419.748 422.767 420.362 423.42C420.975 424.06 421.762 424.38 422.722 424.38ZM438.115 415.94H440.395L436.135 426H433.795L429.535 415.94H431.815L434.955 423.72L438.115 415.94ZM443.967 413.94C443.714 414.18 443.401 414.3 443.027 414.3C442.654 414.3 442.341 414.18 442.087 413.94C441.834 413.687 441.707 413.373 441.707 413C441.707 412.653 441.834 412.353 442.087 412.1C442.341 411.847 442.654 411.72 443.027 411.72C443.401 411.72 443.714 411.847 443.967 412.1C444.221 412.353 444.347 412.653 444.347 413C444.347 413.373 444.221 413.687 443.967 413.94ZM441.967 426V415.94H444.047V426H441.967ZM452.468 415.68C453.748 415.68 454.734 416.073 455.428 416.86C456.121 417.647 456.468 418.727 456.468 420.1V426H454.388V420.48C454.388 419.587 454.174 418.893 453.748 418.4C453.334 417.893 452.721 417.64 451.908 417.64C451.028 417.64 450.321 417.947 449.788 418.56C449.268 419.173 449.008 419.987 449.008 421V426H446.908V415.94H449.008V417.44C449.834 416.267 450.988 415.68 452.468 415.68ZM467.113 415.94H469.213V425.64C469.213 427.053 468.74 428.207 467.793 429.1C466.86 430.007 465.633 430.46 464.113 430.46C461.887 430.46 460.287 429.587 459.313 427.84L461.153 427.16C461.767 428.187 462.767 428.7 464.153 428.7C465.087 428.7 465.807 428.413 466.313 427.84C466.833 427.28 467.1 426.553 467.113 425.66V424.18C466.273 425.313 465.093 425.88 463.573 425.88C462.12 425.88 460.92 425.393 459.973 424.42C459.027 423.447 458.553 422.233 458.553 420.78C458.553 419.287 459.02 418.067 459.953 417.12C460.9 416.16 462.107 415.68 463.573 415.68C465.093 415.68 466.273 416.24 467.113 417.36V415.94ZM463.893 424C464.827 424 465.607 423.693 466.233 423.08C466.86 422.467 467.173 421.7 467.173 420.78C467.173 419.86 466.86 419.1 466.233 418.5C465.607 417.887 464.827 417.58 463.893 417.58C462.933 417.58 462.147 417.88 461.533 418.48C460.92 419.08 460.613 419.847 460.613 420.78C460.613 421.713 460.92 422.487 461.533 423.1C462.147 423.7 462.933 424 463.893 424ZM475.825 426.26C474.679 426.26 473.665 425.967 472.785 425.38C471.919 424.78 471.352 424.053 471.085 423.2L472.985 422.64C473.172 423.187 473.525 423.64 474.045 424C474.579 424.36 475.192 424.54 475.885 424.54C476.512 424.54 477.019 424.407 477.405 424.14C477.792 423.873 477.985 423.553 477.985 423.18C477.985 422.873 477.885 422.633 477.685 422.46C477.485 422.273 477.152 422.113 476.685 421.98L473.985 421.18C472.385 420.7 471.585 419.84 471.585 418.6C471.585 417.8 471.959 417.113 472.705 416.54C473.452 415.967 474.359 415.68 475.425 415.68C476.479 415.68 477.392 415.913 478.165 416.38C478.939 416.847 479.479 417.46 479.785 418.22L477.925 418.76C477.725 418.36 477.405 418.027 476.965 417.76C476.525 417.493 476.005 417.36 475.405 417.36C474.899 417.36 474.479 417.487 474.145 417.74C473.812 417.98 473.645 418.26 473.645 418.58C473.645 419.02 474.005 419.353 474.725 419.58L477.405 420.36C478.232 420.6 478.879 420.927 479.345 421.34C479.812 421.74 480.045 422.327 480.045 423.1C480.045 424.007 479.645 424.76 478.845 425.36C478.059 425.96 477.052 426.26 475.825 426.26Z" fill="#01396C"/>
<path d="M381.48 525.96H373.54V529.94H380.46V531.82H373.54V536.02H381.46V538H371.4V524H381.48V525.96ZM389.44 527.68C390.72 527.68 391.707 528.073 392.4 528.86C393.094 529.647 393.44 530.727 393.44 532.1V538H391.36V532.48C391.36 531.587 391.147 530.893 390.72 530.4C390.307 529.893 389.694 529.64 388.88 529.64C388 529.64 387.294 529.947 386.76 530.56C386.24 531.173 385.98 531.987 385.98 533V538H383.88V527.94H385.98V529.44C386.807 528.267 387.96 527.68 389.44 527.68ZM400.886 538.26C399.299 538.26 398.006 537.773 397.006 536.8C396.019 535.827 395.526 534.553 395.526 532.98C395.526 531.46 396.006 530.2 396.966 529.2C397.926 528.187 399.173 527.68 400.706 527.68C402.293 527.68 403.539 528.167 404.446 529.14C405.366 530.1 405.826 531.313 405.826 532.78C405.826 533.033 405.806 533.313 405.766 533.62H397.586C397.653 534.473 397.979 535.16 398.566 535.68C399.153 536.2 399.939 536.46 400.926 536.46C402.313 536.46 403.266 535.92 403.786 534.84L405.706 535.4C405.346 536.187 404.753 536.86 403.926 537.42C403.099 537.98 402.086 538.26 400.886 538.26ZM397.586 532.22L403.766 532.2C403.699 531.4 403.393 530.747 402.846 530.24C402.313 529.733 401.599 529.48 400.706 529.48C399.839 529.48 399.119 529.747 398.546 530.28C397.986 530.813 397.666 531.46 397.586 532.22ZM410.082 529.54C410.389 528.913 410.835 528.447 411.422 528.14C412.022 527.82 412.722 527.713 413.522 527.82V529.78C412.415 529.62 411.562 529.84 410.962 530.44C410.375 531.027 410.082 532.033 410.082 533.46V538H407.982V527.94H410.082V529.54ZM422.719 527.94H424.819V537.64C424.819 539.053 424.346 540.207 423.399 541.1C422.466 542.007 421.239 542.46 419.719 542.46C417.492 542.46 415.892 541.587 414.919 539.84L416.759 539.16C417.372 540.187 418.372 540.7 419.759 540.7C420.692 540.7 421.412 540.413 421.919 539.84C422.439 539.28 422.706 538.553 422.719 537.66V536.18C421.879 537.313 420.699 537.88 419.179 537.88C417.726 537.88 416.526 537.393 415.579 536.42C414.632 535.447 414.159 534.233 414.159 532.78C414.159 531.287 414.626 530.067 415.559 529.12C416.506 528.16 417.712 527.68 419.179 527.68C420.699 527.68 421.879 528.24 422.719 529.36V527.94ZM419.499 536C420.432 536 421.212 535.693 421.839 535.08C422.466 534.467 422.779 533.7 422.779 532.78C422.779 531.86 422.466 531.1 421.839 530.5C421.212 529.887 420.432 529.58 419.499 529.58C418.539 529.58 417.752 529.88 417.139 530.48C416.526 531.08 416.219 531.847 416.219 532.78C416.219 533.713 416.526 534.487 417.139 535.1C417.752 535.7 418.539 536 419.499 536ZM435.033 527.94H437.273L431.153 542.2H428.993L430.873 537.78L426.273 527.94H428.553L431.913 535.42L435.033 527.94ZM449.44 538.26C447.88 538.26 446.54 537.853 445.42 537.04C444.3 536.227 443.54 535.227 443.14 534.04L445.2 533.42C445.52 534.273 446.06 534.973 446.82 535.52C447.593 536.067 448.507 536.34 449.56 536.34C450.493 536.34 451.253 536.12 451.84 535.68C452.44 535.24 452.74 534.733 452.74 534.16C452.74 533.693 452.567 533.3 452.22 532.98C451.887 532.66 451.32 532.373 450.52 532.12L447 531C444.907 530.347 443.86 529.207 443.86 527.58C443.86 526.527 444.32 525.627 445.24 524.88C446.16 524.12 447.313 523.74 448.7 523.74C450.127 523.74 451.353 524.073 452.38 524.74C453.42 525.393 454.153 526.22 454.58 527.22L452.56 527.82C452.227 527.167 451.72 526.647 451.04 526.26C450.373 525.86 449.593 525.66 448.7 525.66C447.927 525.66 447.287 525.847 446.78 526.22C446.287 526.58 446.04 527.013 446.04 527.52C446.04 527.92 446.18 528.253 446.46 528.52C446.74 528.773 447.193 528.993 447.82 529.18L451.26 530.28C452.473 530.667 453.387 531.14 454 531.7C454.613 532.247 454.92 533.02 454.92 534.02C454.92 535.22 454.407 536.227 453.38 537.04C452.367 537.853 451.053 538.26 449.44 538.26ZM461.581 538.26C460.154 538.26 458.961 537.76 458.001 536.76C457.054 535.747 456.581 534.48 456.581 532.96C456.581 531.453 457.054 530.2 458.001 529.2C458.961 528.187 460.154 527.68 461.581 527.68C463.154 527.68 464.361 528.273 465.201 529.46V527.94H467.281V538H465.201V536.48C464.361 537.667 463.154 538.26 461.581 538.26ZM461.921 536.38C462.854 536.38 463.641 536.06 464.281 535.42C464.921 534.767 465.241 533.947 465.241 532.96C465.241 531.987 464.921 531.18 464.281 530.54C463.641 529.887 462.854 529.56 461.921 529.56C460.961 529.56 460.174 529.88 459.561 530.52C458.947 531.16 458.641 531.973 458.641 532.96C458.641 533.947 458.947 534.767 459.561 535.42C460.174 536.06 460.961 536.38 461.921 536.38ZM477.314 527.94H479.594L475.334 538H472.994L468.734 527.94H471.014L474.154 535.72L477.314 527.94ZM483.167 525.94C482.913 526.18 482.6 526.3 482.227 526.3C481.853 526.3 481.54 526.18 481.287 525.94C481.033 525.687 480.907 525.373 480.907 525C480.907 524.653 481.033 524.353 481.287 524.1C481.54 523.847 481.853 523.72 482.227 523.72C482.6 523.72 482.913 523.847 483.167 524.1C483.42 524.353 483.547 524.653 483.547 525C483.547 525.373 483.42 525.687 483.167 525.94ZM481.167 538V527.94H483.247V538H481.167ZM491.667 527.68C492.947 527.68 493.934 528.073 494.627 528.86C495.32 529.647 495.667 530.727 495.667 532.1V538H493.587V532.48C493.587 531.587 493.374 530.893 492.947 530.4C492.534 529.893 491.92 529.64 491.107 529.64C490.227 529.64 489.52 529.947 488.987 530.56C488.467 531.173 488.207 531.987 488.207 533V538H486.107V527.94H488.207V529.44C489.034 528.267 490.187 527.68 491.667 527.68ZM506.313 527.94H508.413V537.64C508.413 539.053 507.939 540.207 506.993 541.1C506.059 542.007 504.833 542.46 503.313 542.46C501.086 542.46 499.486 541.587 498.513 539.84L500.353 539.16C500.966 540.187 501.966 540.7 503.353 540.7C504.286 540.7 505.006 540.413 505.513 539.84C506.033 539.28 506.299 538.553 506.313 537.66V536.18C505.473 537.313 504.293 537.88 502.773 537.88C501.319 537.88 500.119 537.393 499.173 536.42C498.226 535.447 497.753 534.233 497.753 532.78C497.753 531.287 498.219 530.067 499.153 529.12C500.099 528.16 501.306 527.68 502.773 527.68C504.293 527.68 505.473 528.24 506.313 529.36V527.94ZM503.093 536C504.026 536 504.806 535.693 505.433 535.08C506.059 534.467 506.373 533.7 506.373 532.78C506.373 531.86 506.059 531.1 505.433 530.5C504.806 529.887 504.026 529.58 503.093 529.58C502.133 529.58 501.346 529.88 500.733 530.48C500.119 531.08 499.813 531.847 499.813 532.78C499.813 533.713 500.119 534.487 500.733 535.1C501.346 535.7 502.133 536 503.093 536ZM515.025 538.26C513.878 538.26 512.865 537.967 511.985 537.38C511.118 536.78 510.551 536.053 510.285 535.2L512.185 534.64C512.371 535.187 512.725 535.64 513.245 536C513.778 536.36 514.391 536.54 515.085 536.54C515.711 536.54 516.218 536.407 516.605 536.14C516.991 535.873 517.185 535.553 517.185 535.18C517.185 534.873 517.085 534.633 516.885 534.46C516.685 534.273 516.351 534.113 515.885 533.98L513.185 533.18C511.585 532.7 510.785 531.84 510.785 530.6C510.785 529.8 511.158 529.113 511.905 528.54C512.651 527.967 513.558 527.68 514.625 527.68C515.678 527.68 516.591 527.913 517.365 528.38C518.138 528.847 518.678 529.46 518.985 530.22L517.125 530.76C516.925 530.36 516.605 530.027 516.165 529.76C515.725 529.493 515.205 529.36 514.605 529.36C514.098 529.36 513.678 529.487 513.345 529.74C513.011 529.98 512.845 530.26 512.845 530.58C512.845 531.02 513.205 531.353 513.925 531.58L516.605 532.36C517.431 532.6 518.078 532.927 518.545 533.34C519.011 533.74 519.245 534.327 519.245 535.1C519.245 536.007 518.845 536.76 518.045 537.36C517.258 537.96 516.251 538.26 515.025 538.26Z" fill="#01396C"/>
<defs>
<filter id="filter0_if_1153_479" x="45" y="212" width="87" height="486" filterUnits="userSpaceOnUse" color-interpolation-filters="sRGB">
<feFlood flood-opacity="0" result="BackgroundImageFix"/>
<feBlend mode="normal" in="SourceGraphic" in2="BackgroundImageFix" result="shape"/>
<feColorMatrix in="SourceAlpha" type="matrix" values="0 0 0 0 0 0 0 0 0 0 0 0 0 0 0 0 0 0 127 0" result="hardAlpha"/>
<feOffset dy="4"/>
<feGaussianBlur stdDeviation="20"/>
<feComposite in2="hardAlpha" operator="arithmetic" k2="-1" k3="1"/>
<feColorMatrix type="matrix" values="0 0 0 0 0.0215666 0 0 0 0 0.322844 0 0 0 0 0.597222 0 0 0 1 0"/>
<feBlend mode="normal" in2="shape" result="effect1_innerShadow_1153_479"/>
<feGaussianBlur stdDeviation="20" result="effect2_foregroundBlur_1153_479"/>
</filter>
<filter id="filter1_d_1153_479" x="389.176" y="241.012" width="177.739" height="130.576" filterUnits="userSpaceOnUse" color-interpolation-filters="sRGB">
<feFlood flood-opacity="0" result="BackgroundImageFix"/>
<feColorMatrix in="SourceAlpha" type="matrix" values="0 0 0 0 0 0 0 0 0 0 0 0 0 0 0 0 0 0 127 0" result="hardAlpha"/>
<feOffset/>
<feGaussianBlur stdDeviation="25"/>
<feComposite in2="hardAlpha" operator="out"/>
<feColorMatrix type="matrix" values="0 0 0 0 0 0 0 0 0 0.628056 0 0 0 0 0.897222 0 0 0 1 0"/>
<feBlend mode="normal" in2="BackgroundImageFix" result="effect1_dropShadow_1153_479"/>
<feBlend mode="normal" in="SourceGraphic" in2="effect1_dropShadow_1153_479" result="shape"/>
</filter>
<filter id="filter2_d_1153_479" x="478.756" y="356.012" width="200.103" height="130.576" filterUnits="userSpaceOnUse" color-interpolation-filters="sRGB">
<feFlood flood-opacity="0" result="BackgroundImageFix"/>
<feColorMatrix in="SourceAlpha" type="matrix" values="0 0 0 0 0 0 0 0 0 0 0 0 0 0 0 0 0 0 127 0" result="hardAlpha"/>
<feOffset/>
<feGaussianBlur stdDeviation="25"/>
<feComposite in2="hardAlpha" operator="out"/>
<feColorMatrix type="matrix" values="0 0 0 0 0 0 0 0 0 0.628056 0 0 0 0 0.897222 0 0 0 1 0"/>
<feBlend mode="normal" in2="BackgroundImageFix" result="effect1_dropShadow_1153_479"/>
<feBlend mode="normal" in="SourceGraphic" in2="effect1_dropShadow_1153_479" result="shape"/>
</filter>
<filter id="filter3_if_1153_479" x="44.9282" y="235.979" width="418.919" height="134.036" filterUnits="userSpaceOnUse" color-interpolation-filters="sRGB">
<feFlood flood-opacity="0" result="BackgroundImageFix"/>
<feBlend mode="normal" in="SourceGraphic" in2="BackgroundImageFix" result="shape"/>
<feColorMatrix in="SourceAlpha" type="matrix" values="0 0 0 0 0 0 0 0 0 0 0 0 0 0 0 0 0 0 127 0" result="hardAlpha"/>
<feOffset/>
<feGaussianBlur stdDeviation="12"/>
<feComposite in2="hardAlpha" operator="arithmetic" k2="-1" k3="1"/>
<feColorMatrix type="matrix" values="0 0 0 0 0.154854 0 0 0 0 0.777263 0 0 0 0 0.913889 0 0 0 1 0"/>
<feBlend mode="normal" in2="shape" result="effect1_innerShadow_1153_479"/>
<feGaussianBlur stdDeviation="19.5" result="effect2_foregroundBlur_1153_479"/>
</filter>
<filter id="filter4_if_1153_479" x="140.988" y="235.979" width="320.975" height="137.3" filterUnits="userSpaceOnUse" color-interpolation-filters="sRGB">
<feFlood flood-opacity="0" result="BackgroundImageFix"/>
<feBlend mode="normal" in="SourceGraphic" in2="BackgroundImageFix" result="shape"/>
<feColorMatrix in="SourceAlpha" type="matrix" values="0 0 0 0 0 0 0 0 0 0 0 0 0 0 0 0 0 0 127 0" result="hardAlpha"/>
<feOffset/>
<feGaussianBlur stdDeviation="15"/>
<feComposite in2="hardAlpha" operator="arithmetic" k2="-1" k3="1"/>
<feColorMatrix type="matrix" values="0 0 0 0 0.105241 0 0 0 0 0.851389 0 0 0 0 0.269394 0 0 0 1 0"/>
<feBlend mode="normal" in2="shape" result="effect1_innerShadow_1153_479"/>
<feGaussianBlur stdDeviation="19.5" result="effect2_foregroundBlur_1153_479"/>
</filter>
<filter id="filter5_if_1153_479" x="344.403" y="268.788" width="83.2866" height="68.9629" filterUnits="userSpaceOnUse" color-interpolation-filters="sRGB">
<feFlood flood-opacity="0" result="BackgroundImageFix"/>
<feBlend mode="normal" in="SourceGraphic" in2="BackgroundImageFix" result="shape"/>
<feColorMatrix in="SourceAlpha" type="matrix" values="0 0 0 0 0 0 0 0 0 0 0 0 0 0 0 0 0 0 127 0" result="hardAlpha"/>
<feOffset/>
<feGaussianBlur stdDeviation="15"/>
<feComposite in2="hardAlpha" operator="arithmetic" k2="-1" k3="1"/>
<feColorMatrix type="matrix" values="0 0 0 0 0.419445 0 0 0 0 1 0 0 0 0 0.791 0 0 0 0.55 0"/>
<feBlend mode="normal" in2="shape" result="effect1_innerShadow_1153_479"/>
<feGaussianBlur stdDeviation="5" result="effect2_foregroundBlur_1153_479"/>
</filter>
<filter id="filter6_if_1153_479" x="44.9282" y="348.648" width="512.847" height="134.036" filterUnits="userSpaceOnUse" color-interpolation-filters="sRGB">
<feFlood flood-opacity="0" result="BackgroundImageFix"/>
<feBlend mode="normal" in="SourceGraphic" in2="BackgroundImageFix" result="shape"/>
<feColorMatrix in="SourceAlpha" type="matrix" values="0 0 0 0 0 0 0 0 0 0 0 0 0 0 0 0 0 0 127 0" result="hardAlpha"/>
<feOffset/>
<feGaussianBlur stdDeviation="12"/>
<feComposite in2="hardAlpha" operator="arithmetic" k2="-1" k3="1"/>
<feColorMatrix type="matrix" values="0 0 0 0 0.154854 0 0 0 0 0.777263 0 0 0 0 0.913889 0 0 0 1 0"/>
<feBlend mode="normal" in2="shape" result="effect1_innerShadow_1153_479"/>
<feGaussianBlur stdDeviation="19.5" result="effect2_foregroundBlur_1153_479"/>
</filter>
<filter id="filter7_if_1153_479" x="167.455" y="348.648" width="387.919" height="137.3" filterUnits="userSpaceOnUse" color-interpolation-filters="sRGB">
<feFlood flood-opacity="0" result="BackgroundImageFix"/>
<feBlend mode="normal" in="SourceGraphic" in2="BackgroundImageFix" result="shape"/>
<feColorMatrix in="SourceAlpha" type="matrix" values="0 0 0 0 0 0 0 0 0 0 0 0 0 0 0 0 0 0 127 0" result="hardAlpha"/>
<feOffset/>
<feGaussianBlur stdDeviation="15"/>
<feComposite in2="hardAlpha" operator="arithmetic" k2="-1" k3="1"/>
<feColorMatrix type="matrix" values="0 0 0 0 0.105241 0 0 0 0 0.851389 0 0 0 0 0.269394 0 0 0 1 0"/>
<feBlend mode="normal" in2="shape" result="effect1_innerShadow_1153_479"/>
<feGaussianBlur stdDeviation="19.5" result="effect2_foregroundBlur_1153_479"/>
</filter>
<filter id="filter8_if_1153_479" x="418.923" y="381.457" width="100.723" height="68.9629" filterUnits="userSpaceOnUse" color-interpolation-filters="sRGB">
<feFlood flood-opacity="0" result="BackgroundImageFix"/>
<feBlend mode="normal" in="SourceGraphic" in2="BackgroundImageFix" result="shape"/>
<feColorMatrix in="SourceAlpha" type="matrix" values="0 0 0 0 0 0 0 0 0 0 0 0 0 0 0 0 0 0 127 0" result="hardAlpha"/>
<feOffset/>
<feGaussianBlur stdDeviation="15"/>
<feComposite in2="hardAlpha" operator="arithmetic" k2="-1" k3="1"/>
<feColorMatrix type="matrix" values="0 0 0 0 0.419445 0 0 0 0 1 0 0 0 0 0.791 0 0 0 0.55 0"/>
<feBlend mode="normal" in2="shape" result="effect1_innerShadow_1153_479"/>
<feGaussianBlur stdDeviation="5" result="effect2_foregroundBlur_1153_479"/>
</filter>
<filter id="filter9_d_1153_479" x="510.756" y="466.6" width="201.128" height="129.988" filterUnits="userSpaceOnUse" color-interpolation-filters="sRGB">
<feFlood flood-opacity="0" result="BackgroundImageFix"/>
<feColorMatrix in="SourceAlpha" type="matrix" values="0 0 0 0 0 0 0 0 0 0 0 0 0 0 0 0 0 0 127 0" result="hardAlpha"/>
<feOffset/>
<feGaussianBlur stdDeviation="25"/>
<feComposite in2="hardAlpha" operator="out"/>
<feColorMatrix type="matrix" values="0 0 0 0 0 0 0 0 0 0.628056 0 0 0 0 0.897222 0 0 0 1 0"/>
<feBlend mode="normal" in2="BackgroundImageFix" result="effect1_dropShadow_1153_479"/>
<feBlend mode="normal" in="SourceGraphic" in2="effect1_dropShadow_1153_479" result="shape"/>
</filter>
<filter id="filter10_if_1153_479" x="44.9282" y="461.129" width="544.156" height="134.035" filterUnits="userSpaceOnUse" color-interpolation-filters="sRGB">
<feFlood flood-opacity="0" result="BackgroundImageFix"/>
<feBlend mode="normal" in="SourceGraphic" in2="BackgroundImageFix" result="shape"/>
<feColorMatrix in="SourceAlpha" type="matrix" values="0 0 0 0 0 0 0 0 0 0 0 0 0 0 0 0 0 0 127 0" result="hardAlpha"/>
<feOffset/>
<feGaussianBlur stdDeviation="12"/>
<feComposite in2="hardAlpha" operator="arithmetic" k2="-1" k3="1"/>
<feColorMatrix type="matrix" values="0 0 0 0 0.154854 0 0 0 0 0.777263 0 0 0 0 0.913889 0 0 0 1 0"/>
<feBlend mode="normal" in2="shape" result="effect1_innerShadow_1153_479"/>
<feGaussianBlur stdDeviation="19.5" result="effect2_foregroundBlur_1153_479"/>
</filter>
<filter id="filter11_if_1153_479" x="176.276" y="461.129" width="410.233" height="137.3" filterUnits="userSpaceOnUse" color-interpolation-filters="sRGB">
<feFlood flood-opacity="0" result="BackgroundImageFix"/>
<feBlend mode="normal" in="SourceGraphic" in2="BackgroundImageFix" result="shape"/>
<feColorMatrix in="SourceAlpha" type="matrix" values="0 0 0 0 0 0 0 0 0 0 0 0 0 0 0 0 0 0 127 0" result="hardAlpha"/>
<feOffset/>
<feGaussianBlur stdDeviation="15"/>
<feComposite in2="hardAlpha" operator="arithmetic" k2="-1" k3="1"/>
<feColorMatrix type="matrix" values="0 0 0 0 0.105241 0 0 0 0 0.851389 0 0 0 0 0.269394 0 0 0 1 0"/>
<feBlend mode="normal" in2="shape" result="effect1_innerShadow_1153_479"/>
<feGaussianBlur stdDeviation="19.5" result="effect2_foregroundBlur_1153_479"/>
</filter>
<filter id="filter12_if_1153_479" x="443.763" y="493.938" width="106.535" height="68.9629" filterUnits="userSpaceOnUse" color-interpolation-filters="sRGB">
<feFlood flood-opacity="0" result="BackgroundImageFix"/>
<feBlend mode="normal" in="SourceGraphic" in2="BackgroundImageFix" result="shape"/>
<feColorMatrix in="SourceAlpha" type="matrix" values="0 0 0 0 0 0 0 0 0 0 0 0 0 0 0 0 0 0 127 0" result="hardAlpha"/>
<feOffset/>
<feGaussianBlur stdDeviation="15"/>
<feComposite in2="hardAlpha" operator="arithmetic" k2="-1" k3="1"/>
<feColorMatrix type="matrix" values="0 0 0 0 0.419445 0 0 0 0 1 0 0 0 0 0.791 0 0 0 0.55 0"/>
<feBlend mode="normal" in2="shape" result="effect1_innerShadow_1153_479"/>
<feGaussianBlur stdDeviation="5" result="effect2_foregroundBlur_1153_479"/>
</filter>
</defs>
</svg>
