<svg width="740" height="720" viewBox="0 0 740 720" fill="none" xmlns="http://www.w3.org/2000/svg">
<rect width="720" height="720" fill="#01396C"/>
<rect x="81" y="216.775" width="2.11182" height="433.714" fill="#878787" fill-opacity="0.1"/>
<rect x="199.262" y="216.775" width="2.11182" height="433.714" fill="#878787" fill-opacity="0.1"/>
<rect x="317.523" y="216.775" width="2.11182" height="433.714" fill="#878787" fill-opacity="0.1"/>
<rect x="435.785" y="216.775" width="2.11182" height="433.714" fill="#878787" fill-opacity="0.1"/>
<rect x="554.047" y="216.775" width="2.11182" height="433.714" fill="#878787" fill-opacity="0.1"/>
<rect x="120.421" y="216.775" width="2.11182" height="433.714" fill="#878787" fill-opacity="0.1"/>
<rect x="238.682" y="216.775" width="2.11182" height="433.714" fill="#878787" fill-opacity="0.1"/>
<rect x="356.944" y="216.775" width="2.11182" height="433.714" fill="#878787" fill-opacity="0.1"/>
<rect x="475.206" y="216.775" width="2.11182" height="433.714" fill="#878787" fill-opacity="0.1"/>
<rect x="593.468" y="216.775" width="2.11182" height="433.714" fill="#878787" fill-opacity="0.1"/>
<rect x="159.841" y="216.775" width="2.11182" height="433.714" fill="#878787" fill-opacity="0.1"/>
<rect x="278.103" y="216.775" width="2.11182" height="433.714" fill="#878787" fill-opacity="0.1"/>
<rect x="396.365" y="216.775" width="2.11182" height="433.714" fill="#878787" fill-opacity="0.1"/>
<rect x="514.626" y="216.775" width="2.11182" height="433.714" fill="#878787" fill-opacity="0.1"/>
<rect x="632.888" y="216.775" width="2.11182" height="433.714" fill="#878787" fill-opacity="0.1"/>
<g filter="url(#filter0_if_1153_480)">
<rect x="86" y="252" width="8" height="406" fill="#D9D9D9"/>
</g>
<rect x="81" y="238" width="5" height="382" fill="white" fill-opacity="0.8"/>
<g filter="url(#filter1_d_1153_480)">
<path d="M332.864 310.206V315.288H329.21V321H323.456V315.288H309.26V311.088L319.382 291.6H325.598L316.022 310.206H323.456V304.2H329.21V310.206H332.864ZM339.092 321.336C338.112 321.336 337.286 321 336.614 320.328C335.97 319.656 335.648 318.844 335.648 317.892C335.648 316.996 335.984 316.226 336.656 315.582C337.328 314.938 338.14 314.616 339.092 314.616C340.044 314.616 340.842 314.938 341.486 315.582C342.158 316.226 342.494 316.996 342.494 317.892C342.494 318.844 342.158 319.656 341.486 320.328C340.842 321 340.044 321.336 339.092 321.336ZM357.117 300.966C360.169 301.134 362.647 302.17 364.551 304.074C366.483 305.978 367.449 308.344 367.449 311.172C367.449 314.14 366.385 316.618 364.257 318.606C362.157 320.594 359.497 321.588 356.277 321.588C353.085 321.588 350.425 320.594 348.297 318.606C346.197 316.618 345.147 314.14 345.147 311.172C345.147 309.212 345.861 307.084 347.289 304.788L355.815 291.6H362.325L356.235 301.008C356.431 300.98 356.725 300.966 357.117 300.966ZM352.329 314.952C353.337 315.932 354.653 316.422 356.277 316.422C357.901 316.422 359.217 315.932 360.225 314.952C361.233 313.944 361.737 312.684 361.737 311.172C361.737 309.688 361.233 308.456 360.225 307.476C359.217 306.468 357.901 305.964 356.277 305.964C354.681 305.964 353.379 306.468 352.371 307.476C351.363 308.456 350.859 309.688 350.859 311.172C350.859 312.684 351.349 313.944 352.329 314.952ZM390.976 321H384.634L379.636 314.238L374.638 321H368.338L376.276 310.248L368.674 299.748H374.974L379.636 306.174L384.34 299.748H390.598L383.038 310.248L390.976 321Z" fill="white"/>
</g>
<g filter="url(#filter2_d_1153_480)">
<path d="M608.66 406.6H613.574V436H607.736V413.026L601.142 416.092L599.756 411.178L608.66 406.6ZM626.543 406.6H631.457V436H625.619V413.026L619.025 416.092L617.639 411.178L626.543 406.6ZM640.1 436.336C639.12 436.336 638.294 436 637.622 435.328C636.978 434.656 636.656 433.844 636.656 432.892C636.656 431.996 636.992 431.226 637.664 430.582C638.336 429.938 639.148 429.616 640.1 429.616C641.052 429.616 641.85 429.938 642.494 430.582C643.166 431.226 643.502 431.996 643.502 432.892C643.502 433.844 643.166 434.656 642.494 435.328C641.85 436 641.052 436.336 640.1 436.336ZM645.445 406.6H666.571V410.59L655.441 436H649.309L659.977 411.808H645.445V406.6ZM689.892 436H683.55L678.552 429.238L673.554 436H667.254L675.192 425.248L667.59 414.748H673.89L678.552 421.174L683.256 414.748H689.514L681.954 425.248L689.892 436Z" fill="white"/>
</g>
<rect x="84.7717" y="274.979" width="190.997" height="59.2997" fill="#D9D9D9"/>
<g filter="url(#filter3_if_1153_480)">
<path d="M270.717 326.412V283.562L127.059 289.367L84.5576 279.271L278.992 274.979L277.211 331.015L129.513 326.412H270.717Z" fill="#7D4E4E" fill-opacity="0.02"/>
</g>
<g filter="url(#filter4_if_1153_480)">
<path d="M277.802 280.652L201.506 276.316L277.918 274.979L277.802 280.652L276.815 329.092L276.709 334.279L139.343 329.092H276.815L277.802 280.652Z" fill="#607D4E" fill-opacity="0.02"/>
</g>
<g filter="url(#filter5_if_1153_480)">
<path d="M274.91 278.788H238.816L271.099 285.603L274.91 327.751V278.788Z" fill="#446EDA" fill-opacity="0.1"/>
</g>
<rect x="85.2083" y="388" width="502.315" height="59.2997" fill="#D9D9D9"/>
<g filter="url(#filter6_if_1153_480)">
<path d="M574.237 439.433V396.582L196.421 402.387L84.6448 392.291L596 388L591.315 444.036L202.876 439.433H574.237Z" fill="#7D4E4E" fill-opacity="0.02"/>
</g>
<g filter="url(#filter7_if_1153_480)">
<path d="M592.873 393.672L392.217 389.337L593.177 388L592.873 393.672L590.277 442.112L589.999 447.3L228.73 442.112H590.277L592.873 393.672Z" fill="#607D4E" fill-opacity="0.02"/>
</g>
<g filter="url(#filter8_if_1153_480)">
<path d="M585.266 391.809H490.34L575.243 398.623L585.266 440.772V391.809Z" fill="#446EDA" fill-opacity="0.1"/>
</g>
<g filter="url(#filter9_d_1153_480)">
<path d="M420.672 516.6H441.798V520.59L430.668 546H424.536L435.204 521.808H420.672V516.6ZM443.627 546.336C442.647 546.336 441.821 546 441.149 545.328C440.505 544.656 440.183 543.844 440.183 542.892C440.183 541.996 440.519 541.226 441.191 540.582C441.863 539.938 442.675 539.616 443.627 539.616C444.579 539.616 445.377 539.938 446.021 540.582C446.693 541.226 447.029 541.996 447.029 542.892C447.029 543.844 446.693 544.656 446.021 545.328C445.377 546 444.579 546.336 443.627 546.336ZM473.78 535.206V540.288H470.126V546H464.372V540.288H450.176V536.088L460.298 516.6H466.514L456.938 535.206H464.372V529.2H470.126V535.206H473.78ZM497.48 546H491.138L486.14 539.238L481.142 546H474.842L482.78 535.248L475.178 524.748H481.478L486.14 531.174L490.844 524.748H497.102L489.542 535.248L497.48 546Z" fill="white"/>
</g>
<rect x="84.9895" y="500.129" width="307.256" height="59.2997" fill="#D9D9D9"/>
<g filter="url(#filter10_if_1153_480)">
<path d="M384.119 551.562V508.711L153.016 514.516L84.6448 504.42L397.431 500.129L394.565 556.164L156.964 551.562H384.119Z" fill="#7D4E4E" fill-opacity="0.02"/>
</g>
<g filter="url(#filter11_if_1153_480)">
<path d="M395.518 505.801L272.781 501.466L395.704 500.129L395.518 505.801L393.93 554.241L393.76 559.429L172.779 554.241H393.93L395.518 505.801Z" fill="#607D4E" fill-opacity="0.02"/>
</g>
<g filter="url(#filter12_if_1153_480)">
<path d="M390.864 503.938H332.8L384.733 510.752L390.864 552.901V503.938Z" fill="#446EDA" fill-opacity="0.1"/>
</g>
<path d="M96.9965 67.0506H104.388L91.8929 88.3134L92.0231 100.649H85.3511L85.2209 88.3134L72.2285 67.0506H79.6685L88.514 81.9777L96.9965 67.0506ZM114.788 101.321C111.044 101.321 107.927 100.105 105.438 97.6729C102.948 95.209 101.683 92.1532 101.645 88.5054C101.606 84.8576 102.806 81.8177 105.245 79.3859C107.683 76.922 110.774 75.6901 114.518 75.6901C118.262 75.6901 121.363 76.922 123.821 79.3859C126.31 81.8177 127.574 84.8576 127.613 88.5054C127.651 92.1532 126.452 95.209 124.014 97.6729C121.575 100.105 118.5 101.321 114.788 101.321ZM109.763 93.5931C111.056 94.905 112.711 95.561 114.727 95.561C116.743 95.561 118.368 94.905 119.603 93.5931C120.868 92.2492 121.491 90.5533 121.469 88.5054C121.447 86.4575 120.79 84.7776 119.496 83.4657C118.234 82.1217 116.594 81.4498 114.578 81.4498C112.562 81.4498 110.922 82.1217 109.656 83.4657C108.422 84.7776 107.815 86.4575 107.837 88.5054C107.859 90.5533 108.5 92.2492 109.763 93.5931ZM132.558 100.649L132.188 65.6106H138.524L138.894 100.649H132.558ZM156.648 101.321C152.904 101.321 149.787 100.105 147.297 97.6729C144.807 95.209 143.543 92.1532 143.504 88.5054C143.466 84.8576 144.666 81.8177 147.104 79.3859C149.542 76.922 152.633 75.6901 156.377 75.6901C160.121 75.6901 163.222 76.922 165.68 79.3859C168.17 81.8177 169.434 84.8576 169.472 88.5054C169.511 92.1532 168.311 95.209 165.873 97.6729C163.435 100.105 160.36 101.321 156.648 101.321ZM151.622 93.5931C152.916 94.905 154.571 95.561 156.587 95.561C158.603 95.561 160.228 94.905 161.462 93.5931C162.728 92.2492 163.35 90.5533 163.328 88.5054C163.307 86.4575 162.649 84.7776 161.355 83.4657C160.093 82.1217 158.454 81.4498 156.438 81.4498C154.422 81.4498 152.781 82.1217 151.515 83.4657C150.281 84.7776 149.675 86.4575 149.696 88.5054C149.718 90.5533 150.36 92.2492 151.622 93.5931ZM194.256 67.0506H201.504L188.61 100.649H181.41L167.808 67.0506H175.056L184.922 92.2972L194.256 67.0506ZM222.336 82.3617C226.226 84.0896 228.193 86.9535 228.235 90.9532C228.266 93.8971 227.092 96.3609 224.713 98.3448C222.334 100.329 219.208 101.321 215.336 101.321C211.464 101.321 208.318 100.345 205.897 98.3928C203.476 96.4089 202.25 93.9291 202.219 90.9532C202.176 86.9215 204.082 84.0576 207.936 82.3617C205.009 80.8898 203.528 78.5539 203.494 75.3541C203.467 72.8262 204.501 70.6984 206.595 68.9705C208.689 67.2426 211.479 66.3786 214.967 66.3786C218.423 66.3786 221.217 67.2426 223.347 68.9705C225.509 70.6984 226.603 72.8262 226.63 75.3541C226.664 78.5539 225.233 80.8898 222.336 82.3617ZM215.023 71.6103C213.423 71.6103 212.163 72.0263 211.244 72.8582C210.325 73.6902 209.871 74.7141 209.884 75.9301C209.897 77.146 210.372 78.1699 211.309 79.0019C212.245 79.8339 213.514 80.2498 215.114 80.2498C216.682 80.2498 217.925 79.8339 218.845 79.0019C219.796 78.1699 220.265 77.146 220.252 75.9301C220.239 74.7141 219.749 73.6902 218.78 72.8582C217.843 72.0263 216.591 71.6103 215.023 71.6103ZM210.606 94.2651C211.768 95.257 213.325 95.753 215.277 95.753C217.229 95.753 218.776 95.257 219.918 94.2651C221.059 93.2411 221.621 91.9612 221.605 90.4253C221.589 88.8894 221 87.6254 219.837 86.6335C218.674 85.6095 217.117 85.0976 215.165 85.0976C213.181 85.0976 211.618 85.5935 210.477 86.5855C209.367 87.5774 208.821 88.8574 208.837 90.4253C208.853 91.9612 209.443 93.2411 210.606 94.2651ZM231.518 105.016L250.08 62.7308H255.12L236.558 105.016H231.518ZM281.37 100.649L273.614 88.8894H266.462L266.586 100.649H260.058L259.703 67.0506H276.071C279.527 67.0506 282.323 68.1705 284.459 70.4104C286.594 72.6183 287.677 75.1461 287.707 77.994C287.731 80.2658 287.097 82.3457 285.805 84.2336C284.544 86.0895 282.766 87.4174 280.471 88.2174L288.954 100.649H281.37ZM266.294 72.9542L266.401 83.1297H275.809C277.473 83.1297 278.812 82.6337 279.825 81.6418C280.839 80.6498 281.338 79.4339 281.323 77.994C281.308 76.618 280.784 75.4341 279.749 74.4422C278.747 73.4502 277.478 72.9542 275.942 72.9542H266.294ZM319.814 67.0506L319.877 73.0022H308.597L308.889 100.649H302.313L302.021 73.0022H290.741L290.678 67.0506H319.814ZM320.768 88.5534L320.713 83.3217H338.233L338.288 88.5534H320.768ZM358.67 67.0506C363.534 67.0506 367.439 68.6025 370.383 71.7063C373.36 74.8101 374.875 78.8579 374.928 83.8496C374.98 88.7774 373.55 92.8091 370.639 95.945C367.76 99.0808 363.889 100.649 359.025 100.649H344.433L344.078 67.0506H358.67ZM358.818 94.697C361.698 94.697 364.007 93.6891 365.746 91.6732C367.485 89.6253 368.337 86.9695 368.302 83.7056C368.268 80.5058 367.361 77.914 365.58 75.9301C363.799 73.9462 361.469 72.9542 358.589 72.9542H350.669L350.898 94.697H358.818ZM391.683 101.321C387.779 101.321 384.583 100.153 382.094 97.8169C379.637 95.449 378.389 92.3452 378.348 88.5054C378.309 84.8256 379.445 81.7697 381.755 79.3379C384.098 76.906 387.157 75.6901 390.933 75.6901C394.805 75.6901 397.873 76.874 400.138 79.2419C402.403 81.6098 403.555 84.5856 403.592 88.1694C403.603 89.1613 403.563 89.9133 403.472 90.4253H384.608C384.85 92.0892 385.568 93.4331 386.763 94.457C387.957 95.449 389.611 95.945 391.723 95.945C394.539 95.945 396.495 94.873 397.593 92.7291L403.322 94.409C402.542 96.2329 401.135 97.8489 399.101 99.2568C397.1 100.633 394.627 101.321 391.683 101.321ZM384.566 86.4415H397.382C397.206 84.9056 396.537 83.6256 395.374 82.6017C394.243 81.5778 392.766 81.0658 390.942 81.0658C389.182 81.0658 387.715 81.5938 386.542 82.6497C385.401 83.7056 384.743 84.9696 384.566 86.4415ZM421.618 94.745L423.208 99.8807C421.296 100.649 419.412 101.033 417.556 101.033C414.868 101.033 412.828 100.265 411.436 98.7288C410.075 97.1929 409.381 95.065 409.352 92.3452L409.242 81.9297H405.162L405.104 76.362H409.184L409.101 68.4905H415.485L415.568 76.362H422.672L422.73 81.9297H415.626L415.736 92.3452C415.758 94.393 416.761 95.417 418.745 95.417C419.769 95.417 420.726 95.193 421.618 94.745ZM433.707 79.9618C435.274 76.826 437.932 75.5141 441.681 76.0261L441.744 81.9777C439.084 81.5618 437.088 82.0097 435.758 83.3217C434.428 84.6336 433.78 86.8895 433.814 90.0893L433.925 100.649H427.589L427.333 76.362H433.669L433.707 79.9618ZM83.5649 156.542H78.9209C76.1128 151.982 74.6771 146.702 74.6138 140.702C74.5502 134.679 75.8745 129.399 78.5866 124.863H83.2306C80.519 129.447 79.1947 134.727 79.2578 140.702C79.3203 146.63 80.756 151.91 83.5649 156.542ZM96.7151 152.15C93.8111 152.15 91.3314 151.418 89.2759 149.954C87.2202 148.466 85.7971 146.654 85.0066 144.518L89.7074 143.078C90.25 144.47 91.1501 145.61 92.4074 146.498C93.6886 147.362 95.2051 147.794 96.9571 147.794C98.3731 147.794 99.5218 147.482 100.403 146.858C101.285 146.234 101.721 145.49 101.712 144.626C101.705 143.954 101.447 143.378 100.937 142.898C100.428 142.418 99.5718 141.986 98.3678 141.602L91.9025 139.587C90.1447 139.035 88.7441 138.219 87.7007 137.139C86.6573 136.059 86.1393 134.739 86.1469 133.179C86.1019 131.187 86.9359 129.483 88.6489 128.067C90.362 126.651 92.5145 125.943 95.1065 125.943C97.7225 125.943 100.009 126.567 101.966 127.815C103.923 129.039 105.271 130.575 106.011 132.423L101.453 133.755C100.914 132.723 100.077 131.895 98.9427 131.271C97.8319 130.623 96.5805 130.299 95.1885 130.299C93.9885 130.299 93.0073 130.563 92.2448 131.091C91.5064 131.619 91.1413 132.267 91.1494 133.035C91.161 134.139 91.9734 134.931 93.5864 135.411L99.8717 137.427C102.087 138.099 103.776 138.951 104.939 139.983C106.101 140.99 106.693 142.442 106.713 144.338C106.736 146.546 105.82 148.406 103.964 149.918C102.107 151.406 99.6911 152.15 96.7151 152.15ZM119.25 152.15C116.322 152.15 113.925 151.274 112.058 149.522C110.215 147.746 109.279 145.418 109.249 142.538C109.219 139.779 110.071 137.487 111.804 135.663C113.561 133.839 115.855 132.927 118.687 132.927C121.591 132.927 123.892 133.815 125.591 135.591C127.29 137.367 128.154 139.599 128.182 142.286C128.19 143.03 128.16 143.594 128.092 143.978H113.944C114.125 145.226 114.664 146.234 115.56 147.002C116.455 147.746 117.695 148.118 119.279 148.118C121.391 148.118 122.859 147.314 123.682 145.706L127.979 146.966C127.394 148.334 126.338 149.546 124.814 150.602C123.313 151.634 121.458 152.15 119.25 152.15ZM113.912 140.99H123.524C123.392 139.839 122.89 138.879 122.018 138.111C121.17 137.343 120.062 136.959 118.694 136.959C117.374 136.959 116.274 137.355 115.394 138.147C114.539 138.939 114.045 139.887 113.912 140.99ZM145.323 133.431H150.075L150.26 150.998C150.287 153.566 149.445 155.654 147.734 157.262C146.023 158.893 143.764 159.709 140.956 159.709C136.852 159.709 133.907 158.114 132.121 154.922L136.246 153.446C137.246 155.006 138.838 155.786 141.022 155.786C142.462 155.786 143.562 155.342 144.32 154.454C145.103 153.566 145.499 152.414 145.508 150.998L145.485 148.802C144.087 150.554 142.177 151.43 139.753 151.43C137.161 151.43 135.003 150.542 133.28 148.766C131.558 146.99 130.682 144.794 130.655 142.178C130.626 139.467 131.443 137.247 133.105 135.519C134.79 133.791 136.941 132.927 139.557 132.927C141.981 132.927 143.911 133.803 145.345 135.555L145.323 133.431ZM140.535 147.146C141.999 147.146 143.195 146.69 144.121 145.778C145.071 144.842 145.538 143.642 145.523 142.178C145.507 140.714 145.015 139.527 144.045 138.615C143.099 137.679 141.894 137.211 140.43 137.211C138.918 137.211 137.687 137.679 136.737 138.615C135.811 139.527 135.355 140.714 135.371 142.178C135.386 143.642 135.867 144.842 136.813 145.778C137.783 146.69 139.023 147.146 140.535 147.146ZM176.516 132.927C178.724 132.927 180.483 133.623 181.794 135.015C183.104 136.383 183.773 138.315 183.799 140.81L183.913 151.646H179.161L179.058 141.818C179.026 138.843 177.846 137.355 175.518 137.355C174.27 137.355 173.315 137.799 172.653 138.687C172.014 139.551 171.703 140.774 171.719 142.358L171.817 151.646H167.029L166.926 141.818C166.894 138.843 165.738 137.355 163.458 137.355C162.186 137.355 161.219 137.811 160.557 138.723C159.894 139.611 159.572 140.87 159.589 142.502L159.685 151.646H154.933L154.741 133.431H159.493L159.516 135.591C160.865 133.815 162.656 132.927 164.888 132.927C167.36 132.927 169.193 133.839 170.389 135.663C171.809 133.839 173.852 132.927 176.516 132.927ZM197.191 152.15C194.263 152.15 191.866 151.274 190 149.522C188.157 147.746 187.22 145.418 187.19 142.538C187.161 139.779 188.013 137.487 189.745 135.663C191.502 133.839 193.797 132.927 196.629 132.927C199.533 132.927 201.834 133.815 203.533 135.591C205.231 137.367 206.095 139.599 206.123 142.286C206.131 143.03 206.101 143.594 206.033 143.978H191.885C192.066 145.226 192.605 146.234 193.501 147.002C194.397 147.746 195.637 148.118 197.221 148.118C199.333 148.118 200.8 147.314 201.623 145.706L205.921 146.966C205.335 148.334 204.28 149.546 202.755 150.602C201.254 151.634 199.399 152.15 197.191 152.15ZM191.854 140.99H201.466C201.333 139.839 200.831 138.879 199.959 138.111C199.111 137.343 198.003 136.959 196.635 136.959C195.315 136.959 194.215 137.355 193.336 138.147C192.48 138.939 191.986 139.887 191.854 140.99ZM220.235 132.927C222.563 132.927 224.346 133.647 225.585 135.087C226.825 136.527 227.457 138.495 227.484 140.99L227.596 151.646H222.844L222.741 141.89C222.726 140.474 222.379 139.371 221.698 138.579C221.042 137.763 220.077 137.355 218.805 137.355C217.485 137.355 216.422 137.835 215.617 138.795C214.835 139.755 214.452 141.038 214.469 142.646L214.564 151.646H209.812L209.62 133.431H214.372L214.396 135.735C215.841 133.863 217.787 132.927 220.235 132.927ZM242.459 147.218L243.651 151.07C242.217 151.646 240.804 151.934 239.412 151.934C237.396 151.934 235.866 151.358 234.822 150.206C233.802 149.054 233.281 147.458 233.26 145.418L233.177 137.607H230.117L230.073 133.431H233.133L233.071 127.527H237.859L237.921 133.431H243.249L243.293 137.607H237.965L238.048 145.418C238.064 146.954 238.816 147.722 240.304 147.722C241.072 147.722 241.79 147.554 242.459 147.218ZM253.948 152.15C251.404 152.15 249.258 151.238 247.511 149.414C245.763 147.566 244.875 145.274 244.846 142.538C244.817 139.779 245.657 137.487 247.366 135.663C249.074 133.839 251.201 132.927 253.745 132.927C256.241 132.927 258.206 133.827 259.641 135.627L259.618 133.431H264.406L264.598 151.646H259.81L259.787 149.414C258.39 151.238 256.444 152.15 253.948 152.15ZM254.731 147.902C256.195 147.902 257.413 147.398 258.387 146.39C259.384 145.358 259.874 144.062 259.858 142.502C259.842 140.966 259.324 139.695 258.306 138.687C257.311 137.679 256.082 137.175 254.618 137.175C253.13 137.175 251.911 137.679 250.962 138.687C250.012 139.671 249.545 140.942 249.562 142.502C249.579 144.086 250.072 145.382 251.043 146.39C252.013 147.398 253.243 147.902 254.731 147.902ZM279.619 147.218L280.811 151.07C279.377 151.646 277.964 151.934 276.572 151.934C274.556 151.934 273.026 151.358 271.982 150.206C270.962 149.054 270.441 147.458 270.42 145.418L270.337 137.607H267.277L267.233 133.431H270.293L270.231 127.527H275.019L275.081 133.431H280.409L280.453 137.607H275.125L275.208 145.418C275.224 146.954 275.976 147.722 277.464 147.722C278.232 147.722 278.95 147.554 279.619 147.218ZM288.298 130.083C287.751 130.611 287.082 130.875 286.29 130.875C285.498 130.875 284.823 130.611 284.266 130.083C283.708 129.531 283.425 128.859 283.417 128.067C283.408 127.299 283.678 126.651 284.224 126.123C284.77 125.595 285.44 125.331 286.232 125.331C287.024 125.331 287.698 125.595 288.256 126.123C288.814 126.651 289.096 127.299 289.105 128.067C289.113 128.859 288.844 129.531 288.298 130.083ZM284.061 151.646L283.869 133.431H288.657L288.849 151.646H284.061ZM302.235 152.15C299.427 152.15 297.089 151.238 295.222 149.414C293.354 147.566 292.406 145.274 292.377 142.538C292.349 139.803 293.249 137.523 295.077 135.699C296.906 133.851 299.224 132.927 302.032 132.927C304.84 132.927 307.166 133.851 309.009 135.699C310.877 137.523 311.825 139.803 311.853 142.538C311.882 145.274 310.982 147.566 309.154 149.414C307.325 151.238 305.019 152.15 302.235 152.15ZM298.466 146.354C299.436 147.338 300.677 147.83 302.189 147.83C303.701 147.83 304.92 147.338 305.846 146.354C306.795 145.346 307.262 144.074 307.245 142.538C307.229 141.002 306.736 139.743 305.766 138.759C304.819 137.751 303.59 137.247 302.078 137.247C300.566 137.247 299.335 137.751 298.386 138.759C297.46 139.743 297.005 141.002 297.021 142.538C297.038 144.074 297.519 145.346 298.466 146.354ZM325.985 132.927C328.313 132.927 330.096 133.647 331.335 135.087C332.575 136.527 333.207 138.495 333.234 140.99L333.346 151.646H328.594L328.491 141.89C328.476 140.474 328.129 139.371 327.448 138.579C326.792 137.763 325.827 137.355 324.555 137.355C323.235 137.355 322.172 137.835 321.367 138.795C320.585 139.755 320.202 141.038 320.219 142.646L320.314 151.646H315.562L315.37 133.431H320.122L320.146 135.735C321.591 133.863 323.537 132.927 325.985 132.927ZM336.139 156.542C338.85 151.91 340.174 146.63 340.112 140.702C340.049 134.727 338.613 129.447 335.805 124.863H340.449C343.304 129.399 344.74 134.679 344.756 140.702C344.82 146.75 343.495 152.03 340.783 156.542H336.139Z" fill="white"/>
<path d="M91.7629 186.2L91.7811 187.952H85.5891L85.7457 202.999H83.8257L83.6691 187.952H77.4531L77.4349 186.2H91.7629ZM97.0422 203.311C95.1862 203.311 93.6602 202.735 92.4642 201.583C91.2843 200.431 90.6844 198.903 90.6646 196.999C90.6459 195.207 91.1984 193.719 92.3221 192.535C93.4456 191.335 94.9034 190.735 96.6954 190.735C98.5514 190.735 100.021 191.303 101.105 192.439C102.189 193.575 102.74 195.007 102.758 196.735C102.762 197.103 102.749 197.391 102.719 197.599H92.4948C92.5874 198.815 93.0377 199.799 93.8455 200.551C94.6533 201.303 95.7132 201.679 97.0252 201.679C98.0012 201.679 98.823 201.463 99.4905 201.031C100.158 200.583 100.648 200.023 100.961 199.351L102.67 199.855C102.232 200.831 101.537 201.655 100.584 202.327C99.6308 202.983 98.4502 203.311 97.0422 203.311ZM92.4806 196.231L100.928 196.207C100.836 195.055 100.419 194.127 99.6754 193.423C98.932 192.719 97.9444 192.367 96.7124 192.367C95.5284 192.367 94.5403 192.743 93.7481 193.495C92.9719 194.247 92.5494 195.159 92.4806 196.231ZM110.046 203.311C108.718 203.311 107.539 202.967 106.508 202.279C105.492 201.575 104.827 200.711 104.513 199.687L106.236 199.207C106.467 199.927 106.93 200.527 107.623 201.007C108.331 201.471 109.15 201.703 110.078 201.703C110.958 201.703 111.676 201.511 112.232 201.127C112.788 200.743 113.063 200.279 113.057 199.735C113.052 199.271 112.913 198.919 112.638 198.679C112.364 198.423 111.913 198.199 111.287 198.007L107.869 196.999C106.007 196.455 105.069 195.487 105.055 194.095C105.045 193.183 105.461 192.399 106.302 191.743C107.143 191.071 108.18 190.735 109.412 190.735C110.644 190.735 111.703 191.015 112.588 191.575C113.49 192.135 114.13 192.847 114.507 193.711L112.832 194.215C112.602 193.671 112.181 193.215 111.57 192.847C110.958 192.479 110.236 192.295 109.404 192.295C108.652 192.295 108.038 192.479 107.562 192.847C107.101 193.215 106.874 193.623 106.878 194.071C106.885 194.711 107.426 195.191 108.501 195.511L111.92 196.519C112.835 196.791 113.551 197.167 114.068 197.647C114.6 198.111 114.871 198.775 114.88 199.639C114.891 200.695 114.436 201.575 113.516 202.279C112.611 202.967 111.454 203.311 110.046 203.311ZM124.207 201.055L124.727 202.639C123.915 202.991 123.085 203.167 122.237 203.167C121.069 203.167 120.185 202.831 119.586 202.159C119.003 201.471 118.706 200.535 118.693 199.351L118.624 192.703H116.248L116.231 191.023H118.607L118.564 186.896H120.412L120.455 191.023H124.559L124.576 192.703H120.472L120.541 199.351C120.556 200.759 121.211 201.463 122.507 201.463C123.099 201.463 123.666 201.327 124.207 201.055ZM132.269 203.311C130.413 203.311 128.887 202.735 127.691 201.583C126.511 200.431 125.911 198.903 125.891 196.999C125.872 195.207 126.425 193.719 127.549 192.535C128.672 191.335 130.13 190.735 131.922 190.735C133.778 190.735 135.248 191.303 136.332 192.439C137.416 193.575 137.966 195.007 137.984 196.735C137.988 197.103 137.975 197.391 137.945 197.599H127.721C127.814 198.815 128.264 199.799 129.072 200.551C129.88 201.303 130.94 201.679 132.252 201.679C133.228 201.679 134.05 201.463 134.717 201.031C135.384 200.583 135.875 200.023 136.188 199.351L137.897 199.855C137.459 200.831 136.764 201.655 135.811 202.327C134.857 202.983 133.677 203.311 132.269 203.311ZM127.707 196.231L136.155 196.207C136.063 195.055 135.645 194.127 134.902 193.423C134.159 192.719 133.171 192.367 131.939 192.367C130.755 192.367 129.767 192.743 128.975 193.495C128.198 194.247 127.776 195.159 127.707 196.231ZM150.704 185.48H152.552L152.734 202.999H150.886L150.863 200.815C149.84 202.479 148.273 203.311 146.161 203.311C144.433 203.311 142.987 202.711 141.822 201.511C140.658 200.311 140.066 198.807 140.047 196.999C140.029 195.207 140.589 193.719 141.729 192.535C142.868 191.335 144.302 190.735 146.03 190.735C148.126 190.735 149.711 191.551 150.784 193.183L150.704 185.48ZM146.408 201.631C147.656 201.631 148.715 201.191 149.586 200.311C150.457 199.431 150.885 198.335 150.872 197.023C150.858 195.711 150.407 194.615 149.517 193.735C148.628 192.855 147.56 192.415 146.312 192.415C145 192.415 143.924 192.847 143.085 193.711C142.262 194.575 141.858 195.679 141.872 197.023C141.885 198.351 142.313 199.455 143.154 200.335C144.011 201.199 145.096 201.631 146.408 201.631ZM172.599 201.511C171.411 202.711 169.913 203.311 168.105 203.311C166.297 203.311 164.779 202.711 163.551 201.511C162.338 200.295 161.722 198.791 161.704 196.999C161.685 195.207 162.27 193.719 163.457 192.535C164.661 191.335 166.166 190.735 167.974 190.735C169.782 190.735 171.293 191.335 172.505 192.535C173.718 193.719 174.333 195.207 174.352 196.999C174.37 198.791 173.786 200.295 172.599 201.511ZM168.088 201.607C169.368 201.607 170.427 201.175 171.266 200.311C172.121 199.431 172.542 198.335 172.528 197.023C172.514 195.711 172.071 194.615 171.198 193.735C170.341 192.855 169.272 192.415 167.992 192.415C166.696 192.415 165.621 192.855 164.766 193.735C163.911 194.615 163.49 195.711 163.504 197.023C163.518 198.335 163.961 199.431 164.834 200.311C165.707 201.175 166.792 201.607 168.088 201.607ZM183.413 190.735C184.901 190.735 186.074 191.199 186.932 192.127C187.805 193.055 188.251 194.335 188.268 195.967L188.341 202.999H186.493L186.422 196.231C186.41 195.047 186.104 194.127 185.506 193.471C184.923 192.799 184.095 192.463 183.023 192.463C181.823 192.463 180.852 192.879 180.108 193.711C179.381 194.543 179.024 195.631 179.038 196.975L179.101 202.999H177.253L177.128 191.023H178.976L178.998 193.135C179.439 192.415 180.033 191.839 180.78 191.407C181.544 190.959 182.421 190.735 183.413 190.735ZM214.317 194.095L214.328 195.127C214.338 197.655 213.567 199.655 212.014 201.127C210.462 202.583 208.469 203.311 206.037 203.311C203.541 203.311 201.444 202.479 199.747 200.815C198.05 199.135 197.188 197.047 197.162 194.551C197.137 192.103 197.947 190.047 199.594 188.383C201.24 186.72 203.296 185.888 205.76 185.888C207.648 185.888 209.293 186.352 210.694 187.28C212.096 188.192 213.092 189.383 213.684 190.855L211.889 191.335C211.397 190.231 210.62 189.351 209.557 188.695C208.51 188.024 207.259 187.688 205.803 187.688C203.803 187.688 202.177 188.351 200.927 189.679C199.677 191.007 199.062 192.623 199.082 194.527C199.102 196.479 199.751 198.135 201.029 199.495C202.324 200.855 204.011 201.535 206.091 201.535C207.915 201.535 209.405 201.015 210.562 199.975C211.719 198.919 212.345 197.511 212.438 195.751H205.838L205.821 194.095H214.317ZM224.455 186.2C226.135 186.2 227.477 186.752 228.48 187.856C229.484 188.959 229.993 190.215 230.007 191.623C230.022 193.063 229.532 194.327 228.535 195.415C227.554 196.487 226.2 197.023 224.472 197.023H219.048L219.11 202.999H217.214L217.039 186.2H224.455ZM224.406 195.295C225.558 195.295 226.474 194.935 227.154 194.215C227.835 193.479 228.17 192.615 228.159 191.623C228.149 190.631 227.788 189.775 227.077 189.055C226.381 188.319 225.497 187.952 224.425 187.952H218.953L219.03 195.295H224.406ZM244.149 186.2H246.069L246.174 196.327C246.196 198.439 245.598 200.135 244.379 201.415C243.176 202.679 241.495 203.311 239.335 203.311C237.175 203.311 235.472 202.679 234.227 201.415C232.998 200.135 232.372 198.439 232.35 196.327L232.245 186.2H234.189L234.294 196.279C234.31 197.879 234.748 199.159 235.606 200.119C236.479 201.063 237.716 201.535 239.316 201.535C240.916 201.535 242.143 201.063 242.998 200.119C243.852 199.159 244.27 197.879 244.254 196.279L244.149 186.2ZM249.439 196.351L249.422 194.767H257.942L257.959 196.351H249.439ZM263.412 201.247H272.724L272.743 202.999H261.511L261.336 186.2H263.256L263.412 201.247ZM286.997 197.551L287.015 199.279H284.711L284.75 202.999H282.854L282.815 199.279H274.103L274.088 197.839L280.231 186.2H282.319L276.317 197.551H282.797L282.753 193.303H284.649L284.693 197.551H286.997ZM305.461 185.48H307.309L307.492 202.999H305.644L305.621 200.815C304.598 202.479 303.031 203.311 300.919 203.311C299.191 203.311 297.745 202.711 296.58 201.511C295.416 200.311 294.824 198.807 294.805 196.999C294.787 195.207 295.347 193.719 296.487 192.535C297.626 191.335 299.06 190.735 300.788 190.735C302.884 190.735 304.469 191.551 305.541 193.183L305.461 185.48ZM301.165 201.631C302.413 201.631 303.473 201.191 304.344 200.311C305.214 199.431 305.643 198.335 305.629 197.023C305.616 195.711 305.164 194.615 304.275 193.735C303.386 192.855 302.317 192.415 301.069 192.415C299.757 192.415 298.682 192.847 297.843 193.711C297.02 194.575 296.615 195.679 296.629 197.023C296.643 198.351 297.071 199.455 297.912 200.335C298.769 201.199 299.853 201.631 301.165 201.631ZM316.628 203.311C314.772 203.311 313.246 202.735 312.05 201.583C310.87 200.431 310.27 198.903 310.25 196.999C310.232 195.207 310.784 193.719 311.908 192.535C313.032 191.335 314.489 190.735 316.281 190.735C318.137 190.735 319.607 191.303 320.691 192.439C321.775 193.575 322.326 195.007 322.344 196.735C322.348 197.103 322.335 197.391 322.305 197.599H312.081C312.173 198.815 312.624 199.799 313.431 200.551C314.239 201.303 315.299 201.679 316.611 201.679C317.587 201.679 318.409 201.463 319.076 201.031C319.744 200.583 320.234 200.023 320.547 199.351L322.256 199.855C321.818 200.831 321.123 201.655 320.17 202.327C319.217 202.983 318.036 203.311 316.628 203.311ZM312.067 196.231L320.514 196.207C320.422 195.055 320.005 194.127 319.261 193.423C318.518 192.719 317.53 192.367 316.298 192.367C315.114 192.367 314.126 192.743 313.334 193.495C312.558 194.247 312.135 195.159 312.067 196.231ZM333.431 191.023H335.423L330.34 202.999H328.3L322.967 191.023H324.959L329.311 200.983L333.431 191.023ZM339.381 188.431C339.143 188.671 338.84 188.791 338.472 188.791C338.104 188.791 337.799 188.671 337.557 188.431C337.314 188.192 337.191 187.888 337.187 187.52C337.184 187.184 337.301 186.896 337.538 186.656C337.792 186.416 338.094 186.296 338.446 186.296C338.798 186.296 339.096 186.416 339.338 186.656C339.597 186.896 339.728 187.184 339.731 187.52C339.735 187.888 339.618 188.192 339.381 188.431ZM337.708 202.999L337.584 191.023H339.432L339.556 202.999H337.708ZM348.736 203.311C346.944 203.311 345.45 202.711 344.253 201.511C343.056 200.295 342.449 198.783 342.43 196.975C342.411 195.199 342.988 193.719 344.16 192.535C345.331 191.335 346.813 190.735 348.605 190.735C350.029 190.735 351.241 191.111 352.241 191.863C353.256 192.599 353.905 193.431 354.187 194.359L352.464 194.863C352.249 194.207 351.787 193.631 351.078 193.135C350.369 192.639 349.55 192.391 348.622 192.391C347.31 192.391 346.251 192.847 345.444 193.759C344.638 194.655 344.241 195.743 344.254 197.023C344.268 198.287 344.687 199.375 345.512 200.287C346.354 201.183 347.422 201.631 348.718 201.631C349.662 201.631 350.476 201.399 351.159 200.935C351.858 200.455 352.308 199.887 352.509 199.231L354.242 199.687C353.98 200.631 353.357 201.471 352.372 202.207C351.388 202.943 350.176 203.311 348.736 203.311ZM362.659 203.311C360.803 203.311 359.277 202.735 358.081 201.583C356.901 200.431 356.302 198.903 356.282 196.999C356.263 195.207 356.816 193.719 357.939 192.535C359.063 191.335 360.521 190.735 362.313 190.735C364.169 190.735 365.638 191.303 366.722 192.439C367.806 193.575 368.357 195.007 368.375 196.735C368.379 197.103 368.366 197.391 368.336 197.599H358.112C358.205 198.815 358.655 199.799 359.463 200.551C360.271 201.303 361.33 201.679 362.642 201.679C363.618 201.679 364.44 201.463 365.108 201.031C365.775 200.583 366.265 200.023 366.578 199.351L368.287 199.855C367.85 200.831 367.154 201.655 366.201 202.327C365.248 202.983 364.067 203.311 362.659 203.311ZM358.098 196.231L366.546 196.207C366.454 195.055 366.036 194.127 365.293 193.423C364.549 192.719 363.562 192.367 362.33 192.367C361.146 192.367 360.157 192.743 359.365 193.495C358.589 194.247 358.167 195.159 358.098 196.231ZM375.664 203.311C374.336 203.311 373.156 202.967 372.125 202.279C371.11 201.575 370.445 200.711 370.13 199.687L371.853 199.207C372.084 199.927 372.547 200.527 373.24 201.007C373.949 201.471 374.767 201.703 375.695 201.703C376.575 201.703 377.293 201.511 377.849 201.127C378.405 200.743 378.68 200.279 378.674 199.735C378.67 199.271 378.53 198.919 378.255 198.679C377.981 198.423 377.53 198.199 376.904 198.007L373.486 196.999C371.624 196.455 370.686 195.487 370.672 194.095C370.662 193.183 371.078 192.399 371.919 191.743C372.76 191.071 373.797 190.735 375.029 190.735C376.261 190.735 377.32 191.015 378.206 191.575C379.107 192.135 379.747 192.847 380.124 193.711L378.449 194.215C378.219 193.671 377.799 193.215 377.187 192.847C376.575 192.479 375.853 192.295 375.021 192.295C374.269 192.295 373.655 192.479 373.179 192.847C372.719 193.215 372.491 193.623 372.496 194.071C372.502 194.711 373.043 195.191 374.119 195.511L377.537 196.519C378.452 196.791 379.168 197.167 379.685 197.647C380.218 198.111 380.488 198.775 380.497 199.639C380.508 200.695 380.054 201.575 379.133 202.279C378.228 202.967 377.072 203.311 375.664 203.311Z" fill="#5292C8"/>
<path d="M278.84 633L275.18 627.5H271.08V633H269.5V619H275.98C277.34 619 278.42 619.433 279.22 620.3C280.02 621.167 280.42 622.153 280.42 623.26C280.42 624.247 280.107 625.14 279.48 625.94C278.867 626.727 278.013 627.22 276.92 627.42L280.68 633H278.84ZM271.08 620.44V626.08H275.92C276.813 626.08 277.527 625.807 278.06 625.26C278.607 624.7 278.88 624.033 278.88 623.26C278.88 622.5 278.607 621.84 278.06 621.28C277.527 620.72 276.82 620.44 275.94 620.44H271.08ZM290.42 623.02H291.96V633H290.42V631.26C289.607 632.593 288.38 633.26 286.74 633.26C285.487 633.26 284.5 632.873 283.78 632.1C283.074 631.327 282.72 630.253 282.72 628.88V623.02H284.26V628.66C284.26 629.647 284.5 630.42 284.98 630.98C285.474 631.527 286.167 631.8 287.06 631.8C288.074 631.8 288.887 631.453 289.5 630.76C290.114 630.067 290.42 629.16 290.42 628.04V623.02ZM300.209 622.78C301.449 622.78 302.422 623.167 303.129 623.94C303.849 624.713 304.209 625.78 304.209 627.14V633H302.669V627.36C302.669 626.373 302.422 625.607 301.929 625.06C301.449 624.5 300.762 624.22 299.869 624.22C298.869 624.22 298.055 624.567 297.429 625.26C296.815 625.953 296.509 626.86 296.509 627.98V633H294.969V623.02H296.509V624.78C296.882 624.18 297.382 623.7 298.009 623.34C298.649 622.967 299.382 622.78 300.209 622.78ZM312.597 631.38L313.017 632.7C312.337 632.993 311.644 633.14 310.937 633.14C309.964 633.14 309.231 632.86 308.737 632.3C308.257 631.727 308.017 630.947 308.017 629.96V624.42H306.037V623.02H308.017V619.58H309.557V623.02H312.977V624.42H309.557V629.96C309.557 631.133 310.097 631.72 311.177 631.72C311.671 631.72 312.144 631.607 312.597 631.38ZM316.901 620.86C316.701 621.06 316.447 621.16 316.141 621.16C315.834 621.16 315.581 621.06 315.381 620.86C315.181 620.66 315.081 620.407 315.081 620.1C315.081 619.82 315.181 619.58 315.381 619.38C315.594 619.18 315.847 619.08 316.141 619.08C316.434 619.08 316.681 619.18 316.881 619.38C317.094 619.58 317.201 619.82 317.201 620.1C317.201 620.407 317.101 620.66 316.901 620.86ZM315.381 633V623.02H316.921V633H315.381ZM331.648 622.78C332.848 622.78 333.794 623.153 334.488 623.9C335.181 624.633 335.528 625.667 335.528 627V633H333.988V627.24C333.988 626.28 333.768 625.54 333.328 625.02C332.888 624.487 332.241 624.22 331.388 624.22C330.534 624.22 329.841 624.533 329.308 625.16C328.788 625.787 328.528 626.62 328.528 627.66V633H326.988V627.24C326.988 626.293 326.774 625.553 326.348 625.02C325.934 624.487 325.328 624.22 324.528 624.22C323.648 624.22 322.928 624.56 322.368 625.24C321.821 625.907 321.548 626.793 321.548 627.9V633H320.008V623.02H321.548V624.66C322.294 623.407 323.401 622.78 324.868 622.78C326.388 622.78 327.454 623.42 328.068 624.7C328.801 623.42 329.994 622.78 331.648 622.78ZM343.046 633.26C341.499 633.26 340.232 632.78 339.246 631.82C338.272 630.86 337.786 629.587 337.786 628C337.786 626.507 338.259 625.267 339.206 624.28C340.152 623.28 341.372 622.78 342.866 622.78C344.412 622.78 345.632 623.253 346.526 624.2C347.419 625.147 347.866 626.34 347.866 627.78C347.866 628.087 347.852 628.327 347.826 628.5H339.306C339.372 629.513 339.739 630.333 340.406 630.96C341.072 631.587 341.952 631.9 343.046 631.9C343.859 631.9 344.546 631.72 345.106 631.36C345.666 630.987 346.079 630.52 346.346 629.96L347.766 630.38C347.392 631.193 346.806 631.88 346.006 632.44C345.206 632.987 344.219 633.26 343.046 633.26ZM339.306 627.36L346.346 627.34C346.279 626.38 345.939 625.607 345.326 625.02C344.712 624.433 343.892 624.14 342.866 624.14C341.879 624.14 341.052 624.453 340.386 625.08C339.732 625.707 339.372 626.467 339.306 627.36ZM367.038 622.78C368.238 622.78 369.185 623.153 369.878 623.9C370.572 624.633 370.918 625.667 370.918 627V633H369.378V627.24C369.378 626.28 369.158 625.54 368.718 625.02C368.278 624.487 367.632 624.22 366.778 624.22C365.925 624.22 365.232 624.533 364.698 625.16C364.178 625.787 363.918 626.62 363.918 627.66V633H362.378V627.24C362.378 626.293 362.165 625.553 361.738 625.02C361.325 624.487 360.718 624.22 359.918 624.22C359.038 624.22 358.318 624.56 357.758 625.24C357.212 625.907 356.938 626.793 356.938 627.9V633H355.398V623.02H356.938V624.66C357.685 623.407 358.792 622.78 360.258 622.78C361.778 622.78 362.845 623.42 363.458 624.7C364.192 623.42 365.385 622.78 367.038 622.78ZM381.319 623.02H382.859V633H381.319V631.26C380.505 632.593 379.279 633.26 377.639 633.26C376.385 633.26 375.399 632.873 374.679 632.1C373.972 631.327 373.619 630.253 373.619 628.88V623.02H375.159V628.66C375.159 629.647 375.399 630.42 375.879 630.98C376.372 631.527 377.065 631.8 377.959 631.8C378.972 631.8 379.785 631.453 380.399 630.76C381.012 630.067 381.319 629.16 381.319 628.04V623.02ZM385.867 633V618.4H387.407V633H385.867ZM395.878 631.38L396.298 632.7C395.618 632.993 394.925 633.14 394.218 633.14C393.245 633.14 392.512 632.86 392.018 632.3C391.538 631.727 391.298 630.947 391.298 629.96V624.42H389.318V623.02H391.298V619.58H392.838V623.02H396.258V624.42H392.838V629.96C392.838 631.133 393.378 631.72 394.458 631.72C394.952 631.72 395.425 631.607 395.878 631.38ZM400.182 620.86C399.982 621.06 399.729 621.16 399.422 621.16C399.115 621.16 398.862 621.06 398.662 620.86C398.462 620.66 398.362 620.407 398.362 620.1C398.362 619.82 398.462 619.58 398.662 619.38C398.875 619.18 399.129 619.08 399.422 619.08C399.715 619.08 399.962 619.18 400.162 619.38C400.375 619.58 400.482 619.82 400.482 620.1C400.482 620.407 400.382 620.66 400.182 620.86ZM398.662 633V623.02H400.202V633H398.662ZM408.769 622.78C410.209 622.78 411.409 623.28 412.369 624.28C413.329 625.267 413.809 626.507 413.809 628C413.809 629.507 413.329 630.76 412.369 631.76C411.409 632.76 410.209 633.26 408.769 633.26C407.889 633.26 407.109 633.08 406.429 632.72C405.762 632.347 405.229 631.833 404.829 631.18V637.2H403.289V623.02H404.829V624.82C405.682 623.46 406.996 622.78 408.769 622.78ZM408.549 631.86C409.642 631.86 410.536 631.5 411.229 630.78C411.936 630.047 412.289 629.127 412.289 628.02C412.289 626.9 411.936 625.98 411.229 625.26C410.536 624.54 409.642 624.18 408.549 624.18C407.509 624.18 406.622 624.547 405.889 625.28C405.156 626.013 404.789 626.927 404.789 628.02C404.789 629.113 405.156 630.027 405.889 630.76C406.622 631.493 407.509 631.86 408.549 631.86ZM416.16 633V618.4H417.7V633H416.16ZM422.291 620.86C422.091 621.06 421.838 621.16 421.531 621.16C421.225 621.16 420.971 621.06 420.771 620.86C420.571 620.66 420.471 620.407 420.471 620.1C420.471 619.82 420.571 619.58 420.771 619.38C420.985 619.18 421.238 619.08 421.531 619.08C421.825 619.08 422.071 619.18 422.271 619.38C422.485 619.58 422.591 619.82 422.591 620.1C422.591 620.407 422.491 620.66 422.291 620.86ZM420.771 633V623.02H422.311V633H420.771ZM430.018 633.26C428.472 633.26 427.205 632.78 426.218 631.82C425.245 630.86 424.758 629.587 424.758 628C424.758 626.507 425.232 625.267 426.178 624.28C427.125 623.28 428.345 622.78 429.838 622.78C431.385 622.78 432.605 623.253 433.498 624.2C434.392 625.147 434.838 626.34 434.838 627.78C434.838 628.087 434.825 628.327 434.798 628.5H426.278C426.345 629.513 426.712 630.333 427.378 630.96C428.045 631.587 428.925 631.9 430.018 631.9C430.832 631.9 431.518 631.72 432.078 631.36C432.638 630.987 433.052 630.52 433.318 629.96L434.738 630.38C434.365 631.193 433.778 631.88 432.978 632.44C432.178 632.987 431.192 633.26 430.018 633.26ZM426.278 627.36L433.318 627.34C433.252 626.38 432.912 625.607 432.298 625.02C431.685 624.433 430.865 624.14 429.838 624.14C428.852 624.14 428.025 624.453 427.358 625.08C426.705 625.707 426.345 626.467 426.278 627.36ZM438.735 624.74C439.042 624.06 439.502 623.553 440.115 623.22C440.729 622.887 441.462 622.78 442.315 622.9V624.34C441.195 624.193 440.315 624.447 439.675 625.1C439.049 625.74 438.735 626.82 438.735 628.34V633H437.195V623.02H438.735V624.74Z" fill="#3287CE"/>
<path d="M97.58 310H104.94V312H95.4V298H97.58V310ZM110.893 312.26C109.467 312.26 108.273 311.76 107.313 310.76C106.367 309.747 105.893 308.48 105.893 306.96C105.893 305.453 106.367 304.2 107.313 303.2C108.273 302.187 109.467 301.68 110.893 301.68C112.467 301.68 113.673 302.273 114.513 303.46V301.94H116.593V312H114.513V310.48C113.673 311.667 112.467 312.26 110.893 312.26ZM111.233 310.38C112.167 310.38 112.953 310.06 113.593 309.42C114.233 308.767 114.553 307.947 114.553 306.96C114.553 305.987 114.233 305.18 113.593 304.54C112.953 303.887 112.167 303.56 111.233 303.56C110.273 303.56 109.487 303.88 108.873 304.52C108.26 305.16 107.953 305.973 107.953 306.96C107.953 307.947 108.26 308.767 108.873 309.42C109.487 310.06 110.273 310.38 111.233 310.38ZM125.024 309.96L125.544 311.68C124.784 312 124.044 312.16 123.324 312.16C122.271 312.16 121.484 311.86 120.964 311.26C120.444 310.647 120.184 309.807 120.184 308.74V303.8H118.344V301.94H120.184V298.58H122.264V301.94H125.464V303.8H122.264V308.74C122.264 309.767 122.744 310.28 123.704 310.28C124.144 310.28 124.584 310.173 125.024 309.96ZM131.781 312.26C130.194 312.26 128.901 311.773 127.901 310.8C126.914 309.827 126.421 308.553 126.421 306.98C126.421 305.46 126.901 304.2 127.861 303.2C128.821 302.187 130.067 301.68 131.601 301.68C133.187 301.68 134.434 302.167 135.341 303.14C136.261 304.1 136.721 305.313 136.721 306.78C136.721 307.033 136.701 307.313 136.661 307.62H128.481C128.547 308.473 128.874 309.16 129.461 309.68C130.047 310.2 130.834 310.46 131.821 310.46C133.207 310.46 134.161 309.92 134.681 308.84L136.601 309.4C136.241 310.187 135.647 310.86 134.821 311.42C133.994 311.98 132.981 312.26 131.781 312.26ZM128.481 306.22L134.661 306.2C134.594 305.4 134.287 304.747 133.741 304.24C133.207 303.733 132.494 303.48 131.601 303.48C130.734 303.48 130.014 303.747 129.441 304.28C128.881 304.813 128.561 305.46 128.481 306.22ZM144.437 301.68C145.717 301.68 146.703 302.073 147.397 302.86C148.09 303.647 148.437 304.727 148.437 306.1V312H146.357V306.48C146.357 305.587 146.143 304.893 145.717 304.4C145.303 303.893 144.69 303.64 143.877 303.64C142.997 303.64 142.29 303.947 141.757 304.56C141.237 305.173 140.977 305.987 140.977 307V312H138.877V301.94H140.977V303.44C141.803 302.267 142.957 301.68 144.437 301.68ZM155.802 312.26C154.282 312.26 153.022 311.753 152.022 310.74C151.022 309.727 150.522 308.467 150.522 306.96C150.522 305.453 151.016 304.2 152.002 303.2C153.002 302.187 154.262 301.68 155.782 301.68C157.036 301.68 158.089 302.007 158.942 302.66C159.809 303.3 160.349 304.033 160.562 304.86L158.622 305.42C158.476 304.927 158.142 304.493 157.622 304.12C157.102 303.747 156.496 303.56 155.802 303.56C154.842 303.56 154.062 303.893 153.462 304.56C152.862 305.213 152.562 306.013 152.562 306.96C152.562 307.893 152.862 308.7 153.462 309.38C154.076 310.047 154.856 310.38 155.802 310.38C156.496 310.38 157.102 310.207 157.622 309.86C158.142 309.5 158.476 309.073 158.622 308.58L160.562 309.12C160.349 309.933 159.816 310.66 158.962 311.3C158.109 311.94 157.056 312.26 155.802 312.26ZM169.951 301.94H172.191L166.071 316.2H163.911L165.791 311.78L161.191 301.94H163.471L166.831 309.42L169.951 301.94ZM182.638 312.26C181.491 312.26 180.478 311.967 179.598 311.38C178.731 310.78 178.165 310.053 177.898 309.2L179.798 308.64C179.985 309.187 180.338 309.64 180.858 310C181.391 310.36 182.005 310.54 182.698 310.54C183.325 310.54 183.831 310.407 184.218 310.14C184.605 309.873 184.798 309.553 184.798 309.18C184.798 308.873 184.698 308.633 184.498 308.46C184.298 308.273 183.965 308.113 183.498 307.98L180.798 307.18C179.198 306.7 178.398 305.84 178.398 304.6C178.398 303.8 178.771 303.113 179.518 302.54C180.265 301.967 181.171 301.68 182.238 301.68C183.291 301.68 184.205 301.913 184.978 302.38C185.751 302.847 186.291 303.46 186.598 304.22L184.738 304.76C184.538 304.36 184.218 304.027 183.778 303.76C183.338 303.493 182.818 303.36 182.218 303.36C181.711 303.36 181.291 303.487 180.958 303.74C180.625 303.98 180.458 304.26 180.458 304.58C180.458 305.02 180.818 305.353 181.538 305.58L184.218 306.36C185.045 306.6 185.691 306.927 186.158 307.34C186.625 307.74 186.858 308.327 186.858 309.1C186.858 310.007 186.458 310.76 185.658 311.36C184.871 311.96 183.865 312.26 182.638 312.26ZM194.811 301.68C196.238 301.68 197.431 302.187 198.391 303.2C199.351 304.2 199.831 305.453 199.831 306.96C199.831 308.48 199.351 309.747 198.391 310.76C197.431 311.76 196.238 312.26 194.811 312.26C193.251 312.26 192.051 311.667 191.211 310.48V316.2H189.111V301.94H191.211V303.46C192.051 302.273 193.251 301.68 194.811 301.68ZM194.471 310.38C195.431 310.38 196.218 310.06 196.831 309.42C197.444 308.767 197.751 307.947 197.751 306.96C197.751 305.973 197.444 305.16 196.831 304.52C196.218 303.88 195.431 303.56 194.471 303.56C193.538 303.56 192.751 303.887 192.111 304.54C191.471 305.18 191.151 305.987 191.151 306.96C191.151 307.947 191.471 308.767 192.111 309.42C192.751 310.06 193.538 310.38 194.471 310.38ZM206.722 312.26C205.135 312.26 203.842 311.773 202.842 310.8C201.855 309.827 201.362 308.553 201.362 306.98C201.362 305.46 201.842 304.2 202.802 303.2C203.762 302.187 205.009 301.68 206.542 301.68C208.129 301.68 209.375 302.167 210.282 303.14C211.202 304.1 211.662 305.313 211.662 306.78C211.662 307.033 211.642 307.313 211.602 307.62H203.422C203.489 308.473 203.815 309.16 204.402 309.68C204.989 310.2 205.775 310.46 206.762 310.46C208.149 310.46 209.102 309.92 209.622 308.84L211.542 309.4C211.182 310.187 210.589 310.86 209.762 311.42C208.935 311.98 207.922 312.26 206.722 312.26ZM203.422 306.22L209.602 306.2C209.535 305.4 209.229 304.747 208.682 304.24C208.149 303.733 207.435 303.48 206.542 303.48C205.675 303.48 204.955 303.747 204.382 304.28C203.822 304.813 203.502 305.46 203.422 306.22ZM218.558 312.26C216.971 312.26 215.678 311.773 214.678 310.8C213.691 309.827 213.198 308.553 213.198 306.98C213.198 305.46 213.678 304.2 214.638 303.2C215.598 302.187 216.845 301.68 218.378 301.68C219.965 301.68 221.211 302.167 222.118 303.14C223.038 304.1 223.498 305.313 223.498 306.78C223.498 307.033 223.478 307.313 223.438 307.62H215.258C215.325 308.473 215.651 309.16 216.238 309.68C216.825 310.2 217.611 310.46 218.598 310.46C219.985 310.46 220.938 309.92 221.458 308.84L223.378 309.4C223.018 310.187 222.425 310.86 221.598 311.42C220.771 311.98 219.758 312.26 218.558 312.26ZM215.258 306.22L221.438 306.2C221.371 305.4 221.065 304.747 220.518 304.24C219.985 303.733 219.271 303.48 218.378 303.48C217.511 303.48 216.791 303.747 216.218 304.28C215.658 304.813 215.338 305.46 215.258 306.22ZM233.654 297.4H235.734V312H233.654V310.48C232.814 311.667 231.607 312.26 230.034 312.26C228.607 312.26 227.414 311.76 226.454 310.76C225.507 309.747 225.034 308.48 225.034 306.96C225.034 305.453 225.507 304.2 226.454 303.2C227.414 302.187 228.607 301.68 230.034 301.68C231.607 301.68 232.814 302.273 233.654 303.46V297.4ZM230.374 310.38C231.307 310.38 232.094 310.06 232.734 309.42C233.374 308.767 233.694 307.947 233.694 306.96C233.694 305.987 233.374 305.18 232.734 304.54C232.094 303.887 231.307 303.56 230.374 303.56C229.414 303.56 228.627 303.88 228.014 304.52C227.401 305.16 227.094 305.973 227.094 306.96C227.094 307.947 227.401 308.767 228.014 309.42C228.627 310.06 229.414 310.38 230.374 310.38ZM245.905 301.94H247.985V312H245.905V310.48C245.092 311.667 243.932 312.26 242.425 312.26C241.158 312.26 240.172 311.867 239.465 311.08C238.772 310.293 238.425 309.213 238.425 307.84V301.94H240.525V307.46C240.525 308.353 240.732 309.053 241.145 309.56C241.572 310.053 242.192 310.3 243.005 310.3C243.872 310.3 244.572 309.993 245.105 309.38C245.638 308.767 245.905 307.953 245.905 306.94V301.94ZM256.491 301.68C257.917 301.68 259.111 302.187 260.071 303.2C261.031 304.2 261.511 305.453 261.511 306.96C261.511 308.48 261.031 309.747 260.071 310.76C259.111 311.76 257.917 312.26 256.491 312.26C254.931 312.26 253.731 311.667 252.891 310.48V316.2H250.791V301.94H252.891V303.46C253.731 302.273 254.931 301.68 256.491 301.68ZM256.151 310.38C257.111 310.38 257.897 310.06 258.511 309.42C259.124 308.767 259.431 307.947 259.431 306.96C259.431 305.973 259.124 305.16 258.511 304.52C257.897 303.88 257.111 303.56 256.151 303.56C255.217 303.56 254.431 303.887 253.791 304.54C253.151 305.18 252.831 305.987 252.831 306.96C252.831 307.947 253.151 308.767 253.791 309.42C254.431 310.06 255.217 310.38 256.151 310.38Z" fill="#01396C"/>
<path d="M388.26 412H390.34V426H388.16V415.76L383.36 422.48L378.58 415.76V426H376.4V412H378.48L383.38 419.04L388.26 412ZM397.878 426.26C396.292 426.26 394.998 425.773 393.998 424.8C393.012 423.827 392.518 422.553 392.518 420.98C392.518 419.46 392.998 418.2 393.958 417.2C394.918 416.187 396.165 415.68 397.698 415.68C399.285 415.68 400.532 416.167 401.438 417.14C402.358 418.1 402.818 419.313 402.818 420.78C402.818 421.033 402.798 421.313 402.758 421.62H394.578C394.645 422.473 394.972 423.16 395.558 423.68C396.145 424.2 396.932 424.46 397.918 424.46C399.305 424.46 400.258 423.92 400.778 422.84L402.698 423.4C402.338 424.187 401.745 424.86 400.918 425.42C400.092 425.98 399.078 426.26 397.878 426.26ZM394.578 420.22L400.758 420.2C400.692 419.4 400.385 418.747 399.838 418.24C399.305 417.733 398.592 417.48 397.698 417.48C396.832 417.48 396.112 417.747 395.538 418.28C394.978 418.813 394.658 419.46 394.578 420.22ZM416.854 415.68C418.054 415.68 419.008 416.06 419.714 416.82C420.434 417.58 420.794 418.633 420.794 419.98V426H418.694V420.38C418.694 419.513 418.501 418.84 418.114 418.36C417.741 417.88 417.181 417.64 416.434 417.64C415.661 417.64 415.048 417.92 414.594 418.48C414.141 419.04 413.914 419.793 413.914 420.74V426H411.834V420.38C411.834 419.513 411.648 418.84 411.274 418.36C410.914 417.88 410.374 417.64 409.654 417.64C408.854 417.64 408.221 417.933 407.754 418.52C407.301 419.107 407.074 419.907 407.074 420.92V426H404.974V415.94H407.074V417.34C407.834 416.233 408.888 415.68 410.234 415.68C411.701 415.68 412.734 416.253 413.334 417.4C414.094 416.253 415.268 415.68 416.854 415.68ZM432.03 424.76C431.017 425.76 429.743 426.26 428.21 426.26C426.677 426.26 425.403 425.76 424.39 424.76C423.377 423.747 422.87 422.48 422.87 420.96C422.87 419.453 423.377 418.2 424.39 417.2C425.403 416.187 426.677 415.68 428.21 415.68C429.743 415.68 431.017 416.187 432.03 417.2C433.043 418.2 433.55 419.453 433.55 420.96C433.55 422.48 433.043 423.747 432.03 424.76ZM425.83 423.4C426.457 424.04 427.25 424.36 428.21 424.36C429.17 424.36 429.957 424.04 430.57 423.4C431.197 422.747 431.51 421.94 431.51 420.98C431.51 420.007 431.197 419.2 430.57 418.56C429.957 417.907 429.17 417.58 428.21 417.58C427.25 417.58 426.457 417.907 425.83 418.56C425.217 419.2 424.91 420.007 424.91 420.98C424.91 421.94 425.217 422.747 425.83 423.4ZM437.816 417.54C438.123 416.913 438.57 416.447 439.156 416.14C439.756 415.82 440.456 415.713 441.256 415.82V417.78C440.15 417.62 439.296 417.84 438.696 418.44C438.11 419.027 437.816 420.033 437.816 421.46V426H435.716V415.94H437.816V417.54ZM450.834 415.94H453.074L446.954 430.2H444.794L446.674 425.78L442.074 415.94H444.354L447.714 423.42L450.834 415.94ZM465.241 426.26C463.681 426.26 462.341 425.853 461.221 425.04C460.101 424.227 459.341 423.227 458.941 422.04L461.001 421.42C461.321 422.273 461.861 422.973 462.621 423.52C463.394 424.067 464.307 424.34 465.361 424.34C466.294 424.34 467.054 424.12 467.641 423.68C468.241 423.24 468.541 422.733 468.541 422.16C468.541 421.693 468.367 421.3 468.021 420.98C467.687 420.66 467.121 420.373 466.321 420.12L462.801 419C460.707 418.347 459.661 417.207 459.661 415.58C459.661 414.527 460.121 413.627 461.041 412.88C461.961 412.12 463.114 411.74 464.501 411.74C465.927 411.74 467.154 412.073 468.181 412.74C469.221 413.393 469.954 414.22 470.381 415.22L468.361 415.82C468.027 415.167 467.521 414.647 466.841 414.26C466.174 413.86 465.394 413.66 464.501 413.66C463.727 413.66 463.087 413.847 462.581 414.22C462.087 414.58 461.841 415.013 461.841 415.52C461.841 415.92 461.981 416.253 462.261 416.52C462.541 416.773 462.994 416.993 463.621 417.18L467.061 418.28C468.274 418.667 469.187 419.14 469.801 419.7C470.414 420.247 470.721 421.02 470.721 422.02C470.721 423.22 470.207 424.227 469.181 425.04C468.167 425.853 466.854 426.26 465.241 426.26ZM477.382 426.26C475.955 426.26 474.762 425.76 473.802 424.76C472.855 423.747 472.382 422.48 472.382 420.96C472.382 419.453 472.855 418.2 473.802 417.2C474.762 416.187 475.955 415.68 477.382 415.68C478.955 415.68 480.162 416.273 481.002 417.46V415.94H483.082V426H481.002V424.48C480.162 425.667 478.955 426.26 477.382 426.26ZM477.722 424.38C478.655 424.38 479.442 424.06 480.082 423.42C480.722 422.767 481.042 421.947 481.042 420.96C481.042 419.987 480.722 419.18 480.082 418.54C479.442 417.887 478.655 417.56 477.722 417.56C476.762 417.56 475.975 417.88 475.362 418.52C474.748 419.16 474.442 419.973 474.442 420.96C474.442 421.947 474.748 422.767 475.362 423.42C475.975 424.06 476.762 424.38 477.722 424.38ZM493.115 415.94H495.395L491.135 426H488.795L484.535 415.94H486.815L489.955 423.72L493.115 415.94ZM498.967 413.94C498.714 414.18 498.401 414.3 498.027 414.3C497.654 414.3 497.341 414.18 497.087 413.94C496.834 413.687 496.707 413.373 496.707 413C496.707 412.653 496.834 412.353 497.087 412.1C497.341 411.847 497.654 411.72 498.027 411.72C498.401 411.72 498.714 411.847 498.967 412.1C499.221 412.353 499.347 412.653 499.347 413C499.347 413.373 499.221 413.687 498.967 413.94ZM496.967 426V415.94H499.047V426H496.967ZM507.468 415.68C508.748 415.68 509.734 416.073 510.428 416.86C511.121 417.647 511.468 418.727 511.468 420.1V426H509.388V420.48C509.388 419.587 509.174 418.893 508.748 418.4C508.334 417.893 507.721 417.64 506.908 417.64C506.028 417.64 505.321 417.947 504.788 418.56C504.268 419.173 504.008 419.987 504.008 421V426H501.908V415.94H504.008V417.44C504.834 416.267 505.988 415.68 507.468 415.68ZM522.113 415.94H524.213V425.64C524.213 427.053 523.74 428.207 522.793 429.1C521.86 430.007 520.633 430.46 519.113 430.46C516.887 430.46 515.287 429.587 514.313 427.84L516.153 427.16C516.767 428.187 517.767 428.7 519.153 428.7C520.087 428.7 520.807 428.413 521.313 427.84C521.833 427.28 522.1 426.553 522.113 425.66V424.18C521.273 425.313 520.093 425.88 518.573 425.88C517.12 425.88 515.92 425.393 514.973 424.42C514.027 423.447 513.553 422.233 513.553 420.78C513.553 419.287 514.02 418.067 514.953 417.12C515.9 416.16 517.107 415.68 518.573 415.68C520.093 415.68 521.273 416.24 522.113 417.36V415.94ZM518.893 424C519.827 424 520.607 423.693 521.233 423.08C521.86 422.467 522.173 421.7 522.173 420.78C522.173 419.86 521.86 419.1 521.233 418.5C520.607 417.887 519.827 417.58 518.893 417.58C517.933 417.58 517.147 417.88 516.533 418.48C515.92 419.08 515.613 419.847 515.613 420.78C515.613 421.713 515.92 422.487 516.533 423.1C517.147 423.7 517.933 424 518.893 424ZM530.825 426.26C529.679 426.26 528.665 425.967 527.785 425.38C526.919 424.78 526.352 424.053 526.085 423.2L527.985 422.64C528.172 423.187 528.525 423.64 529.045 424C529.579 424.36 530.192 424.54 530.885 424.54C531.512 424.54 532.019 424.407 532.405 424.14C532.792 423.873 532.985 423.553 532.985 423.18C532.985 422.873 532.885 422.633 532.685 422.46C532.485 422.273 532.152 422.113 531.685 421.98L528.985 421.18C527.385 420.7 526.585 419.84 526.585 418.6C526.585 417.8 526.959 417.113 527.705 416.54C528.452 415.967 529.359 415.68 530.425 415.68C531.479 415.68 532.392 415.913 533.165 416.38C533.939 416.847 534.479 417.46 534.785 418.22L532.925 418.76C532.725 418.36 532.405 418.027 531.965 417.76C531.525 417.493 531.005 417.36 530.405 417.36C529.899 417.36 529.479 417.487 529.145 417.74C528.812 417.98 528.645 418.26 528.645 418.58C528.645 419.02 529.005 419.353 529.725 419.58L532.405 420.36C533.232 420.6 533.879 420.927 534.345 421.34C534.812 421.74 535.045 422.327 535.045 423.1C535.045 424.007 534.645 424.76 533.845 425.36C533.059 425.96 532.052 426.26 530.825 426.26Z" fill="#01396C"/>
<path d="M229.48 525.96H221.54V529.94H228.46V531.82H221.54V536.02H229.46V538H219.4V524H229.48V525.96ZM237.44 527.68C238.72 527.68 239.707 528.073 240.4 528.86C241.094 529.647 241.44 530.727 241.44 532.1V538H239.36V532.48C239.36 531.587 239.147 530.893 238.72 530.4C238.307 529.893 237.694 529.64 236.88 529.64C236 529.64 235.294 529.947 234.76 530.56C234.24 531.173 233.98 531.987 233.98 533V538H231.88V527.94H233.98V529.44C234.807 528.267 235.96 527.68 237.44 527.68ZM248.886 538.26C247.299 538.26 246.006 537.773 245.006 536.8C244.019 535.827 243.526 534.553 243.526 532.98C243.526 531.46 244.006 530.2 244.966 529.2C245.926 528.187 247.173 527.68 248.706 527.68C250.293 527.68 251.539 528.167 252.446 529.14C253.366 530.1 253.826 531.313 253.826 532.78C253.826 533.033 253.806 533.313 253.766 533.62H245.586C245.653 534.473 245.979 535.16 246.566 535.68C247.153 536.2 247.939 536.46 248.926 536.46C250.313 536.46 251.266 535.92 251.786 534.84L253.706 535.4C253.346 536.187 252.753 536.86 251.926 537.42C251.099 537.98 250.086 538.26 248.886 538.26ZM245.586 532.22L251.766 532.2C251.699 531.4 251.393 530.747 250.846 530.24C250.313 529.733 249.599 529.48 248.706 529.48C247.839 529.48 247.119 529.747 246.546 530.28C245.986 530.813 245.666 531.46 245.586 532.22ZM258.082 529.54C258.389 528.913 258.835 528.447 259.422 528.14C260.022 527.82 260.722 527.713 261.522 527.82V529.78C260.415 529.62 259.562 529.84 258.962 530.44C258.375 531.027 258.082 532.033 258.082 533.46V538H255.982V527.94H258.082V529.54ZM270.719 527.94H272.819V537.64C272.819 539.053 272.346 540.207 271.399 541.1C270.466 542.007 269.239 542.46 267.719 542.46C265.492 542.46 263.892 541.587 262.919 539.84L264.759 539.16C265.372 540.187 266.372 540.7 267.759 540.7C268.692 540.7 269.412 540.413 269.919 539.84C270.439 539.28 270.706 538.553 270.719 537.66V536.18C269.879 537.313 268.699 537.88 267.179 537.88C265.726 537.88 264.526 537.393 263.579 536.42C262.632 535.447 262.159 534.233 262.159 532.78C262.159 531.287 262.626 530.067 263.559 529.12C264.506 528.16 265.712 527.68 267.179 527.68C268.699 527.68 269.879 528.24 270.719 529.36V527.94ZM267.499 536C268.432 536 269.212 535.693 269.839 535.08C270.466 534.467 270.779 533.7 270.779 532.78C270.779 531.86 270.466 531.1 269.839 530.5C269.212 529.887 268.432 529.58 267.499 529.58C266.539 529.58 265.752 529.88 265.139 530.48C264.526 531.08 264.219 531.847 264.219 532.78C264.219 533.713 264.526 534.487 265.139 535.1C265.752 535.7 266.539 536 267.499 536ZM283.033 527.94H285.273L279.153 542.2H276.993L278.873 537.78L274.273 527.94H276.553L279.913 535.42L283.033 527.94ZM297.44 538.26C295.88 538.26 294.54 537.853 293.42 537.04C292.3 536.227 291.54 535.227 291.14 534.04L293.2 533.42C293.52 534.273 294.06 534.973 294.82 535.52C295.593 536.067 296.507 536.34 297.56 536.34C298.493 536.34 299.253 536.12 299.84 535.68C300.44 535.24 300.74 534.733 300.74 534.16C300.74 533.693 300.567 533.3 300.22 532.98C299.887 532.66 299.32 532.373 298.52 532.12L295 531C292.907 530.347 291.86 529.207 291.86 527.58C291.86 526.527 292.32 525.627 293.24 524.88C294.16 524.12 295.313 523.74 296.7 523.74C298.127 523.74 299.353 524.073 300.38 524.74C301.42 525.393 302.153 526.22 302.58 527.22L300.56 527.82C300.227 527.167 299.72 526.647 299.04 526.26C298.373 525.86 297.593 525.66 296.7 525.66C295.927 525.66 295.287 525.847 294.78 526.22C294.287 526.58 294.04 527.013 294.04 527.52C294.04 527.92 294.18 528.253 294.46 528.52C294.74 528.773 295.193 528.993 295.82 529.18L299.26 530.28C300.473 530.667 301.387 531.14 302 531.7C302.613 532.247 302.92 533.02 302.92 534.02C302.92 535.22 302.407 536.227 301.38 537.04C300.367 537.853 299.053 538.26 297.44 538.26ZM309.581 538.26C308.154 538.26 306.961 537.76 306.001 536.76C305.054 535.747 304.581 534.48 304.581 532.96C304.581 531.453 305.054 530.2 306.001 529.2C306.961 528.187 308.154 527.68 309.581 527.68C311.154 527.68 312.361 528.273 313.201 529.46V527.94H315.281V538H313.201V536.48C312.361 537.667 311.154 538.26 309.581 538.26ZM309.921 536.38C310.854 536.38 311.641 536.06 312.281 535.42C312.921 534.767 313.241 533.947 313.241 532.96C313.241 531.987 312.921 531.18 312.281 530.54C311.641 529.887 310.854 529.56 309.921 529.56C308.961 529.56 308.174 529.88 307.561 530.52C306.947 531.16 306.641 531.973 306.641 532.96C306.641 533.947 306.947 534.767 307.561 535.42C308.174 536.06 308.961 536.38 309.921 536.38ZM325.314 527.94H327.594L323.334 538H320.994L316.734 527.94H319.014L322.154 535.72L325.314 527.94ZM331.167 525.94C330.913 526.18 330.6 526.3 330.227 526.3C329.853 526.3 329.54 526.18 329.287 525.94C329.033 525.687 328.907 525.373 328.907 525C328.907 524.653 329.033 524.353 329.287 524.1C329.54 523.847 329.853 523.72 330.227 523.72C330.6 523.72 330.913 523.847 331.167 524.1C331.42 524.353 331.547 524.653 331.547 525C331.547 525.373 331.42 525.687 331.167 525.94ZM329.167 538V527.94H331.247V538H329.167ZM339.667 527.68C340.947 527.68 341.934 528.073 342.627 528.86C343.32 529.647 343.667 530.727 343.667 532.1V538H341.587V532.48C341.587 531.587 341.374 530.893 340.947 530.4C340.534 529.893 339.92 529.64 339.107 529.64C338.227 529.64 337.52 529.947 336.987 530.56C336.467 531.173 336.207 531.987 336.207 533V538H334.107V527.94H336.207V529.44C337.034 528.267 338.187 527.68 339.667 527.68ZM354.313 527.94H356.413V537.64C356.413 539.053 355.939 540.207 354.993 541.1C354.059 542.007 352.833 542.46 351.313 542.46C349.086 542.46 347.486 541.587 346.513 539.84L348.353 539.16C348.966 540.187 349.966 540.7 351.353 540.7C352.286 540.7 353.006 540.413 353.513 539.84C354.033 539.28 354.299 538.553 354.313 537.66V536.18C353.473 537.313 352.293 537.88 350.773 537.88C349.319 537.88 348.119 537.393 347.173 536.42C346.226 535.447 345.753 534.233 345.753 532.78C345.753 531.287 346.219 530.067 347.153 529.12C348.099 528.16 349.306 527.68 350.773 527.68C352.293 527.68 353.473 528.24 354.313 529.36V527.94ZM351.093 536C352.026 536 352.806 535.693 353.433 535.08C354.059 534.467 354.373 533.7 354.373 532.78C354.373 531.86 354.059 531.1 353.433 530.5C352.806 529.887 352.026 529.58 351.093 529.58C350.133 529.58 349.346 529.88 348.733 530.48C348.119 531.08 347.813 531.847 347.813 532.78C347.813 533.713 348.119 534.487 348.733 535.1C349.346 535.7 350.133 536 351.093 536ZM363.025 538.26C361.878 538.26 360.865 537.967 359.985 537.38C359.118 536.78 358.551 536.053 358.285 535.2L360.185 534.64C360.371 535.187 360.725 535.64 361.245 536C361.778 536.36 362.391 536.54 363.085 536.54C363.711 536.54 364.218 536.407 364.605 536.14C364.991 535.873 365.185 535.553 365.185 535.18C365.185 534.873 365.085 534.633 364.885 534.46C364.685 534.273 364.351 534.113 363.885 533.98L361.185 533.18C359.585 532.7 358.785 531.84 358.785 530.6C358.785 529.8 359.158 529.113 359.905 528.54C360.651 527.967 361.558 527.68 362.625 527.68C363.678 527.68 364.591 527.913 365.365 528.38C366.138 528.847 366.678 529.46 366.985 530.22L365.125 530.76C364.925 530.36 364.605 530.027 364.165 529.76C363.725 529.493 363.205 529.36 362.605 529.36C362.098 529.36 361.678 529.487 361.345 529.74C361.011 529.98 360.845 530.26 360.845 530.58C360.845 531.02 361.205 531.353 361.925 531.58L364.605 532.36C365.431 532.6 366.078 532.927 366.545 533.34C367.011 533.74 367.245 534.327 367.245 535.1C367.245 536.007 366.845 536.76 366.045 537.36C365.258 537.96 364.251 538.26 363.025 538.26Z" fill="#01396C"/>
<defs>
<filter id="filter0_if_1153_480" x="46" y="212" width="88" height="486" filterUnits="userSpaceOnUse" color-interpolation-filters="sRGB">
<feFlood flood-opacity="0" result="BackgroundImageFix"/>
<feBlend mode="normal" in="SourceGraphic" in2="BackgroundImageFix" result="shape"/>
<feColorMatrix in="SourceAlpha" type="matrix" values="0 0 0 0 0 0 0 0 0 0 0 0 0 0 0 0 0 0 127 0" result="hardAlpha"/>
<feOffset dy="4"/>
<feGaussianBlur stdDeviation="20"/>
<feComposite in2="hardAlpha" operator="arithmetic" k2="-1" k3="1"/>
<feColorMatrix type="matrix" values="0 0 0 0 0.0215666 0 0 0 0 0.322844 0 0 0 0 0.597222 0 0 0 1 0"/>
<feBlend mode="normal" in2="shape" result="effect1_innerShadow_1153_480"/>
<feGaussianBlur stdDeviation="20" result="effect2_foregroundBlur_1153_480"/>
</filter>
<filter id="filter1_d_1153_480" x="259.26" y="241.6" width="181.716" height="129.988" filterUnits="userSpaceOnUse" color-interpolation-filters="sRGB">
<feFlood flood-opacity="0" result="BackgroundImageFix"/>
<feColorMatrix in="SourceAlpha" type="matrix" values="0 0 0 0 0 0 0 0 0 0 0 0 0 0 0 0 0 0 127 0" result="hardAlpha"/>
<feOffset/>
<feGaussianBlur stdDeviation="25"/>
<feComposite in2="hardAlpha" operator="out"/>
<feColorMatrix type="matrix" values="0 0 0 0 0 0 0 0 0 0.628056 0 0 0 0 0.897222 0 0 0 1 0"/>
<feBlend mode="normal" in2="BackgroundImageFix" result="effect1_dropShadow_1153_480"/>
<feBlend mode="normal" in="SourceGraphic" in2="effect1_dropShadow_1153_480" result="shape"/>
</filter>
<filter id="filter2_d_1153_480" x="549.756" y="356.6" width="190.136" height="129.736" filterUnits="userSpaceOnUse" color-interpolation-filters="sRGB">
<feFlood flood-opacity="0" result="BackgroundImageFix"/>
<feColorMatrix in="SourceAlpha" type="matrix" values="0 0 0 0 0 0 0 0 0 0 0 0 0 0 0 0 0 0 127 0" result="hardAlpha"/>
<feOffset/>
<feGaussianBlur stdDeviation="25"/>
<feComposite in2="hardAlpha" operator="out"/>
<feColorMatrix type="matrix" values="0 0 0 0 0 0 0 0 0 0.628056 0 0 0 0 0.897222 0 0 0 1 0"/>
<feBlend mode="normal" in2="BackgroundImageFix" result="effect1_dropShadow_1153_480"/>
<feBlend mode="normal" in="SourceGraphic" in2="effect1_dropShadow_1153_480" result="shape"/>
</filter>
<filter id="filter3_if_1153_480" x="45.5576" y="235.979" width="272.435" height="134.036" filterUnits="userSpaceOnUse" color-interpolation-filters="sRGB">
<feFlood flood-opacity="0" result="BackgroundImageFix"/>
<feBlend mode="normal" in="SourceGraphic" in2="BackgroundImageFix" result="shape"/>
<feColorMatrix in="SourceAlpha" type="matrix" values="0 0 0 0 0 0 0 0 0 0 0 0 0 0 0 0 0 0 127 0" result="hardAlpha"/>
<feOffset/>
<feGaussianBlur stdDeviation="12"/>
<feComposite in2="hardAlpha" operator="arithmetic" k2="-1" k3="1"/>
<feColorMatrix type="matrix" values="0 0 0 0 0.154854 0 0 0 0 0.777263 0 0 0 0 0.913889 0 0 0 1 0"/>
<feBlend mode="normal" in2="shape" result="effect1_innerShadow_1153_480"/>
<feGaussianBlur stdDeviation="19.5" result="effect2_foregroundBlur_1153_480"/>
</filter>
<filter id="filter4_if_1153_480" x="100.343" y="235.979" width="216.575" height="137.3" filterUnits="userSpaceOnUse" color-interpolation-filters="sRGB">
<feFlood flood-opacity="0" result="BackgroundImageFix"/>
<feBlend mode="normal" in="SourceGraphic" in2="BackgroundImageFix" result="shape"/>
<feColorMatrix in="SourceAlpha" type="matrix" values="0 0 0 0 0 0 0 0 0 0 0 0 0 0 0 0 0 0 127 0" result="hardAlpha"/>
<feOffset/>
<feGaussianBlur stdDeviation="15"/>
<feComposite in2="hardAlpha" operator="arithmetic" k2="-1" k3="1"/>
<feColorMatrix type="matrix" values="0 0 0 0 0.105241 0 0 0 0 0.851389 0 0 0 0 0.269394 0 0 0 1 0"/>
<feBlend mode="normal" in2="shape" result="effect1_innerShadow_1153_480"/>
<feGaussianBlur stdDeviation="19.5" result="effect2_foregroundBlur_1153_480"/>
</filter>
<filter id="filter5_if_1153_480" x="228.816" y="268.788" width="56.094" height="68.9629" filterUnits="userSpaceOnUse" color-interpolation-filters="sRGB">
<feFlood flood-opacity="0" result="BackgroundImageFix"/>
<feBlend mode="normal" in="SourceGraphic" in2="BackgroundImageFix" result="shape"/>
<feColorMatrix in="SourceAlpha" type="matrix" values="0 0 0 0 0 0 0 0 0 0 0 0 0 0 0 0 0 0 127 0" result="hardAlpha"/>
<feOffset/>
<feGaussianBlur stdDeviation="15"/>
<feComposite in2="hardAlpha" operator="arithmetic" k2="-1" k3="1"/>
<feColorMatrix type="matrix" values="0 0 0 0 0.419445 0 0 0 0 1 0 0 0 0 0.791 0 0 0 0.55 0"/>
<feBlend mode="normal" in2="shape" result="effect1_innerShadow_1153_480"/>
<feGaussianBlur stdDeviation="5" result="effect2_foregroundBlur_1153_480"/>
</filter>
<filter id="filter6_if_1153_480" x="45.6448" y="349" width="589.355" height="134.036" filterUnits="userSpaceOnUse" color-interpolation-filters="sRGB">
<feFlood flood-opacity="0" result="BackgroundImageFix"/>
<feBlend mode="normal" in="SourceGraphic" in2="BackgroundImageFix" result="shape"/>
<feColorMatrix in="SourceAlpha" type="matrix" values="0 0 0 0 0 0 0 0 0 0 0 0 0 0 0 0 0 0 127 0" result="hardAlpha"/>
<feOffset/>
<feGaussianBlur stdDeviation="12"/>
<feComposite in2="hardAlpha" operator="arithmetic" k2="-1" k3="1"/>
<feColorMatrix type="matrix" values="0 0 0 0 0.154854 0 0 0 0 0.777263 0 0 0 0 0.913889 0 0 0 1 0"/>
<feBlend mode="normal" in2="shape" result="effect1_innerShadow_1153_480"/>
<feGaussianBlur stdDeviation="19.5" result="effect2_foregroundBlur_1153_480"/>
</filter>
<filter id="filter7_if_1153_480" x="189.73" y="349" width="442.447" height="137.3" filterUnits="userSpaceOnUse" color-interpolation-filters="sRGB">
<feFlood flood-opacity="0" result="BackgroundImageFix"/>
<feBlend mode="normal" in="SourceGraphic" in2="BackgroundImageFix" result="shape"/>
<feColorMatrix in="SourceAlpha" type="matrix" values="0 0 0 0 0 0 0 0 0 0 0 0 0 0 0 0 0 0 127 0" result="hardAlpha"/>
<feOffset/>
<feGaussianBlur stdDeviation="15"/>
<feComposite in2="hardAlpha" operator="arithmetic" k2="-1" k3="1"/>
<feColorMatrix type="matrix" values="0 0 0 0 0.105241 0 0 0 0 0.851389 0 0 0 0 0.269394 0 0 0 1 0"/>
<feBlend mode="normal" in2="shape" result="effect1_innerShadow_1153_480"/>
<feGaussianBlur stdDeviation="19.5" result="effect2_foregroundBlur_1153_480"/>
</filter>
<filter id="filter8_if_1153_480" x="480.34" y="381.809" width="114.926" height="68.9629" filterUnits="userSpaceOnUse" color-interpolation-filters="sRGB">
<feFlood flood-opacity="0" result="BackgroundImageFix"/>
<feBlend mode="normal" in="SourceGraphic" in2="BackgroundImageFix" result="shape"/>
<feColorMatrix in="SourceAlpha" type="matrix" values="0 0 0 0 0 0 0 0 0 0 0 0 0 0 0 0 0 0 127 0" result="hardAlpha"/>
<feOffset/>
<feGaussianBlur stdDeviation="15"/>
<feComposite in2="hardAlpha" operator="arithmetic" k2="-1" k3="1"/>
<feColorMatrix type="matrix" values="0 0 0 0 0.419445 0 0 0 0 1 0 0 0 0 0.791 0 0 0 0.55 0"/>
<feBlend mode="normal" in2="shape" result="effect1_innerShadow_1153_480"/>
<feGaussianBlur stdDeviation="5" result="effect2_foregroundBlur_1153_480"/>
</filter>
<filter id="filter9_d_1153_480" x="370.672" y="466.6" width="176.808" height="129.736" filterUnits="userSpaceOnUse" color-interpolation-filters="sRGB">
<feFlood flood-opacity="0" result="BackgroundImageFix"/>
<feColorMatrix in="SourceAlpha" type="matrix" values="0 0 0 0 0 0 0 0 0 0 0 0 0 0 0 0 0 0 127 0" result="hardAlpha"/>
<feOffset/>
<feGaussianBlur stdDeviation="25"/>
<feComposite in2="hardAlpha" operator="out"/>
<feColorMatrix type="matrix" values="0 0 0 0 0 0 0 0 0 0.628056 0 0 0 0 0.897222 0 0 0 1 0"/>
<feBlend mode="normal" in2="BackgroundImageFix" result="effect1_dropShadow_1153_480"/>
<feBlend mode="normal" in="SourceGraphic" in2="effect1_dropShadow_1153_480" result="shape"/>
</filter>
<filter id="filter10_if_1153_480" x="45.6448" y="461.129" width="390.786" height="134.035" filterUnits="userSpaceOnUse" color-interpolation-filters="sRGB">
<feFlood flood-opacity="0" result="BackgroundImageFix"/>
<feBlend mode="normal" in="SourceGraphic" in2="BackgroundImageFix" result="shape"/>
<feColorMatrix in="SourceAlpha" type="matrix" values="0 0 0 0 0 0 0 0 0 0 0 0 0 0 0 0 0 0 127 0" result="hardAlpha"/>
<feOffset/>
<feGaussianBlur stdDeviation="12"/>
<feComposite in2="hardAlpha" operator="arithmetic" k2="-1" k3="1"/>
<feColorMatrix type="matrix" values="0 0 0 0 0.154854 0 0 0 0 0.777263 0 0 0 0 0.913889 0 0 0 1 0"/>
<feBlend mode="normal" in2="shape" result="effect1_innerShadow_1153_480"/>
<feGaussianBlur stdDeviation="19.5" result="effect2_foregroundBlur_1153_480"/>
</filter>
<filter id="filter11_if_1153_480" x="133.779" y="461.129" width="300.925" height="137.3" filterUnits="userSpaceOnUse" color-interpolation-filters="sRGB">
<feFlood flood-opacity="0" result="BackgroundImageFix"/>
<feBlend mode="normal" in="SourceGraphic" in2="BackgroundImageFix" result="shape"/>
<feColorMatrix in="SourceAlpha" type="matrix" values="0 0 0 0 0 0 0 0 0 0 0 0 0 0 0 0 0 0 127 0" result="hardAlpha"/>
<feOffset/>
<feGaussianBlur stdDeviation="15"/>
<feComposite in2="hardAlpha" operator="arithmetic" k2="-1" k3="1"/>
<feColorMatrix type="matrix" values="0 0 0 0 0.105241 0 0 0 0 0.851389 0 0 0 0 0.269394 0 0 0 1 0"/>
<feBlend mode="normal" in2="shape" result="effect1_innerShadow_1153_480"/>
<feGaussianBlur stdDeviation="19.5" result="effect2_foregroundBlur_1153_480"/>
</filter>
<filter id="filter12_if_1153_480" x="322.8" y="493.938" width="78.0642" height="68.9629" filterUnits="userSpaceOnUse" color-interpolation-filters="sRGB">
<feFlood flood-opacity="0" result="BackgroundImageFix"/>
<feBlend mode="normal" in="SourceGraphic" in2="BackgroundImageFix" result="shape"/>
<feColorMatrix in="SourceAlpha" type="matrix" values="0 0 0 0 0 0 0 0 0 0 0 0 0 0 0 0 0 0 127 0" result="hardAlpha"/>
<feOffset/>
<feGaussianBlur stdDeviation="15"/>
<feComposite in2="hardAlpha" operator="arithmetic" k2="-1" k3="1"/>
<feColorMatrix type="matrix" values="0 0 0 0 0.419445 0 0 0 0 1 0 0 0 0 0.791 0 0 0 0.55 0"/>
<feBlend mode="normal" in2="shape" result="effect1_innerShadow_1153_480"/>
<feGaussianBlur stdDeviation="5" result="effect2_foregroundBlur_1153_480"/>
</filter>
</defs>
</svg>
