<svg width="720" height="720" viewBox="0 0 720 720" fill="none" xmlns="http://www.w3.org/2000/svg">
<rect width="720" height="720" fill="#01396C"/>
<rect x="81" y="216.775" width="2.11182" height="433.714" fill="#878787" fill-opacity="0.1"/>
<rect x="199.262" y="216.775" width="2.11182" height="433.714" fill="#878787" fill-opacity="0.1"/>
<rect x="317.523" y="216.775" width="2.11182" height="433.714" fill="#878787" fill-opacity="0.1"/>
<rect x="435.785" y="216.775" width="2.11182" height="433.714" fill="#878787" fill-opacity="0.1"/>
<rect x="554.047" y="216.775" width="2.11182" height="433.714" fill="#878787" fill-opacity="0.1"/>
<rect x="120.421" y="216.775" width="2.11182" height="433.714" fill="#878787" fill-opacity="0.1"/>
<rect x="238.682" y="216.775" width="2.11182" height="433.714" fill="#878787" fill-opacity="0.1"/>
<rect x="356.944" y="216.775" width="2.11182" height="433.714" fill="#878787" fill-opacity="0.1"/>
<rect x="475.206" y="216.775" width="2.11182" height="433.714" fill="#878787" fill-opacity="0.1"/>
<rect x="593.468" y="216.775" width="2.11182" height="433.714" fill="#878787" fill-opacity="0.1"/>
<rect x="159.841" y="216.775" width="2.11182" height="433.714" fill="#878787" fill-opacity="0.1"/>
<rect x="278.103" y="216.775" width="2.11182" height="433.714" fill="#878787" fill-opacity="0.1"/>
<rect x="396.365" y="216.775" width="2.11182" height="433.714" fill="#878787" fill-opacity="0.1"/>
<rect x="514.626" y="216.775" width="2.11182" height="433.714" fill="#878787" fill-opacity="0.1"/>
<rect x="632.888" y="216.775" width="2.11182" height="433.714" fill="#878787" fill-opacity="0.1"/>
<g filter="url(#filter0_if_1153_481)">
<rect x="85" y="252" width="7" height="406" fill="#D9D9D9"/>
</g>
<rect x="81" y="238" width="4" height="382" fill="white" fill-opacity="0.8"/>
<g filter="url(#filter1_d_1153_481)">
<path d="M362.864 310.206V315.288H359.21V321H353.456V315.288H339.26V311.088L349.382 291.6H355.598L346.022 310.206H353.456V304.2H359.21V310.206H362.864ZM369.092 321.336C368.112 321.336 367.286 321 366.614 320.328C365.97 319.656 365.648 318.844 365.648 317.892C365.648 316.996 365.984 316.226 366.656 315.582C367.328 314.938 368.14 314.616 369.092 314.616C370.044 314.616 370.842 314.938 371.486 315.582C372.158 316.226 372.494 316.996 372.494 317.892C372.494 318.844 372.158 319.656 371.486 320.328C370.842 321 370.044 321.336 369.092 321.336ZM393.533 304.998C396.921 306.51 398.615 309.016 398.615 312.516C398.615 315.092 397.565 317.248 395.465 318.984C393.365 320.72 390.621 321.588 387.233 321.588C383.845 321.588 381.101 320.734 379.001 319.026C376.901 317.29 375.851 315.12 375.851 312.516C375.851 308.988 377.545 306.482 380.933 304.998C378.385 303.71 377.111 301.666 377.111 298.866C377.111 296.654 378.035 294.792 379.883 293.28C381.731 291.768 384.181 291.012 387.233 291.012C390.257 291.012 392.693 291.768 394.541 293.28C396.417 294.792 397.355 296.654 397.355 298.866C397.355 301.666 396.081 303.71 393.533 304.998ZM387.233 295.59C385.833 295.59 384.727 295.954 383.915 296.682C383.103 297.41 382.697 298.306 382.697 299.37C382.697 300.434 383.103 301.33 383.915 302.058C384.727 302.786 385.833 303.15 387.233 303.15C388.605 303.15 389.697 302.786 390.509 302.058C391.349 301.33 391.769 300.434 391.769 299.37C391.769 298.306 391.349 297.41 390.509 296.682C389.697 295.954 388.605 295.59 387.233 295.59ZM383.159 315.414C384.167 316.282 385.525 316.716 387.233 316.716C388.941 316.716 390.299 316.282 391.307 315.414C392.315 314.518 392.819 313.398 392.819 312.054C392.819 310.71 392.315 309.604 391.307 308.736C390.299 307.84 388.941 307.392 387.233 307.392C385.497 307.392 384.125 307.826 383.117 308.694C382.137 309.562 381.647 310.682 381.647 312.054C381.647 313.398 382.151 314.518 383.159 315.414ZM422.904 321H416.562L411.564 314.238L406.566 321H400.266L408.204 310.248L400.602 299.748H406.902L411.564 306.174L416.268 299.748H422.526L414.966 310.248L422.904 321Z" fill="white"/>
</g>
<g filter="url(#filter2_d_1153_481)">
<path d="M532.326 408.994C534.426 407.006 537.086 406.012 540.306 406.012C543.526 406.012 546.186 407.006 548.286 408.994C550.414 410.982 551.478 413.46 551.478 416.428C551.478 418.388 550.75 420.516 549.294 422.812L540.768 436H534.3L540.348 426.592H539.508C536.456 426.452 533.964 425.43 532.032 423.526C530.128 421.622 529.176 419.256 529.176 416.428C529.176 413.46 530.226 410.982 532.326 408.994ZM536.358 420.124C537.366 421.104 538.682 421.594 540.306 421.594C541.93 421.594 543.246 421.104 544.254 420.124C545.262 419.116 545.766 417.884 545.766 416.428C545.766 414.916 545.262 413.67 544.254 412.69C543.246 411.682 541.93 411.178 540.306 411.178C538.682 411.178 537.366 411.682 536.358 412.69C535.378 413.67 534.888 414.916 534.888 416.428C534.888 417.912 535.378 419.144 536.358 420.124ZM553.104 436.336C552.124 436.336 551.298 436 550.626 435.328C549.982 434.656 549.66 433.844 549.66 432.892C549.66 431.996 549.996 431.226 550.668 430.582C551.34 429.938 552.152 429.616 553.104 429.616C554.056 429.616 554.854 429.938 555.498 430.582C556.17 431.226 556.506 431.996 556.506 432.892C556.506 433.844 556.17 434.656 555.498 435.328C554.854 436 554.056 436.336 553.104 436.336ZM569.545 430.792H582.019V436H560.767V432.052L572.233 421.258C573.465 420.11 574.375 419.116 574.963 418.276C575.551 417.436 575.845 416.526 575.845 415.546C575.845 414.202 575.439 413.138 574.627 412.354C573.815 411.57 572.681 411.178 571.225 411.178C569.881 411.178 568.719 411.626 567.739 412.522C566.787 413.39 566.157 414.552 565.849 416.008L560.683 414.538C560.991 412.214 562.097 410.212 564.001 408.532C565.933 406.852 568.299 406.012 571.099 406.012C574.235 406.012 576.755 406.824 578.659 408.448C580.591 410.072 581.557 412.34 581.557 415.252C581.557 416.988 581.123 418.57 580.255 419.998C579.387 421.398 578.029 422.952 576.181 424.66L569.545 430.792ZM606.628 436H600.286L595.288 429.238L590.29 436H583.99L591.928 425.248L584.326 414.748H590.626L595.288 421.174L599.992 414.748H606.25L598.69 425.248L606.628 436Z" fill="white"/>
</g>
<rect x="84.1803" y="274.979" width="224.04" height="59.2997" fill="#D9D9D9"/>
<g filter="url(#filter3_if_1153_481)">
<path d="M302.294 326.412V283.562L133.782 289.367L83.9282 279.271L312 274.979L309.91 331.015L136.661 326.412H302.294Z" fill="#7D4E4E" fill-opacity="0.02"/>
</g>
<g filter="url(#filter4_if_1153_481)">
<path d="M310.604 280.652L221.109 276.316L310.74 274.979L310.604 280.652L309.447 329.092L309.323 334.279L148.192 329.092H309.447L310.604 280.652Z" fill="#607D4E" fill-opacity="0.02"/>
</g>
<g filter="url(#filter5_if_1153_481)">
<path d="M307.212 278.788H264.874L302.741 285.603L307.212 327.751V278.788Z" fill="#446EDA" fill-opacity="0.1"/>
</g>
<rect x="84.3802" y="387.648" width="401.84" height="59.2997" fill="#D9D9D9"/>
<g filter="url(#filter6_if_1153_481)">
<path d="M475.59 439.081V396.23L173.347 402.036L83.9282 391.939L493 387.648L489.252 443.684L178.51 439.081H475.59Z" fill="#7D4E4E" fill-opacity="0.02"/>
</g>
<g filter="url(#filter7_if_1153_481)">
<path d="M490.497 393.321L329.977 388.985L490.74 387.648L490.497 393.321L488.42 441.761L488.198 446.948L199.192 441.761H488.42L490.497 393.321Z" fill="#607D4E" fill-opacity="0.02"/>
</g>
<g filter="url(#filter8_if_1153_481)">
<path d="M484.412 391.457H408.474L476.393 398.271L484.412 440.42V391.457Z" fill="#446EDA" fill-opacity="0.1"/>
</g>
<g filter="url(#filter9_d_1153_481)">
<path d="M457.672 516.6H478.798V520.59L467.668 546H461.536L472.204 521.808H457.672V516.6ZM480.627 546.336C479.647 546.336 478.821 546 478.149 545.328C477.505 544.656 477.183 543.844 477.183 542.892C477.183 541.996 477.519 541.226 478.191 540.582C478.863 539.938 479.675 539.616 480.627 539.616C481.579 539.616 482.377 539.938 483.021 540.582C483.693 541.226 484.029 541.996 484.029 542.892C484.029 543.844 483.693 544.656 483.021 545.328C482.377 546 481.579 546.336 480.627 546.336ZM497.068 540.792H509.542V546H488.29V542.052L499.756 531.258C500.988 530.11 501.898 529.116 502.486 528.276C503.074 527.436 503.368 526.526 503.368 525.546C503.368 524.202 502.962 523.138 502.15 522.354C501.338 521.57 500.204 521.178 498.748 521.178C497.404 521.178 496.242 521.626 495.262 522.522C494.31 523.39 493.68 524.552 493.372 526.008L488.206 524.538C488.514 522.214 489.62 520.212 491.524 518.532C493.456 516.852 495.822 516.012 498.622 516.012C501.758 516.012 504.278 516.824 506.182 518.448C508.114 520.072 509.08 522.34 509.08 525.252C509.08 526.988 508.646 528.57 507.778 529.998C506.91 531.398 505.552 532.952 503.704 534.66L497.068 540.792ZM534.152 546H527.81L522.812 539.238L517.814 546H511.514L519.452 535.248L511.85 524.748H518.15L522.812 531.174L527.516 524.748H533.774L526.214 535.248L534.152 546Z" fill="white"/>
</g>
<rect x="84.3105" y="500.129" width="339.953" height="59.2997" fill="#D9D9D9"/>
<g filter="url(#filter10_if_1153_481)">
<path d="M415.272 551.562V508.711L159.576 514.516L83.9282 504.42L430 500.129L426.829 556.164L163.944 551.562H415.272Z" fill="#7D4E4E" fill-opacity="0.02"/>
</g>
<g filter="url(#filter11_if_1153_481)">
<path d="M427.882 505.801L292.084 501.466L428.088 500.129L427.882 505.801L426.126 554.241L425.937 559.429L181.44 554.241H426.126L427.882 505.801Z" fill="#607D4E" fill-opacity="0.02"/>
</g>
<g filter="url(#filter12_if_1153_481)">
<path d="M422.734 503.938H358.491L415.951 510.752L422.734 552.901V503.938Z" fill="#446EDA" fill-opacity="0.1"/>
</g>
<path d="M82.0232 94.601H98.7752L98.8391 100.649H75.5111L75.1565 67.0506H81.7325L82.0232 94.601ZM103.074 100.649L102.704 65.6106H109.04L109.41 100.649H103.074ZM126.155 101.321C122.763 101.321 119.902 100.105 117.573 97.6729C115.243 95.209 114.058 92.1532 114.02 88.5054C113.981 84.8256 115.101 81.7697 117.379 79.3379C119.657 76.906 122.493 75.6901 125.885 75.6901C129.213 75.6901 131.833 76.89 133.747 79.2899L133.716 76.362H140.1L140.356 100.649H133.972L133.941 97.6729C132.078 100.105 129.483 101.321 126.155 101.321ZM127.199 95.657C129.151 95.657 130.776 94.985 132.074 93.6411C133.404 92.2652 134.057 90.5373 134.035 88.4574C134.014 86.4095 133.324 84.7136 131.966 83.3697C130.64 82.0257 129 81.3538 127.048 81.3538C125.064 81.3538 123.44 82.0257 122.174 83.3697C120.908 84.6816 120.285 86.3775 120.307 88.4574C120.33 90.5693 120.988 92.2972 122.282 93.6411C123.576 94.985 125.215 95.657 127.199 95.657ZM175.35 75.6901C178.294 75.6901 180.64 76.618 182.388 78.4739C184.135 80.2978 185.026 82.8737 185.061 86.2015L185.214 100.649H178.878L178.739 87.5454C178.697 83.5776 177.124 81.5938 174.02 81.5938C172.356 81.5938 171.083 82.1857 170.199 83.3697C169.347 84.5216 168.933 86.1535 168.955 88.2654L169.086 100.649H162.702L162.563 87.5454C162.521 83.5776 160.98 81.5938 157.94 81.5938C156.244 81.5938 154.955 82.2017 154.072 83.4177C153.188 84.6016 152.758 86.2815 152.781 88.4574L152.91 100.649H146.574L146.317 76.362H152.653L152.684 79.2419C154.483 76.874 156.87 75.6901 159.846 75.6901C163.142 75.6901 165.587 76.906 167.181 79.3379C169.075 76.906 171.798 75.6901 175.35 75.6901ZM201.718 101.321C198.326 101.321 195.465 100.105 193.135 97.6729C190.805 95.209 189.621 92.1532 189.582 88.5054C189.544 84.8256 190.663 81.7697 192.942 79.3379C195.22 76.906 198.055 75.6901 201.447 75.6901C204.775 75.6901 207.396 76.89 209.309 79.2899L209.278 76.362H215.662L215.919 100.649H209.535L209.503 97.6729C207.641 100.105 205.046 101.321 201.718 101.321ZM202.762 95.657C204.714 95.657 206.339 94.985 207.637 93.6411C208.966 92.2652 209.62 90.5373 209.598 88.4574C209.576 86.4095 208.886 84.7136 207.528 83.3697C206.202 82.0257 204.563 81.3538 202.611 81.3538C200.627 81.3538 199.002 82.0257 197.736 83.3697C196.47 84.6816 195.848 86.3775 195.87 88.4574C195.892 90.5693 196.55 92.2972 197.845 93.6411C199.139 94.985 200.778 95.657 202.762 95.657ZM221.768 88.5534L221.713 83.3217H239.233L239.288 88.5534H221.768ZM241.133 67.0506H265.277L265.325 71.6103L252.911 100.649H245.903L257.803 73.0022H241.195L241.133 67.0506ZM292.566 83.0337C294.27 83.8016 295.61 84.8896 296.584 86.2975C297.559 87.6734 298.056 89.2893 298.076 91.1452C298.106 94.0571 297.107 96.3769 295.077 98.1048C293.079 99.8007 290.304 100.649 286.752 100.649H269.808L269.453 67.0506H285.485C288.781 67.0506 291.446 67.8825 293.48 69.5464C295.545 71.2103 296.608 73.3702 296.668 76.0261C296.702 79.1939 295.334 81.5298 292.566 83.0337ZM285.497 72.7143H275.945L276.033 81.0178H285.729C287.073 81.0178 288.157 80.6178 288.98 79.8179C289.835 78.9859 290.241 77.978 290.196 76.794C290.184 75.6101 289.741 74.6341 288.869 73.8662C287.997 73.0662 286.873 72.6823 285.497 72.7143ZM286.644 94.937C288.148 94.937 289.343 94.521 290.23 93.6891C291.118 92.8571 291.555 91.8012 291.541 90.5213C291.528 89.2733 291.069 88.2494 290.165 87.4494C289.292 86.6175 288.103 86.2015 286.599 86.2015H276.087L276.18 94.937H286.644ZM83.5649 156.542H78.9209C76.1128 151.982 74.6771 146.702 74.6138 140.702C74.5502 134.679 75.8745 129.399 78.5866 124.863H83.2306C80.519 129.447 79.1947 134.727 79.2578 140.702C79.3203 146.63 80.756 151.91 83.5649 156.542ZM91.2979 147.11H103.862L103.91 151.646H86.4138L86.1478 126.447H91.0798L91.2979 147.11ZM114.553 152.15C112.009 152.15 109.863 151.238 108.116 149.414C106.369 147.566 105.481 145.274 105.452 142.538C105.423 139.779 106.262 137.487 107.971 135.663C109.68 133.839 111.806 132.927 114.35 132.927C116.846 132.927 118.812 133.827 120.247 135.627L120.224 133.431H125.012L125.204 151.646H120.416L120.392 149.414C118.995 151.238 117.049 152.15 114.553 152.15ZM115.336 147.902C116.8 147.902 118.019 147.398 118.992 146.39C119.989 145.358 120.48 144.062 120.463 142.502C120.447 140.966 119.93 139.695 118.911 138.687C117.916 137.679 116.687 137.175 115.223 137.175C113.735 137.175 112.516 137.679 111.567 138.687C110.617 139.671 110.151 140.942 110.167 142.502C110.184 144.086 110.678 145.382 111.648 146.39C112.619 147.398 113.848 147.902 115.336 147.902ZM140.289 132.927C142.617 132.927 144.401 133.647 145.64 135.087C146.879 136.527 147.512 138.495 147.538 140.99L147.651 151.646H142.899L142.796 141.89C142.781 140.474 142.433 139.371 141.753 138.579C141.096 137.763 140.132 137.355 138.86 137.355C137.54 137.355 136.477 137.835 135.671 138.795C134.889 139.755 134.507 141.038 134.524 142.646L134.619 151.646H129.867L129.675 133.431H134.427L134.451 135.735C135.895 133.863 137.841 132.927 140.289 132.927ZM165.608 133.431H170.36L170.545 150.998C170.572 153.566 169.73 155.654 168.019 157.262C166.308 158.893 164.049 159.709 161.241 159.709C157.137 159.709 154.192 158.114 152.407 154.922L156.531 153.446C157.531 155.006 159.124 155.786 161.308 155.786C162.748 155.786 163.847 155.342 164.606 154.454C165.388 153.566 165.784 152.414 165.793 150.998L165.77 148.802C164.372 150.554 162.462 151.43 160.038 151.43C157.446 151.43 155.288 150.542 153.566 148.766C151.843 146.99 150.968 144.794 150.94 142.178C150.911 139.467 151.728 137.247 153.39 135.519C155.076 133.791 157.226 132.927 159.842 132.927C162.266 132.927 164.196 133.803 165.63 135.555L165.608 133.431ZM160.82 147.146C162.284 147.146 163.48 146.69 164.406 145.778C165.356 144.842 165.823 143.642 165.808 142.178C165.793 140.714 165.3 139.527 164.33 138.615C163.385 137.679 162.18 137.211 160.716 137.211C159.204 137.211 157.973 137.679 157.022 138.615C156.096 139.527 155.641 140.714 155.656 142.178C155.671 143.642 156.152 144.842 157.098 145.778C158.068 146.69 159.308 147.146 160.82 147.146ZM187.878 133.431H192.63L192.822 151.646H188.07L188.046 149.342C186.65 151.214 184.716 152.15 182.244 152.15C179.892 152.15 178.096 151.43 176.857 149.99C175.618 148.55 174.985 146.57 174.958 144.05L174.846 133.431H179.598L179.701 143.15C179.716 144.566 180.052 145.682 180.708 146.498C181.389 147.314 182.365 147.722 183.637 147.722C184.981 147.722 186.044 147.242 186.826 146.282C187.608 145.322 187.99 144.026 187.973 142.394L187.878 133.431ZM205.397 152.15C202.853 152.15 200.707 151.238 198.96 149.414C197.212 147.566 196.324 145.274 196.295 142.538C196.266 139.779 197.106 137.487 198.815 135.663C200.524 133.839 202.65 132.927 205.194 132.927C207.69 132.927 209.655 133.827 211.09 135.627L211.067 133.431H215.855L216.048 151.646H211.26L211.236 149.414C209.839 151.238 207.893 152.15 205.397 152.15ZM206.18 147.902C207.644 147.902 208.863 147.398 209.836 146.39C210.833 145.358 211.323 144.062 211.307 142.502C211.291 140.966 210.773 139.695 209.755 138.687C208.76 137.679 207.531 137.175 206.067 137.175C204.579 137.175 203.36 137.679 202.411 138.687C201.461 139.671 200.995 140.942 201.011 142.502C201.028 144.086 201.521 145.382 202.492 146.39C203.463 147.398 204.692 147.902 206.18 147.902ZM234.162 133.431H238.914L239.1 150.998C239.127 153.566 238.285 155.654 236.574 157.262C234.863 158.893 232.604 159.709 229.796 159.709C225.692 159.709 222.747 158.114 220.961 154.922L225.086 153.446C226.086 155.006 227.678 155.786 229.862 155.786C231.302 155.786 232.402 155.342 233.16 154.454C233.943 153.566 234.339 152.414 234.348 150.998L234.325 148.802C232.927 150.554 231.016 151.43 228.592 151.43C226 151.43 223.843 150.542 222.12 148.766C220.398 146.99 219.522 144.794 219.495 142.178C219.466 139.467 220.283 137.247 221.944 135.519C223.63 133.791 225.781 132.927 228.397 132.927C230.821 132.927 232.75 133.803 234.185 135.555L234.162 133.431ZM229.375 147.146C230.839 147.146 232.034 146.69 232.961 145.778C233.911 144.842 234.378 143.642 234.363 142.178C234.347 140.714 233.855 139.527 232.885 138.615C231.939 137.679 230.734 137.211 229.27 137.211C227.758 137.211 226.527 137.679 225.577 138.615C224.651 139.527 224.195 140.714 224.211 142.178C224.226 143.642 224.707 144.842 225.653 145.778C226.622 146.69 227.863 147.146 229.375 147.146ZM252.562 152.15C249.634 152.15 247.237 151.274 245.371 149.522C243.528 147.746 242.591 145.418 242.561 142.538C242.532 139.779 243.384 137.487 245.116 135.663C246.873 133.839 249.168 132.927 252 132.927C254.904 132.927 257.205 133.815 258.904 135.591C260.602 137.367 261.466 139.599 261.494 142.286C261.502 143.03 261.472 143.594 261.404 143.978H247.256C247.437 145.226 247.976 146.234 248.872 147.002C249.768 147.746 251.008 148.118 252.592 148.118C254.704 148.118 256.171 147.314 256.994 145.706L261.292 146.966C260.706 148.334 259.651 149.546 258.126 150.602C256.625 151.634 254.77 152.15 252.562 152.15ZM247.225 140.99H256.837C256.705 139.839 256.202 138.879 255.33 138.111C254.482 137.343 253.374 136.959 252.006 136.959C250.686 136.959 249.586 137.355 248.707 138.147C247.851 138.939 247.357 139.887 247.225 140.99ZM299.023 137.643L299.049 140.163C299.087 143.714 297.941 146.606 295.613 148.838C293.284 151.046 290.224 152.15 286.432 152.15C282.568 152.15 279.351 150.902 276.78 148.406C274.21 145.886 272.905 142.754 272.865 139.011C272.826 135.315 274.054 132.219 276.547 129.723C279.065 127.203 282.195 125.943 285.939 125.943C288.915 125.943 291.467 126.675 293.595 128.139C295.746 129.579 297.253 131.415 298.117 133.647L293.558 134.943C292.112 132.039 289.6 130.587 286.024 130.587C283.624 130.587 281.653 131.403 280.11 133.035C278.591 134.667 277.844 136.647 277.869 138.975C277.894 141.374 278.696 143.402 280.273 145.058C281.875 146.714 284.031 147.542 286.743 147.542C288.783 147.542 290.446 147.014 291.731 145.958C293.015 144.878 293.757 143.522 293.956 141.89H286.216L286.171 137.643H299.023ZM311.59 152.15C308.662 152.15 306.265 151.274 304.398 149.522C302.555 147.746 301.619 145.418 301.588 142.538C301.559 139.779 302.411 137.487 304.144 135.663C305.901 133.839 308.195 132.927 311.027 132.927C313.931 132.927 316.232 133.815 317.931 135.591C319.63 137.367 320.493 139.599 320.522 142.286C320.53 143.03 320.5 143.594 320.432 143.978H306.284C306.465 145.226 307.003 146.234 307.899 147.002C308.795 147.746 310.035 148.118 311.619 148.118C313.731 148.118 315.199 147.314 316.022 145.706L320.319 146.966C319.734 148.334 318.678 149.546 317.153 150.602C315.652 151.634 313.798 152.15 311.59 152.15ZM306.252 140.99H315.864C315.732 139.839 315.23 138.879 314.358 138.111C313.51 137.343 312.401 136.959 311.033 136.959C309.713 136.959 308.614 137.355 307.734 138.147C306.878 138.939 306.384 139.887 306.252 140.99ZM334.633 132.927C336.961 132.927 338.745 133.647 339.984 135.087C341.223 136.527 341.856 138.495 341.882 140.99L341.995 151.646H337.243L337.14 141.89C337.125 140.474 336.777 139.371 336.097 138.579C335.44 137.763 334.476 137.355 333.204 137.355C331.884 137.355 330.821 137.835 330.015 138.795C329.233 139.755 328.851 141.038 328.868 142.646L328.963 151.646H324.211L324.018 133.431H328.77L328.795 135.735C330.239 133.863 332.185 132.927 334.633 132.927ZM355.289 152.15C352.361 152.15 349.964 151.274 348.097 149.522C346.255 147.746 345.318 145.418 345.288 142.538C345.258 139.779 346.11 137.487 347.843 135.663C349.6 133.839 351.894 132.927 354.726 132.927C357.63 132.927 359.932 133.815 361.63 135.591C363.329 137.367 364.193 139.599 364.221 142.286C364.229 143.03 364.199 143.594 364.131 143.978H349.983C350.164 145.226 350.703 146.234 351.599 147.002C352.495 147.746 353.734 148.118 355.318 148.118C357.43 148.118 358.898 147.314 359.721 145.706L364.018 146.966C363.433 148.334 362.378 149.546 360.853 150.602C359.352 151.634 357.497 152.15 355.289 152.15ZM349.951 140.99H359.563C359.431 139.839 358.929 138.879 358.057 138.111C357.209 137.343 356.101 136.959 354.733 136.959C353.413 136.959 352.313 137.355 351.433 138.147C350.578 138.939 350.084 139.887 349.951 140.99ZM372.498 136.131C373.673 133.779 375.667 132.795 378.479 133.179L378.526 137.643C376.531 137.331 375.034 137.667 374.037 138.651C373.039 139.635 372.553 141.326 372.578 143.726L372.662 151.646H367.91L367.718 133.431H372.47L372.498 136.131ZM388.631 152.15C386.087 152.15 383.942 151.238 382.194 149.414C380.447 147.566 379.559 145.274 379.53 142.538C379.501 139.779 380.34 137.487 382.049 135.663C383.758 133.839 385.884 132.927 388.428 132.927C390.924 132.927 392.89 133.827 394.325 135.627L394.302 133.431H399.09L399.282 151.646H394.494L394.47 149.414C393.074 151.238 391.127 152.15 388.631 152.15ZM389.414 147.902C390.878 147.902 392.097 147.398 393.07 146.39C394.068 145.358 394.558 144.062 394.541 142.502C394.525 140.966 394.008 139.695 392.989 138.687C391.994 137.679 390.765 137.175 389.301 137.175C387.813 137.175 386.594 137.679 385.645 138.687C384.696 139.671 384.229 140.942 384.245 142.502C384.262 144.086 384.756 145.382 385.726 146.39C386.697 147.398 387.926 147.902 389.414 147.902ZM414.302 147.218L415.495 151.07C414.061 151.646 412.648 151.934 411.256 151.934C409.24 151.934 407.71 151.358 406.666 150.206C405.646 149.054 405.125 147.458 405.103 145.418L405.021 137.607H401.961L401.917 133.431H404.977L404.914 127.527H409.702L409.765 133.431H415.093L415.137 137.607H409.809L409.891 145.418C409.908 146.954 410.66 147.722 412.148 147.722C412.916 147.722 413.634 147.554 414.302 147.218ZM422.981 130.083C422.435 130.611 421.766 130.875 420.974 130.875C420.182 130.875 419.507 130.611 418.949 130.083C418.392 129.531 418.108 128.859 418.1 128.067C418.092 127.299 418.361 126.651 418.908 126.123C419.454 125.595 420.123 125.331 420.915 125.331C421.707 125.331 422.382 125.595 422.94 126.123C423.497 126.651 423.78 127.299 423.788 128.067C423.796 128.859 423.528 129.531 422.981 130.083ZM418.745 151.646L418.553 133.431H423.341L423.533 151.646H418.745ZM436.918 152.15C434.11 152.15 431.773 151.238 429.906 149.414C428.038 147.566 427.09 145.274 427.061 142.538C427.032 139.803 427.932 137.523 429.761 135.699C431.589 133.851 433.908 132.927 436.716 132.927C439.524 132.927 441.849 133.851 443.693 135.699C445.56 137.523 446.508 139.803 446.537 142.538C446.566 145.274 445.666 147.566 443.838 149.414C442.009 151.238 439.702 152.15 436.918 152.15ZM433.149 146.354C434.12 147.338 435.361 147.83 436.873 147.83C438.385 147.83 439.604 147.338 440.529 146.354C441.479 145.346 441.945 144.074 441.929 142.538C441.913 141.002 441.42 139.743 440.449 138.759C439.503 137.751 438.273 137.247 436.761 137.247C435.249 137.247 434.019 137.751 433.069 138.759C432.144 139.743 431.689 141.002 431.705 142.538C431.721 144.074 432.203 145.346 433.149 146.354ZM460.668 132.927C462.996 132.927 464.78 133.647 466.019 135.087C467.258 136.527 467.891 138.495 467.917 140.99L468.03 151.646H463.278L463.175 141.89C463.16 140.474 462.812 139.371 462.132 138.579C461.475 137.763 460.511 137.355 459.239 137.355C457.919 137.355 456.856 137.835 456.05 138.795C455.268 139.755 454.886 141.038 454.903 142.646L454.998 151.646H450.246L450.054 133.431H454.806L454.83 135.735C456.274 133.863 458.22 132.927 460.668 132.927ZM470.823 156.542C473.534 151.91 474.858 146.63 474.795 140.702C474.732 134.727 473.297 129.447 470.488 124.863H475.132C477.988 129.399 479.424 134.679 479.439 140.702C479.503 146.75 478.179 152.03 475.467 156.542H470.823Z" fill="white"/>
<path d="M91.7629 186.2L91.7811 187.952H85.5891L85.7457 202.999H83.8257L83.6691 187.952H77.4531L77.4349 186.2H91.7629ZM97.0422 203.311C95.1862 203.311 93.6602 202.735 92.4642 201.583C91.2843 200.431 90.6844 198.903 90.6646 196.999C90.6459 195.207 91.1984 193.719 92.3221 192.535C93.4456 191.335 94.9034 190.735 96.6954 190.735C98.5514 190.735 100.021 191.303 101.105 192.439C102.189 193.575 102.74 195.007 102.758 196.735C102.762 197.103 102.749 197.391 102.719 197.599H92.4948C92.5874 198.815 93.0377 199.799 93.8455 200.551C94.6533 201.303 95.7132 201.679 97.0252 201.679C98.0012 201.679 98.823 201.463 99.4905 201.031C100.158 200.583 100.648 200.023 100.961 199.351L102.67 199.855C102.232 200.831 101.537 201.655 100.584 202.327C99.6308 202.983 98.4502 203.311 97.0422 203.311ZM92.4806 196.231L100.928 196.207C100.836 195.055 100.419 194.127 99.6754 193.423C98.932 192.719 97.9444 192.367 96.7124 192.367C95.5284 192.367 94.5403 192.743 93.7481 193.495C92.9719 194.247 92.5494 195.159 92.4806 196.231ZM110.046 203.311C108.718 203.311 107.539 202.967 106.508 202.279C105.492 201.575 104.827 200.711 104.513 199.687L106.236 199.207C106.467 199.927 106.93 200.527 107.623 201.007C108.331 201.471 109.15 201.703 110.078 201.703C110.958 201.703 111.676 201.511 112.232 201.127C112.788 200.743 113.063 200.279 113.057 199.735C113.052 199.271 112.913 198.919 112.638 198.679C112.364 198.423 111.913 198.199 111.287 198.007L107.869 196.999C106.007 196.455 105.069 195.487 105.055 194.095C105.045 193.183 105.461 192.399 106.302 191.743C107.143 191.071 108.18 190.735 109.412 190.735C110.644 190.735 111.703 191.015 112.588 191.575C113.49 192.135 114.13 192.847 114.507 193.711L112.832 194.215C112.602 193.671 112.181 193.215 111.57 192.847C110.958 192.479 110.236 192.295 109.404 192.295C108.652 192.295 108.038 192.479 107.562 192.847C107.101 193.215 106.874 193.623 106.878 194.071C106.885 194.711 107.426 195.191 108.501 195.511L111.92 196.519C112.835 196.791 113.551 197.167 114.068 197.647C114.6 198.111 114.871 198.775 114.88 199.639C114.891 200.695 114.436 201.575 113.516 202.279C112.611 202.967 111.454 203.311 110.046 203.311ZM124.207 201.055L124.727 202.639C123.915 202.991 123.085 203.167 122.237 203.167C121.069 203.167 120.185 202.831 119.586 202.159C119.003 201.471 118.706 200.535 118.693 199.351L118.624 192.703H116.248L116.231 191.023H118.607L118.564 186.896H120.412L120.455 191.023H124.559L124.576 192.703H120.472L120.541 199.351C120.556 200.759 121.211 201.463 122.507 201.463C123.099 201.463 123.666 201.327 124.207 201.055ZM132.269 203.311C130.413 203.311 128.887 202.735 127.691 201.583C126.511 200.431 125.911 198.903 125.891 196.999C125.872 195.207 126.425 193.719 127.549 192.535C128.672 191.335 130.13 190.735 131.922 190.735C133.778 190.735 135.248 191.303 136.332 192.439C137.416 193.575 137.966 195.007 137.984 196.735C137.988 197.103 137.975 197.391 137.945 197.599H127.721C127.814 198.815 128.264 199.799 129.072 200.551C129.88 201.303 130.94 201.679 132.252 201.679C133.228 201.679 134.05 201.463 134.717 201.031C135.384 200.583 135.875 200.023 136.188 199.351L137.897 199.855C137.459 200.831 136.764 201.655 135.811 202.327C134.857 202.983 133.677 203.311 132.269 203.311ZM127.707 196.231L136.155 196.207C136.063 195.055 135.645 194.127 134.902 193.423C134.159 192.719 133.171 192.367 131.939 192.367C130.755 192.367 129.767 192.743 128.975 193.495C128.198 194.247 127.776 195.159 127.707 196.231ZM150.704 185.48H152.552L152.734 202.999H150.886L150.863 200.815C149.84 202.479 148.273 203.311 146.161 203.311C144.433 203.311 142.987 202.711 141.822 201.511C140.658 200.311 140.066 198.807 140.047 196.999C140.029 195.207 140.589 193.719 141.729 192.535C142.868 191.335 144.302 190.735 146.03 190.735C148.126 190.735 149.711 191.551 150.784 193.183L150.704 185.48ZM146.408 201.631C147.656 201.631 148.715 201.191 149.586 200.311C150.457 199.431 150.885 198.335 150.872 197.023C150.858 195.711 150.407 194.615 149.517 193.735C148.628 192.855 147.56 192.415 146.312 192.415C145 192.415 143.924 192.847 143.085 193.711C142.262 194.575 141.858 195.679 141.872 197.023C141.885 198.351 142.313 199.455 143.154 200.335C144.011 201.199 145.096 201.631 146.408 201.631ZM172.599 201.511C171.411 202.711 169.913 203.311 168.105 203.311C166.297 203.311 164.779 202.711 163.551 201.511C162.338 200.295 161.722 198.791 161.704 196.999C161.685 195.207 162.27 193.719 163.457 192.535C164.661 191.335 166.166 190.735 167.974 190.735C169.782 190.735 171.293 191.335 172.505 192.535C173.718 193.719 174.333 195.207 174.352 196.999C174.37 198.791 173.786 200.295 172.599 201.511ZM168.088 201.607C169.368 201.607 170.427 201.175 171.266 200.311C172.121 199.431 172.542 198.335 172.528 197.023C172.514 195.711 172.071 194.615 171.198 193.735C170.341 192.855 169.272 192.415 167.992 192.415C166.696 192.415 165.621 192.855 164.766 193.735C163.911 194.615 163.49 195.711 163.504 197.023C163.518 198.335 163.961 199.431 164.834 200.311C165.707 201.175 166.792 201.607 168.088 201.607ZM183.413 190.735C184.901 190.735 186.074 191.199 186.932 192.127C187.805 193.055 188.251 194.335 188.268 195.967L188.341 202.999H186.493L186.422 196.231C186.41 195.047 186.104 194.127 185.506 193.471C184.923 192.799 184.095 192.463 183.023 192.463C181.823 192.463 180.852 192.879 180.108 193.711C179.381 194.543 179.024 195.631 179.038 196.975L179.101 202.999H177.253L177.128 191.023H178.976L178.998 193.135C179.439 192.415 180.033 191.839 180.78 191.407C181.544 190.959 182.421 190.735 183.413 190.735ZM214.317 194.095L214.328 195.127C214.338 197.655 213.567 199.655 212.014 201.127C210.462 202.583 208.469 203.311 206.037 203.311C203.541 203.311 201.444 202.479 199.747 200.815C198.05 199.135 197.188 197.047 197.162 194.551C197.137 192.103 197.947 190.047 199.594 188.383C201.24 186.72 203.296 185.888 205.76 185.888C207.648 185.888 209.293 186.352 210.694 187.28C212.096 188.192 213.092 189.383 213.684 190.855L211.889 191.335C211.397 190.231 210.62 189.351 209.557 188.695C208.51 188.024 207.259 187.688 205.803 187.688C203.803 187.688 202.177 188.351 200.927 189.679C199.677 191.007 199.062 192.623 199.082 194.527C199.102 196.479 199.751 198.135 201.029 199.495C202.324 200.855 204.011 201.535 206.091 201.535C207.915 201.535 209.405 201.015 210.562 199.975C211.719 198.919 212.345 197.511 212.438 195.751H205.838L205.821 194.095H214.317ZM224.455 186.2C226.135 186.2 227.477 186.752 228.48 187.856C229.484 188.959 229.993 190.215 230.007 191.623C230.022 193.063 229.532 194.327 228.535 195.415C227.554 196.487 226.2 197.023 224.472 197.023H219.048L219.11 202.999H217.214L217.039 186.2H224.455ZM224.406 195.295C225.558 195.295 226.474 194.935 227.154 194.215C227.835 193.479 228.17 192.615 228.159 191.623C228.149 190.631 227.788 189.775 227.077 189.055C226.381 188.319 225.497 187.952 224.425 187.952H218.953L219.03 195.295H224.406ZM244.149 186.2H246.069L246.174 196.327C246.196 198.439 245.598 200.135 244.379 201.415C243.176 202.679 241.495 203.311 239.335 203.311C237.175 203.311 235.472 202.679 234.227 201.415C232.998 200.135 232.372 198.439 232.35 196.327L232.245 186.2H234.189L234.294 196.279C234.31 197.879 234.748 199.159 235.606 200.119C236.479 201.063 237.716 201.535 239.316 201.535C240.916 201.535 242.143 201.063 242.998 200.119C243.852 199.159 244.27 197.879 244.254 196.279L244.149 186.2ZM249.439 196.351L249.422 194.767H257.942L257.959 196.351H249.439ZM263.412 201.247H272.724L272.743 202.999H261.511L261.336 186.2H263.256L263.412 201.247ZM286.997 197.551L287.015 199.279H284.711L284.75 202.999H282.854L282.815 199.279H274.103L274.088 197.839L280.231 186.2H282.319L276.317 197.551H282.797L282.753 193.303H284.649L284.693 197.551H286.997ZM305.461 185.48H307.309L307.492 202.999H305.644L305.621 200.815C304.598 202.479 303.031 203.311 300.919 203.311C299.191 203.311 297.745 202.711 296.58 201.511C295.416 200.311 294.824 198.807 294.805 196.999C294.787 195.207 295.347 193.719 296.487 192.535C297.626 191.335 299.06 190.735 300.788 190.735C302.884 190.735 304.469 191.551 305.541 193.183L305.461 185.48ZM301.165 201.631C302.413 201.631 303.473 201.191 304.344 200.311C305.214 199.431 305.643 198.335 305.629 197.023C305.616 195.711 305.164 194.615 304.275 193.735C303.386 192.855 302.317 192.415 301.069 192.415C299.757 192.415 298.682 192.847 297.843 193.711C297.02 194.575 296.615 195.679 296.629 197.023C296.643 198.351 297.071 199.455 297.912 200.335C298.769 201.199 299.853 201.631 301.165 201.631ZM316.628 203.311C314.772 203.311 313.246 202.735 312.05 201.583C310.87 200.431 310.27 198.903 310.25 196.999C310.232 195.207 310.784 193.719 311.908 192.535C313.032 191.335 314.489 190.735 316.281 190.735C318.137 190.735 319.607 191.303 320.691 192.439C321.775 193.575 322.326 195.007 322.344 196.735C322.348 197.103 322.335 197.391 322.305 197.599H312.081C312.173 198.815 312.624 199.799 313.431 200.551C314.239 201.303 315.299 201.679 316.611 201.679C317.587 201.679 318.409 201.463 319.076 201.031C319.744 200.583 320.234 200.023 320.547 199.351L322.256 199.855C321.818 200.831 321.123 201.655 320.17 202.327C319.217 202.983 318.036 203.311 316.628 203.311ZM312.067 196.231L320.514 196.207C320.422 195.055 320.005 194.127 319.261 193.423C318.518 192.719 317.53 192.367 316.298 192.367C315.114 192.367 314.126 192.743 313.334 193.495C312.558 194.247 312.135 195.159 312.067 196.231ZM333.431 191.023H335.423L330.34 202.999H328.3L322.967 191.023H324.959L329.311 200.983L333.431 191.023ZM339.381 188.431C339.143 188.671 338.84 188.791 338.472 188.791C338.104 188.791 337.799 188.671 337.557 188.431C337.314 188.192 337.191 187.888 337.187 187.52C337.184 187.184 337.301 186.896 337.538 186.656C337.792 186.416 338.094 186.296 338.446 186.296C338.798 186.296 339.096 186.416 339.338 186.656C339.597 186.896 339.728 187.184 339.731 187.52C339.735 187.888 339.618 188.192 339.381 188.431ZM337.708 202.999L337.584 191.023H339.432L339.556 202.999H337.708ZM348.736 203.311C346.944 203.311 345.45 202.711 344.253 201.511C343.056 200.295 342.449 198.783 342.43 196.975C342.411 195.199 342.988 193.719 344.16 192.535C345.331 191.335 346.813 190.735 348.605 190.735C350.029 190.735 351.241 191.111 352.241 191.863C353.256 192.599 353.905 193.431 354.187 194.359L352.464 194.863C352.249 194.207 351.787 193.631 351.078 193.135C350.369 192.639 349.55 192.391 348.622 192.391C347.31 192.391 346.251 192.847 345.444 193.759C344.638 194.655 344.241 195.743 344.254 197.023C344.268 198.287 344.687 199.375 345.512 200.287C346.354 201.183 347.422 201.631 348.718 201.631C349.662 201.631 350.476 201.399 351.159 200.935C351.858 200.455 352.308 199.887 352.509 199.231L354.242 199.687C353.98 200.631 353.357 201.471 352.372 202.207C351.388 202.943 350.176 203.311 348.736 203.311ZM362.659 203.311C360.803 203.311 359.277 202.735 358.081 201.583C356.901 200.431 356.302 198.903 356.282 196.999C356.263 195.207 356.816 193.719 357.939 192.535C359.063 191.335 360.521 190.735 362.313 190.735C364.169 190.735 365.638 191.303 366.722 192.439C367.806 193.575 368.357 195.007 368.375 196.735C368.379 197.103 368.366 197.391 368.336 197.599H358.112C358.205 198.815 358.655 199.799 359.463 200.551C360.271 201.303 361.33 201.679 362.642 201.679C363.618 201.679 364.44 201.463 365.108 201.031C365.775 200.583 366.265 200.023 366.578 199.351L368.287 199.855C367.85 200.831 367.154 201.655 366.201 202.327C365.248 202.983 364.067 203.311 362.659 203.311ZM358.098 196.231L366.546 196.207C366.454 195.055 366.036 194.127 365.293 193.423C364.549 192.719 363.562 192.367 362.33 192.367C361.146 192.367 360.157 192.743 359.365 193.495C358.589 194.247 358.167 195.159 358.098 196.231ZM375.664 203.311C374.336 203.311 373.156 202.967 372.125 202.279C371.11 201.575 370.445 200.711 370.13 199.687L371.853 199.207C372.084 199.927 372.547 200.527 373.24 201.007C373.949 201.471 374.767 201.703 375.695 201.703C376.575 201.703 377.293 201.511 377.849 201.127C378.405 200.743 378.68 200.279 378.674 199.735C378.67 199.271 378.53 198.919 378.255 198.679C377.981 198.423 377.53 198.199 376.904 198.007L373.486 196.999C371.624 196.455 370.686 195.487 370.672 194.095C370.662 193.183 371.078 192.399 371.919 191.743C372.76 191.071 373.797 190.735 375.029 190.735C376.261 190.735 377.32 191.015 378.206 191.575C379.107 192.135 379.747 192.847 380.124 193.711L378.449 194.215C378.219 193.671 377.799 193.215 377.187 192.847C376.575 192.479 375.853 192.295 375.021 192.295C374.269 192.295 373.655 192.479 373.179 192.847C372.719 193.215 372.491 193.623 372.496 194.071C372.502 194.711 373.043 195.191 374.119 195.511L377.537 196.519C378.452 196.791 379.168 197.167 379.685 197.647C380.218 198.111 380.488 198.775 380.497 199.639C380.508 200.695 380.054 201.575 379.133 202.279C378.228 202.967 377.072 203.311 375.664 203.311Z" fill="#5292C8"/>
<path d="M278.84 633L275.18 627.5H271.08V633H269.5V619H275.98C277.34 619 278.42 619.433 279.22 620.3C280.02 621.167 280.42 622.153 280.42 623.26C280.42 624.247 280.107 625.14 279.48 625.94C278.867 626.727 278.013 627.22 276.92 627.42L280.68 633H278.84ZM271.08 620.44V626.08H275.92C276.813 626.08 277.527 625.807 278.06 625.26C278.607 624.7 278.88 624.033 278.88 623.26C278.88 622.5 278.607 621.84 278.06 621.28C277.527 620.72 276.82 620.44 275.94 620.44H271.08ZM290.42 623.02H291.96V633H290.42V631.26C289.607 632.593 288.38 633.26 286.74 633.26C285.487 633.26 284.5 632.873 283.78 632.1C283.074 631.327 282.72 630.253 282.72 628.88V623.02H284.26V628.66C284.26 629.647 284.5 630.42 284.98 630.98C285.474 631.527 286.167 631.8 287.06 631.8C288.074 631.8 288.887 631.453 289.5 630.76C290.114 630.067 290.42 629.16 290.42 628.04V623.02ZM300.209 622.78C301.449 622.78 302.422 623.167 303.129 623.94C303.849 624.713 304.209 625.78 304.209 627.14V633H302.669V627.36C302.669 626.373 302.422 625.607 301.929 625.06C301.449 624.5 300.762 624.22 299.869 624.22C298.869 624.22 298.055 624.567 297.429 625.26C296.815 625.953 296.509 626.86 296.509 627.98V633H294.969V623.02H296.509V624.78C296.882 624.18 297.382 623.7 298.009 623.34C298.649 622.967 299.382 622.78 300.209 622.78ZM312.597 631.38L313.017 632.7C312.337 632.993 311.644 633.14 310.937 633.14C309.964 633.14 309.231 632.86 308.737 632.3C308.257 631.727 308.017 630.947 308.017 629.96V624.42H306.037V623.02H308.017V619.58H309.557V623.02H312.977V624.42H309.557V629.96C309.557 631.133 310.097 631.72 311.177 631.72C311.671 631.72 312.144 631.607 312.597 631.38ZM316.901 620.86C316.701 621.06 316.447 621.16 316.141 621.16C315.834 621.16 315.581 621.06 315.381 620.86C315.181 620.66 315.081 620.407 315.081 620.1C315.081 619.82 315.181 619.58 315.381 619.38C315.594 619.18 315.847 619.08 316.141 619.08C316.434 619.08 316.681 619.18 316.881 619.38C317.094 619.58 317.201 619.82 317.201 620.1C317.201 620.407 317.101 620.66 316.901 620.86ZM315.381 633V623.02H316.921V633H315.381ZM331.648 622.78C332.848 622.78 333.794 623.153 334.488 623.9C335.181 624.633 335.528 625.667 335.528 627V633H333.988V627.24C333.988 626.28 333.768 625.54 333.328 625.02C332.888 624.487 332.241 624.22 331.388 624.22C330.534 624.22 329.841 624.533 329.308 625.16C328.788 625.787 328.528 626.62 328.528 627.66V633H326.988V627.24C326.988 626.293 326.774 625.553 326.348 625.02C325.934 624.487 325.328 624.22 324.528 624.22C323.648 624.22 322.928 624.56 322.368 625.24C321.821 625.907 321.548 626.793 321.548 627.9V633H320.008V623.02H321.548V624.66C322.294 623.407 323.401 622.78 324.868 622.78C326.388 622.78 327.454 623.42 328.068 624.7C328.801 623.42 329.994 622.78 331.648 622.78ZM343.046 633.26C341.499 633.26 340.232 632.78 339.246 631.82C338.272 630.86 337.786 629.587 337.786 628C337.786 626.507 338.259 625.267 339.206 624.28C340.152 623.28 341.372 622.78 342.866 622.78C344.412 622.78 345.632 623.253 346.526 624.2C347.419 625.147 347.866 626.34 347.866 627.78C347.866 628.087 347.852 628.327 347.826 628.5H339.306C339.372 629.513 339.739 630.333 340.406 630.96C341.072 631.587 341.952 631.9 343.046 631.9C343.859 631.9 344.546 631.72 345.106 631.36C345.666 630.987 346.079 630.52 346.346 629.96L347.766 630.38C347.392 631.193 346.806 631.88 346.006 632.44C345.206 632.987 344.219 633.26 343.046 633.26ZM339.306 627.36L346.346 627.34C346.279 626.38 345.939 625.607 345.326 625.02C344.712 624.433 343.892 624.14 342.866 624.14C341.879 624.14 341.052 624.453 340.386 625.08C339.732 625.707 339.372 626.467 339.306 627.36ZM367.038 622.78C368.238 622.78 369.185 623.153 369.878 623.9C370.572 624.633 370.918 625.667 370.918 627V633H369.378V627.24C369.378 626.28 369.158 625.54 368.718 625.02C368.278 624.487 367.632 624.22 366.778 624.22C365.925 624.22 365.232 624.533 364.698 625.16C364.178 625.787 363.918 626.62 363.918 627.66V633H362.378V627.24C362.378 626.293 362.165 625.553 361.738 625.02C361.325 624.487 360.718 624.22 359.918 624.22C359.038 624.22 358.318 624.56 357.758 625.24C357.212 625.907 356.938 626.793 356.938 627.9V633H355.398V623.02H356.938V624.66C357.685 623.407 358.792 622.78 360.258 622.78C361.778 622.78 362.845 623.42 363.458 624.7C364.192 623.42 365.385 622.78 367.038 622.78ZM381.319 623.02H382.859V633H381.319V631.26C380.505 632.593 379.279 633.26 377.639 633.26C376.385 633.26 375.399 632.873 374.679 632.1C373.972 631.327 373.619 630.253 373.619 628.88V623.02H375.159V628.66C375.159 629.647 375.399 630.42 375.879 630.98C376.372 631.527 377.065 631.8 377.959 631.8C378.972 631.8 379.785 631.453 380.399 630.76C381.012 630.067 381.319 629.16 381.319 628.04V623.02ZM385.867 633V618.4H387.407V633H385.867ZM395.878 631.38L396.298 632.7C395.618 632.993 394.925 633.14 394.218 633.14C393.245 633.14 392.512 632.86 392.018 632.3C391.538 631.727 391.298 630.947 391.298 629.96V624.42H389.318V623.02H391.298V619.58H392.838V623.02H396.258V624.42H392.838V629.96C392.838 631.133 393.378 631.72 394.458 631.72C394.952 631.72 395.425 631.607 395.878 631.38ZM400.182 620.86C399.982 621.06 399.729 621.16 399.422 621.16C399.115 621.16 398.862 621.06 398.662 620.86C398.462 620.66 398.362 620.407 398.362 620.1C398.362 619.82 398.462 619.58 398.662 619.38C398.875 619.18 399.129 619.08 399.422 619.08C399.715 619.08 399.962 619.18 400.162 619.38C400.375 619.58 400.482 619.82 400.482 620.1C400.482 620.407 400.382 620.66 400.182 620.86ZM398.662 633V623.02H400.202V633H398.662ZM408.769 622.78C410.209 622.78 411.409 623.28 412.369 624.28C413.329 625.267 413.809 626.507 413.809 628C413.809 629.507 413.329 630.76 412.369 631.76C411.409 632.76 410.209 633.26 408.769 633.26C407.889 633.26 407.109 633.08 406.429 632.72C405.762 632.347 405.229 631.833 404.829 631.18V637.2H403.289V623.02H404.829V624.82C405.682 623.46 406.996 622.78 408.769 622.78ZM408.549 631.86C409.642 631.86 410.536 631.5 411.229 630.78C411.936 630.047 412.289 629.127 412.289 628.02C412.289 626.9 411.936 625.98 411.229 625.26C410.536 624.54 409.642 624.18 408.549 624.18C407.509 624.18 406.622 624.547 405.889 625.28C405.156 626.013 404.789 626.927 404.789 628.02C404.789 629.113 405.156 630.027 405.889 630.76C406.622 631.493 407.509 631.86 408.549 631.86ZM416.16 633V618.4H417.7V633H416.16ZM422.291 620.86C422.091 621.06 421.838 621.16 421.531 621.16C421.225 621.16 420.971 621.06 420.771 620.86C420.571 620.66 420.471 620.407 420.471 620.1C420.471 619.82 420.571 619.58 420.771 619.38C420.985 619.18 421.238 619.08 421.531 619.08C421.825 619.08 422.071 619.18 422.271 619.38C422.485 619.58 422.591 619.82 422.591 620.1C422.591 620.407 422.491 620.66 422.291 620.86ZM420.771 633V623.02H422.311V633H420.771ZM430.018 633.26C428.472 633.26 427.205 632.78 426.218 631.82C425.245 630.86 424.758 629.587 424.758 628C424.758 626.507 425.232 625.267 426.178 624.28C427.125 623.28 428.345 622.78 429.838 622.78C431.385 622.78 432.605 623.253 433.498 624.2C434.392 625.147 434.838 626.34 434.838 627.78C434.838 628.087 434.825 628.327 434.798 628.5H426.278C426.345 629.513 426.712 630.333 427.378 630.96C428.045 631.587 428.925 631.9 430.018 631.9C430.832 631.9 431.518 631.72 432.078 631.36C432.638 630.987 433.052 630.52 433.318 629.96L434.738 630.38C434.365 631.193 433.778 631.88 432.978 632.44C432.178 632.987 431.192 633.26 430.018 633.26ZM426.278 627.36L433.318 627.34C433.252 626.38 432.912 625.607 432.298 625.02C431.685 624.433 430.865 624.14 429.838 624.14C428.852 624.14 428.025 624.453 427.358 625.08C426.705 625.707 426.345 626.467 426.278 627.36ZM438.735 624.74C439.042 624.06 439.502 623.553 440.115 623.22C440.729 622.887 441.462 622.78 442.315 622.9V624.34C441.195 624.193 440.315 624.447 439.675 625.1C439.049 625.74 438.735 626.82 438.735 628.34V633H437.195V623.02H438.735V624.74Z" fill="#3287CE"/>
<path d="M120.58 310H127.94V312H118.4V298H120.58V310ZM133.893 312.26C132.467 312.26 131.273 311.76 130.313 310.76C129.367 309.747 128.893 308.48 128.893 306.96C128.893 305.453 129.367 304.2 130.313 303.2C131.273 302.187 132.467 301.68 133.893 301.68C135.467 301.68 136.673 302.273 137.513 303.46V301.94H139.593V312H137.513V310.48C136.673 311.667 135.467 312.26 133.893 312.26ZM134.233 310.38C135.167 310.38 135.953 310.06 136.593 309.42C137.233 308.767 137.553 307.947 137.553 306.96C137.553 305.987 137.233 305.18 136.593 304.54C135.953 303.887 135.167 303.56 134.233 303.56C133.273 303.56 132.487 303.88 131.873 304.52C131.26 305.16 130.953 305.973 130.953 306.96C130.953 307.947 131.26 308.767 131.873 309.42C132.487 310.06 133.273 310.38 134.233 310.38ZM148.024 309.96L148.544 311.68C147.784 312 147.044 312.16 146.324 312.16C145.271 312.16 144.484 311.86 143.964 311.26C143.444 310.647 143.184 309.807 143.184 308.74V303.8H141.344V301.94H143.184V298.58H145.264V301.94H148.464V303.8H145.264V308.74C145.264 309.767 145.744 310.28 146.704 310.28C147.144 310.28 147.584 310.173 148.024 309.96ZM154.781 312.26C153.194 312.26 151.901 311.773 150.901 310.8C149.914 309.827 149.421 308.553 149.421 306.98C149.421 305.46 149.901 304.2 150.861 303.2C151.821 302.187 153.067 301.68 154.601 301.68C156.187 301.68 157.434 302.167 158.341 303.14C159.261 304.1 159.721 305.313 159.721 306.78C159.721 307.033 159.701 307.313 159.661 307.62H151.481C151.547 308.473 151.874 309.16 152.461 309.68C153.047 310.2 153.834 310.46 154.821 310.46C156.207 310.46 157.161 309.92 157.681 308.84L159.601 309.4C159.241 310.187 158.647 310.86 157.821 311.42C156.994 311.98 155.981 312.26 154.781 312.26ZM151.481 306.22L157.661 306.2C157.594 305.4 157.287 304.747 156.741 304.24C156.207 303.733 155.494 303.48 154.601 303.48C153.734 303.48 153.014 303.747 152.441 304.28C151.881 304.813 151.561 305.46 151.481 306.22ZM167.437 301.68C168.717 301.68 169.703 302.073 170.397 302.86C171.09 303.647 171.437 304.727 171.437 306.1V312H169.357V306.48C169.357 305.587 169.143 304.893 168.717 304.4C168.303 303.893 167.69 303.64 166.877 303.64C165.997 303.64 165.29 303.947 164.757 304.56C164.237 305.173 163.977 305.987 163.977 307V312H161.877V301.94H163.977V303.44C164.803 302.267 165.957 301.68 167.437 301.68ZM178.802 312.26C177.282 312.26 176.022 311.753 175.022 310.74C174.022 309.727 173.522 308.467 173.522 306.96C173.522 305.453 174.016 304.2 175.002 303.2C176.002 302.187 177.262 301.68 178.782 301.68C180.036 301.68 181.089 302.007 181.942 302.66C182.809 303.3 183.349 304.033 183.562 304.86L181.622 305.42C181.476 304.927 181.142 304.493 180.622 304.12C180.102 303.747 179.496 303.56 178.802 303.56C177.842 303.56 177.062 303.893 176.462 304.56C175.862 305.213 175.562 306.013 175.562 306.96C175.562 307.893 175.862 308.7 176.462 309.38C177.076 310.047 177.856 310.38 178.802 310.38C179.496 310.38 180.102 310.207 180.622 309.86C181.142 309.5 181.476 309.073 181.622 308.58L183.562 309.12C183.349 309.933 182.816 310.66 181.962 311.3C181.109 311.94 180.056 312.26 178.802 312.26ZM192.951 301.94H195.191L189.071 316.2H186.911L188.791 311.78L184.191 301.94H186.471L189.831 309.42L192.951 301.94ZM205.638 312.26C204.491 312.26 203.478 311.967 202.598 311.38C201.731 310.78 201.165 310.053 200.898 309.2L202.798 308.64C202.985 309.187 203.338 309.64 203.858 310C204.391 310.36 205.005 310.54 205.698 310.54C206.325 310.54 206.831 310.407 207.218 310.14C207.605 309.873 207.798 309.553 207.798 309.18C207.798 308.873 207.698 308.633 207.498 308.46C207.298 308.273 206.965 308.113 206.498 307.98L203.798 307.18C202.198 306.7 201.398 305.84 201.398 304.6C201.398 303.8 201.771 303.113 202.518 302.54C203.265 301.967 204.171 301.68 205.238 301.68C206.291 301.68 207.205 301.913 207.978 302.38C208.751 302.847 209.291 303.46 209.598 304.22L207.738 304.76C207.538 304.36 207.218 304.027 206.778 303.76C206.338 303.493 205.818 303.36 205.218 303.36C204.711 303.36 204.291 303.487 203.958 303.74C203.625 303.98 203.458 304.26 203.458 304.58C203.458 305.02 203.818 305.353 204.538 305.58L207.218 306.36C208.045 306.6 208.691 306.927 209.158 307.34C209.625 307.74 209.858 308.327 209.858 309.1C209.858 310.007 209.458 310.76 208.658 311.36C207.871 311.96 206.865 312.26 205.638 312.26ZM217.811 301.68C219.238 301.68 220.431 302.187 221.391 303.2C222.351 304.2 222.831 305.453 222.831 306.96C222.831 308.48 222.351 309.747 221.391 310.76C220.431 311.76 219.238 312.26 217.811 312.26C216.251 312.26 215.051 311.667 214.211 310.48V316.2H212.111V301.94H214.211V303.46C215.051 302.273 216.251 301.68 217.811 301.68ZM217.471 310.38C218.431 310.38 219.218 310.06 219.831 309.42C220.444 308.767 220.751 307.947 220.751 306.96C220.751 305.973 220.444 305.16 219.831 304.52C219.218 303.88 218.431 303.56 217.471 303.56C216.538 303.56 215.751 303.887 215.111 304.54C214.471 305.18 214.151 305.987 214.151 306.96C214.151 307.947 214.471 308.767 215.111 309.42C215.751 310.06 216.538 310.38 217.471 310.38ZM229.722 312.26C228.135 312.26 226.842 311.773 225.842 310.8C224.855 309.827 224.362 308.553 224.362 306.98C224.362 305.46 224.842 304.2 225.802 303.2C226.762 302.187 228.009 301.68 229.542 301.68C231.129 301.68 232.375 302.167 233.282 303.14C234.202 304.1 234.662 305.313 234.662 306.78C234.662 307.033 234.642 307.313 234.602 307.62H226.422C226.489 308.473 226.815 309.16 227.402 309.68C227.989 310.2 228.775 310.46 229.762 310.46C231.149 310.46 232.102 309.92 232.622 308.84L234.542 309.4C234.182 310.187 233.589 310.86 232.762 311.42C231.935 311.98 230.922 312.26 229.722 312.26ZM226.422 306.22L232.602 306.2C232.535 305.4 232.229 304.747 231.682 304.24C231.149 303.733 230.435 303.48 229.542 303.48C228.675 303.48 227.955 303.747 227.382 304.28C226.822 304.813 226.502 305.46 226.422 306.22ZM241.558 312.26C239.971 312.26 238.678 311.773 237.678 310.8C236.691 309.827 236.198 308.553 236.198 306.98C236.198 305.46 236.678 304.2 237.638 303.2C238.598 302.187 239.845 301.68 241.378 301.68C242.965 301.68 244.211 302.167 245.118 303.14C246.038 304.1 246.498 305.313 246.498 306.78C246.498 307.033 246.478 307.313 246.438 307.62H238.258C238.325 308.473 238.651 309.16 239.238 309.68C239.825 310.2 240.611 310.46 241.598 310.46C242.985 310.46 243.938 309.92 244.458 308.84L246.378 309.4C246.018 310.187 245.425 310.86 244.598 311.42C243.771 311.98 242.758 312.26 241.558 312.26ZM238.258 306.22L244.438 306.2C244.371 305.4 244.065 304.747 243.518 304.24C242.985 303.733 242.271 303.48 241.378 303.48C240.511 303.48 239.791 303.747 239.218 304.28C238.658 304.813 238.338 305.46 238.258 306.22ZM256.654 297.4H258.734V312H256.654V310.48C255.814 311.667 254.607 312.26 253.034 312.26C251.607 312.26 250.414 311.76 249.454 310.76C248.507 309.747 248.034 308.48 248.034 306.96C248.034 305.453 248.507 304.2 249.454 303.2C250.414 302.187 251.607 301.68 253.034 301.68C254.607 301.68 255.814 302.273 256.654 303.46V297.4ZM253.374 310.38C254.307 310.38 255.094 310.06 255.734 309.42C256.374 308.767 256.694 307.947 256.694 306.96C256.694 305.987 256.374 305.18 255.734 304.54C255.094 303.887 254.307 303.56 253.374 303.56C252.414 303.56 251.627 303.88 251.014 304.52C250.401 305.16 250.094 305.973 250.094 306.96C250.094 307.947 250.401 308.767 251.014 309.42C251.627 310.06 252.414 310.38 253.374 310.38ZM268.905 301.94H270.985V312H268.905V310.48C268.092 311.667 266.932 312.26 265.425 312.26C264.158 312.26 263.172 311.867 262.465 311.08C261.772 310.293 261.425 309.213 261.425 307.84V301.94H263.525V307.46C263.525 308.353 263.732 309.053 264.145 309.56C264.572 310.053 265.192 310.3 266.005 310.3C266.872 310.3 267.572 309.993 268.105 309.38C268.638 308.767 268.905 307.953 268.905 306.94V301.94ZM279.491 301.68C280.917 301.68 282.111 302.187 283.071 303.2C284.031 304.2 284.511 305.453 284.511 306.96C284.511 308.48 284.031 309.747 283.071 310.76C282.111 311.76 280.917 312.26 279.491 312.26C277.931 312.26 276.731 311.667 275.891 310.48V316.2H273.791V301.94H275.891V303.46C276.731 302.273 277.931 301.68 279.491 301.68ZM279.151 310.38C280.111 310.38 280.897 310.06 281.511 309.42C282.124 308.767 282.431 307.947 282.431 306.96C282.431 305.973 282.124 305.16 281.511 304.52C280.897 303.88 280.111 303.56 279.151 303.56C278.217 303.56 277.431 303.887 276.791 304.54C276.151 305.18 275.831 305.987 275.831 306.96C275.831 307.947 276.151 308.767 276.791 309.42C277.431 310.06 278.217 310.38 279.151 310.38Z" fill="#01396C"/>
<path d="M303.26 412H305.34V426H303.16V415.76L298.36 422.48L293.58 415.76V426H291.4V412H293.48L298.38 419.04L303.26 412ZM312.878 426.26C311.292 426.26 309.998 425.773 308.998 424.8C308.012 423.827 307.518 422.553 307.518 420.98C307.518 419.46 307.998 418.2 308.958 417.2C309.918 416.187 311.165 415.68 312.698 415.68C314.285 415.68 315.532 416.167 316.438 417.14C317.358 418.1 317.818 419.313 317.818 420.78C317.818 421.033 317.798 421.313 317.758 421.62H309.578C309.645 422.473 309.972 423.16 310.558 423.68C311.145 424.2 311.932 424.46 312.918 424.46C314.305 424.46 315.258 423.92 315.778 422.84L317.698 423.4C317.338 424.187 316.745 424.86 315.918 425.42C315.092 425.98 314.078 426.26 312.878 426.26ZM309.578 420.22L315.758 420.2C315.692 419.4 315.385 418.747 314.838 418.24C314.305 417.733 313.592 417.48 312.698 417.48C311.832 417.48 311.112 417.747 310.538 418.28C309.978 418.813 309.658 419.46 309.578 420.22ZM331.854 415.68C333.054 415.68 334.008 416.06 334.714 416.82C335.434 417.58 335.794 418.633 335.794 419.98V426H333.694V420.38C333.694 419.513 333.501 418.84 333.114 418.36C332.741 417.88 332.181 417.64 331.434 417.64C330.661 417.64 330.048 417.92 329.594 418.48C329.141 419.04 328.914 419.793 328.914 420.74V426H326.834V420.38C326.834 419.513 326.648 418.84 326.274 418.36C325.914 417.88 325.374 417.64 324.654 417.64C323.854 417.64 323.221 417.933 322.754 418.52C322.301 419.107 322.074 419.907 322.074 420.92V426H319.974V415.94H322.074V417.34C322.834 416.233 323.888 415.68 325.234 415.68C326.701 415.68 327.734 416.253 328.334 417.4C329.094 416.253 330.268 415.68 331.854 415.68ZM347.03 424.76C346.017 425.76 344.743 426.26 343.21 426.26C341.677 426.26 340.403 425.76 339.39 424.76C338.377 423.747 337.87 422.48 337.87 420.96C337.87 419.453 338.377 418.2 339.39 417.2C340.403 416.187 341.677 415.68 343.21 415.68C344.743 415.68 346.017 416.187 347.03 417.2C348.043 418.2 348.55 419.453 348.55 420.96C348.55 422.48 348.043 423.747 347.03 424.76ZM340.83 423.4C341.457 424.04 342.25 424.36 343.21 424.36C344.17 424.36 344.957 424.04 345.57 423.4C346.197 422.747 346.51 421.94 346.51 420.98C346.51 420.007 346.197 419.2 345.57 418.56C344.957 417.907 344.17 417.58 343.21 417.58C342.25 417.58 341.457 417.907 340.83 418.56C340.217 419.2 339.91 420.007 339.91 420.98C339.91 421.94 340.217 422.747 340.83 423.4ZM352.816 417.54C353.123 416.913 353.57 416.447 354.156 416.14C354.756 415.82 355.456 415.713 356.256 415.82V417.78C355.15 417.62 354.296 417.84 353.696 418.44C353.11 419.027 352.816 420.033 352.816 421.46V426H350.716V415.94H352.816V417.54ZM365.834 415.94H368.074L361.954 430.2H359.794L361.674 425.78L357.074 415.94H359.354L362.714 423.42L365.834 415.94ZM380.241 426.26C378.681 426.26 377.341 425.853 376.221 425.04C375.101 424.227 374.341 423.227 373.941 422.04L376.001 421.42C376.321 422.273 376.861 422.973 377.621 423.52C378.394 424.067 379.307 424.34 380.361 424.34C381.294 424.34 382.054 424.12 382.641 423.68C383.241 423.24 383.541 422.733 383.541 422.16C383.541 421.693 383.367 421.3 383.021 420.98C382.687 420.66 382.121 420.373 381.321 420.12L377.801 419C375.707 418.347 374.661 417.207 374.661 415.58C374.661 414.527 375.121 413.627 376.041 412.88C376.961 412.12 378.114 411.74 379.501 411.74C380.927 411.74 382.154 412.073 383.181 412.74C384.221 413.393 384.954 414.22 385.381 415.22L383.361 415.82C383.027 415.167 382.521 414.647 381.841 414.26C381.174 413.86 380.394 413.66 379.501 413.66C378.727 413.66 378.087 413.847 377.581 414.22C377.087 414.58 376.841 415.013 376.841 415.52C376.841 415.92 376.981 416.253 377.261 416.52C377.541 416.773 377.994 416.993 378.621 417.18L382.061 418.28C383.274 418.667 384.187 419.14 384.801 419.7C385.414 420.247 385.721 421.02 385.721 422.02C385.721 423.22 385.207 424.227 384.181 425.04C383.167 425.853 381.854 426.26 380.241 426.26ZM392.382 426.26C390.955 426.26 389.762 425.76 388.802 424.76C387.855 423.747 387.382 422.48 387.382 420.96C387.382 419.453 387.855 418.2 388.802 417.2C389.762 416.187 390.955 415.68 392.382 415.68C393.955 415.68 395.162 416.273 396.002 417.46V415.94H398.082V426H396.002V424.48C395.162 425.667 393.955 426.26 392.382 426.26ZM392.722 424.38C393.655 424.38 394.442 424.06 395.082 423.42C395.722 422.767 396.042 421.947 396.042 420.96C396.042 419.987 395.722 419.18 395.082 418.54C394.442 417.887 393.655 417.56 392.722 417.56C391.762 417.56 390.975 417.88 390.362 418.52C389.748 419.16 389.442 419.973 389.442 420.96C389.442 421.947 389.748 422.767 390.362 423.42C390.975 424.06 391.762 424.38 392.722 424.38ZM408.115 415.94H410.395L406.135 426H403.795L399.535 415.94H401.815L404.955 423.72L408.115 415.94ZM413.967 413.94C413.714 414.18 413.401 414.3 413.027 414.3C412.654 414.3 412.341 414.18 412.087 413.94C411.834 413.687 411.707 413.373 411.707 413C411.707 412.653 411.834 412.353 412.087 412.1C412.341 411.847 412.654 411.72 413.027 411.72C413.401 411.72 413.714 411.847 413.967 412.1C414.221 412.353 414.347 412.653 414.347 413C414.347 413.373 414.221 413.687 413.967 413.94ZM411.967 426V415.94H414.047V426H411.967ZM422.468 415.68C423.748 415.68 424.734 416.073 425.428 416.86C426.121 417.647 426.468 418.727 426.468 420.1V426H424.388V420.48C424.388 419.587 424.174 418.893 423.748 418.4C423.334 417.893 422.721 417.64 421.908 417.64C421.028 417.64 420.321 417.947 419.788 418.56C419.268 419.173 419.008 419.987 419.008 421V426H416.908V415.94H419.008V417.44C419.834 416.267 420.988 415.68 422.468 415.68ZM437.113 415.94H439.213V425.64C439.213 427.053 438.74 428.207 437.793 429.1C436.86 430.007 435.633 430.46 434.113 430.46C431.887 430.46 430.287 429.587 429.313 427.84L431.153 427.16C431.767 428.187 432.767 428.7 434.153 428.7C435.087 428.7 435.807 428.413 436.313 427.84C436.833 427.28 437.1 426.553 437.113 425.66V424.18C436.273 425.313 435.093 425.88 433.573 425.88C432.12 425.88 430.92 425.393 429.973 424.42C429.027 423.447 428.553 422.233 428.553 420.78C428.553 419.287 429.02 418.067 429.953 417.12C430.9 416.16 432.107 415.68 433.573 415.68C435.093 415.68 436.273 416.24 437.113 417.36V415.94ZM433.893 424C434.827 424 435.607 423.693 436.233 423.08C436.86 422.467 437.173 421.7 437.173 420.78C437.173 419.86 436.86 419.1 436.233 418.5C435.607 417.887 434.827 417.58 433.893 417.58C432.933 417.58 432.147 417.88 431.533 418.48C430.92 419.08 430.613 419.847 430.613 420.78C430.613 421.713 430.92 422.487 431.533 423.1C432.147 423.7 432.933 424 433.893 424ZM445.825 426.26C444.679 426.26 443.665 425.967 442.785 425.38C441.919 424.78 441.352 424.053 441.085 423.2L442.985 422.64C443.172 423.187 443.525 423.64 444.045 424C444.579 424.36 445.192 424.54 445.885 424.54C446.512 424.54 447.019 424.407 447.405 424.14C447.792 423.873 447.985 423.553 447.985 423.18C447.985 422.873 447.885 422.633 447.685 422.46C447.485 422.273 447.152 422.113 446.685 421.98L443.985 421.18C442.385 420.7 441.585 419.84 441.585 418.6C441.585 417.8 441.959 417.113 442.705 416.54C443.452 415.967 444.359 415.68 445.425 415.68C446.479 415.68 447.392 415.913 448.165 416.38C448.939 416.847 449.479 417.46 449.785 418.22L447.925 418.76C447.725 418.36 447.405 418.027 446.965 417.76C446.525 417.493 446.005 417.36 445.405 417.36C444.899 417.36 444.479 417.487 444.145 417.74C443.812 417.98 443.645 418.26 443.645 418.58C443.645 419.02 444.005 419.353 444.725 419.58L447.405 420.36C448.232 420.6 448.879 420.927 449.345 421.34C449.812 421.74 450.045 422.327 450.045 423.1C450.045 424.007 449.645 424.76 448.845 425.36C448.059 425.96 447.052 426.26 445.825 426.26Z" fill="#01396C"/>
<path d="M249.48 525.96H241.54V529.94H248.46V531.82H241.54V536.02H249.46V538H239.4V524H249.48V525.96ZM257.44 527.68C258.72 527.68 259.707 528.073 260.4 528.86C261.094 529.647 261.44 530.727 261.44 532.1V538H259.36V532.48C259.36 531.587 259.147 530.893 258.72 530.4C258.307 529.893 257.694 529.64 256.88 529.64C256 529.64 255.294 529.947 254.76 530.56C254.24 531.173 253.98 531.987 253.98 533V538H251.88V527.94H253.98V529.44C254.807 528.267 255.96 527.68 257.44 527.68ZM268.886 538.26C267.299 538.26 266.006 537.773 265.006 536.8C264.019 535.827 263.526 534.553 263.526 532.98C263.526 531.46 264.006 530.2 264.966 529.2C265.926 528.187 267.173 527.68 268.706 527.68C270.293 527.68 271.539 528.167 272.446 529.14C273.366 530.1 273.826 531.313 273.826 532.78C273.826 533.033 273.806 533.313 273.766 533.62H265.586C265.653 534.473 265.979 535.16 266.566 535.68C267.153 536.2 267.939 536.46 268.926 536.46C270.313 536.46 271.266 535.92 271.786 534.84L273.706 535.4C273.346 536.187 272.753 536.86 271.926 537.42C271.099 537.98 270.086 538.26 268.886 538.26ZM265.586 532.22L271.766 532.2C271.699 531.4 271.393 530.747 270.846 530.24C270.313 529.733 269.599 529.48 268.706 529.48C267.839 529.48 267.119 529.747 266.546 530.28C265.986 530.813 265.666 531.46 265.586 532.22ZM278.082 529.54C278.389 528.913 278.835 528.447 279.422 528.14C280.022 527.82 280.722 527.713 281.522 527.82V529.78C280.415 529.62 279.562 529.84 278.962 530.44C278.375 531.027 278.082 532.033 278.082 533.46V538H275.982V527.94H278.082V529.54ZM290.719 527.94H292.819V537.64C292.819 539.053 292.346 540.207 291.399 541.1C290.466 542.007 289.239 542.46 287.719 542.46C285.492 542.46 283.892 541.587 282.919 539.84L284.759 539.16C285.372 540.187 286.372 540.7 287.759 540.7C288.692 540.7 289.412 540.413 289.919 539.84C290.439 539.28 290.706 538.553 290.719 537.66V536.18C289.879 537.313 288.699 537.88 287.179 537.88C285.726 537.88 284.526 537.393 283.579 536.42C282.632 535.447 282.159 534.233 282.159 532.78C282.159 531.287 282.626 530.067 283.559 529.12C284.506 528.16 285.712 527.68 287.179 527.68C288.699 527.68 289.879 528.24 290.719 529.36V527.94ZM287.499 536C288.432 536 289.212 535.693 289.839 535.08C290.466 534.467 290.779 533.7 290.779 532.78C290.779 531.86 290.466 531.1 289.839 530.5C289.212 529.887 288.432 529.58 287.499 529.58C286.539 529.58 285.752 529.88 285.139 530.48C284.526 531.08 284.219 531.847 284.219 532.78C284.219 533.713 284.526 534.487 285.139 535.1C285.752 535.7 286.539 536 287.499 536ZM303.033 527.94H305.273L299.153 542.2H296.993L298.873 537.78L294.273 527.94H296.553L299.913 535.42L303.033 527.94ZM317.44 538.26C315.88 538.26 314.54 537.853 313.42 537.04C312.3 536.227 311.54 535.227 311.14 534.04L313.2 533.42C313.52 534.273 314.06 534.973 314.82 535.52C315.593 536.067 316.507 536.34 317.56 536.34C318.493 536.34 319.253 536.12 319.84 535.68C320.44 535.24 320.74 534.733 320.74 534.16C320.74 533.693 320.567 533.3 320.22 532.98C319.887 532.66 319.32 532.373 318.52 532.12L315 531C312.907 530.347 311.86 529.207 311.86 527.58C311.86 526.527 312.32 525.627 313.24 524.88C314.16 524.12 315.313 523.74 316.7 523.74C318.127 523.74 319.353 524.073 320.38 524.74C321.42 525.393 322.153 526.22 322.58 527.22L320.56 527.82C320.227 527.167 319.72 526.647 319.04 526.26C318.373 525.86 317.593 525.66 316.7 525.66C315.927 525.66 315.287 525.847 314.78 526.22C314.287 526.58 314.04 527.013 314.04 527.52C314.04 527.92 314.18 528.253 314.46 528.52C314.74 528.773 315.193 528.993 315.82 529.18L319.26 530.28C320.473 530.667 321.387 531.14 322 531.7C322.613 532.247 322.92 533.02 322.92 534.02C322.92 535.22 322.407 536.227 321.38 537.04C320.367 537.853 319.053 538.26 317.44 538.26ZM329.581 538.26C328.154 538.26 326.961 537.76 326.001 536.76C325.054 535.747 324.581 534.48 324.581 532.96C324.581 531.453 325.054 530.2 326.001 529.2C326.961 528.187 328.154 527.68 329.581 527.68C331.154 527.68 332.361 528.273 333.201 529.46V527.94H335.281V538H333.201V536.48C332.361 537.667 331.154 538.26 329.581 538.26ZM329.921 536.38C330.854 536.38 331.641 536.06 332.281 535.42C332.921 534.767 333.241 533.947 333.241 532.96C333.241 531.987 332.921 531.18 332.281 530.54C331.641 529.887 330.854 529.56 329.921 529.56C328.961 529.56 328.174 529.88 327.561 530.52C326.947 531.16 326.641 531.973 326.641 532.96C326.641 533.947 326.947 534.767 327.561 535.42C328.174 536.06 328.961 536.38 329.921 536.38ZM345.314 527.94H347.594L343.334 538H340.994L336.734 527.94H339.014L342.154 535.72L345.314 527.94ZM351.167 525.94C350.913 526.18 350.6 526.3 350.227 526.3C349.853 526.3 349.54 526.18 349.287 525.94C349.033 525.687 348.907 525.373 348.907 525C348.907 524.653 349.033 524.353 349.287 524.1C349.54 523.847 349.853 523.72 350.227 523.72C350.6 523.72 350.913 523.847 351.167 524.1C351.42 524.353 351.547 524.653 351.547 525C351.547 525.373 351.42 525.687 351.167 525.94ZM349.167 538V527.94H351.247V538H349.167ZM359.667 527.68C360.947 527.68 361.934 528.073 362.627 528.86C363.32 529.647 363.667 530.727 363.667 532.1V538H361.587V532.48C361.587 531.587 361.374 530.893 360.947 530.4C360.534 529.893 359.92 529.64 359.107 529.64C358.227 529.64 357.52 529.947 356.987 530.56C356.467 531.173 356.207 531.987 356.207 533V538H354.107V527.94H356.207V529.44C357.034 528.267 358.187 527.68 359.667 527.68ZM374.313 527.94H376.413V537.64C376.413 539.053 375.939 540.207 374.993 541.1C374.059 542.007 372.833 542.46 371.313 542.46C369.086 542.46 367.486 541.587 366.513 539.84L368.353 539.16C368.966 540.187 369.966 540.7 371.353 540.7C372.286 540.7 373.006 540.413 373.513 539.84C374.033 539.28 374.299 538.553 374.313 537.66V536.18C373.473 537.313 372.293 537.88 370.773 537.88C369.319 537.88 368.119 537.393 367.173 536.42C366.226 535.447 365.753 534.233 365.753 532.78C365.753 531.287 366.219 530.067 367.153 529.12C368.099 528.16 369.306 527.68 370.773 527.68C372.293 527.68 373.473 528.24 374.313 529.36V527.94ZM371.093 536C372.026 536 372.806 535.693 373.433 535.08C374.059 534.467 374.373 533.7 374.373 532.78C374.373 531.86 374.059 531.1 373.433 530.5C372.806 529.887 372.026 529.58 371.093 529.58C370.133 529.58 369.346 529.88 368.733 530.48C368.119 531.08 367.813 531.847 367.813 532.78C367.813 533.713 368.119 534.487 368.733 535.1C369.346 535.7 370.133 536 371.093 536ZM383.025 538.26C381.878 538.26 380.865 537.967 379.985 537.38C379.118 536.78 378.551 536.053 378.285 535.2L380.185 534.64C380.371 535.187 380.725 535.64 381.245 536C381.778 536.36 382.391 536.54 383.085 536.54C383.711 536.54 384.218 536.407 384.605 536.14C384.991 535.873 385.185 535.553 385.185 535.18C385.185 534.873 385.085 534.633 384.885 534.46C384.685 534.273 384.351 534.113 383.885 533.98L381.185 533.18C379.585 532.7 378.785 531.84 378.785 530.6C378.785 529.8 379.158 529.113 379.905 528.54C380.651 527.967 381.558 527.68 382.625 527.68C383.678 527.68 384.591 527.913 385.365 528.38C386.138 528.847 386.678 529.46 386.985 530.22L385.125 530.76C384.925 530.36 384.605 530.027 384.165 529.76C383.725 529.493 383.205 529.36 382.605 529.36C382.098 529.36 381.678 529.487 381.345 529.74C381.011 529.98 380.845 530.26 380.845 530.58C380.845 531.02 381.205 531.353 381.925 531.58L384.605 532.36C385.431 532.6 386.078 532.927 386.545 533.34C387.011 533.74 387.245 534.327 387.245 535.1C387.245 536.007 386.845 536.76 386.045 537.36C385.258 537.96 384.251 538.26 383.025 538.26Z" fill="#01396C"/>
<defs>
<filter id="filter0_if_1153_481" x="45" y="212" width="87" height="486" filterUnits="userSpaceOnUse" color-interpolation-filters="sRGB">
<feFlood flood-opacity="0" result="BackgroundImageFix"/>
<feBlend mode="normal" in="SourceGraphic" in2="BackgroundImageFix" result="shape"/>
<feColorMatrix in="SourceAlpha" type="matrix" values="0 0 0 0 0 0 0 0 0 0 0 0 0 0 0 0 0 0 127 0" result="hardAlpha"/>
<feOffset dy="4"/>
<feGaussianBlur stdDeviation="20"/>
<feComposite in2="hardAlpha" operator="arithmetic" k2="-1" k3="1"/>
<feColorMatrix type="matrix" values="0 0 0 0 0.0215666 0 0 0 0 0.322844 0 0 0 0 0.597222 0 0 0 1 0"/>
<feBlend mode="normal" in2="shape" result="effect1_innerShadow_1153_481"/>
<feGaussianBlur stdDeviation="20" result="effect2_foregroundBlur_1153_481"/>
</filter>
<filter id="filter1_d_1153_481" x="289.26" y="241.012" width="183.644" height="130.576" filterUnits="userSpaceOnUse" color-interpolation-filters="sRGB">
<feFlood flood-opacity="0" result="BackgroundImageFix"/>
<feColorMatrix in="SourceAlpha" type="matrix" values="0 0 0 0 0 0 0 0 0 0 0 0 0 0 0 0 0 0 127 0" result="hardAlpha"/>
<feOffset/>
<feGaussianBlur stdDeviation="25"/>
<feComposite in2="hardAlpha" operator="out"/>
<feColorMatrix type="matrix" values="0 0 0 0 0 0 0 0 0 0.628056 0 0 0 0 0.897222 0 0 0 1 0"/>
<feBlend mode="normal" in2="BackgroundImageFix" result="effect1_dropShadow_1153_481"/>
<feBlend mode="normal" in="SourceGraphic" in2="effect1_dropShadow_1153_481" result="shape"/>
</filter>
<filter id="filter2_d_1153_481" x="479.176" y="356.012" width="177.452" height="130.324" filterUnits="userSpaceOnUse" color-interpolation-filters="sRGB">
<feFlood flood-opacity="0" result="BackgroundImageFix"/>
<feColorMatrix in="SourceAlpha" type="matrix" values="0 0 0 0 0 0 0 0 0 0 0 0 0 0 0 0 0 0 127 0" result="hardAlpha"/>
<feOffset/>
<feGaussianBlur stdDeviation="25"/>
<feComposite in2="hardAlpha" operator="out"/>
<feColorMatrix type="matrix" values="0 0 0 0 0 0 0 0 0 0.628056 0 0 0 0 0.897222 0 0 0 1 0"/>
<feBlend mode="normal" in2="BackgroundImageFix" result="effect1_dropShadow_1153_481"/>
<feBlend mode="normal" in="SourceGraphic" in2="effect1_dropShadow_1153_481" result="shape"/>
</filter>
<filter id="filter3_if_1153_481" x="44.9282" y="235.979" width="306.072" height="134.036" filterUnits="userSpaceOnUse" color-interpolation-filters="sRGB">
<feFlood flood-opacity="0" result="BackgroundImageFix"/>
<feBlend mode="normal" in="SourceGraphic" in2="BackgroundImageFix" result="shape"/>
<feColorMatrix in="SourceAlpha" type="matrix" values="0 0 0 0 0 0 0 0 0 0 0 0 0 0 0 0 0 0 127 0" result="hardAlpha"/>
<feOffset/>
<feGaussianBlur stdDeviation="12"/>
<feComposite in2="hardAlpha" operator="arithmetic" k2="-1" k3="1"/>
<feColorMatrix type="matrix" values="0 0 0 0 0.154854 0 0 0 0 0.777263 0 0 0 0 0.913889 0 0 0 1 0"/>
<feBlend mode="normal" in2="shape" result="effect1_innerShadow_1153_481"/>
<feGaussianBlur stdDeviation="19.5" result="effect2_foregroundBlur_1153_481"/>
</filter>
<filter id="filter4_if_1153_481" x="109.192" y="235.979" width="240.548" height="137.3" filterUnits="userSpaceOnUse" color-interpolation-filters="sRGB">
<feFlood flood-opacity="0" result="BackgroundImageFix"/>
<feBlend mode="normal" in="SourceGraphic" in2="BackgroundImageFix" result="shape"/>
<feColorMatrix in="SourceAlpha" type="matrix" values="0 0 0 0 0 0 0 0 0 0 0 0 0 0 0 0 0 0 127 0" result="hardAlpha"/>
<feOffset/>
<feGaussianBlur stdDeviation="15"/>
<feComposite in2="hardAlpha" operator="arithmetic" k2="-1" k3="1"/>
<feColorMatrix type="matrix" values="0 0 0 0 0.105241 0 0 0 0 0.851389 0 0 0 0 0.269394 0 0 0 1 0"/>
<feBlend mode="normal" in2="shape" result="effect1_innerShadow_1153_481"/>
<feGaussianBlur stdDeviation="19.5" result="effect2_foregroundBlur_1153_481"/>
</filter>
<filter id="filter5_if_1153_481" x="254.874" y="268.788" width="62.3381" height="68.9629" filterUnits="userSpaceOnUse" color-interpolation-filters="sRGB">
<feFlood flood-opacity="0" result="BackgroundImageFix"/>
<feBlend mode="normal" in="SourceGraphic" in2="BackgroundImageFix" result="shape"/>
<feColorMatrix in="SourceAlpha" type="matrix" values="0 0 0 0 0 0 0 0 0 0 0 0 0 0 0 0 0 0 127 0" result="hardAlpha"/>
<feOffset/>
<feGaussianBlur stdDeviation="15"/>
<feComposite in2="hardAlpha" operator="arithmetic" k2="-1" k3="1"/>
<feColorMatrix type="matrix" values="0 0 0 0 0.419445 0 0 0 0 1 0 0 0 0 0.791 0 0 0 0.55 0"/>
<feBlend mode="normal" in2="shape" result="effect1_innerShadow_1153_481"/>
<feGaussianBlur stdDeviation="5" result="effect2_foregroundBlur_1153_481"/>
</filter>
<filter id="filter6_if_1153_481" x="44.9282" y="348.648" width="487.072" height="134.036" filterUnits="userSpaceOnUse" color-interpolation-filters="sRGB">
<feFlood flood-opacity="0" result="BackgroundImageFix"/>
<feBlend mode="normal" in="SourceGraphic" in2="BackgroundImageFix" result="shape"/>
<feColorMatrix in="SourceAlpha" type="matrix" values="0 0 0 0 0 0 0 0 0 0 0 0 0 0 0 0 0 0 127 0" result="hardAlpha"/>
<feOffset/>
<feGaussianBlur stdDeviation="12"/>
<feComposite in2="hardAlpha" operator="arithmetic" k2="-1" k3="1"/>
<feColorMatrix type="matrix" values="0 0 0 0 0.154854 0 0 0 0 0.777263 0 0 0 0 0.913889 0 0 0 1 0"/>
<feBlend mode="normal" in2="shape" result="effect1_innerShadow_1153_481"/>
<feGaussianBlur stdDeviation="19.5" result="effect2_foregroundBlur_1153_481"/>
</filter>
<filter id="filter7_if_1153_481" x="160.192" y="348.648" width="369.548" height="137.3" filterUnits="userSpaceOnUse" color-interpolation-filters="sRGB">
<feFlood flood-opacity="0" result="BackgroundImageFix"/>
<feBlend mode="normal" in="SourceGraphic" in2="BackgroundImageFix" result="shape"/>
<feColorMatrix in="SourceAlpha" type="matrix" values="0 0 0 0 0 0 0 0 0 0 0 0 0 0 0 0 0 0 127 0" result="hardAlpha"/>
<feOffset/>
<feGaussianBlur stdDeviation="15"/>
<feComposite in2="hardAlpha" operator="arithmetic" k2="-1" k3="1"/>
<feColorMatrix type="matrix" values="0 0 0 0 0.105241 0 0 0 0 0.851389 0 0 0 0 0.269394 0 0 0 1 0"/>
<feBlend mode="normal" in2="shape" result="effect1_innerShadow_1153_481"/>
<feGaussianBlur stdDeviation="19.5" result="effect2_foregroundBlur_1153_481"/>
</filter>
<filter id="filter8_if_1153_481" x="398.474" y="381.457" width="95.9382" height="68.9629" filterUnits="userSpaceOnUse" color-interpolation-filters="sRGB">
<feFlood flood-opacity="0" result="BackgroundImageFix"/>
<feBlend mode="normal" in="SourceGraphic" in2="BackgroundImageFix" result="shape"/>
<feColorMatrix in="SourceAlpha" type="matrix" values="0 0 0 0 0 0 0 0 0 0 0 0 0 0 0 0 0 0 127 0" result="hardAlpha"/>
<feOffset/>
<feGaussianBlur stdDeviation="15"/>
<feComposite in2="hardAlpha" operator="arithmetic" k2="-1" k3="1"/>
<feColorMatrix type="matrix" values="0 0 0 0 0.419445 0 0 0 0 1 0 0 0 0 0.791 0 0 0 0.55 0"/>
<feBlend mode="normal" in2="shape" result="effect1_innerShadow_1153_481"/>
<feGaussianBlur stdDeviation="5" result="effect2_foregroundBlur_1153_481"/>
</filter>
<filter id="filter9_d_1153_481" x="407.672" y="466.012" width="176.48" height="130.324" filterUnits="userSpaceOnUse" color-interpolation-filters="sRGB">
<feFlood flood-opacity="0" result="BackgroundImageFix"/>
<feColorMatrix in="SourceAlpha" type="matrix" values="0 0 0 0 0 0 0 0 0 0 0 0 0 0 0 0 0 0 127 0" result="hardAlpha"/>
<feOffset/>
<feGaussianBlur stdDeviation="25"/>
<feComposite in2="hardAlpha" operator="out"/>
<feColorMatrix type="matrix" values="0 0 0 0 0 0 0 0 0 0.628056 0 0 0 0 0.897222 0 0 0 1 0"/>
<feBlend mode="normal" in2="BackgroundImageFix" result="effect1_dropShadow_1153_481"/>
<feBlend mode="normal" in="SourceGraphic" in2="effect1_dropShadow_1153_481" result="shape"/>
</filter>
<filter id="filter10_if_1153_481" x="44.9282" y="461.129" width="424.072" height="134.035" filterUnits="userSpaceOnUse" color-interpolation-filters="sRGB">
<feFlood flood-opacity="0" result="BackgroundImageFix"/>
<feBlend mode="normal" in="SourceGraphic" in2="BackgroundImageFix" result="shape"/>
<feColorMatrix in="SourceAlpha" type="matrix" values="0 0 0 0 0 0 0 0 0 0 0 0 0 0 0 0 0 0 127 0" result="hardAlpha"/>
<feOffset/>
<feGaussianBlur stdDeviation="12"/>
<feComposite in2="hardAlpha" operator="arithmetic" k2="-1" k3="1"/>
<feColorMatrix type="matrix" values="0 0 0 0 0.154854 0 0 0 0 0.777263 0 0 0 0 0.913889 0 0 0 1 0"/>
<feBlend mode="normal" in2="shape" result="effect1_innerShadow_1153_481"/>
<feGaussianBlur stdDeviation="19.5" result="effect2_foregroundBlur_1153_481"/>
</filter>
<filter id="filter11_if_1153_481" x="142.44" y="461.129" width="324.648" height="137.3" filterUnits="userSpaceOnUse" color-interpolation-filters="sRGB">
<feFlood flood-opacity="0" result="BackgroundImageFix"/>
<feBlend mode="normal" in="SourceGraphic" in2="BackgroundImageFix" result="shape"/>
<feColorMatrix in="SourceAlpha" type="matrix" values="0 0 0 0 0 0 0 0 0 0 0 0 0 0 0 0 0 0 127 0" result="hardAlpha"/>
<feOffset/>
<feGaussianBlur stdDeviation="15"/>
<feComposite in2="hardAlpha" operator="arithmetic" k2="-1" k3="1"/>
<feColorMatrix type="matrix" values="0 0 0 0 0.105241 0 0 0 0 0.851389 0 0 0 0 0.269394 0 0 0 1 0"/>
<feBlend mode="normal" in2="shape" result="effect1_innerShadow_1153_481"/>
<feGaussianBlur stdDeviation="19.5" result="effect2_foregroundBlur_1153_481"/>
</filter>
<filter id="filter12_if_1153_481" x="348.491" y="493.938" width="84.2432" height="68.9629" filterUnits="userSpaceOnUse" color-interpolation-filters="sRGB">
<feFlood flood-opacity="0" result="BackgroundImageFix"/>
<feBlend mode="normal" in="SourceGraphic" in2="BackgroundImageFix" result="shape"/>
<feColorMatrix in="SourceAlpha" type="matrix" values="0 0 0 0 0 0 0 0 0 0 0 0 0 0 0 0 0 0 127 0" result="hardAlpha"/>
<feOffset/>
<feGaussianBlur stdDeviation="15"/>
<feComposite in2="hardAlpha" operator="arithmetic" k2="-1" k3="1"/>
<feColorMatrix type="matrix" values="0 0 0 0 0.419445 0 0 0 0 1 0 0 0 0 0.791 0 0 0 0.55 0"/>
<feBlend mode="normal" in2="shape" result="effect1_innerShadow_1153_481"/>
<feGaussianBlur stdDeviation="5" result="effect2_foregroundBlur_1153_481"/>
</filter>
</defs>
</svg>
