<svg width="729" height="720" viewBox="0 0 729 720" fill="none" xmlns="http://www.w3.org/2000/svg">
<rect width="720" height="720" fill="#01396C"/>
<rect x="81" y="216.775" width="2.11182" height="433.714" fill="#878787" fill-opacity="0.1"/>
<rect x="199.262" y="216.775" width="2.11182" height="433.714" fill="#878787" fill-opacity="0.1"/>
<rect x="317.523" y="216.775" width="2.11182" height="433.714" fill="#878787" fill-opacity="0.1"/>
<rect x="435.785" y="216.775" width="2.11182" height="433.714" fill="#878787" fill-opacity="0.1"/>
<rect x="554.047" y="216.775" width="2.11182" height="433.714" fill="#878787" fill-opacity="0.1"/>
<rect x="120.421" y="216.775" width="2.11182" height="433.714" fill="#878787" fill-opacity="0.1"/>
<rect x="238.682" y="216.775" width="2.11182" height="433.714" fill="#878787" fill-opacity="0.1"/>
<rect x="356.944" y="216.775" width="2.11182" height="433.714" fill="#878787" fill-opacity="0.1"/>
<rect x="475.206" y="216.775" width="2.11182" height="433.714" fill="#878787" fill-opacity="0.1"/>
<rect x="593.468" y="216.775" width="2.11182" height="433.714" fill="#878787" fill-opacity="0.1"/>
<rect x="159.841" y="216.775" width="2.11182" height="433.714" fill="#878787" fill-opacity="0.1"/>
<rect x="278.103" y="216.775" width="2.11182" height="433.714" fill="#878787" fill-opacity="0.1"/>
<rect x="396.365" y="216.775" width="2.11182" height="433.714" fill="#878787" fill-opacity="0.1"/>
<rect x="514.626" y="216.775" width="2.11182" height="433.714" fill="#878787" fill-opacity="0.1"/>
<rect x="632.888" y="216.775" width="2.11182" height="433.714" fill="#878787" fill-opacity="0.1"/>
<g filter="url(#filter0_if_1153_482)">
<rect x="85" y="252" width="7" height="406" fill="#D9D9D9"/>
</g>
<rect x="81" y="238" width="4" height="382" fill="white" fill-opacity="0.8"/>
<g filter="url(#filter1_d_1153_482)">
<path d="M323.792 302.772C326.116 303.136 327.978 304.102 329.378 305.67C330.806 307.21 331.52 309.198 331.52 311.634C331.52 314.434 330.498 316.8 328.454 318.732C326.438 320.636 323.904 321.588 320.852 321.588C317.52 321.588 314.874 320.72 312.914 318.984C310.954 317.248 309.75 315.148 309.302 312.684L314.468 311.214C314.72 312.698 315.406 313.958 316.526 314.994C317.646 316.03 318.99 316.548 320.558 316.548C322.21 316.548 323.512 316.072 324.464 315.12C325.444 314.14 325.934 312.978 325.934 311.634C325.934 310.262 325.486 309.128 324.59 308.232C323.694 307.308 322.462 306.846 320.894 306.846C319.718 306.846 318.71 307.084 317.87 307.56L316.904 304.158L322.868 296.766H310.226V291.6H330.428V295.464L323.792 302.772ZM338.148 321.336C337.168 321.336 336.342 321 335.67 320.328C335.026 319.656 334.704 318.844 334.704 317.892C334.704 316.996 335.04 316.226 335.712 315.582C336.384 314.938 337.196 314.616 338.148 314.616C339.1 314.616 339.898 314.938 340.542 315.582C341.214 316.226 341.55 316.996 341.55 317.892C341.55 318.844 341.214 319.656 340.542 320.328C339.898 321 339.1 321.336 338.148 321.336ZM356.173 300.966C359.225 301.134 361.703 302.17 363.607 304.074C365.539 305.978 366.505 308.344 366.505 311.172C366.505 314.14 365.441 316.618 363.313 318.606C361.213 320.594 358.553 321.588 355.333 321.588C352.141 321.588 349.481 320.594 347.353 318.606C345.253 316.618 344.203 314.14 344.203 311.172C344.203 309.212 344.917 307.084 346.345 304.788L354.871 291.6H361.381L355.291 301.008C355.487 300.98 355.781 300.966 356.173 300.966ZM351.385 314.952C352.393 315.932 353.709 316.422 355.333 316.422C356.957 316.422 358.273 315.932 359.281 314.952C360.289 313.944 360.793 312.684 360.793 311.172C360.793 309.688 360.289 308.456 359.281 307.476C358.273 306.468 356.957 305.964 355.333 305.964C353.737 305.964 352.435 306.468 351.427 307.476C350.419 308.456 349.915 309.688 349.915 311.172C349.915 312.684 350.405 313.944 351.385 314.952ZM390.033 321H383.691L378.693 314.238L373.695 321H367.395L375.333 310.248L367.731 299.748H374.031L378.693 306.174L383.397 299.748H389.655L382.095 310.248L390.033 321Z" fill="white"/>
</g>
<g filter="url(#filter2_d_1153_482)">
<path d="M584.66 406.6H589.574V436H583.736V413.026L577.142 416.092L575.756 411.178L584.66 406.6ZM615.437 432.346C613.309 435.174 610.341 436.588 606.533 436.588C602.725 436.588 599.743 435.174 597.587 432.346C595.431 429.49 594.353 425.808 594.353 421.3C594.353 416.764 595.431 413.082 597.587 410.254C599.743 407.426 602.725 406.012 606.533 406.012C610.341 406.012 613.309 407.426 615.437 410.254C617.593 413.082 618.671 416.764 618.671 421.3C618.671 425.808 617.593 429.49 615.437 432.346ZM601.745 428.65C602.837 430.442 604.433 431.338 606.533 431.338C608.633 431.338 610.215 430.442 611.279 428.65C612.371 426.858 612.917 424.408 612.917 421.3C612.917 418.192 612.371 415.742 611.279 413.95C610.215 412.158 608.633 411.262 606.533 411.262C604.433 411.262 602.837 412.158 601.745 413.95C600.653 415.742 600.107 418.192 600.107 421.3C600.107 424.408 600.653 426.858 601.745 428.65ZM624.508 436.336C623.528 436.336 622.702 436 622.03 435.328C621.386 434.656 621.064 433.844 621.064 432.892C621.064 431.996 621.4 431.226 622.072 430.582C622.744 429.938 623.556 429.616 624.508 429.616C625.46 429.616 626.258 429.938 626.902 430.582C627.574 431.226 627.91 431.996 627.91 432.892C627.91 433.844 627.574 434.656 626.902 435.328C626.258 436 625.46 436.336 624.508 436.336ZM640.949 430.792H653.423V436H632.171V432.052L643.637 421.258C644.869 420.11 645.779 419.116 646.367 418.276C646.955 417.436 647.249 416.526 647.249 415.546C647.249 414.202 646.843 413.138 646.031 412.354C645.219 411.57 644.085 411.178 642.629 411.178C641.285 411.178 640.123 411.626 639.143 412.522C638.191 413.39 637.561 414.552 637.253 416.008L632.087 414.538C632.395 412.214 633.501 410.212 635.405 408.532C637.337 406.852 639.703 406.012 642.503 406.012C645.639 406.012 648.159 406.824 650.063 408.448C651.995 410.072 652.961 412.34 652.961 415.252C652.961 416.988 652.527 418.57 651.659 419.998C650.791 421.398 649.433 422.952 647.585 424.66L640.949 430.792ZM678.033 436H671.691L666.693 429.238L661.695 436H655.395L663.333 425.248L655.731 414.748H662.031L666.693 421.174L671.397 414.748H677.655L670.095 425.248L678.033 436Z" fill="white"/>
</g>
<rect x="84.1405" y="274.979" width="188.676" height="59.2997" fill="#D9D9D9"/>
<g filter="url(#filter3_if_1153_482)">
<path d="M267.826 326.412V283.562L125.913 289.367L83.9282 279.271L276 274.979L274.24 331.015L128.337 326.412H267.826Z" fill="#7D4E4E" fill-opacity="0.02"/>
</g>
<g filter="url(#filter4_if_1153_482)">
<path d="M274.825 280.652L199.456 276.316L274.939 274.979L274.825 280.652L273.85 329.092L273.745 334.279L138.048 329.092H273.85L274.825 280.652Z" fill="#607D4E" fill-opacity="0.02"/>
</g>
<g filter="url(#filter5_if_1153_482)">
<path d="M271.968 278.788H236.312L268.203 285.603L271.968 327.751V278.788Z" fill="#446EDA" fill-opacity="0.1"/>
</g>
<rect x="84.4465" y="387.648" width="460.779" height="59.2997" fill="#D9D9D9"/>
<g filter="url(#filter6_if_1153_482)">
<path d="M533.037 439.081V396.23L186.462 402.036L83.9282 391.939L553 387.648L548.703 443.684L192.383 439.081H533.037Z" fill="#7D4E4E" fill-opacity="0.02"/>
</g>
<g filter="url(#filter7_if_1153_482)">
<path d="M550.13 393.321L366.066 388.985L550.409 387.648L550.13 393.321L547.749 441.761L547.494 446.948L216.098 441.761H547.749L550.13 393.321Z" fill="#607D4E" fill-opacity="0.02"/>
</g>
<g filter="url(#filter8_if_1153_482)">
<path d="M543.152 391.457H456.076L533.958 398.271L543.152 440.42V391.457Z" fill="#446EDA" fill-opacity="0.1"/>
</g>
<g filter="url(#filter9_d_1153_482)">
<path d="M423.566 526.848C426.394 526.848 428.732 527.772 430.58 529.62C432.428 531.468 433.352 533.778 433.352 536.55C433.352 539.378 432.344 541.758 430.328 543.69C428.312 545.622 425.778 546.588 422.726 546.588C419.646 546.588 417.154 545.818 415.25 544.278C413.346 542.71 412.072 540.778 411.428 538.482L416.594 537.054C417.042 538.37 417.77 539.448 418.778 540.288C419.814 541.128 421.018 541.548 422.39 541.548C424.042 541.548 425.358 541.072 426.338 540.12C427.318 539.14 427.808 537.922 427.808 536.466C427.808 535.01 427.318 533.806 426.338 532.854C425.386 531.902 424.056 531.426 422.348 531.426C420.36 531.426 418.624 531.986 417.14 533.106L412.604 531.72L413.864 516.6H431.966V521.766H418.988L418.526 527.856C420.01 527.184 421.69 526.848 423.566 526.848ZM439.861 546.336C438.881 546.336 438.055 546 437.383 545.328C436.739 544.656 436.417 543.844 436.417 542.892C436.417 541.996 436.753 541.226 437.425 540.582C438.097 539.938 438.909 539.616 439.861 539.616C440.813 539.616 441.611 539.938 442.255 540.582C442.927 541.226 443.263 541.996 443.263 542.892C443.263 543.844 442.927 544.656 442.255 545.328C441.611 546 440.813 546.336 439.861 546.336ZM457.886 525.966C460.938 526.134 463.416 527.17 465.32 529.074C467.252 530.978 468.218 533.344 468.218 536.172C468.218 539.14 467.154 541.618 465.026 543.606C462.926 545.594 460.266 546.588 457.046 546.588C453.854 546.588 451.194 545.594 449.066 543.606C446.966 541.618 445.916 539.14 445.916 536.172C445.916 534.212 446.63 532.084 448.058 529.788L456.584 516.6H463.094L457.004 526.008C457.2 525.98 457.494 525.966 457.886 525.966ZM453.098 539.952C454.106 540.932 455.422 541.422 457.046 541.422C458.67 541.422 459.986 540.932 460.994 539.952C462.002 538.944 462.506 537.684 462.506 536.172C462.506 534.688 462.002 533.456 460.994 532.476C459.986 531.468 458.67 530.964 457.046 530.964C455.45 530.964 454.148 531.468 453.14 532.476C452.132 533.456 451.628 534.688 451.628 536.172C451.628 537.684 452.118 538.944 453.098 539.952ZM491.745 546H485.403L480.405 539.238L475.407 546H469.107L477.045 535.248L469.443 524.748H475.743L480.405 531.174L485.109 524.748H491.367L483.807 535.248L491.745 546Z" fill="white"/>
</g>
<rect x="84.2442" y="500.129" width="281.014" height="59.2997" fill="#D9D9D9"/>
<g filter="url(#filter10_if_1153_482)">
<path d="M357.825 551.562V508.711L146.46 514.516L83.9282 504.42L370 500.129L367.379 556.164L150.071 551.562H357.825Z" fill="#7D4E4E" fill-opacity="0.02"/>
</g>
<g filter="url(#filter11_if_1153_482)">
<path d="M368.249 505.801L255.995 501.466L368.42 500.129L368.249 505.801L366.797 554.241L366.642 559.429L164.534 554.241H366.797L368.249 505.801Z" fill="#607D4E" fill-opacity="0.02"/>
</g>
<g filter="url(#filter12_if_1153_482)">
<path d="M363.994 503.938H310.889L358.387 510.752L363.994 552.901V503.938Z" fill="#446EDA" fill-opacity="0.1"/>
</g>
<path d="M89.2461 101.321C85.3741 101.321 82.0678 100.345 79.3272 98.3928C76.5863 96.4089 74.6888 93.9931 73.6348 91.1452L79.9025 89.2253C80.6261 91.0812 81.8261 92.6011 83.5026 93.7851C85.2108 94.937 87.2329 95.513 89.5689 95.513C91.4569 95.513 92.9885 95.097 94.1637 94.2651C95.3389 93.4331 95.9204 92.4412 95.9083 91.2892C95.8988 90.3933 95.5547 89.6253 94.876 88.9853C94.1972 88.3454 93.0551 87.7694 91.4497 87.2574L82.8294 84.5696C80.4856 83.8336 78.6181 82.7457 77.2269 81.3058C75.8357 79.8659 75.1452 78.106 75.1552 76.0261C75.0952 73.3702 76.2072 71.0983 78.4913 69.2104C80.7754 67.3225 83.6454 66.3786 87.1014 66.3786C90.5894 66.3786 93.6382 67.2106 96.2477 68.8745C98.857 70.5064 100.655 72.5543 101.641 75.0181L95.5633 76.794C94.8448 75.4181 93.7291 74.3142 92.2164 73.4822C90.7352 72.6183 89.0667 72.1863 87.2107 72.1863C85.6107 72.1863 84.3024 72.5383 83.2858 73.2422C82.3013 73.9462 81.8144 74.8101 81.8252 75.8341C81.8407 77.306 82.9239 78.3619 85.0746 79.0019L93.455 81.6898C96.4084 82.5857 98.6604 83.7216 100.211 85.0976C101.761 86.4415 102.55 88.3774 102.576 90.9052C102.607 93.8491 101.385 96.3289 98.9107 98.3448C96.4357 100.329 93.2141 101.321 89.2461 101.321ZM120.727 94.745L122.317 99.8807C120.405 100.649 118.521 101.033 116.665 101.033C113.977 101.033 111.937 100.265 110.545 98.7288C109.185 97.1929 108.49 95.065 108.462 92.3452L108.352 81.9297H104.272L104.213 76.362H108.293L108.21 68.4905H114.594L114.677 76.362H121.781L121.84 81.9297H114.736L114.846 92.3452C114.867 94.393 115.87 95.417 117.854 95.417C118.878 95.417 119.836 95.193 120.727 94.745ZM136.046 101.321C132.654 101.321 129.793 100.105 127.463 97.6729C125.133 95.209 123.949 92.1532 123.911 88.5054C123.872 84.8256 124.991 81.7697 127.27 79.3379C129.548 76.906 132.383 75.6901 135.775 75.6901C139.103 75.6901 141.724 76.89 143.637 79.2899L143.606 76.362H149.99L150.247 100.649H143.863L143.831 97.6729C141.969 100.105 139.374 101.321 136.046 101.321ZM137.09 95.657C139.042 95.657 140.667 94.985 141.965 93.6411C143.294 92.2652 143.948 90.5373 143.926 88.4574C143.904 86.4095 143.215 84.7136 141.856 83.3697C140.53 82.0257 138.891 81.3538 136.939 81.3538C134.955 81.3538 133.33 82.0257 132.064 83.3697C130.798 84.6816 130.176 86.3775 130.198 88.4574C130.22 90.5693 130.879 92.2972 132.173 93.6411C133.467 94.985 135.106 95.657 137.09 95.657ZM170.409 75.6901C173.801 75.6901 176.646 76.906 178.943 79.3379C181.273 81.7697 182.457 84.8256 182.496 88.5054C182.535 92.1532 181.415 95.209 179.137 97.6729C176.858 100.105 174.039 101.321 170.679 101.321C167.383 101.321 164.746 100.105 162.769 97.6729L162.8 100.649H156.464L156.094 65.6106H162.43L162.575 79.2899C164.469 76.89 167.081 75.6901 170.409 75.6901ZM169.515 95.657C171.499 95.657 173.124 94.985 174.39 93.6411C175.656 92.2972 176.278 90.5693 176.256 88.4574C176.234 86.3775 175.576 84.6816 174.282 83.3697C172.988 82.0257 171.349 81.3538 169.365 81.3538C167.413 81.3538 165.772 82.0257 164.442 83.3697C163.144 84.7136 162.506 86.4095 162.528 88.4574C162.549 90.5373 163.224 92.2652 164.55 93.6411C165.908 94.985 167.563 95.657 169.515 95.657ZM187.402 100.649L187.032 65.6106H193.368L193.738 100.649H187.402ZM211.683 101.321C207.779 101.321 204.583 100.153 202.094 97.8169C199.637 95.449 198.389 92.3452 198.348 88.5054C198.309 84.8256 199.445 81.7697 201.755 79.3379C204.098 76.906 207.157 75.6901 210.933 75.6901C214.805 75.6901 217.873 76.874 220.138 79.2419C222.403 81.6098 223.555 84.5856 223.592 88.1694C223.603 89.1613 223.563 89.9133 223.472 90.4253H204.608C204.85 92.0892 205.568 93.4331 206.763 94.457C207.957 95.449 209.611 95.945 211.723 95.945C214.539 95.945 216.495 94.873 217.593 92.7291L223.322 94.409C222.542 96.2329 221.135 97.8489 219.101 99.2568C217.1 100.633 214.627 101.321 211.683 101.321ZM204.566 86.4415H217.382C217.206 84.9056 216.537 83.6256 215.374 82.6017C214.243 81.5778 212.766 81.0658 210.942 81.0658C209.182 81.0658 207.715 81.5938 206.542 82.6497C205.401 83.7056 204.743 84.9696 204.566 86.4415ZM228.143 88.5534L228.088 83.3217H245.608L245.663 88.5534H228.143ZM266.045 67.0506C270.909 67.0506 274.814 68.6025 277.758 71.7063C280.735 74.8101 282.25 78.8579 282.303 83.8496C282.355 88.7774 280.925 92.8091 278.014 95.945C275.135 99.0808 271.264 100.649 266.4 100.649H251.808L251.453 67.0506H266.045ZM266.193 94.697C269.073 94.697 271.382 93.6891 273.121 91.6732C274.86 89.6253 275.712 86.9695 275.677 83.7056C275.643 80.5058 274.736 77.914 272.955 75.9301C271.174 73.9462 268.844 72.9542 265.964 72.9542H258.044L258.273 94.697H266.193ZM292.94 71.8983C292.211 72.6023 291.319 72.9542 290.263 72.9542C289.207 72.9542 288.307 72.6023 287.564 71.8983C286.82 71.1623 286.443 70.2664 286.431 69.2104C286.421 68.1865 286.779 67.3225 287.508 66.6186C288.237 65.9146 289.129 65.5626 290.185 65.5626C291.241 65.5626 292.141 65.9146 292.884 66.6186C293.627 67.3225 294.005 68.1865 294.015 69.2104C294.027 70.2664 293.668 71.1623 292.94 71.8983ZM287.291 100.649L287.035 76.362H293.419L293.675 100.649H287.291ZM324.34 74.1542L324.363 76.362H331.707L331.766 81.9297H324.422L324.619 100.649H318.235L318.038 81.9297H308.582L308.779 100.649H302.443L302.246 81.9297H297.59L297.531 76.362H302.187L302.164 74.1542C302.133 71.2743 302.83 69.0185 304.252 67.3865C305.707 65.7546 307.827 64.9387 310.611 64.9387C312.755 64.9387 314.582 65.2907 316.094 65.9946L314.611 71.0823C313.647 70.6664 312.637 70.4584 311.581 70.4584C310.589 70.4584 309.824 70.7944 309.287 71.4663C308.75 72.1063 308.488 73.0022 308.5 74.1542L308.523 76.362H317.979L317.956 74.1542C317.925 71.2743 318.638 69.0185 320.092 67.3865C321.547 65.7546 323.667 64.9387 326.451 64.9387C328.563 64.9387 330.374 65.2907 331.886 65.9946L330.451 71.0823C329.487 70.6664 328.477 70.4584 327.421 70.4584C326.429 70.4584 325.664 70.7944 325.127 71.4663C324.59 72.1063 324.328 73.0022 324.34 74.1542ZM352.313 76.362H358.649L358.905 100.649H352.569L352.537 97.5769C350.675 100.073 348.096 101.321 344.8 101.321C341.664 101.321 339.27 100.361 337.618 98.4408C335.965 96.5209 335.122 93.8811 335.086 90.5213L334.937 76.362H341.273L341.409 89.3213C341.429 91.2092 341.877 92.6971 342.752 93.7851C343.66 94.873 344.962 95.417 346.658 95.417C348.45 95.417 349.867 94.777 350.909 93.4971C351.952 92.2172 352.462 90.4893 352.439 88.3134L352.313 76.362ZM374.711 101.321C371.831 101.321 369.295 100.585 367.103 99.1128C364.912 97.6409 363.485 95.881 362.824 93.8331L368.518 92.1532C368.947 93.3371 369.725 94.3131 370.853 95.081C371.981 95.817 373.329 96.1849 374.897 96.1849C376.081 96.1849 377.038 95.945 377.769 95.465C378.532 94.985 378.91 94.393 378.902 93.6891C378.891 92.6331 377.987 91.8332 376.189 91.2892L369.978 89.4653C365.965 88.3134 363.943 86.1535 363.909 82.9857C363.888 80.9698 364.814 79.2579 366.687 77.85C368.592 76.41 370.888 75.6901 373.576 75.6901C376.136 75.6901 378.382 76.2501 380.314 77.37C382.246 78.4899 383.606 79.9778 384.393 81.8337L378.794 83.4657C377.718 81.5778 375.98 80.6338 373.58 80.6338C372.62 80.6338 371.807 80.8578 371.14 81.3058C370.472 81.7537 370.142 82.2657 370.148 82.8417C370.157 83.7376 370.836 84.3776 372.184 84.7616L378.25 86.4895C380.433 87.1294 382.122 87.9454 383.316 88.9373C384.511 89.9293 385.118 91.4172 385.139 93.4011C385.164 95.705 384.192 97.6089 382.223 99.1128C380.287 100.585 377.783 101.321 374.711 101.321ZM395.643 71.8983C394.914 72.6023 394.022 72.9542 392.966 72.9542C391.91 72.9542 391.01 72.6023 390.267 71.8983C389.523 71.1623 389.146 70.2664 389.135 69.2104C389.124 68.1865 389.483 67.3225 390.211 66.6186C390.94 65.9146 391.832 65.5626 392.888 65.5626C393.944 65.5626 394.844 65.9146 395.587 66.6186C396.331 67.3225 396.708 68.1865 396.719 69.2104C396.73 70.2664 396.371 71.1623 395.643 71.8983ZM389.994 100.649L389.738 76.362H396.122L396.378 100.649H389.994ZM414.226 101.321C410.482 101.321 407.365 100.105 404.875 97.6729C402.385 95.209 401.121 92.1532 401.082 88.5054C401.044 84.8576 402.244 81.8177 404.682 79.3859C407.12 76.922 410.211 75.6901 413.955 75.6901C417.699 75.6901 420.8 76.922 423.258 79.3859C425.748 81.8177 427.012 84.8576 427.05 88.5054C427.089 92.1532 425.889 95.209 423.451 97.6729C421.013 100.105 417.938 101.321 414.226 101.321ZM409.2 93.5931C410.494 94.905 412.149 95.561 414.165 95.561C416.181 95.561 417.806 94.905 419.04 93.5931C420.306 92.2492 420.928 90.5533 420.906 88.5054C420.885 86.4575 420.227 84.7776 418.933 83.4657C417.671 82.1217 416.032 81.4498 414.016 81.4498C412 81.4498 410.359 82.1217 409.093 83.4657C407.859 84.7776 407.253 86.4575 407.274 88.5054C407.296 90.5533 407.938 92.2492 409.2 93.5931ZM445.892 75.6901C448.996 75.6901 451.374 76.65 453.026 78.5699C454.679 80.4898 455.522 83.1137 455.557 86.4415L455.707 100.649H449.371L449.234 87.6414C449.214 85.7535 448.751 84.2816 447.844 83.2257C446.968 82.1377 445.682 81.5938 443.986 81.5938C442.226 81.5938 440.809 82.2337 439.735 83.5136C438.692 84.7936 438.182 86.5055 438.205 88.6494L438.331 100.649H431.995L431.739 76.362H438.075L438.108 79.4339C440.033 76.938 442.628 75.6901 445.892 75.6901ZM83.5649 156.542H78.9209C76.1128 151.982 74.6771 146.702 74.6138 140.702C74.5502 134.679 75.8745 129.399 78.5866 124.863H83.2306C80.519 129.447 79.1947 134.727 79.2578 140.702C79.3203 146.63 80.756 151.91 83.5649 156.542ZM86.4138 151.646L86.1478 126.447H91.1518L91.4178 151.646H86.4138ZM117.664 132.927C119.872 132.927 121.632 133.623 122.942 135.015C124.253 136.383 124.921 138.315 124.947 140.81L125.062 151.646H120.31L120.206 141.818C120.175 138.843 118.995 137.355 116.667 137.355C115.419 137.355 114.464 137.799 113.801 138.687C113.162 139.551 112.851 140.774 112.868 142.358L112.966 151.646H108.178L108.074 141.818C108.043 138.843 106.887 137.355 104.607 137.355C103.335 137.355 102.368 137.811 101.705 138.723C101.043 139.611 100.72 140.87 100.737 142.502L100.834 151.646H96.0817L95.8895 133.431H100.642L100.664 135.591C102.014 133.815 103.804 132.927 106.036 132.927C108.508 132.927 110.342 133.839 111.537 135.663C112.958 133.839 115 132.927 117.664 132.927ZM137.44 152.15C134.896 152.15 132.75 151.238 131.003 149.414C129.255 147.566 128.367 145.274 128.338 142.538C128.309 139.779 129.149 137.487 130.858 135.663C132.567 133.839 134.693 132.927 137.237 132.927C139.733 132.927 141.698 133.827 143.133 135.627L143.11 133.431H147.898L148.09 151.646H143.302L143.279 149.414C141.882 151.238 139.936 152.15 137.44 152.15ZM138.223 147.902C139.687 147.902 140.906 147.398 141.879 146.39C142.876 145.358 143.366 144.062 143.35 142.502C143.334 140.966 142.816 139.695 141.798 138.687C140.803 137.679 139.574 137.175 138.11 137.175C136.622 137.175 135.403 137.679 134.454 138.687C133.504 139.671 133.038 140.942 133.054 142.502C133.071 144.086 133.564 145.382 134.535 146.39C135.506 147.398 136.735 147.902 138.223 147.902ZM166.205 133.431H170.957L171.143 150.998C171.17 153.566 170.328 155.654 168.617 157.262C166.906 158.893 164.647 159.709 161.839 159.709C157.735 159.709 154.79 158.114 153.004 154.922L157.129 153.446C158.129 155.006 159.721 155.786 161.905 155.786C163.345 155.786 164.445 155.342 165.203 154.454C165.986 153.566 166.382 152.414 166.391 150.998L166.368 148.802C164.97 150.554 163.059 151.43 160.635 151.43C158.043 151.43 155.886 150.542 154.163 148.766C152.44 146.99 151.565 144.794 151.538 142.178C151.509 139.467 152.326 137.247 153.987 135.519C155.673 133.791 157.824 132.927 160.44 132.927C162.864 132.927 164.793 133.803 166.228 135.555L166.205 133.431ZM161.418 147.146C162.882 147.146 164.077 146.69 165.004 145.778C165.954 144.842 166.421 143.642 166.406 142.178C166.39 140.714 165.898 139.527 164.928 138.615C163.982 137.679 162.777 137.211 161.313 137.211C159.801 137.211 158.57 137.679 157.62 138.615C156.694 139.527 156.238 140.714 156.254 142.178C156.269 143.642 156.75 144.842 157.696 145.778C158.665 146.69 159.906 147.146 161.418 147.146ZM184.605 152.15C181.677 152.15 179.28 151.274 177.414 149.522C175.571 147.746 174.634 145.418 174.604 142.538C174.575 139.779 175.427 137.487 177.159 135.663C178.916 133.839 181.211 132.927 184.043 132.927C186.947 132.927 189.248 133.815 190.947 135.591C192.645 137.367 193.509 139.599 193.537 142.286C193.545 143.03 193.515 143.594 193.447 143.978H179.299C179.48 145.226 180.019 146.234 180.915 147.002C181.811 147.746 183.051 148.118 184.635 148.118C186.747 148.118 188.214 147.314 189.037 145.706L193.335 146.966C192.749 148.334 191.694 149.546 190.169 150.602C188.668 151.634 186.813 152.15 184.605 152.15ZM179.268 140.99H188.88C188.748 139.839 188.245 138.879 187.373 138.111C186.525 137.343 185.417 136.959 184.049 136.959C182.729 136.959 181.629 137.355 180.75 138.147C179.894 138.939 179.4 139.887 179.268 140.99ZM231.066 137.643L231.092 140.163C231.13 143.714 229.984 146.606 227.656 148.838C225.327 151.046 222.267 152.15 218.475 152.15C214.611 152.15 211.394 150.902 208.823 148.406C206.253 145.886 204.948 142.754 204.908 139.011C204.869 135.315 206.097 132.219 208.59 129.723C211.108 127.203 214.238 125.943 217.982 125.943C220.958 125.943 223.51 126.675 225.638 128.139C227.789 129.579 229.296 131.415 230.16 133.647L225.601 134.943C224.155 132.039 221.643 130.587 218.067 130.587C215.667 130.587 213.696 131.403 212.153 133.035C210.634 134.667 209.887 136.647 209.912 138.975C209.937 141.374 210.739 143.402 212.316 145.058C213.918 146.714 216.074 147.542 218.786 147.542C220.826 147.542 222.489 147.014 223.774 145.958C225.058 144.878 225.8 143.522 225.999 141.89H218.259L218.214 137.643H231.066ZM243.633 152.15C240.705 152.15 238.308 151.274 236.441 149.522C234.598 147.746 233.662 145.418 233.631 142.538C233.602 139.779 234.454 137.487 236.187 135.663C237.944 133.839 240.238 132.927 243.07 132.927C245.974 132.927 248.275 133.815 249.974 135.591C251.673 137.367 252.536 139.599 252.565 142.286C252.573 143.03 252.542 143.594 252.475 143.978H238.327C238.508 145.226 239.046 146.234 239.942 147.002C240.838 147.746 242.078 148.118 243.662 148.118C245.774 148.118 247.242 147.314 248.065 145.706L252.362 146.966C251.777 148.334 250.721 149.546 249.196 150.602C247.695 151.634 245.841 152.15 243.633 152.15ZM238.295 140.99H247.907C247.775 139.839 247.273 138.879 246.401 138.111C245.553 137.343 244.444 136.959 243.076 136.959C241.756 136.959 240.657 137.355 239.777 138.147C238.921 138.939 238.427 139.887 238.295 140.99ZM266.676 132.927C269.004 132.927 270.788 133.647 272.027 135.087C273.266 136.527 273.899 138.495 273.925 140.99L274.038 151.646H269.286L269.183 141.89C269.168 140.474 268.82 139.371 268.14 138.579C267.483 137.763 266.519 137.355 265.247 137.355C263.927 137.355 262.864 137.835 262.058 138.795C261.276 139.755 260.894 141.038 260.911 142.646L261.006 151.646H256.254L256.061 133.431H260.813L260.838 135.735C262.282 133.863 264.228 132.927 266.676 132.927ZM287.332 152.15C284.404 152.15 282.007 151.274 280.14 149.522C278.298 147.746 277.361 145.418 277.331 142.538C277.301 139.779 278.153 137.487 279.886 135.663C281.643 133.839 283.937 132.927 286.769 132.927C289.673 132.927 291.975 133.815 293.673 135.591C295.372 137.367 296.236 139.599 296.264 142.286C296.272 143.03 296.242 143.594 296.174 143.978H282.026C282.207 145.226 282.746 146.234 283.642 147.002C284.538 147.746 285.777 148.118 287.361 148.118C289.473 148.118 290.941 147.314 291.764 145.706L296.061 146.966C295.476 148.334 294.421 149.546 292.896 150.602C291.395 151.634 289.54 152.15 287.332 152.15ZM281.994 140.99H291.606C291.474 139.839 290.972 138.879 290.1 138.111C289.252 137.343 288.144 136.959 286.776 136.959C285.456 136.959 284.356 137.355 283.476 138.147C282.621 138.939 282.127 139.887 281.994 140.99ZM304.541 136.131C305.716 133.779 307.71 132.795 310.522 133.179L310.569 137.643C308.574 137.331 307.077 137.667 306.08 138.651C305.082 139.635 304.596 141.326 304.621 143.726L304.705 151.646H299.953L299.761 133.431H304.513L304.541 136.131ZM320.674 152.15C318.13 152.15 315.985 151.238 314.237 149.414C312.49 147.566 311.602 145.274 311.573 142.538C311.544 139.779 312.383 137.487 314.092 135.663C315.801 133.839 317.927 132.927 320.471 132.927C322.967 132.927 324.933 133.827 326.368 135.627L326.345 133.431H331.133L331.325 151.646H326.537L326.513 149.414C325.117 151.238 323.17 152.15 320.674 152.15ZM321.457 147.902C322.921 147.902 324.14 147.398 325.113 146.39C326.111 145.358 326.601 144.062 326.584 142.502C326.568 140.966 326.051 139.695 325.032 138.687C324.037 137.679 322.808 137.175 321.344 137.175C319.856 137.175 318.637 137.679 317.688 138.687C316.738 139.671 316.272 140.942 316.288 142.502C316.305 144.086 316.799 145.382 317.769 146.39C318.74 147.398 319.969 147.902 321.457 147.902ZM346.345 147.218L347.538 151.07C346.104 151.646 344.691 151.934 343.299 151.934C341.283 151.934 339.753 151.358 338.709 150.206C337.689 149.054 337.168 147.458 337.146 145.418L337.064 137.607H334.004L333.96 133.431H337.02L336.957 127.527H341.745L341.808 133.431H347.136L347.18 137.607H341.852L341.934 145.418C341.95 146.954 342.703 147.722 344.191 147.722C344.959 147.722 345.677 147.554 346.345 147.218ZM355.024 130.083C354.478 130.611 353.809 130.875 353.017 130.875C352.225 130.875 351.55 130.611 350.992 130.083C350.435 129.531 350.151 128.859 350.143 128.067C350.135 127.299 350.404 126.651 350.951 126.123C351.497 125.595 352.166 125.331 352.958 125.331C353.75 125.331 354.425 125.595 354.983 126.123C355.54 126.651 355.823 127.299 355.831 128.067C355.839 128.859 355.571 129.531 355.024 130.083ZM350.788 151.646L350.596 133.431H355.384L355.576 151.646H350.788ZM368.961 152.15C366.153 152.15 363.816 151.238 361.949 149.414C360.081 147.566 359.133 145.274 359.104 142.538C359.075 139.803 359.975 137.523 361.804 135.699C363.632 133.851 365.951 132.927 368.759 132.927C371.567 132.927 373.892 133.851 375.736 135.699C377.603 137.523 378.551 139.803 378.58 142.538C378.609 145.274 377.709 147.566 375.881 149.414C374.052 151.238 371.745 152.15 368.961 152.15ZM365.192 146.354C366.163 147.338 367.404 147.83 368.916 147.83C370.428 147.83 371.647 147.338 372.572 146.354C373.522 145.346 373.988 144.074 373.972 142.538C373.956 141.002 373.462 139.743 372.492 138.759C371.545 137.751 370.316 137.247 368.804 137.247C367.292 137.247 366.061 137.751 365.112 138.759C364.186 139.743 363.732 141.002 363.748 142.538C363.764 144.074 364.246 145.346 365.192 146.354ZM392.711 132.927C395.039 132.927 396.823 133.647 398.062 135.087C399.301 136.527 399.934 138.495 399.96 140.99L400.073 151.646H395.321L395.218 141.89C395.203 140.474 394.855 139.371 394.175 138.579C393.518 137.763 392.554 137.355 391.282 137.355C389.962 137.355 388.899 137.835 388.093 138.795C387.311 139.755 386.929 141.038 386.946 142.646L387.041 151.646H382.289L382.097 133.431H386.849L386.873 135.735C388.317 133.863 390.263 132.927 392.711 132.927ZM402.865 156.542C405.577 151.91 406.901 146.63 406.838 140.702C406.775 134.727 405.34 129.447 402.531 124.863H407.175C410.031 129.399 411.467 134.679 411.482 140.702C411.546 146.75 410.222 152.03 407.509 156.542H402.865Z" fill="white"/>
<path d="M91.7629 186.2L91.7811 187.952H85.5891L85.7457 202.999H83.8257L83.6691 187.952H77.4531L77.4349 186.2H91.7629ZM97.0422 203.311C95.1862 203.311 93.6602 202.735 92.4642 201.583C91.2843 200.431 90.6844 198.903 90.6646 196.999C90.6459 195.207 91.1984 193.719 92.3221 192.535C93.4456 191.335 94.9034 190.735 96.6954 190.735C98.5514 190.735 100.021 191.303 101.105 192.439C102.189 193.575 102.74 195.007 102.758 196.735C102.762 197.103 102.749 197.391 102.719 197.599H92.4948C92.5874 198.815 93.0377 199.799 93.8455 200.551C94.6533 201.303 95.7132 201.679 97.0252 201.679C98.0012 201.679 98.823 201.463 99.4905 201.031C100.158 200.583 100.648 200.023 100.961 199.351L102.67 199.855C102.232 200.831 101.537 201.655 100.584 202.327C99.6308 202.983 98.4502 203.311 97.0422 203.311ZM92.4806 196.231L100.928 196.207C100.836 195.055 100.419 194.127 99.6754 193.423C98.932 192.719 97.9444 192.367 96.7124 192.367C95.5284 192.367 94.5403 192.743 93.7481 193.495C92.9719 194.247 92.5494 195.159 92.4806 196.231ZM110.046 203.311C108.718 203.311 107.539 202.967 106.508 202.279C105.492 201.575 104.827 200.711 104.513 199.687L106.236 199.207C106.467 199.927 106.93 200.527 107.623 201.007C108.331 201.471 109.15 201.703 110.078 201.703C110.958 201.703 111.676 201.511 112.232 201.127C112.788 200.743 113.063 200.279 113.057 199.735C113.052 199.271 112.913 198.919 112.638 198.679C112.364 198.423 111.913 198.199 111.287 198.007L107.869 196.999C106.007 196.455 105.069 195.487 105.055 194.095C105.045 193.183 105.461 192.399 106.302 191.743C107.143 191.071 108.18 190.735 109.412 190.735C110.644 190.735 111.703 191.015 112.588 191.575C113.49 192.135 114.13 192.847 114.507 193.711L112.832 194.215C112.602 193.671 112.181 193.215 111.57 192.847C110.958 192.479 110.236 192.295 109.404 192.295C108.652 192.295 108.038 192.479 107.562 192.847C107.101 193.215 106.874 193.623 106.878 194.071C106.885 194.711 107.426 195.191 108.501 195.511L111.92 196.519C112.835 196.791 113.551 197.167 114.068 197.647C114.6 198.111 114.871 198.775 114.88 199.639C114.891 200.695 114.436 201.575 113.516 202.279C112.611 202.967 111.454 203.311 110.046 203.311ZM124.207 201.055L124.727 202.639C123.915 202.991 123.085 203.167 122.237 203.167C121.069 203.167 120.185 202.831 119.586 202.159C119.003 201.471 118.706 200.535 118.693 199.351L118.624 192.703H116.248L116.231 191.023H118.607L118.564 186.896H120.412L120.455 191.023H124.559L124.576 192.703H120.472L120.541 199.351C120.556 200.759 121.211 201.463 122.507 201.463C123.099 201.463 123.666 201.327 124.207 201.055ZM132.269 203.311C130.413 203.311 128.887 202.735 127.691 201.583C126.511 200.431 125.911 198.903 125.891 196.999C125.872 195.207 126.425 193.719 127.549 192.535C128.672 191.335 130.13 190.735 131.922 190.735C133.778 190.735 135.248 191.303 136.332 192.439C137.416 193.575 137.966 195.007 137.984 196.735C137.988 197.103 137.975 197.391 137.945 197.599H127.721C127.814 198.815 128.264 199.799 129.072 200.551C129.88 201.303 130.94 201.679 132.252 201.679C133.228 201.679 134.05 201.463 134.717 201.031C135.384 200.583 135.875 200.023 136.188 199.351L137.897 199.855C137.459 200.831 136.764 201.655 135.811 202.327C134.857 202.983 133.677 203.311 132.269 203.311ZM127.707 196.231L136.155 196.207C136.063 195.055 135.645 194.127 134.902 193.423C134.159 192.719 133.171 192.367 131.939 192.367C130.755 192.367 129.767 192.743 128.975 193.495C128.198 194.247 127.776 195.159 127.707 196.231ZM150.704 185.48H152.552L152.734 202.999H150.886L150.863 200.815C149.84 202.479 148.273 203.311 146.161 203.311C144.433 203.311 142.987 202.711 141.822 201.511C140.658 200.311 140.066 198.807 140.047 196.999C140.029 195.207 140.589 193.719 141.729 192.535C142.868 191.335 144.302 190.735 146.03 190.735C148.126 190.735 149.711 191.551 150.784 193.183L150.704 185.48ZM146.408 201.631C147.656 201.631 148.715 201.191 149.586 200.311C150.457 199.431 150.885 198.335 150.872 197.023C150.858 195.711 150.407 194.615 149.517 193.735C148.628 192.855 147.56 192.415 146.312 192.415C145 192.415 143.924 192.847 143.085 193.711C142.262 194.575 141.858 195.679 141.872 197.023C141.885 198.351 142.313 199.455 143.154 200.335C144.011 201.199 145.096 201.631 146.408 201.631ZM172.599 201.511C171.411 202.711 169.913 203.311 168.105 203.311C166.297 203.311 164.779 202.711 163.551 201.511C162.338 200.295 161.722 198.791 161.704 196.999C161.685 195.207 162.27 193.719 163.457 192.535C164.661 191.335 166.166 190.735 167.974 190.735C169.782 190.735 171.293 191.335 172.505 192.535C173.718 193.719 174.333 195.207 174.352 196.999C174.37 198.791 173.786 200.295 172.599 201.511ZM168.088 201.607C169.368 201.607 170.427 201.175 171.266 200.311C172.121 199.431 172.542 198.335 172.528 197.023C172.514 195.711 172.071 194.615 171.198 193.735C170.341 192.855 169.272 192.415 167.992 192.415C166.696 192.415 165.621 192.855 164.766 193.735C163.911 194.615 163.49 195.711 163.504 197.023C163.518 198.335 163.961 199.431 164.834 200.311C165.707 201.175 166.792 201.607 168.088 201.607ZM183.413 190.735C184.901 190.735 186.074 191.199 186.932 192.127C187.805 193.055 188.251 194.335 188.268 195.967L188.341 202.999H186.493L186.422 196.231C186.41 195.047 186.104 194.127 185.506 193.471C184.923 192.799 184.095 192.463 183.023 192.463C181.823 192.463 180.852 192.879 180.108 193.711C179.381 194.543 179.024 195.631 179.038 196.975L179.101 202.999H177.253L177.128 191.023H178.976L178.998 193.135C179.439 192.415 180.033 191.839 180.78 191.407C181.544 190.959 182.421 190.735 183.413 190.735ZM214.317 194.095L214.328 195.127C214.338 197.655 213.567 199.655 212.014 201.127C210.462 202.583 208.469 203.311 206.037 203.311C203.541 203.311 201.444 202.479 199.747 200.815C198.05 199.135 197.188 197.047 197.162 194.551C197.137 192.103 197.947 190.047 199.594 188.383C201.24 186.72 203.296 185.888 205.76 185.888C207.648 185.888 209.293 186.352 210.694 187.28C212.096 188.192 213.092 189.383 213.684 190.855L211.889 191.335C211.397 190.231 210.62 189.351 209.557 188.695C208.51 188.024 207.259 187.688 205.803 187.688C203.803 187.688 202.177 188.351 200.927 189.679C199.677 191.007 199.062 192.623 199.082 194.527C199.102 196.479 199.751 198.135 201.029 199.495C202.324 200.855 204.011 201.535 206.091 201.535C207.915 201.535 209.405 201.015 210.562 199.975C211.719 198.919 212.345 197.511 212.438 195.751H205.838L205.821 194.095H214.317ZM224.455 186.2C226.135 186.2 227.477 186.752 228.48 187.856C229.484 188.959 229.993 190.215 230.007 191.623C230.022 193.063 229.532 194.327 228.535 195.415C227.554 196.487 226.2 197.023 224.472 197.023H219.048L219.11 202.999H217.214L217.039 186.2H224.455ZM224.406 195.295C225.558 195.295 226.474 194.935 227.154 194.215C227.835 193.479 228.17 192.615 228.159 191.623C228.149 190.631 227.788 189.775 227.077 189.055C226.381 188.319 225.497 187.952 224.425 187.952H218.953L219.03 195.295H224.406ZM244.149 186.2H246.069L246.174 196.327C246.196 198.439 245.598 200.135 244.379 201.415C243.176 202.679 241.495 203.311 239.335 203.311C237.175 203.311 235.472 202.679 234.227 201.415C232.998 200.135 232.372 198.439 232.35 196.327L232.245 186.2H234.189L234.294 196.279C234.31 197.879 234.748 199.159 235.606 200.119C236.479 201.063 237.716 201.535 239.316 201.535C240.916 201.535 242.143 201.063 242.998 200.119C243.852 199.159 244.27 197.879 244.254 196.279L244.149 186.2ZM249.439 196.351L249.422 194.767H257.942L257.959 196.351H249.439ZM263.412 201.247H272.724L272.743 202.999H261.511L261.336 186.2H263.256L263.412 201.247ZM286.997 197.551L287.015 199.279H284.711L284.75 202.999H282.854L282.815 199.279H274.103L274.088 197.839L280.231 186.2H282.319L276.317 197.551H282.797L282.753 193.303H284.649L284.693 197.551H286.997ZM305.461 185.48H307.309L307.492 202.999H305.644L305.621 200.815C304.598 202.479 303.031 203.311 300.919 203.311C299.191 203.311 297.745 202.711 296.58 201.511C295.416 200.311 294.824 198.807 294.805 196.999C294.787 195.207 295.347 193.719 296.487 192.535C297.626 191.335 299.06 190.735 300.788 190.735C302.884 190.735 304.469 191.551 305.541 193.183L305.461 185.48ZM301.165 201.631C302.413 201.631 303.473 201.191 304.344 200.311C305.214 199.431 305.643 198.335 305.629 197.023C305.616 195.711 305.164 194.615 304.275 193.735C303.386 192.855 302.317 192.415 301.069 192.415C299.757 192.415 298.682 192.847 297.843 193.711C297.02 194.575 296.615 195.679 296.629 197.023C296.643 198.351 297.071 199.455 297.912 200.335C298.769 201.199 299.853 201.631 301.165 201.631ZM316.628 203.311C314.772 203.311 313.246 202.735 312.05 201.583C310.87 200.431 310.27 198.903 310.25 196.999C310.232 195.207 310.784 193.719 311.908 192.535C313.032 191.335 314.489 190.735 316.281 190.735C318.137 190.735 319.607 191.303 320.691 192.439C321.775 193.575 322.326 195.007 322.344 196.735C322.348 197.103 322.335 197.391 322.305 197.599H312.081C312.173 198.815 312.624 199.799 313.431 200.551C314.239 201.303 315.299 201.679 316.611 201.679C317.587 201.679 318.409 201.463 319.076 201.031C319.744 200.583 320.234 200.023 320.547 199.351L322.256 199.855C321.818 200.831 321.123 201.655 320.17 202.327C319.217 202.983 318.036 203.311 316.628 203.311ZM312.067 196.231L320.514 196.207C320.422 195.055 320.005 194.127 319.261 193.423C318.518 192.719 317.53 192.367 316.298 192.367C315.114 192.367 314.126 192.743 313.334 193.495C312.558 194.247 312.135 195.159 312.067 196.231ZM333.431 191.023H335.423L330.34 202.999H328.3L322.967 191.023H324.959L329.311 200.983L333.431 191.023ZM339.381 188.431C339.143 188.671 338.84 188.791 338.472 188.791C338.104 188.791 337.799 188.671 337.557 188.431C337.314 188.192 337.191 187.888 337.187 187.52C337.184 187.184 337.301 186.896 337.538 186.656C337.792 186.416 338.094 186.296 338.446 186.296C338.798 186.296 339.096 186.416 339.338 186.656C339.597 186.896 339.728 187.184 339.731 187.52C339.735 187.888 339.618 188.192 339.381 188.431ZM337.708 202.999L337.584 191.023H339.432L339.556 202.999H337.708ZM348.736 203.311C346.944 203.311 345.45 202.711 344.253 201.511C343.056 200.295 342.449 198.783 342.43 196.975C342.411 195.199 342.988 193.719 344.16 192.535C345.331 191.335 346.813 190.735 348.605 190.735C350.029 190.735 351.241 191.111 352.241 191.863C353.256 192.599 353.905 193.431 354.187 194.359L352.464 194.863C352.249 194.207 351.787 193.631 351.078 193.135C350.369 192.639 349.55 192.391 348.622 192.391C347.31 192.391 346.251 192.847 345.444 193.759C344.638 194.655 344.241 195.743 344.254 197.023C344.268 198.287 344.687 199.375 345.512 200.287C346.354 201.183 347.422 201.631 348.718 201.631C349.662 201.631 350.476 201.399 351.159 200.935C351.858 200.455 352.308 199.887 352.509 199.231L354.242 199.687C353.98 200.631 353.357 201.471 352.372 202.207C351.388 202.943 350.176 203.311 348.736 203.311ZM362.659 203.311C360.803 203.311 359.277 202.735 358.081 201.583C356.901 200.431 356.302 198.903 356.282 196.999C356.263 195.207 356.816 193.719 357.939 192.535C359.063 191.335 360.521 190.735 362.313 190.735C364.169 190.735 365.638 191.303 366.722 192.439C367.806 193.575 368.357 195.007 368.375 196.735C368.379 197.103 368.366 197.391 368.336 197.599H358.112C358.205 198.815 358.655 199.799 359.463 200.551C360.271 201.303 361.33 201.679 362.642 201.679C363.618 201.679 364.44 201.463 365.108 201.031C365.775 200.583 366.265 200.023 366.578 199.351L368.287 199.855C367.85 200.831 367.154 201.655 366.201 202.327C365.248 202.983 364.067 203.311 362.659 203.311ZM358.098 196.231L366.546 196.207C366.454 195.055 366.036 194.127 365.293 193.423C364.549 192.719 363.562 192.367 362.33 192.367C361.146 192.367 360.157 192.743 359.365 193.495C358.589 194.247 358.167 195.159 358.098 196.231ZM375.664 203.311C374.336 203.311 373.156 202.967 372.125 202.279C371.11 201.575 370.445 200.711 370.13 199.687L371.853 199.207C372.084 199.927 372.547 200.527 373.24 201.007C373.949 201.471 374.767 201.703 375.695 201.703C376.575 201.703 377.293 201.511 377.849 201.127C378.405 200.743 378.68 200.279 378.674 199.735C378.67 199.271 378.53 198.919 378.255 198.679C377.981 198.423 377.53 198.199 376.904 198.007L373.486 196.999C371.624 196.455 370.686 195.487 370.672 194.095C370.662 193.183 371.078 192.399 371.919 191.743C372.76 191.071 373.797 190.735 375.029 190.735C376.261 190.735 377.32 191.015 378.206 191.575C379.107 192.135 379.747 192.847 380.124 193.711L378.449 194.215C378.219 193.671 377.799 193.215 377.187 192.847C376.575 192.479 375.853 192.295 375.021 192.295C374.269 192.295 373.655 192.479 373.179 192.847C372.719 193.215 372.491 193.623 372.496 194.071C372.502 194.711 373.043 195.191 374.119 195.511L377.537 196.519C378.452 196.791 379.168 197.167 379.685 197.647C380.218 198.111 380.488 198.775 380.497 199.639C380.508 200.695 380.054 201.575 379.133 202.279C378.228 202.967 377.072 203.311 375.664 203.311Z" fill="#5292C8"/>
<path d="M278.84 633L275.18 627.5H271.08V633H269.5V619H275.98C277.34 619 278.42 619.433 279.22 620.3C280.02 621.167 280.42 622.153 280.42 623.26C280.42 624.247 280.107 625.14 279.48 625.94C278.867 626.727 278.013 627.22 276.92 627.42L280.68 633H278.84ZM271.08 620.44V626.08H275.92C276.813 626.08 277.527 625.807 278.06 625.26C278.607 624.7 278.88 624.033 278.88 623.26C278.88 622.5 278.607 621.84 278.06 621.28C277.527 620.72 276.82 620.44 275.94 620.44H271.08ZM290.42 623.02H291.96V633H290.42V631.26C289.607 632.593 288.38 633.26 286.74 633.26C285.487 633.26 284.5 632.873 283.78 632.1C283.074 631.327 282.72 630.253 282.72 628.88V623.02H284.26V628.66C284.26 629.647 284.5 630.42 284.98 630.98C285.474 631.527 286.167 631.8 287.06 631.8C288.074 631.8 288.887 631.453 289.5 630.76C290.114 630.067 290.42 629.16 290.42 628.04V623.02ZM300.209 622.78C301.449 622.78 302.422 623.167 303.129 623.94C303.849 624.713 304.209 625.78 304.209 627.14V633H302.669V627.36C302.669 626.373 302.422 625.607 301.929 625.06C301.449 624.5 300.762 624.22 299.869 624.22C298.869 624.22 298.055 624.567 297.429 625.26C296.815 625.953 296.509 626.86 296.509 627.98V633H294.969V623.02H296.509V624.78C296.882 624.18 297.382 623.7 298.009 623.34C298.649 622.967 299.382 622.78 300.209 622.78ZM312.597 631.38L313.017 632.7C312.337 632.993 311.644 633.14 310.937 633.14C309.964 633.14 309.231 632.86 308.737 632.3C308.257 631.727 308.017 630.947 308.017 629.96V624.42H306.037V623.02H308.017V619.58H309.557V623.02H312.977V624.42H309.557V629.96C309.557 631.133 310.097 631.72 311.177 631.72C311.671 631.72 312.144 631.607 312.597 631.38ZM316.901 620.86C316.701 621.06 316.447 621.16 316.141 621.16C315.834 621.16 315.581 621.06 315.381 620.86C315.181 620.66 315.081 620.407 315.081 620.1C315.081 619.82 315.181 619.58 315.381 619.38C315.594 619.18 315.847 619.08 316.141 619.08C316.434 619.08 316.681 619.18 316.881 619.38C317.094 619.58 317.201 619.82 317.201 620.1C317.201 620.407 317.101 620.66 316.901 620.86ZM315.381 633V623.02H316.921V633H315.381ZM331.648 622.78C332.848 622.78 333.794 623.153 334.488 623.9C335.181 624.633 335.528 625.667 335.528 627V633H333.988V627.24C333.988 626.28 333.768 625.54 333.328 625.02C332.888 624.487 332.241 624.22 331.388 624.22C330.534 624.22 329.841 624.533 329.308 625.16C328.788 625.787 328.528 626.62 328.528 627.66V633H326.988V627.24C326.988 626.293 326.774 625.553 326.348 625.02C325.934 624.487 325.328 624.22 324.528 624.22C323.648 624.22 322.928 624.56 322.368 625.24C321.821 625.907 321.548 626.793 321.548 627.9V633H320.008V623.02H321.548V624.66C322.294 623.407 323.401 622.78 324.868 622.78C326.388 622.78 327.454 623.42 328.068 624.7C328.801 623.42 329.994 622.78 331.648 622.78ZM343.046 633.26C341.499 633.26 340.232 632.78 339.246 631.82C338.272 630.86 337.786 629.587 337.786 628C337.786 626.507 338.259 625.267 339.206 624.28C340.152 623.28 341.372 622.78 342.866 622.78C344.412 622.78 345.632 623.253 346.526 624.2C347.419 625.147 347.866 626.34 347.866 627.78C347.866 628.087 347.852 628.327 347.826 628.5H339.306C339.372 629.513 339.739 630.333 340.406 630.96C341.072 631.587 341.952 631.9 343.046 631.9C343.859 631.9 344.546 631.72 345.106 631.36C345.666 630.987 346.079 630.52 346.346 629.96L347.766 630.38C347.392 631.193 346.806 631.88 346.006 632.44C345.206 632.987 344.219 633.26 343.046 633.26ZM339.306 627.36L346.346 627.34C346.279 626.38 345.939 625.607 345.326 625.02C344.712 624.433 343.892 624.14 342.866 624.14C341.879 624.14 341.052 624.453 340.386 625.08C339.732 625.707 339.372 626.467 339.306 627.36ZM367.038 622.78C368.238 622.78 369.185 623.153 369.878 623.9C370.572 624.633 370.918 625.667 370.918 627V633H369.378V627.24C369.378 626.28 369.158 625.54 368.718 625.02C368.278 624.487 367.632 624.22 366.778 624.22C365.925 624.22 365.232 624.533 364.698 625.16C364.178 625.787 363.918 626.62 363.918 627.66V633H362.378V627.24C362.378 626.293 362.165 625.553 361.738 625.02C361.325 624.487 360.718 624.22 359.918 624.22C359.038 624.22 358.318 624.56 357.758 625.24C357.212 625.907 356.938 626.793 356.938 627.9V633H355.398V623.02H356.938V624.66C357.685 623.407 358.792 622.78 360.258 622.78C361.778 622.78 362.845 623.42 363.458 624.7C364.192 623.42 365.385 622.78 367.038 622.78ZM381.319 623.02H382.859V633H381.319V631.26C380.505 632.593 379.279 633.26 377.639 633.26C376.385 633.26 375.399 632.873 374.679 632.1C373.972 631.327 373.619 630.253 373.619 628.88V623.02H375.159V628.66C375.159 629.647 375.399 630.42 375.879 630.98C376.372 631.527 377.065 631.8 377.959 631.8C378.972 631.8 379.785 631.453 380.399 630.76C381.012 630.067 381.319 629.16 381.319 628.04V623.02ZM385.867 633V618.4H387.407V633H385.867ZM395.878 631.38L396.298 632.7C395.618 632.993 394.925 633.14 394.218 633.14C393.245 633.14 392.512 632.86 392.018 632.3C391.538 631.727 391.298 630.947 391.298 629.96V624.42H389.318V623.02H391.298V619.58H392.838V623.02H396.258V624.42H392.838V629.96C392.838 631.133 393.378 631.72 394.458 631.72C394.952 631.72 395.425 631.607 395.878 631.38ZM400.182 620.86C399.982 621.06 399.729 621.16 399.422 621.16C399.115 621.16 398.862 621.06 398.662 620.86C398.462 620.66 398.362 620.407 398.362 620.1C398.362 619.82 398.462 619.58 398.662 619.38C398.875 619.18 399.129 619.08 399.422 619.08C399.715 619.08 399.962 619.18 400.162 619.38C400.375 619.58 400.482 619.82 400.482 620.1C400.482 620.407 400.382 620.66 400.182 620.86ZM398.662 633V623.02H400.202V633H398.662ZM408.769 622.78C410.209 622.78 411.409 623.28 412.369 624.28C413.329 625.267 413.809 626.507 413.809 628C413.809 629.507 413.329 630.76 412.369 631.76C411.409 632.76 410.209 633.26 408.769 633.26C407.889 633.26 407.109 633.08 406.429 632.72C405.762 632.347 405.229 631.833 404.829 631.18V637.2H403.289V623.02H404.829V624.82C405.682 623.46 406.996 622.78 408.769 622.78ZM408.549 631.86C409.642 631.86 410.536 631.5 411.229 630.78C411.936 630.047 412.289 629.127 412.289 628.02C412.289 626.9 411.936 625.98 411.229 625.26C410.536 624.54 409.642 624.18 408.549 624.18C407.509 624.18 406.622 624.547 405.889 625.28C405.156 626.013 404.789 626.927 404.789 628.02C404.789 629.113 405.156 630.027 405.889 630.76C406.622 631.493 407.509 631.86 408.549 631.86ZM416.16 633V618.4H417.7V633H416.16ZM422.291 620.86C422.091 621.06 421.838 621.16 421.531 621.16C421.225 621.16 420.971 621.06 420.771 620.86C420.571 620.66 420.471 620.407 420.471 620.1C420.471 619.82 420.571 619.58 420.771 619.38C420.985 619.18 421.238 619.08 421.531 619.08C421.825 619.08 422.071 619.18 422.271 619.38C422.485 619.58 422.591 619.82 422.591 620.1C422.591 620.407 422.491 620.66 422.291 620.86ZM420.771 633V623.02H422.311V633H420.771ZM430.018 633.26C428.472 633.26 427.205 632.78 426.218 631.82C425.245 630.86 424.758 629.587 424.758 628C424.758 626.507 425.232 625.267 426.178 624.28C427.125 623.28 428.345 622.78 429.838 622.78C431.385 622.78 432.605 623.253 433.498 624.2C434.392 625.147 434.838 626.34 434.838 627.78C434.838 628.087 434.825 628.327 434.798 628.5H426.278C426.345 629.513 426.712 630.333 427.378 630.96C428.045 631.587 428.925 631.9 430.018 631.9C430.832 631.9 431.518 631.72 432.078 631.36C432.638 630.987 433.052 630.52 433.318 629.96L434.738 630.38C434.365 631.193 433.778 631.88 432.978 632.44C432.178 632.987 431.192 633.26 430.018 633.26ZM426.278 627.36L433.318 627.34C433.252 626.38 432.912 625.607 432.298 625.02C431.685 624.433 430.865 624.14 429.838 624.14C428.852 624.14 428.025 624.453 427.358 625.08C426.705 625.707 426.345 626.467 426.278 627.36ZM438.735 624.74C439.042 624.06 439.502 623.553 440.115 623.22C440.729 622.887 441.462 622.78 442.315 622.9V624.34C441.195 624.193 440.315 624.447 439.675 625.1C439.049 625.74 438.735 626.82 438.735 628.34V633H437.195V623.02H438.735V624.74Z" fill="#3287CE"/>
<path d="M100.58 310H107.94V312H98.4V298H100.58V310ZM113.893 312.26C112.467 312.26 111.273 311.76 110.313 310.76C109.367 309.747 108.893 308.48 108.893 306.96C108.893 305.453 109.367 304.2 110.313 303.2C111.273 302.187 112.467 301.68 113.893 301.68C115.467 301.68 116.673 302.273 117.513 303.46V301.94H119.593V312H117.513V310.48C116.673 311.667 115.467 312.26 113.893 312.26ZM114.233 310.38C115.167 310.38 115.953 310.06 116.593 309.42C117.233 308.767 117.553 307.947 117.553 306.96C117.553 305.987 117.233 305.18 116.593 304.54C115.953 303.887 115.167 303.56 114.233 303.56C113.273 303.56 112.487 303.88 111.873 304.52C111.26 305.16 110.953 305.973 110.953 306.96C110.953 307.947 111.26 308.767 111.873 309.42C112.487 310.06 113.273 310.38 114.233 310.38ZM128.024 309.96L128.544 311.68C127.784 312 127.044 312.16 126.324 312.16C125.271 312.16 124.484 311.86 123.964 311.26C123.444 310.647 123.184 309.807 123.184 308.74V303.8H121.344V301.94H123.184V298.58H125.264V301.94H128.464V303.8H125.264V308.74C125.264 309.767 125.744 310.28 126.704 310.28C127.144 310.28 127.584 310.173 128.024 309.96ZM134.781 312.26C133.194 312.26 131.901 311.773 130.901 310.8C129.914 309.827 129.421 308.553 129.421 306.98C129.421 305.46 129.901 304.2 130.861 303.2C131.821 302.187 133.067 301.68 134.601 301.68C136.187 301.68 137.434 302.167 138.341 303.14C139.261 304.1 139.721 305.313 139.721 306.78C139.721 307.033 139.701 307.313 139.661 307.62H131.481C131.547 308.473 131.874 309.16 132.461 309.68C133.047 310.2 133.834 310.46 134.821 310.46C136.207 310.46 137.161 309.92 137.681 308.84L139.601 309.4C139.241 310.187 138.647 310.86 137.821 311.42C136.994 311.98 135.981 312.26 134.781 312.26ZM131.481 306.22L137.661 306.2C137.594 305.4 137.287 304.747 136.741 304.24C136.207 303.733 135.494 303.48 134.601 303.48C133.734 303.48 133.014 303.747 132.441 304.28C131.881 304.813 131.561 305.46 131.481 306.22ZM147.437 301.68C148.717 301.68 149.703 302.073 150.397 302.86C151.09 303.647 151.437 304.727 151.437 306.1V312H149.357V306.48C149.357 305.587 149.143 304.893 148.717 304.4C148.303 303.893 147.69 303.64 146.877 303.64C145.997 303.64 145.29 303.947 144.757 304.56C144.237 305.173 143.977 305.987 143.977 307V312H141.877V301.94H143.977V303.44C144.803 302.267 145.957 301.68 147.437 301.68ZM158.802 312.26C157.282 312.26 156.022 311.753 155.022 310.74C154.022 309.727 153.522 308.467 153.522 306.96C153.522 305.453 154.016 304.2 155.002 303.2C156.002 302.187 157.262 301.68 158.782 301.68C160.036 301.68 161.089 302.007 161.942 302.66C162.809 303.3 163.349 304.033 163.562 304.86L161.622 305.42C161.476 304.927 161.142 304.493 160.622 304.12C160.102 303.747 159.496 303.56 158.802 303.56C157.842 303.56 157.062 303.893 156.462 304.56C155.862 305.213 155.562 306.013 155.562 306.96C155.562 307.893 155.862 308.7 156.462 309.38C157.076 310.047 157.856 310.38 158.802 310.38C159.496 310.38 160.102 310.207 160.622 309.86C161.142 309.5 161.476 309.073 161.622 308.58L163.562 309.12C163.349 309.933 162.816 310.66 161.962 311.3C161.109 311.94 160.056 312.26 158.802 312.26ZM172.951 301.94H175.191L169.071 316.2H166.911L168.791 311.78L164.191 301.94H166.471L169.831 309.42L172.951 301.94ZM185.638 312.26C184.491 312.26 183.478 311.967 182.598 311.38C181.731 310.78 181.165 310.053 180.898 309.2L182.798 308.64C182.985 309.187 183.338 309.64 183.858 310C184.391 310.36 185.005 310.54 185.698 310.54C186.325 310.54 186.831 310.407 187.218 310.14C187.605 309.873 187.798 309.553 187.798 309.18C187.798 308.873 187.698 308.633 187.498 308.46C187.298 308.273 186.965 308.113 186.498 307.98L183.798 307.18C182.198 306.7 181.398 305.84 181.398 304.6C181.398 303.8 181.771 303.113 182.518 302.54C183.265 301.967 184.171 301.68 185.238 301.68C186.291 301.68 187.205 301.913 187.978 302.38C188.751 302.847 189.291 303.46 189.598 304.22L187.738 304.76C187.538 304.36 187.218 304.027 186.778 303.76C186.338 303.493 185.818 303.36 185.218 303.36C184.711 303.36 184.291 303.487 183.958 303.74C183.625 303.98 183.458 304.26 183.458 304.58C183.458 305.02 183.818 305.353 184.538 305.58L187.218 306.36C188.045 306.6 188.691 306.927 189.158 307.34C189.625 307.74 189.858 308.327 189.858 309.1C189.858 310.007 189.458 310.76 188.658 311.36C187.871 311.96 186.865 312.26 185.638 312.26ZM197.811 301.68C199.238 301.68 200.431 302.187 201.391 303.2C202.351 304.2 202.831 305.453 202.831 306.96C202.831 308.48 202.351 309.747 201.391 310.76C200.431 311.76 199.238 312.26 197.811 312.26C196.251 312.26 195.051 311.667 194.211 310.48V316.2H192.111V301.94H194.211V303.46C195.051 302.273 196.251 301.68 197.811 301.68ZM197.471 310.38C198.431 310.38 199.218 310.06 199.831 309.42C200.444 308.767 200.751 307.947 200.751 306.96C200.751 305.973 200.444 305.16 199.831 304.52C199.218 303.88 198.431 303.56 197.471 303.56C196.538 303.56 195.751 303.887 195.111 304.54C194.471 305.18 194.151 305.987 194.151 306.96C194.151 307.947 194.471 308.767 195.111 309.42C195.751 310.06 196.538 310.38 197.471 310.38ZM209.722 312.26C208.135 312.26 206.842 311.773 205.842 310.8C204.855 309.827 204.362 308.553 204.362 306.98C204.362 305.46 204.842 304.2 205.802 303.2C206.762 302.187 208.009 301.68 209.542 301.68C211.129 301.68 212.375 302.167 213.282 303.14C214.202 304.1 214.662 305.313 214.662 306.78C214.662 307.033 214.642 307.313 214.602 307.62H206.422C206.489 308.473 206.815 309.16 207.402 309.68C207.989 310.2 208.775 310.46 209.762 310.46C211.149 310.46 212.102 309.92 212.622 308.84L214.542 309.4C214.182 310.187 213.589 310.86 212.762 311.42C211.935 311.98 210.922 312.26 209.722 312.26ZM206.422 306.22L212.602 306.2C212.535 305.4 212.229 304.747 211.682 304.24C211.149 303.733 210.435 303.48 209.542 303.48C208.675 303.48 207.955 303.747 207.382 304.28C206.822 304.813 206.502 305.46 206.422 306.22ZM221.558 312.26C219.971 312.26 218.678 311.773 217.678 310.8C216.691 309.827 216.198 308.553 216.198 306.98C216.198 305.46 216.678 304.2 217.638 303.2C218.598 302.187 219.845 301.68 221.378 301.68C222.965 301.68 224.211 302.167 225.118 303.14C226.038 304.1 226.498 305.313 226.498 306.78C226.498 307.033 226.478 307.313 226.438 307.62H218.258C218.325 308.473 218.651 309.16 219.238 309.68C219.825 310.2 220.611 310.46 221.598 310.46C222.985 310.46 223.938 309.92 224.458 308.84L226.378 309.4C226.018 310.187 225.425 310.86 224.598 311.42C223.771 311.98 222.758 312.26 221.558 312.26ZM218.258 306.22L224.438 306.2C224.371 305.4 224.065 304.747 223.518 304.24C222.985 303.733 222.271 303.48 221.378 303.48C220.511 303.48 219.791 303.747 219.218 304.28C218.658 304.813 218.338 305.46 218.258 306.22ZM236.654 297.4H238.734V312H236.654V310.48C235.814 311.667 234.607 312.26 233.034 312.26C231.607 312.26 230.414 311.76 229.454 310.76C228.507 309.747 228.034 308.48 228.034 306.96C228.034 305.453 228.507 304.2 229.454 303.2C230.414 302.187 231.607 301.68 233.034 301.68C234.607 301.68 235.814 302.273 236.654 303.46V297.4ZM233.374 310.38C234.307 310.38 235.094 310.06 235.734 309.42C236.374 308.767 236.694 307.947 236.694 306.96C236.694 305.987 236.374 305.18 235.734 304.54C235.094 303.887 234.307 303.56 233.374 303.56C232.414 303.56 231.627 303.88 231.014 304.52C230.401 305.16 230.094 305.973 230.094 306.96C230.094 307.947 230.401 308.767 231.014 309.42C231.627 310.06 232.414 310.38 233.374 310.38ZM248.905 301.94H250.985V312H248.905V310.48C248.092 311.667 246.932 312.26 245.425 312.26C244.158 312.26 243.172 311.867 242.465 311.08C241.772 310.293 241.425 309.213 241.425 307.84V301.94H243.525V307.46C243.525 308.353 243.732 309.053 244.145 309.56C244.572 310.053 245.192 310.3 246.005 310.3C246.872 310.3 247.572 309.993 248.105 309.38C248.638 308.767 248.905 307.953 248.905 306.94V301.94ZM259.491 301.68C260.917 301.68 262.111 302.187 263.071 303.2C264.031 304.2 264.511 305.453 264.511 306.96C264.511 308.48 264.031 309.747 263.071 310.76C262.111 311.76 260.917 312.26 259.491 312.26C257.931 312.26 256.731 311.667 255.891 310.48V316.2H253.791V301.94H255.891V303.46C256.731 302.273 257.931 301.68 259.491 301.68ZM259.151 310.38C260.111 310.38 260.897 310.06 261.511 309.42C262.124 308.767 262.431 307.947 262.431 306.96C262.431 305.973 262.124 305.16 261.511 304.52C260.897 303.88 260.111 303.56 259.151 303.56C258.217 303.56 257.431 303.887 256.791 304.54C256.151 305.18 255.831 305.987 255.831 306.96C255.831 307.947 256.151 308.767 256.791 309.42C257.431 310.06 258.217 310.38 259.151 310.38Z" fill="#01396C"/>
<path d="M354.26 412H356.34V426H354.16V415.76L349.36 422.48L344.58 415.76V426H342.4V412H344.48L349.38 419.04L354.26 412ZM363.878 426.26C362.292 426.26 360.998 425.773 359.998 424.8C359.012 423.827 358.518 422.553 358.518 420.98C358.518 419.46 358.998 418.2 359.958 417.2C360.918 416.187 362.165 415.68 363.698 415.68C365.285 415.68 366.532 416.167 367.438 417.14C368.358 418.1 368.818 419.313 368.818 420.78C368.818 421.033 368.798 421.313 368.758 421.62H360.578C360.645 422.473 360.972 423.16 361.558 423.68C362.145 424.2 362.932 424.46 363.918 424.46C365.305 424.46 366.258 423.92 366.778 422.84L368.698 423.4C368.338 424.187 367.745 424.86 366.918 425.42C366.092 425.98 365.078 426.26 363.878 426.26ZM360.578 420.22L366.758 420.2C366.692 419.4 366.385 418.747 365.838 418.24C365.305 417.733 364.592 417.48 363.698 417.48C362.832 417.48 362.112 417.747 361.538 418.28C360.978 418.813 360.658 419.46 360.578 420.22ZM382.854 415.68C384.054 415.68 385.008 416.06 385.714 416.82C386.434 417.58 386.794 418.633 386.794 419.98V426H384.694V420.38C384.694 419.513 384.501 418.84 384.114 418.36C383.741 417.88 383.181 417.64 382.434 417.64C381.661 417.64 381.048 417.92 380.594 418.48C380.141 419.04 379.914 419.793 379.914 420.74V426H377.834V420.38C377.834 419.513 377.648 418.84 377.274 418.36C376.914 417.88 376.374 417.64 375.654 417.64C374.854 417.64 374.221 417.933 373.754 418.52C373.301 419.107 373.074 419.907 373.074 420.92V426H370.974V415.94H373.074V417.34C373.834 416.233 374.888 415.68 376.234 415.68C377.701 415.68 378.734 416.253 379.334 417.4C380.094 416.253 381.268 415.68 382.854 415.68ZM398.03 424.76C397.017 425.76 395.743 426.26 394.21 426.26C392.677 426.26 391.403 425.76 390.39 424.76C389.377 423.747 388.87 422.48 388.87 420.96C388.87 419.453 389.377 418.2 390.39 417.2C391.403 416.187 392.677 415.68 394.21 415.68C395.743 415.68 397.017 416.187 398.03 417.2C399.043 418.2 399.55 419.453 399.55 420.96C399.55 422.48 399.043 423.747 398.03 424.76ZM391.83 423.4C392.457 424.04 393.25 424.36 394.21 424.36C395.17 424.36 395.957 424.04 396.57 423.4C397.197 422.747 397.51 421.94 397.51 420.98C397.51 420.007 397.197 419.2 396.57 418.56C395.957 417.907 395.17 417.58 394.21 417.58C393.25 417.58 392.457 417.907 391.83 418.56C391.217 419.2 390.91 420.007 390.91 420.98C390.91 421.94 391.217 422.747 391.83 423.4ZM403.816 417.54C404.123 416.913 404.57 416.447 405.156 416.14C405.756 415.82 406.456 415.713 407.256 415.82V417.78C406.15 417.62 405.296 417.84 404.696 418.44C404.11 419.027 403.816 420.033 403.816 421.46V426H401.716V415.94H403.816V417.54ZM416.834 415.94H419.074L412.954 430.2H410.794L412.674 425.78L408.074 415.94H410.354L413.714 423.42L416.834 415.94ZM431.241 426.26C429.681 426.26 428.341 425.853 427.221 425.04C426.101 424.227 425.341 423.227 424.941 422.04L427.001 421.42C427.321 422.273 427.861 422.973 428.621 423.52C429.394 424.067 430.307 424.34 431.361 424.34C432.294 424.34 433.054 424.12 433.641 423.68C434.241 423.24 434.541 422.733 434.541 422.16C434.541 421.693 434.367 421.3 434.021 420.98C433.687 420.66 433.121 420.373 432.321 420.12L428.801 419C426.707 418.347 425.661 417.207 425.661 415.58C425.661 414.527 426.121 413.627 427.041 412.88C427.961 412.12 429.114 411.74 430.501 411.74C431.927 411.74 433.154 412.073 434.181 412.74C435.221 413.393 435.954 414.22 436.381 415.22L434.361 415.82C434.027 415.167 433.521 414.647 432.841 414.26C432.174 413.86 431.394 413.66 430.501 413.66C429.727 413.66 429.087 413.847 428.581 414.22C428.087 414.58 427.841 415.013 427.841 415.52C427.841 415.92 427.981 416.253 428.261 416.52C428.541 416.773 428.994 416.993 429.621 417.18L433.061 418.28C434.274 418.667 435.187 419.14 435.801 419.7C436.414 420.247 436.721 421.02 436.721 422.02C436.721 423.22 436.207 424.227 435.181 425.04C434.167 425.853 432.854 426.26 431.241 426.26ZM443.382 426.26C441.955 426.26 440.762 425.76 439.802 424.76C438.855 423.747 438.382 422.48 438.382 420.96C438.382 419.453 438.855 418.2 439.802 417.2C440.762 416.187 441.955 415.68 443.382 415.68C444.955 415.68 446.162 416.273 447.002 417.46V415.94H449.082V426H447.002V424.48C446.162 425.667 444.955 426.26 443.382 426.26ZM443.722 424.38C444.655 424.38 445.442 424.06 446.082 423.42C446.722 422.767 447.042 421.947 447.042 420.96C447.042 419.987 446.722 419.18 446.082 418.54C445.442 417.887 444.655 417.56 443.722 417.56C442.762 417.56 441.975 417.88 441.362 418.52C440.748 419.16 440.442 419.973 440.442 420.96C440.442 421.947 440.748 422.767 441.362 423.42C441.975 424.06 442.762 424.38 443.722 424.38ZM459.115 415.94H461.395L457.135 426H454.795L450.535 415.94H452.815L455.955 423.72L459.115 415.94ZM464.967 413.94C464.714 414.18 464.401 414.3 464.027 414.3C463.654 414.3 463.341 414.18 463.087 413.94C462.834 413.687 462.707 413.373 462.707 413C462.707 412.653 462.834 412.353 463.087 412.1C463.341 411.847 463.654 411.72 464.027 411.72C464.401 411.72 464.714 411.847 464.967 412.1C465.221 412.353 465.347 412.653 465.347 413C465.347 413.373 465.221 413.687 464.967 413.94ZM462.967 426V415.94H465.047V426H462.967ZM473.468 415.68C474.748 415.68 475.734 416.073 476.428 416.86C477.121 417.647 477.468 418.727 477.468 420.1V426H475.388V420.48C475.388 419.587 475.174 418.893 474.748 418.4C474.334 417.893 473.721 417.64 472.908 417.64C472.028 417.64 471.321 417.947 470.788 418.56C470.268 419.173 470.008 419.987 470.008 421V426H467.908V415.94H470.008V417.44C470.834 416.267 471.988 415.68 473.468 415.68ZM488.113 415.94H490.213V425.64C490.213 427.053 489.74 428.207 488.793 429.1C487.86 430.007 486.633 430.46 485.113 430.46C482.887 430.46 481.287 429.587 480.313 427.84L482.153 427.16C482.767 428.187 483.767 428.7 485.153 428.7C486.087 428.7 486.807 428.413 487.313 427.84C487.833 427.28 488.1 426.553 488.113 425.66V424.18C487.273 425.313 486.093 425.88 484.573 425.88C483.12 425.88 481.92 425.393 480.973 424.42C480.027 423.447 479.553 422.233 479.553 420.78C479.553 419.287 480.02 418.067 480.953 417.12C481.9 416.16 483.107 415.68 484.573 415.68C486.093 415.68 487.273 416.24 488.113 417.36V415.94ZM484.893 424C485.827 424 486.607 423.693 487.233 423.08C487.86 422.467 488.173 421.7 488.173 420.78C488.173 419.86 487.86 419.1 487.233 418.5C486.607 417.887 485.827 417.58 484.893 417.58C483.933 417.58 483.147 417.88 482.533 418.48C481.92 419.08 481.613 419.847 481.613 420.78C481.613 421.713 481.92 422.487 482.533 423.1C483.147 423.7 483.933 424 484.893 424ZM496.825 426.26C495.679 426.26 494.665 425.967 493.785 425.38C492.919 424.78 492.352 424.053 492.085 423.2L493.985 422.64C494.172 423.187 494.525 423.64 495.045 424C495.579 424.36 496.192 424.54 496.885 424.54C497.512 424.54 498.019 424.407 498.405 424.14C498.792 423.873 498.985 423.553 498.985 423.18C498.985 422.873 498.885 422.633 498.685 422.46C498.485 422.273 498.152 422.113 497.685 421.98L494.985 421.18C493.385 420.7 492.585 419.84 492.585 418.6C492.585 417.8 492.959 417.113 493.705 416.54C494.452 415.967 495.359 415.68 496.425 415.68C497.479 415.68 498.392 415.913 499.165 416.38C499.939 416.847 500.479 417.46 500.785 418.22L498.925 418.76C498.725 418.36 498.405 418.027 497.965 417.76C497.525 417.493 497.005 417.36 496.405 417.36C495.899 417.36 495.479 417.487 495.145 417.74C494.812 417.98 494.645 418.26 494.645 418.58C494.645 419.02 495.005 419.353 495.725 419.58L498.405 420.36C499.232 420.6 499.879 420.927 500.345 421.34C500.812 421.74 501.045 422.327 501.045 423.1C501.045 424.007 500.645 424.76 499.845 425.36C499.059 425.96 498.052 426.26 496.825 426.26Z" fill="#01396C"/>
<path d="M193.48 525.96H185.54V529.94H192.46V531.82H185.54V536.02H193.46V538H183.4V524H193.48V525.96ZM201.44 527.68C202.72 527.68 203.707 528.073 204.4 528.86C205.094 529.647 205.44 530.727 205.44 532.1V538H203.36V532.48C203.36 531.587 203.147 530.893 202.72 530.4C202.307 529.893 201.694 529.64 200.88 529.64C200 529.64 199.294 529.947 198.76 530.56C198.24 531.173 197.98 531.987 197.98 533V538H195.88V527.94H197.98V529.44C198.807 528.267 199.96 527.68 201.44 527.68ZM212.886 538.26C211.299 538.26 210.006 537.773 209.006 536.8C208.019 535.827 207.526 534.553 207.526 532.98C207.526 531.46 208.006 530.2 208.966 529.2C209.926 528.187 211.173 527.68 212.706 527.68C214.293 527.68 215.539 528.167 216.446 529.14C217.366 530.1 217.826 531.313 217.826 532.78C217.826 533.033 217.806 533.313 217.766 533.62H209.586C209.653 534.473 209.979 535.16 210.566 535.68C211.153 536.2 211.939 536.46 212.926 536.46C214.313 536.46 215.266 535.92 215.786 534.84L217.706 535.4C217.346 536.187 216.753 536.86 215.926 537.42C215.099 537.98 214.086 538.26 212.886 538.26ZM209.586 532.22L215.766 532.2C215.699 531.4 215.393 530.747 214.846 530.24C214.313 529.733 213.599 529.48 212.706 529.48C211.839 529.48 211.119 529.747 210.546 530.28C209.986 530.813 209.666 531.46 209.586 532.22ZM222.082 529.54C222.389 528.913 222.835 528.447 223.422 528.14C224.022 527.82 224.722 527.713 225.522 527.82V529.78C224.415 529.62 223.562 529.84 222.962 530.44C222.375 531.027 222.082 532.033 222.082 533.46V538H219.982V527.94H222.082V529.54ZM234.719 527.94H236.819V537.64C236.819 539.053 236.346 540.207 235.399 541.1C234.466 542.007 233.239 542.46 231.719 542.46C229.492 542.46 227.892 541.587 226.919 539.84L228.759 539.16C229.372 540.187 230.372 540.7 231.759 540.7C232.692 540.7 233.412 540.413 233.919 539.84C234.439 539.28 234.706 538.553 234.719 537.66V536.18C233.879 537.313 232.699 537.88 231.179 537.88C229.726 537.88 228.526 537.393 227.579 536.42C226.632 535.447 226.159 534.233 226.159 532.78C226.159 531.287 226.626 530.067 227.559 529.12C228.506 528.16 229.712 527.68 231.179 527.68C232.699 527.68 233.879 528.24 234.719 529.36V527.94ZM231.499 536C232.432 536 233.212 535.693 233.839 535.08C234.466 534.467 234.779 533.7 234.779 532.78C234.779 531.86 234.466 531.1 233.839 530.5C233.212 529.887 232.432 529.58 231.499 529.58C230.539 529.58 229.752 529.88 229.139 530.48C228.526 531.08 228.219 531.847 228.219 532.78C228.219 533.713 228.526 534.487 229.139 535.1C229.752 535.7 230.539 536 231.499 536ZM247.033 527.94H249.273L243.153 542.2H240.993L242.873 537.78L238.273 527.94H240.553L243.913 535.42L247.033 527.94ZM261.44 538.26C259.88 538.26 258.54 537.853 257.42 537.04C256.3 536.227 255.54 535.227 255.14 534.04L257.2 533.42C257.52 534.273 258.06 534.973 258.82 535.52C259.593 536.067 260.507 536.34 261.56 536.34C262.493 536.34 263.253 536.12 263.84 535.68C264.44 535.24 264.74 534.733 264.74 534.16C264.74 533.693 264.567 533.3 264.22 532.98C263.887 532.66 263.32 532.373 262.52 532.12L259 531C256.907 530.347 255.86 529.207 255.86 527.58C255.86 526.527 256.32 525.627 257.24 524.88C258.16 524.12 259.313 523.74 260.7 523.74C262.127 523.74 263.353 524.073 264.38 524.74C265.42 525.393 266.153 526.22 266.58 527.22L264.56 527.82C264.227 527.167 263.72 526.647 263.04 526.26C262.373 525.86 261.593 525.66 260.7 525.66C259.927 525.66 259.287 525.847 258.78 526.22C258.287 526.58 258.04 527.013 258.04 527.52C258.04 527.92 258.18 528.253 258.46 528.52C258.74 528.773 259.193 528.993 259.82 529.18L263.26 530.28C264.473 530.667 265.387 531.14 266 531.7C266.613 532.247 266.92 533.02 266.92 534.02C266.92 535.22 266.407 536.227 265.38 537.04C264.367 537.853 263.053 538.26 261.44 538.26ZM273.581 538.26C272.154 538.26 270.961 537.76 270.001 536.76C269.054 535.747 268.581 534.48 268.581 532.96C268.581 531.453 269.054 530.2 270.001 529.2C270.961 528.187 272.154 527.68 273.581 527.68C275.154 527.68 276.361 528.273 277.201 529.46V527.94H279.281V538H277.201V536.48C276.361 537.667 275.154 538.26 273.581 538.26ZM273.921 536.38C274.854 536.38 275.641 536.06 276.281 535.42C276.921 534.767 277.241 533.947 277.241 532.96C277.241 531.987 276.921 531.18 276.281 530.54C275.641 529.887 274.854 529.56 273.921 529.56C272.961 529.56 272.174 529.88 271.561 530.52C270.947 531.16 270.641 531.973 270.641 532.96C270.641 533.947 270.947 534.767 271.561 535.42C272.174 536.06 272.961 536.38 273.921 536.38ZM289.314 527.94H291.594L287.334 538H284.994L280.734 527.94H283.014L286.154 535.72L289.314 527.94ZM295.167 525.94C294.913 526.18 294.6 526.3 294.227 526.3C293.853 526.3 293.54 526.18 293.287 525.94C293.033 525.687 292.907 525.373 292.907 525C292.907 524.653 293.033 524.353 293.287 524.1C293.54 523.847 293.853 523.72 294.227 523.72C294.6 523.72 294.913 523.847 295.167 524.1C295.42 524.353 295.547 524.653 295.547 525C295.547 525.373 295.42 525.687 295.167 525.94ZM293.167 538V527.94H295.247V538H293.167ZM303.667 527.68C304.947 527.68 305.934 528.073 306.627 528.86C307.32 529.647 307.667 530.727 307.667 532.1V538H305.587V532.48C305.587 531.587 305.374 530.893 304.947 530.4C304.534 529.893 303.92 529.64 303.107 529.64C302.227 529.64 301.52 529.947 300.987 530.56C300.467 531.173 300.207 531.987 300.207 533V538H298.107V527.94H300.207V529.44C301.034 528.267 302.187 527.68 303.667 527.68ZM318.313 527.94H320.413V537.64C320.413 539.053 319.939 540.207 318.993 541.1C318.059 542.007 316.833 542.46 315.313 542.46C313.086 542.46 311.486 541.587 310.513 539.84L312.353 539.16C312.966 540.187 313.966 540.7 315.353 540.7C316.286 540.7 317.006 540.413 317.513 539.84C318.033 539.28 318.299 538.553 318.313 537.66V536.18C317.473 537.313 316.293 537.88 314.773 537.88C313.319 537.88 312.119 537.393 311.173 536.42C310.226 535.447 309.753 534.233 309.753 532.78C309.753 531.287 310.219 530.067 311.153 529.12C312.099 528.16 313.306 527.68 314.773 527.68C316.293 527.68 317.473 528.24 318.313 529.36V527.94ZM315.093 536C316.026 536 316.806 535.693 317.433 535.08C318.059 534.467 318.373 533.7 318.373 532.78C318.373 531.86 318.059 531.1 317.433 530.5C316.806 529.887 316.026 529.58 315.093 529.58C314.133 529.58 313.346 529.88 312.733 530.48C312.119 531.08 311.813 531.847 311.813 532.78C311.813 533.713 312.119 534.487 312.733 535.1C313.346 535.7 314.133 536 315.093 536ZM327.025 538.26C325.878 538.26 324.865 537.967 323.985 537.38C323.118 536.78 322.551 536.053 322.285 535.2L324.185 534.64C324.371 535.187 324.725 535.64 325.245 536C325.778 536.36 326.391 536.54 327.085 536.54C327.711 536.54 328.218 536.407 328.605 536.14C328.991 535.873 329.185 535.553 329.185 535.18C329.185 534.873 329.085 534.633 328.885 534.46C328.685 534.273 328.351 534.113 327.885 533.98L325.185 533.18C323.585 532.7 322.785 531.84 322.785 530.6C322.785 529.8 323.158 529.113 323.905 528.54C324.651 527.967 325.558 527.68 326.625 527.68C327.678 527.68 328.591 527.913 329.365 528.38C330.138 528.847 330.678 529.46 330.985 530.22L329.125 530.76C328.925 530.36 328.605 530.027 328.165 529.76C327.725 529.493 327.205 529.36 326.605 529.36C326.098 529.36 325.678 529.487 325.345 529.74C325.011 529.98 324.845 530.26 324.845 530.58C324.845 531.02 325.205 531.353 325.925 531.58L328.605 532.36C329.431 532.6 330.078 532.927 330.545 533.34C331.011 533.74 331.245 534.327 331.245 535.1C331.245 536.007 330.845 536.76 330.045 537.36C329.258 537.96 328.251 538.26 327.025 538.26Z" fill="#01396C"/>
<defs>
<filter id="filter0_if_1153_482" x="45" y="212" width="87" height="486" filterUnits="userSpaceOnUse" color-interpolation-filters="sRGB">
<feFlood flood-opacity="0" result="BackgroundImageFix"/>
<feBlend mode="normal" in="SourceGraphic" in2="BackgroundImageFix" result="shape"/>
<feColorMatrix in="SourceAlpha" type="matrix" values="0 0 0 0 0 0 0 0 0 0 0 0 0 0 0 0 0 0 127 0" result="hardAlpha"/>
<feOffset dy="4"/>
<feGaussianBlur stdDeviation="20"/>
<feComposite in2="hardAlpha" operator="arithmetic" k2="-1" k3="1"/>
<feColorMatrix type="matrix" values="0 0 0 0 0.0215666 0 0 0 0 0.322844 0 0 0 0 0.597222 0 0 0 1 0"/>
<feBlend mode="normal" in2="shape" result="effect1_innerShadow_1153_482"/>
<feGaussianBlur stdDeviation="20" result="effect2_foregroundBlur_1153_482"/>
</filter>
<filter id="filter1_d_1153_482" x="259.302" y="241.6" width="180.731" height="129.988" filterUnits="userSpaceOnUse" color-interpolation-filters="sRGB">
<feFlood flood-opacity="0" result="BackgroundImageFix"/>
<feColorMatrix in="SourceAlpha" type="matrix" values="0 0 0 0 0 0 0 0 0 0 0 0 0 0 0 0 0 0 127 0" result="hardAlpha"/>
<feOffset/>
<feGaussianBlur stdDeviation="25"/>
<feComposite in2="hardAlpha" operator="out"/>
<feColorMatrix type="matrix" values="0 0 0 0 0 0 0 0 0 0.628056 0 0 0 0 0.897222 0 0 0 1 0"/>
<feBlend mode="normal" in2="BackgroundImageFix" result="effect1_dropShadow_1153_482"/>
<feBlend mode="normal" in="SourceGraphic" in2="effect1_dropShadow_1153_482" result="shape"/>
</filter>
<filter id="filter2_d_1153_482" x="525.756" y="356.012" width="202.277" height="130.576" filterUnits="userSpaceOnUse" color-interpolation-filters="sRGB">
<feFlood flood-opacity="0" result="BackgroundImageFix"/>
<feColorMatrix in="SourceAlpha" type="matrix" values="0 0 0 0 0 0 0 0 0 0 0 0 0 0 0 0 0 0 127 0" result="hardAlpha"/>
<feOffset/>
<feGaussianBlur stdDeviation="25"/>
<feComposite in2="hardAlpha" operator="out"/>
<feColorMatrix type="matrix" values="0 0 0 0 0 0 0 0 0 0.628056 0 0 0 0 0.897222 0 0 0 1 0"/>
<feBlend mode="normal" in2="BackgroundImageFix" result="effect1_dropShadow_1153_482"/>
<feBlend mode="normal" in="SourceGraphic" in2="effect1_dropShadow_1153_482" result="shape"/>
</filter>
<filter id="filter3_if_1153_482" x="44.9282" y="235.979" width="270.072" height="134.036" filterUnits="userSpaceOnUse" color-interpolation-filters="sRGB">
<feFlood flood-opacity="0" result="BackgroundImageFix"/>
<feBlend mode="normal" in="SourceGraphic" in2="BackgroundImageFix" result="shape"/>
<feColorMatrix in="SourceAlpha" type="matrix" values="0 0 0 0 0 0 0 0 0 0 0 0 0 0 0 0 0 0 127 0" result="hardAlpha"/>
<feOffset/>
<feGaussianBlur stdDeviation="12"/>
<feComposite in2="hardAlpha" operator="arithmetic" k2="-1" k3="1"/>
<feColorMatrix type="matrix" values="0 0 0 0 0.154854 0 0 0 0 0.777263 0 0 0 0 0.913889 0 0 0 1 0"/>
<feBlend mode="normal" in2="shape" result="effect1_innerShadow_1153_482"/>
<feGaussianBlur stdDeviation="19.5" result="effect2_foregroundBlur_1153_482"/>
</filter>
<filter id="filter4_if_1153_482" x="99.0479" y="235.979" width="214.891" height="137.3" filterUnits="userSpaceOnUse" color-interpolation-filters="sRGB">
<feFlood flood-opacity="0" result="BackgroundImageFix"/>
<feBlend mode="normal" in="SourceGraphic" in2="BackgroundImageFix" result="shape"/>
<feColorMatrix in="SourceAlpha" type="matrix" values="0 0 0 0 0 0 0 0 0 0 0 0 0 0 0 0 0 0 127 0" result="hardAlpha"/>
<feOffset/>
<feGaussianBlur stdDeviation="15"/>
<feComposite in2="hardAlpha" operator="arithmetic" k2="-1" k3="1"/>
<feColorMatrix type="matrix" values="0 0 0 0 0.105241 0 0 0 0 0.851389 0 0 0 0 0.269394 0 0 0 1 0"/>
<feBlend mode="normal" in2="shape" result="effect1_innerShadow_1153_482"/>
<feGaussianBlur stdDeviation="19.5" result="effect2_foregroundBlur_1153_482"/>
</filter>
<filter id="filter5_if_1153_482" x="226.312" y="268.788" width="55.6553" height="68.9629" filterUnits="userSpaceOnUse" color-interpolation-filters="sRGB">
<feFlood flood-opacity="0" result="BackgroundImageFix"/>
<feBlend mode="normal" in="SourceGraphic" in2="BackgroundImageFix" result="shape"/>
<feColorMatrix in="SourceAlpha" type="matrix" values="0 0 0 0 0 0 0 0 0 0 0 0 0 0 0 0 0 0 127 0" result="hardAlpha"/>
<feOffset/>
<feGaussianBlur stdDeviation="15"/>
<feComposite in2="hardAlpha" operator="arithmetic" k2="-1" k3="1"/>
<feColorMatrix type="matrix" values="0 0 0 0 0.419445 0 0 0 0 1 0 0 0 0 0.791 0 0 0 0.55 0"/>
<feBlend mode="normal" in2="shape" result="effect1_innerShadow_1153_482"/>
<feGaussianBlur stdDeviation="5" result="effect2_foregroundBlur_1153_482"/>
</filter>
<filter id="filter6_if_1153_482" x="44.9282" y="348.648" width="547.072" height="134.036" filterUnits="userSpaceOnUse" color-interpolation-filters="sRGB">
<feFlood flood-opacity="0" result="BackgroundImageFix"/>
<feBlend mode="normal" in="SourceGraphic" in2="BackgroundImageFix" result="shape"/>
<feColorMatrix in="SourceAlpha" type="matrix" values="0 0 0 0 0 0 0 0 0 0 0 0 0 0 0 0 0 0 127 0" result="hardAlpha"/>
<feOffset/>
<feGaussianBlur stdDeviation="12"/>
<feComposite in2="hardAlpha" operator="arithmetic" k2="-1" k3="1"/>
<feColorMatrix type="matrix" values="0 0 0 0 0.154854 0 0 0 0 0.777263 0 0 0 0 0.913889 0 0 0 1 0"/>
<feBlend mode="normal" in2="shape" result="effect1_innerShadow_1153_482"/>
<feGaussianBlur stdDeviation="19.5" result="effect2_foregroundBlur_1153_482"/>
</filter>
<filter id="filter7_if_1153_482" x="177.098" y="348.648" width="412.311" height="137.3" filterUnits="userSpaceOnUse" color-interpolation-filters="sRGB">
<feFlood flood-opacity="0" result="BackgroundImageFix"/>
<feBlend mode="normal" in="SourceGraphic" in2="BackgroundImageFix" result="shape"/>
<feColorMatrix in="SourceAlpha" type="matrix" values="0 0 0 0 0 0 0 0 0 0 0 0 0 0 0 0 0 0 127 0" result="hardAlpha"/>
<feOffset/>
<feGaussianBlur stdDeviation="15"/>
<feComposite in2="hardAlpha" operator="arithmetic" k2="-1" k3="1"/>
<feColorMatrix type="matrix" values="0 0 0 0 0.105241 0 0 0 0 0.851389 0 0 0 0 0.269394 0 0 0 1 0"/>
<feBlend mode="normal" in2="shape" result="effect1_innerShadow_1153_482"/>
<feGaussianBlur stdDeviation="19.5" result="effect2_foregroundBlur_1153_482"/>
</filter>
<filter id="filter8_if_1153_482" x="446.076" y="381.457" width="107.076" height="68.9629" filterUnits="userSpaceOnUse" color-interpolation-filters="sRGB">
<feFlood flood-opacity="0" result="BackgroundImageFix"/>
<feBlend mode="normal" in="SourceGraphic" in2="BackgroundImageFix" result="shape"/>
<feColorMatrix in="SourceAlpha" type="matrix" values="0 0 0 0 0 0 0 0 0 0 0 0 0 0 0 0 0 0 127 0" result="hardAlpha"/>
<feOffset/>
<feGaussianBlur stdDeviation="15"/>
<feComposite in2="hardAlpha" operator="arithmetic" k2="-1" k3="1"/>
<feColorMatrix type="matrix" values="0 0 0 0 0.419445 0 0 0 0 1 0 0 0 0 0.791 0 0 0 0.55 0"/>
<feBlend mode="normal" in2="shape" result="effect1_innerShadow_1153_482"/>
<feGaussianBlur stdDeviation="5" result="effect2_foregroundBlur_1153_482"/>
</filter>
<filter id="filter9_d_1153_482" x="361.428" y="466.6" width="180.317" height="129.988" filterUnits="userSpaceOnUse" color-interpolation-filters="sRGB">
<feFlood flood-opacity="0" result="BackgroundImageFix"/>
<feColorMatrix in="SourceAlpha" type="matrix" values="0 0 0 0 0 0 0 0 0 0 0 0 0 0 0 0 0 0 127 0" result="hardAlpha"/>
<feOffset/>
<feGaussianBlur stdDeviation="25"/>
<feComposite in2="hardAlpha" operator="out"/>
<feColorMatrix type="matrix" values="0 0 0 0 0 0 0 0 0 0.628056 0 0 0 0 0.897222 0 0 0 1 0"/>
<feBlend mode="normal" in2="BackgroundImageFix" result="effect1_dropShadow_1153_482"/>
<feBlend mode="normal" in="SourceGraphic" in2="effect1_dropShadow_1153_482" result="shape"/>
</filter>
<filter id="filter10_if_1153_482" x="44.9282" y="461.129" width="364.072" height="134.035" filterUnits="userSpaceOnUse" color-interpolation-filters="sRGB">
<feFlood flood-opacity="0" result="BackgroundImageFix"/>
<feBlend mode="normal" in="SourceGraphic" in2="BackgroundImageFix" result="shape"/>
<feColorMatrix in="SourceAlpha" type="matrix" values="0 0 0 0 0 0 0 0 0 0 0 0 0 0 0 0 0 0 127 0" result="hardAlpha"/>
<feOffset/>
<feGaussianBlur stdDeviation="12"/>
<feComposite in2="hardAlpha" operator="arithmetic" k2="-1" k3="1"/>
<feColorMatrix type="matrix" values="0 0 0 0 0.154854 0 0 0 0 0.777263 0 0 0 0 0.913889 0 0 0 1 0"/>
<feBlend mode="normal" in2="shape" result="effect1_innerShadow_1153_482"/>
<feGaussianBlur stdDeviation="19.5" result="effect2_foregroundBlur_1153_482"/>
</filter>
<filter id="filter11_if_1153_482" x="125.534" y="461.129" width="281.885" height="137.3" filterUnits="userSpaceOnUse" color-interpolation-filters="sRGB">
<feFlood flood-opacity="0" result="BackgroundImageFix"/>
<feBlend mode="normal" in="SourceGraphic" in2="BackgroundImageFix" result="shape"/>
<feColorMatrix in="SourceAlpha" type="matrix" values="0 0 0 0 0 0 0 0 0 0 0 0 0 0 0 0 0 0 127 0" result="hardAlpha"/>
<feOffset/>
<feGaussianBlur stdDeviation="15"/>
<feComposite in2="hardAlpha" operator="arithmetic" k2="-1" k3="1"/>
<feColorMatrix type="matrix" values="0 0 0 0 0.105241 0 0 0 0 0.851389 0 0 0 0 0.269394 0 0 0 1 0"/>
<feBlend mode="normal" in2="shape" result="effect1_innerShadow_1153_482"/>
<feGaussianBlur stdDeviation="19.5" result="effect2_foregroundBlur_1153_482"/>
</filter>
<filter id="filter12_if_1153_482" x="300.889" y="493.938" width="73.105" height="68.9629" filterUnits="userSpaceOnUse" color-interpolation-filters="sRGB">
<feFlood flood-opacity="0" result="BackgroundImageFix"/>
<feBlend mode="normal" in="SourceGraphic" in2="BackgroundImageFix" result="shape"/>
<feColorMatrix in="SourceAlpha" type="matrix" values="0 0 0 0 0 0 0 0 0 0 0 0 0 0 0 0 0 0 127 0" result="hardAlpha"/>
<feOffset/>
<feGaussianBlur stdDeviation="15"/>
<feComposite in2="hardAlpha" operator="arithmetic" k2="-1" k3="1"/>
<feColorMatrix type="matrix" values="0 0 0 0 0.419445 0 0 0 0 1 0 0 0 0 0.791 0 0 0 0.55 0"/>
<feBlend mode="normal" in2="shape" result="effect1_innerShadow_1153_482"/>
<feGaussianBlur stdDeviation="5" result="effect2_foregroundBlur_1153_482"/>
</filter>
</defs>
</svg>
