<svg width="726" height="720" viewBox="0 0 726 720" fill="none" xmlns="http://www.w3.org/2000/svg">
<rect width="720" height="720" fill="#01396C"/>
<rect x="81" y="216.775" width="2.11182" height="433.714" fill="#878787" fill-opacity="0.1"/>
<rect x="199.262" y="216.775" width="2.11182" height="433.714" fill="#878787" fill-opacity="0.1"/>
<rect x="317.523" y="216.775" width="2.11182" height="433.714" fill="#878787" fill-opacity="0.1"/>
<rect x="435.785" y="216.775" width="2.11182" height="433.714" fill="#878787" fill-opacity="0.1"/>
<rect x="554.047" y="216.775" width="2.11182" height="433.714" fill="#878787" fill-opacity="0.1"/>
<rect x="120.421" y="216.775" width="2.11182" height="433.714" fill="#878787" fill-opacity="0.1"/>
<rect x="238.682" y="216.775" width="2.11182" height="433.714" fill="#878787" fill-opacity="0.1"/>
<rect x="356.944" y="216.775" width="2.11182" height="433.714" fill="#878787" fill-opacity="0.1"/>
<rect x="475.206" y="216.775" width="2.11182" height="433.714" fill="#878787" fill-opacity="0.1"/>
<rect x="593.468" y="216.775" width="2.11182" height="433.714" fill="#878787" fill-opacity="0.1"/>
<rect x="159.841" y="216.775" width="2.11182" height="433.714" fill="#878787" fill-opacity="0.1"/>
<rect x="278.103" y="216.775" width="2.11182" height="433.714" fill="#878787" fill-opacity="0.1"/>
<rect x="396.365" y="216.775" width="2.11182" height="433.714" fill="#878787" fill-opacity="0.1"/>
<rect x="514.626" y="216.775" width="2.11182" height="433.714" fill="#878787" fill-opacity="0.1"/>
<rect x="632.888" y="216.775" width="2.11182" height="433.714" fill="#878787" fill-opacity="0.1"/>
<g filter="url(#filter0_if_1153_483)">
<rect x="85" y="252" width="7" height="406" fill="#D9D9D9"/>
</g>
<rect x="81" y="238" width="4" height="382" fill="white" fill-opacity="0.8"/>
<g filter="url(#filter1_d_1153_483)">
<path d="M332.864 310.206V315.288H329.21V321H323.456V315.288H309.26V311.088L319.382 291.6H325.598L316.022 310.206H323.456V304.2H329.21V310.206H332.864ZM339.092 321.336C338.112 321.336 337.286 321 336.614 320.328C335.97 319.656 335.648 318.844 335.648 317.892C335.648 316.996 335.984 316.226 336.656 315.582C337.328 314.938 338.14 314.616 339.092 314.616C340.044 314.616 340.842 314.938 341.486 315.582C342.158 316.226 342.494 316.996 342.494 317.892C342.494 318.844 342.158 319.656 341.486 320.328C340.842 321 340.044 321.336 339.092 321.336ZM344.438 291.6H365.564V295.59L354.434 321H348.302L358.97 296.808H344.438V291.6ZM388.884 321H382.542L377.544 314.238L372.546 321H366.246L374.184 310.248L366.582 299.748H372.882L377.544 306.174L382.248 299.748H388.506L380.946 310.248L388.884 321Z" fill="white"/>
</g>
<g filter="url(#filter2_d_1153_483)">
<path d="M584.66 406.6H589.574V436H583.736V413.026L577.142 416.092L575.756 411.178L584.66 406.6ZM603.215 430.792H615.689V436H594.437V432.052L605.903 421.258C607.135 420.11 608.045 419.116 608.633 418.276C609.221 417.436 609.515 416.526 609.515 415.546C609.515 414.202 609.109 413.138 608.297 412.354C607.485 411.57 606.351 411.178 604.895 411.178C603.551 411.178 602.389 411.626 601.409 412.522C600.457 413.39 599.827 414.552 599.519 416.008L594.353 414.538C594.661 412.214 595.767 410.212 597.671 408.532C599.603 406.852 601.969 406.012 604.769 406.012C607.905 406.012 610.425 406.824 612.329 408.448C614.261 410.072 615.227 412.34 615.227 415.252C615.227 416.988 614.793 418.57 613.925 419.998C613.057 421.398 611.699 422.952 609.851 424.66L603.215 430.792ZM623.236 436.336C622.256 436.336 621.43 436 620.758 435.328C620.114 434.656 619.792 433.844 619.792 432.892C619.792 431.996 620.128 431.226 620.8 430.582C621.472 429.938 622.284 429.616 623.236 429.616C624.188 429.616 624.986 429.938 625.63 430.582C626.302 431.226 626.638 431.996 626.638 432.892C626.638 433.844 626.302 434.656 625.63 435.328C624.986 436 624.188 436.336 623.236 436.336ZM642.091 416.848C644.919 416.848 647.257 417.772 649.105 419.62C650.953 421.468 651.877 423.778 651.877 426.55C651.877 429.378 650.869 431.758 648.853 433.69C646.837 435.622 644.303 436.588 641.251 436.588C638.171 436.588 635.679 435.818 633.775 434.278C631.871 432.71 630.597 430.778 629.953 428.482L635.119 427.054C635.567 428.37 636.295 429.448 637.303 430.288C638.339 431.128 639.543 431.548 640.915 431.548C642.567 431.548 643.883 431.072 644.863 430.12C645.843 429.14 646.333 427.922 646.333 426.466C646.333 425.01 645.843 423.806 644.863 422.854C643.911 421.902 642.581 421.426 640.873 421.426C638.885 421.426 637.149 421.986 635.665 423.106L631.129 421.72L632.389 406.6H650.491V411.766H637.513L637.051 417.856C638.535 417.184 640.215 416.848 642.091 416.848ZM675.859 436H669.517L664.519 429.238L659.521 436H653.221L661.159 425.248L653.557 414.748H659.857L664.519 421.174L669.223 414.748H675.481L667.921 425.248L675.859 436Z" fill="white"/>
</g>
<rect x="84.1404" y="274.979" width="188.676" height="59.2997" fill="#D9D9D9"/>
<g filter="url(#filter3_if_1153_483)">
<path d="M267.826 326.412V283.562L125.913 289.367L83.9282 279.271L276 274.979L274.24 331.015L128.337 326.412H267.826Z" fill="#7D4E4E" fill-opacity="0.02"/>
</g>
<g filter="url(#filter4_if_1153_483)">
<path d="M274.825 280.652L199.456 276.316L274.939 274.979L274.825 280.652L273.85 329.092L273.745 334.279L138.048 329.092H273.85L274.825 280.652Z" fill="#607D4E" fill-opacity="0.02"/>
</g>
<g filter="url(#filter5_if_1153_483)">
<path d="M271.968 278.788H236.312L268.203 285.603L271.968 327.751V278.788Z" fill="#446EDA" fill-opacity="0.1"/>
</g>
<rect x="84.4465" y="387.648" width="460.779" height="59.2997" fill="#D9D9D9"/>
<g filter="url(#filter6_if_1153_483)">
<path d="M533.037 439.081V396.23L186.462 402.036L83.9282 391.939L553 387.648L548.703 443.684L192.383 439.081H533.037Z" fill="#7D4E4E" fill-opacity="0.02"/>
</g>
<g filter="url(#filter7_if_1153_483)">
<path d="M550.13 393.321L366.066 388.985L550.409 387.648L550.13 393.321L547.749 441.761L547.494 446.948L216.098 441.761H547.749L550.13 393.321Z" fill="#607D4E" fill-opacity="0.02"/>
</g>
<g filter="url(#filter8_if_1153_483)">
<path d="M543.152 391.457H456.076L533.958 398.271L543.152 440.42V391.457Z" fill="#446EDA" fill-opacity="0.1"/>
</g>
<g filter="url(#filter9_d_1153_483)">
<path d="M454.152 529.998C457.54 531.51 459.234 534.016 459.234 537.516C459.234 540.092 458.184 542.248 456.084 543.984C453.984 545.72 451.24 546.588 447.852 546.588C444.464 546.588 441.72 545.734 439.62 544.026C437.52 542.29 436.47 540.12 436.47 537.516C436.47 533.988 438.164 531.482 441.552 529.998C439.004 528.71 437.73 526.666 437.73 523.866C437.73 521.654 438.654 519.792 440.502 518.28C442.35 516.768 444.8 516.012 447.852 516.012C450.876 516.012 453.312 516.768 455.16 518.28C457.036 519.792 457.974 521.654 457.974 523.866C457.974 526.666 456.7 528.71 454.152 529.998ZM447.852 520.59C446.452 520.59 445.346 520.954 444.534 521.682C443.722 522.41 443.316 523.306 443.316 524.37C443.316 525.434 443.722 526.33 444.534 527.058C445.346 527.786 446.452 528.15 447.852 528.15C449.224 528.15 450.316 527.786 451.128 527.058C451.968 526.33 452.388 525.434 452.388 524.37C452.388 523.306 451.968 522.41 451.128 521.682C450.316 520.954 449.224 520.59 447.852 520.59ZM443.778 540.414C444.786 541.282 446.144 541.716 447.852 541.716C449.56 541.716 450.918 541.282 451.926 540.414C452.934 539.518 453.438 538.398 453.438 537.054C453.438 535.71 452.934 534.604 451.926 533.736C450.918 532.84 449.56 532.392 447.852 532.392C446.116 532.392 444.744 532.826 443.736 533.694C442.756 534.562 442.266 535.682 442.266 537.054C442.266 538.398 442.77 539.518 443.778 540.414ZM483.523 546H477.181L472.183 539.238L467.185 546H460.885L468.823 535.248L461.221 524.748H467.521L472.183 531.174L476.887 524.748H483.145L475.585 535.248L483.523 546Z" fill="white"/>
</g>
<rect x="84.2961" y="500.129" width="327.183" height="59.2997" fill="#D9D9D9"/>
<g filter="url(#filter10_if_1153_483)">
<path d="M402.825 551.562V508.711L156.734 514.516L83.9282 504.42L417 500.129L413.949 556.164L160.938 551.562H402.825Z" fill="#7D4E4E" fill-opacity="0.02"/>
</g>
<g filter="url(#filter11_if_1153_483)">
<path d="M414.962 505.801L284.265 501.466L415.16 500.129L414.962 505.801L413.271 554.241L413.09 559.429L177.777 554.241H413.271L414.962 505.801Z" fill="#607D4E" fill-opacity="0.02"/>
</g>
<g filter="url(#filter12_if_1153_483)">
<path d="M410.007 503.938H348.177L403.479 510.752L410.007 552.901V503.938Z" fill="#446EDA" fill-opacity="0.1"/>
</g>
<path d="M98.2692 83.0337C99.9733 83.8016 101.313 84.8896 102.288 86.2975C103.262 87.6734 103.759 89.2893 103.779 91.1452C103.809 94.0571 102.81 96.3769 100.78 98.1048C98.7821 99.8007 96.0071 100.649 92.4551 100.649H75.5111L75.1565 67.0506H91.1885C94.4845 67.0506 97.1493 67.8825 99.1828 69.5464C101.248 71.2103 102.311 73.3702 102.371 76.0261C102.405 79.1939 101.037 81.5298 98.2692 83.0337ZM91.2003 72.7143H81.6483L81.7359 81.0178H91.4319C92.7759 81.0178 93.8597 80.6178 94.6832 79.8179C95.5384 78.9859 95.9438 77.978 95.8993 76.794C95.8868 75.6101 95.4445 74.6341 94.5724 73.8662C93.7 73.0662 92.5759 72.6823 91.2003 72.7143ZM92.3468 94.937C93.8508 94.937 95.0464 94.521 95.9336 93.6891C96.8208 92.8571 97.2577 91.8012 97.2442 90.5213C97.231 89.2733 96.7722 88.2494 95.8678 87.4494C94.995 86.6175 93.8066 86.2015 92.3026 86.2015H81.7906L81.8828 94.937H92.3468ZM133.222 73.0022H114.886L114.967 80.6818H130.855L130.915 86.4415H115.027L115.115 94.697H133.403L133.465 100.649H108.745L108.391 67.0506H133.159L133.222 73.0022ZM160.104 100.649L152.348 88.8894H145.196L145.32 100.649H138.792L138.438 67.0506H154.806C158.262 67.0506 161.058 68.1705 163.193 70.4104C165.328 72.6183 166.411 75.1461 166.441 77.994C166.465 80.2658 165.831 82.3457 164.539 84.2336C163.279 86.0895 161.501 87.4174 159.205 88.2174L167.688 100.649H160.104ZM145.028 72.9542L145.135 83.1297H154.543C156.207 83.1297 157.546 82.6337 158.56 81.6418C159.573 80.6498 160.072 79.4339 160.057 77.994C160.043 76.618 159.518 75.4341 158.484 74.4422C157.481 73.4502 156.212 72.9542 154.676 72.9542H145.028ZM198.549 67.0506L198.612 73.0022H187.332L187.623 100.649H181.047L180.756 73.0022H169.476L169.413 67.0506H198.549ZM83.5649 156.542H78.9209C76.1128 151.982 74.6771 146.702 74.6138 140.702C74.5502 134.679 75.8745 129.399 78.5866 124.863H83.2306C80.519 129.447 79.1947 134.727 79.2578 140.702C79.3203 146.63 80.756 151.91 83.5649 156.542ZM91.2979 147.11H103.862L103.91 151.646H86.4138L86.1478 126.447H91.0798L91.2979 147.11ZM114.553 152.15C112.009 152.15 109.863 151.238 108.116 149.414C106.369 147.566 105.481 145.274 105.452 142.538C105.423 139.779 106.262 137.487 107.971 135.663C109.68 133.839 111.806 132.927 114.35 132.927C116.846 132.927 118.812 133.827 120.247 135.627L120.224 133.431H125.012L125.204 151.646H120.416L120.392 149.414C118.995 151.238 117.049 152.15 114.553 152.15ZM115.336 147.902C116.8 147.902 118.019 147.398 118.992 146.39C119.989 145.358 120.48 144.062 120.463 142.502C120.447 140.966 119.93 139.695 118.911 138.687C117.916 137.679 116.687 137.175 115.223 137.175C113.735 137.175 112.516 137.679 111.567 138.687C110.617 139.671 110.151 140.942 110.167 142.502C110.184 144.086 110.678 145.382 111.648 146.39C112.619 147.398 113.848 147.902 115.336 147.902ZM140.289 132.927C142.617 132.927 144.401 133.647 145.64 135.087C146.879 136.527 147.512 138.495 147.538 140.99L147.651 151.646H142.899L142.796 141.89C142.781 140.474 142.433 139.371 141.753 138.579C141.096 137.763 140.132 137.355 138.86 137.355C137.54 137.355 136.477 137.835 135.671 138.795C134.889 139.755 134.507 141.038 134.524 142.646L134.619 151.646H129.867L129.675 133.431H134.427L134.451 135.735C135.895 133.863 137.841 132.927 140.289 132.927ZM165.608 133.431H170.36L170.545 150.998C170.572 153.566 169.73 155.654 168.019 157.262C166.308 158.893 164.049 159.709 161.241 159.709C157.137 159.709 154.192 158.114 152.407 154.922L156.531 153.446C157.531 155.006 159.124 155.786 161.308 155.786C162.748 155.786 163.847 155.342 164.606 154.454C165.388 153.566 165.784 152.414 165.793 150.998L165.77 148.802C164.372 150.554 162.462 151.43 160.038 151.43C157.446 151.43 155.288 150.542 153.566 148.766C151.843 146.99 150.968 144.794 150.94 142.178C150.911 139.467 151.728 137.247 153.39 135.519C155.076 133.791 157.226 132.927 159.842 132.927C162.266 132.927 164.196 133.803 165.63 135.555L165.608 133.431ZM160.82 147.146C162.284 147.146 163.48 146.69 164.406 145.778C165.356 144.842 165.823 143.642 165.808 142.178C165.793 140.714 165.3 139.527 164.33 138.615C163.385 137.679 162.18 137.211 160.716 137.211C159.204 137.211 157.973 137.679 157.022 138.615C156.096 139.527 155.641 140.714 155.656 142.178C155.671 143.642 156.152 144.842 157.098 145.778C158.068 146.69 159.308 147.146 160.82 147.146ZM187.878 133.431H192.63L192.822 151.646H188.07L188.046 149.342C186.65 151.214 184.716 152.15 182.244 152.15C179.892 152.15 178.096 151.43 176.857 149.99C175.618 148.55 174.985 146.57 174.958 144.05L174.846 133.431H179.598L179.701 143.15C179.716 144.566 180.052 145.682 180.708 146.498C181.389 147.314 182.365 147.722 183.637 147.722C184.981 147.722 186.044 147.242 186.826 146.282C187.608 145.322 187.99 144.026 187.973 142.394L187.878 133.431ZM205.397 152.15C202.853 152.15 200.707 151.238 198.96 149.414C197.212 147.566 196.324 145.274 196.295 142.538C196.266 139.779 197.106 137.487 198.815 135.663C200.524 133.839 202.65 132.927 205.194 132.927C207.69 132.927 209.655 133.827 211.09 135.627L211.067 133.431H215.855L216.048 151.646H211.26L211.236 149.414C209.839 151.238 207.893 152.15 205.397 152.15ZM206.18 147.902C207.644 147.902 208.863 147.398 209.836 146.39C210.833 145.358 211.323 144.062 211.307 142.502C211.291 140.966 210.773 139.695 209.755 138.687C208.76 137.679 207.531 137.175 206.067 137.175C204.579 137.175 203.36 137.679 202.411 138.687C201.461 139.671 200.995 140.942 201.011 142.502C201.028 144.086 201.521 145.382 202.492 146.39C203.463 147.398 204.692 147.902 206.18 147.902ZM234.162 133.431H238.914L239.1 150.998C239.127 153.566 238.285 155.654 236.574 157.262C234.863 158.893 232.604 159.709 229.796 159.709C225.692 159.709 222.747 158.114 220.961 154.922L225.086 153.446C226.086 155.006 227.678 155.786 229.862 155.786C231.302 155.786 232.402 155.342 233.16 154.454C233.943 153.566 234.339 152.414 234.348 150.998L234.325 148.802C232.927 150.554 231.016 151.43 228.592 151.43C226 151.43 223.843 150.542 222.12 148.766C220.398 146.99 219.522 144.794 219.495 142.178C219.466 139.467 220.283 137.247 221.944 135.519C223.63 133.791 225.781 132.927 228.397 132.927C230.821 132.927 232.75 133.803 234.185 135.555L234.162 133.431ZM229.375 147.146C230.839 147.146 232.034 146.69 232.961 145.778C233.911 144.842 234.378 143.642 234.363 142.178C234.347 140.714 233.855 139.527 232.885 138.615C231.939 137.679 230.734 137.211 229.27 137.211C227.758 137.211 226.527 137.679 225.577 138.615C224.651 139.527 224.195 140.714 224.211 142.178C224.226 143.642 224.707 144.842 225.653 145.778C226.622 146.69 227.863 147.146 229.375 147.146ZM252.562 152.15C249.634 152.15 247.237 151.274 245.371 149.522C243.528 147.746 242.591 145.418 242.561 142.538C242.532 139.779 243.384 137.487 245.116 135.663C246.873 133.839 249.168 132.927 252 132.927C254.904 132.927 257.205 133.815 258.904 135.591C260.602 137.367 261.466 139.599 261.494 142.286C261.502 143.03 261.472 143.594 261.404 143.978H247.256C247.437 145.226 247.976 146.234 248.872 147.002C249.768 147.746 251.008 148.118 252.592 148.118C254.704 148.118 256.171 147.314 256.994 145.706L261.292 146.966C260.706 148.334 259.651 149.546 258.126 150.602C256.625 151.634 254.77 152.15 252.562 152.15ZM247.225 140.99H256.837C256.705 139.839 256.202 138.879 255.33 138.111C254.482 137.343 253.374 136.959 252.006 136.959C250.686 136.959 249.586 137.355 248.707 138.147C247.851 138.939 247.357 139.887 247.225 140.99ZM286.252 152.15C282.46 152.15 279.291 150.902 276.744 148.406C274.198 145.886 272.905 142.754 272.865 139.011C272.826 135.291 274.041 132.183 276.511 129.687C279.005 127.191 282.123 125.943 285.867 125.943C289.059 125.943 291.732 126.759 293.885 128.391C296.062 129.999 297.486 131.907 298.158 134.115L293.346 135.303C292.9 133.983 292.012 132.867 290.683 131.955C289.353 131.043 287.776 130.587 285.952 130.587C283.528 130.587 281.569 131.403 280.074 133.035C278.603 134.667 277.88 136.647 277.905 138.975C277.93 141.326 278.707 143.342 280.237 145.022C281.766 146.678 283.731 147.506 286.131 147.506C287.955 147.506 289.522 147.062 290.833 146.174C292.143 145.262 293.008 144.146 293.426 142.826L298.227 144.05C297.626 146.258 296.254 148.166 294.111 149.774C291.992 151.358 289.372 152.15 286.252 152.15ZM301.957 151.646L301.679 125.367H306.431L306.709 151.646H301.957ZM319.268 152.15C316.724 152.15 314.578 151.238 312.831 149.414C311.084 147.566 310.195 145.274 310.167 142.538C310.137 139.779 310.977 137.487 312.686 135.663C314.395 133.839 316.521 132.927 319.065 132.927C321.561 132.927 323.527 133.827 324.962 135.627L324.938 133.431H329.726L329.919 151.646H325.131L325.107 149.414C323.71 151.238 321.764 152.15 319.268 152.15ZM320.051 147.902C321.515 147.902 322.734 147.398 323.707 146.39C324.704 145.358 325.195 144.062 325.178 142.502C325.162 140.966 324.644 139.695 323.626 138.687C322.631 137.679 321.402 137.175 319.938 137.175C318.45 137.175 317.231 137.679 316.282 138.687C315.332 139.671 314.866 140.942 314.882 142.502C314.899 144.086 315.393 145.382 316.363 146.39C317.334 147.398 318.563 147.902 320.051 147.902ZM341.751 152.15C339.591 152.15 337.689 151.598 336.046 150.494C334.402 149.39 333.332 148.07 332.836 146.534L337.106 145.274C337.428 146.162 338.012 146.894 338.858 147.47C339.703 148.022 340.714 148.298 341.89 148.298C342.778 148.298 343.497 148.118 344.045 147.758C344.617 147.398 344.9 146.954 344.895 146.426C344.886 145.634 344.208 145.034 342.86 144.626L338.201 143.258C335.192 142.394 333.675 140.774 333.65 138.399C333.634 136.887 334.328 135.603 335.733 134.547C337.162 133.467 338.884 132.927 340.9 132.927C342.82 132.927 344.505 133.347 345.953 134.187C347.402 135.027 348.422 136.143 349.013 137.535L344.814 138.759C344.007 137.343 342.703 136.635 340.903 136.635C340.183 136.635 339.573 136.803 339.073 137.139C338.572 137.475 338.324 137.859 338.329 138.291C338.336 138.963 338.845 139.443 339.856 139.731L344.406 141.026C346.043 141.506 347.309 142.118 348.205 142.862C349.101 143.606 349.557 144.722 349.572 146.21C349.591 147.938 348.862 149.366 347.386 150.494C345.933 151.598 344.055 152.15 341.751 152.15ZM360.067 152.15C357.907 152.15 356.006 151.598 354.362 150.494C352.718 149.39 351.648 148.07 351.152 146.534L355.423 145.274C355.744 146.162 356.328 146.894 357.174 147.47C358.02 148.022 359.031 148.298 360.207 148.298C361.095 148.298 361.813 148.118 362.361 147.758C362.933 147.398 363.217 146.954 363.211 146.426C363.203 145.634 362.524 145.034 361.176 144.626L356.518 143.258C353.509 142.394 351.991 140.774 351.966 138.399C351.95 136.887 352.645 135.603 354.05 134.547C355.478 133.467 357.201 132.927 359.217 132.927C361.137 132.927 362.821 133.347 364.27 134.187C365.719 135.027 366.739 136.143 367.329 137.535L363.13 138.759C362.323 137.343 361.02 136.635 359.22 136.635C358.5 136.635 357.89 136.803 357.389 137.139C356.889 137.475 356.641 137.859 356.645 138.291C356.652 138.963 357.161 139.443 358.172 139.731L362.722 141.026C364.359 141.506 365.626 142.118 366.521 142.862C367.417 143.606 367.873 144.722 367.889 146.21C367.907 147.938 367.178 149.366 365.702 150.494C364.25 151.598 362.371 152.15 360.067 152.15ZM375.767 130.083C375.22 130.611 374.551 130.875 373.759 130.875C372.967 130.875 372.292 130.611 371.735 130.083C371.177 129.531 370.894 128.859 370.885 128.067C370.877 127.299 371.146 126.651 371.693 126.123C372.239 125.595 372.908 125.331 373.7 125.331C374.492 125.331 375.167 125.595 375.725 126.123C376.282 126.651 376.565 127.299 376.573 128.067C376.582 128.859 376.313 129.531 375.767 130.083ZM371.53 151.646L371.338 133.431H376.126L376.318 151.646H371.53ZM399.334 133.431L399.526 151.646H394.738L394.59 137.607H387.498L387.646 151.646H382.894L382.746 137.607H379.254L379.21 133.431H382.702L382.685 131.775C382.662 129.615 383.256 127.923 384.467 126.699C385.702 125.475 387.508 124.863 389.884 124.863C392.38 124.863 394.51 125.427 396.274 126.555L395.162 130.371C393.592 129.459 392.015 129.003 390.431 129.003C389.543 129.003 388.814 129.255 388.243 129.759C387.697 130.263 387.428 130.935 387.437 131.775L387.454 133.431H399.334ZM412.307 152.15C409.523 152.15 407.198 151.226 405.33 149.378C403.487 147.53 402.55 145.238 402.522 142.502C402.493 139.767 403.381 137.487 405.185 135.663C407.014 133.839 409.309 132.927 412.069 132.927C414.397 132.927 416.359 133.539 417.956 134.763C419.577 135.987 420.599 137.367 421.024 138.903L416.609 140.163C416.384 139.347 415.861 138.639 415.038 138.039C414.216 137.439 413.241 137.139 412.113 137.139C410.649 137.139 409.455 137.667 408.53 138.723C407.629 139.755 407.186 141.014 407.202 142.502C407.217 143.966 407.686 145.238 408.61 146.318C409.557 147.374 410.763 147.902 412.227 147.902C413.355 147.902 414.324 147.614 415.133 147.038C415.943 146.462 416.452 145.778 416.66 144.986L421.101 146.21C420.709 147.77 419.728 149.15 418.156 150.35C416.585 151.55 414.635 152.15 412.307 152.15ZM432.506 152.15C429.962 152.15 427.817 151.238 426.069 149.414C424.322 147.566 423.434 145.274 423.405 142.538C423.376 139.779 424.215 137.487 425.924 135.663C427.633 133.839 429.759 132.927 432.303 132.927C434.799 132.927 436.765 133.827 438.2 135.627L438.177 133.431H442.965L443.157 151.646H438.369L438.345 149.414C436.949 151.238 435.002 152.15 432.506 152.15ZM433.289 147.902C434.753 147.902 435.972 147.398 436.945 146.39C437.943 145.358 438.433 144.062 438.416 142.502C438.4 140.966 437.883 139.695 436.864 138.687C435.869 137.679 434.64 137.175 433.176 137.175C431.688 137.175 430.469 137.679 429.52 138.687C428.571 139.671 428.104 140.942 428.12 142.502C428.137 144.086 428.631 145.382 429.601 146.39C430.572 147.398 431.801 147.902 433.289 147.902ZM458.177 147.218L459.37 151.07C457.936 151.646 456.523 151.934 455.131 151.934C453.115 151.934 451.585 151.358 450.541 150.206C449.521 149.054 449 147.458 448.978 145.418L448.896 137.607H445.836L445.792 133.431H448.852L448.789 127.527H453.577L453.64 133.431H458.968L459.012 137.607H453.684L453.766 145.418C453.783 146.954 454.535 147.722 456.023 147.722C456.791 147.722 457.509 147.554 458.177 147.218ZM466.856 130.083C466.31 130.611 465.641 130.875 464.849 130.875C464.057 130.875 463.382 130.611 462.824 130.083C462.267 129.531 461.983 128.859 461.975 128.067C461.967 127.299 462.236 126.651 462.783 126.123C463.329 125.595 463.998 125.331 464.79 125.331C465.582 125.331 466.257 125.595 466.815 126.123C467.372 126.651 467.655 127.299 467.663 128.067C467.671 128.859 467.403 129.531 466.856 130.083ZM462.62 151.646L462.428 133.431H467.216L467.408 151.646H462.62ZM480.793 152.15C477.985 152.15 475.648 151.238 473.781 149.414C471.913 147.566 470.965 145.274 470.936 142.538C470.907 139.803 471.807 137.523 473.636 135.699C475.464 133.851 477.783 132.927 480.591 132.927C483.399 132.927 485.724 133.851 487.568 135.699C489.435 137.523 490.383 139.803 490.412 142.538C490.441 145.274 489.541 147.566 487.713 149.414C485.884 151.238 483.577 152.15 480.793 152.15ZM477.024 146.354C477.995 147.338 479.236 147.83 480.748 147.83C482.26 147.83 483.479 147.338 484.404 146.354C485.354 145.346 485.82 144.074 485.804 142.538C485.788 141.002 485.295 139.743 484.324 138.759C483.378 137.751 482.148 137.247 480.636 137.247C479.124 137.247 477.894 137.751 476.944 138.759C476.019 139.743 475.564 141.002 475.58 142.538C475.596 144.074 476.078 145.346 477.024 146.354ZM504.543 132.927C506.871 132.927 508.655 133.647 509.894 135.087C511.133 136.527 511.766 138.495 511.792 140.99L511.905 151.646H507.153L507.05 141.89C507.035 140.474 506.687 139.371 506.007 138.579C505.35 137.763 504.386 137.355 503.114 137.355C501.794 137.355 500.731 137.835 499.925 138.795C499.143 139.755 498.761 141.038 498.778 142.646L498.873 151.646H494.121L493.929 133.431H498.681L498.705 135.735C500.149 133.863 502.095 132.927 504.543 132.927ZM514.698 156.542C517.409 151.91 518.733 146.63 518.67 140.702C518.607 134.727 517.172 129.447 514.363 124.863H519.007C521.863 129.399 523.299 134.679 523.314 140.702C523.378 146.75 522.054 152.03 519.342 156.542H514.698Z" fill="white"/>
<path d="M91.7629 186.2L91.7811 187.952H85.5891L85.7457 202.999H83.8257L83.6691 187.952H77.4531L77.4349 186.2H91.7629ZM97.0422 203.311C95.1862 203.311 93.6602 202.735 92.4642 201.583C91.2843 200.431 90.6844 198.903 90.6646 196.999C90.6459 195.207 91.1984 193.719 92.3221 192.535C93.4456 191.335 94.9034 190.735 96.6954 190.735C98.5514 190.735 100.021 191.303 101.105 192.439C102.189 193.575 102.74 195.007 102.758 196.735C102.762 197.103 102.749 197.391 102.719 197.599H92.4948C92.5874 198.815 93.0377 199.799 93.8455 200.551C94.6533 201.303 95.7132 201.679 97.0252 201.679C98.0012 201.679 98.823 201.463 99.4905 201.031C100.158 200.583 100.648 200.023 100.961 199.351L102.67 199.855C102.232 200.831 101.537 201.655 100.584 202.327C99.6308 202.983 98.4502 203.311 97.0422 203.311ZM92.4806 196.231L100.928 196.207C100.836 195.055 100.419 194.127 99.6754 193.423C98.932 192.719 97.9444 192.367 96.7124 192.367C95.5284 192.367 94.5403 192.743 93.7481 193.495C92.9719 194.247 92.5494 195.159 92.4806 196.231ZM110.046 203.311C108.718 203.311 107.539 202.967 106.508 202.279C105.492 201.575 104.827 200.711 104.513 199.687L106.236 199.207C106.467 199.927 106.93 200.527 107.623 201.007C108.331 201.471 109.15 201.703 110.078 201.703C110.958 201.703 111.676 201.511 112.232 201.127C112.788 200.743 113.063 200.279 113.057 199.735C113.052 199.271 112.913 198.919 112.638 198.679C112.364 198.423 111.913 198.199 111.287 198.007L107.869 196.999C106.007 196.455 105.069 195.487 105.055 194.095C105.045 193.183 105.461 192.399 106.302 191.743C107.143 191.071 108.18 190.735 109.412 190.735C110.644 190.735 111.703 191.015 112.588 191.575C113.49 192.135 114.13 192.847 114.507 193.711L112.832 194.215C112.602 193.671 112.181 193.215 111.57 192.847C110.958 192.479 110.236 192.295 109.404 192.295C108.652 192.295 108.038 192.479 107.562 192.847C107.101 193.215 106.874 193.623 106.878 194.071C106.885 194.711 107.426 195.191 108.501 195.511L111.92 196.519C112.835 196.791 113.551 197.167 114.068 197.647C114.6 198.111 114.871 198.775 114.88 199.639C114.891 200.695 114.436 201.575 113.516 202.279C112.611 202.967 111.454 203.311 110.046 203.311ZM124.207 201.055L124.727 202.639C123.915 202.991 123.085 203.167 122.237 203.167C121.069 203.167 120.185 202.831 119.586 202.159C119.003 201.471 118.706 200.535 118.693 199.351L118.624 192.703H116.248L116.231 191.023H118.607L118.564 186.896H120.412L120.455 191.023H124.559L124.576 192.703H120.472L120.541 199.351C120.556 200.759 121.211 201.463 122.507 201.463C123.099 201.463 123.666 201.327 124.207 201.055ZM132.269 203.311C130.413 203.311 128.887 202.735 127.691 201.583C126.511 200.431 125.911 198.903 125.891 196.999C125.872 195.207 126.425 193.719 127.549 192.535C128.672 191.335 130.13 190.735 131.922 190.735C133.778 190.735 135.248 191.303 136.332 192.439C137.416 193.575 137.966 195.007 137.984 196.735C137.988 197.103 137.975 197.391 137.945 197.599H127.721C127.814 198.815 128.264 199.799 129.072 200.551C129.88 201.303 130.94 201.679 132.252 201.679C133.228 201.679 134.05 201.463 134.717 201.031C135.384 200.583 135.875 200.023 136.188 199.351L137.897 199.855C137.459 200.831 136.764 201.655 135.811 202.327C134.857 202.983 133.677 203.311 132.269 203.311ZM127.707 196.231L136.155 196.207C136.063 195.055 135.645 194.127 134.902 193.423C134.159 192.719 133.171 192.367 131.939 192.367C130.755 192.367 129.767 192.743 128.975 193.495C128.198 194.247 127.776 195.159 127.707 196.231ZM150.704 185.48H152.552L152.734 202.999H150.886L150.863 200.815C149.84 202.479 148.273 203.311 146.161 203.311C144.433 203.311 142.987 202.711 141.822 201.511C140.658 200.311 140.066 198.807 140.047 196.999C140.029 195.207 140.589 193.719 141.729 192.535C142.868 191.335 144.302 190.735 146.03 190.735C148.126 190.735 149.711 191.551 150.784 193.183L150.704 185.48ZM146.408 201.631C147.656 201.631 148.715 201.191 149.586 200.311C150.457 199.431 150.885 198.335 150.872 197.023C150.858 195.711 150.407 194.615 149.517 193.735C148.628 192.855 147.56 192.415 146.312 192.415C145 192.415 143.924 192.847 143.085 193.711C142.262 194.575 141.858 195.679 141.872 197.023C141.885 198.351 142.313 199.455 143.154 200.335C144.011 201.199 145.096 201.631 146.408 201.631ZM172.599 201.511C171.411 202.711 169.913 203.311 168.105 203.311C166.297 203.311 164.779 202.711 163.551 201.511C162.338 200.295 161.722 198.791 161.704 196.999C161.685 195.207 162.27 193.719 163.457 192.535C164.661 191.335 166.166 190.735 167.974 190.735C169.782 190.735 171.293 191.335 172.505 192.535C173.718 193.719 174.333 195.207 174.352 196.999C174.37 198.791 173.786 200.295 172.599 201.511ZM168.088 201.607C169.368 201.607 170.427 201.175 171.266 200.311C172.121 199.431 172.542 198.335 172.528 197.023C172.514 195.711 172.071 194.615 171.198 193.735C170.341 192.855 169.272 192.415 167.992 192.415C166.696 192.415 165.621 192.855 164.766 193.735C163.911 194.615 163.49 195.711 163.504 197.023C163.518 198.335 163.961 199.431 164.834 200.311C165.707 201.175 166.792 201.607 168.088 201.607ZM183.413 190.735C184.901 190.735 186.074 191.199 186.932 192.127C187.805 193.055 188.251 194.335 188.268 195.967L188.341 202.999H186.493L186.422 196.231C186.41 195.047 186.104 194.127 185.506 193.471C184.923 192.799 184.095 192.463 183.023 192.463C181.823 192.463 180.852 192.879 180.108 193.711C179.381 194.543 179.024 195.631 179.038 196.975L179.101 202.999H177.253L177.128 191.023H178.976L178.998 193.135C179.439 192.415 180.033 191.839 180.78 191.407C181.544 190.959 182.421 190.735 183.413 190.735ZM214.317 194.095L214.328 195.127C214.338 197.655 213.567 199.655 212.014 201.127C210.462 202.583 208.469 203.311 206.037 203.311C203.541 203.311 201.444 202.479 199.747 200.815C198.05 199.135 197.188 197.047 197.162 194.551C197.137 192.103 197.947 190.047 199.594 188.383C201.24 186.72 203.296 185.888 205.76 185.888C207.648 185.888 209.293 186.352 210.694 187.28C212.096 188.192 213.092 189.383 213.684 190.855L211.889 191.335C211.397 190.231 210.62 189.351 209.557 188.695C208.51 188.024 207.259 187.688 205.803 187.688C203.803 187.688 202.177 188.351 200.927 189.679C199.677 191.007 199.062 192.623 199.082 194.527C199.102 196.479 199.751 198.135 201.029 199.495C202.324 200.855 204.011 201.535 206.091 201.535C207.915 201.535 209.405 201.015 210.562 199.975C211.719 198.919 212.345 197.511 212.438 195.751H205.838L205.821 194.095H214.317ZM224.455 186.2C226.135 186.2 227.477 186.752 228.48 187.856C229.484 188.959 229.993 190.215 230.007 191.623C230.022 193.063 229.532 194.327 228.535 195.415C227.554 196.487 226.2 197.023 224.472 197.023H219.048L219.11 202.999H217.214L217.039 186.2H224.455ZM224.406 195.295C225.558 195.295 226.474 194.935 227.154 194.215C227.835 193.479 228.17 192.615 228.159 191.623C228.149 190.631 227.788 189.775 227.077 189.055C226.381 188.319 225.497 187.952 224.425 187.952H218.953L219.03 195.295H224.406ZM244.149 186.2H246.069L246.174 196.327C246.196 198.439 245.598 200.135 244.379 201.415C243.176 202.679 241.495 203.311 239.335 203.311C237.175 203.311 235.472 202.679 234.227 201.415C232.998 200.135 232.372 198.439 232.35 196.327L232.245 186.2H234.189L234.294 196.279C234.31 197.879 234.748 199.159 235.606 200.119C236.479 201.063 237.716 201.535 239.316 201.535C240.916 201.535 242.143 201.063 242.998 200.119C243.852 199.159 244.27 197.879 244.254 196.279L244.149 186.2ZM249.439 196.351L249.422 194.767H257.942L257.959 196.351H249.439ZM263.412 201.247H272.724L272.743 202.999H261.511L261.336 186.2H263.256L263.412 201.247ZM286.997 197.551L287.015 199.279H284.711L284.75 202.999H282.854L282.815 199.279H274.103L274.088 197.839L280.231 186.2H282.319L276.317 197.551H282.797L282.753 193.303H284.649L284.693 197.551H286.997ZM305.461 185.48H307.309L307.492 202.999H305.644L305.621 200.815C304.598 202.479 303.031 203.311 300.919 203.311C299.191 203.311 297.745 202.711 296.58 201.511C295.416 200.311 294.824 198.807 294.805 196.999C294.787 195.207 295.347 193.719 296.487 192.535C297.626 191.335 299.06 190.735 300.788 190.735C302.884 190.735 304.469 191.551 305.541 193.183L305.461 185.48ZM301.165 201.631C302.413 201.631 303.473 201.191 304.344 200.311C305.214 199.431 305.643 198.335 305.629 197.023C305.616 195.711 305.164 194.615 304.275 193.735C303.386 192.855 302.317 192.415 301.069 192.415C299.757 192.415 298.682 192.847 297.843 193.711C297.02 194.575 296.615 195.679 296.629 197.023C296.643 198.351 297.071 199.455 297.912 200.335C298.769 201.199 299.853 201.631 301.165 201.631ZM316.628 203.311C314.772 203.311 313.246 202.735 312.05 201.583C310.87 200.431 310.27 198.903 310.25 196.999C310.232 195.207 310.784 193.719 311.908 192.535C313.032 191.335 314.489 190.735 316.281 190.735C318.137 190.735 319.607 191.303 320.691 192.439C321.775 193.575 322.326 195.007 322.344 196.735C322.348 197.103 322.335 197.391 322.305 197.599H312.081C312.173 198.815 312.624 199.799 313.431 200.551C314.239 201.303 315.299 201.679 316.611 201.679C317.587 201.679 318.409 201.463 319.076 201.031C319.744 200.583 320.234 200.023 320.547 199.351L322.256 199.855C321.818 200.831 321.123 201.655 320.17 202.327C319.217 202.983 318.036 203.311 316.628 203.311ZM312.067 196.231L320.514 196.207C320.422 195.055 320.005 194.127 319.261 193.423C318.518 192.719 317.53 192.367 316.298 192.367C315.114 192.367 314.126 192.743 313.334 193.495C312.558 194.247 312.135 195.159 312.067 196.231ZM333.431 191.023H335.423L330.34 202.999H328.3L322.967 191.023H324.959L329.311 200.983L333.431 191.023ZM339.381 188.431C339.143 188.671 338.84 188.791 338.472 188.791C338.104 188.791 337.799 188.671 337.557 188.431C337.314 188.192 337.191 187.888 337.187 187.52C337.184 187.184 337.301 186.896 337.538 186.656C337.792 186.416 338.094 186.296 338.446 186.296C338.798 186.296 339.096 186.416 339.338 186.656C339.597 186.896 339.728 187.184 339.731 187.52C339.735 187.888 339.618 188.192 339.381 188.431ZM337.708 202.999L337.584 191.023H339.432L339.556 202.999H337.708ZM348.736 203.311C346.944 203.311 345.45 202.711 344.253 201.511C343.056 200.295 342.449 198.783 342.43 196.975C342.411 195.199 342.988 193.719 344.16 192.535C345.331 191.335 346.813 190.735 348.605 190.735C350.029 190.735 351.241 191.111 352.241 191.863C353.256 192.599 353.905 193.431 354.187 194.359L352.464 194.863C352.249 194.207 351.787 193.631 351.078 193.135C350.369 192.639 349.55 192.391 348.622 192.391C347.31 192.391 346.251 192.847 345.444 193.759C344.638 194.655 344.241 195.743 344.254 197.023C344.268 198.287 344.687 199.375 345.512 200.287C346.354 201.183 347.422 201.631 348.718 201.631C349.662 201.631 350.476 201.399 351.159 200.935C351.858 200.455 352.308 199.887 352.509 199.231L354.242 199.687C353.98 200.631 353.357 201.471 352.372 202.207C351.388 202.943 350.176 203.311 348.736 203.311ZM362.659 203.311C360.803 203.311 359.277 202.735 358.081 201.583C356.901 200.431 356.302 198.903 356.282 196.999C356.263 195.207 356.816 193.719 357.939 192.535C359.063 191.335 360.521 190.735 362.313 190.735C364.169 190.735 365.638 191.303 366.722 192.439C367.806 193.575 368.357 195.007 368.375 196.735C368.379 197.103 368.366 197.391 368.336 197.599H358.112C358.205 198.815 358.655 199.799 359.463 200.551C360.271 201.303 361.33 201.679 362.642 201.679C363.618 201.679 364.44 201.463 365.108 201.031C365.775 200.583 366.265 200.023 366.578 199.351L368.287 199.855C367.85 200.831 367.154 201.655 366.201 202.327C365.248 202.983 364.067 203.311 362.659 203.311ZM358.098 196.231L366.546 196.207C366.454 195.055 366.036 194.127 365.293 193.423C364.549 192.719 363.562 192.367 362.33 192.367C361.146 192.367 360.157 192.743 359.365 193.495C358.589 194.247 358.167 195.159 358.098 196.231ZM375.664 203.311C374.336 203.311 373.156 202.967 372.125 202.279C371.11 201.575 370.445 200.711 370.13 199.687L371.853 199.207C372.084 199.927 372.547 200.527 373.24 201.007C373.949 201.471 374.767 201.703 375.695 201.703C376.575 201.703 377.293 201.511 377.849 201.127C378.405 200.743 378.68 200.279 378.674 199.735C378.67 199.271 378.53 198.919 378.255 198.679C377.981 198.423 377.53 198.199 376.904 198.007L373.486 196.999C371.624 196.455 370.686 195.487 370.672 194.095C370.662 193.183 371.078 192.399 371.919 191.743C372.76 191.071 373.797 190.735 375.029 190.735C376.261 190.735 377.32 191.015 378.206 191.575C379.107 192.135 379.747 192.847 380.124 193.711L378.449 194.215C378.219 193.671 377.799 193.215 377.187 192.847C376.575 192.479 375.853 192.295 375.021 192.295C374.269 192.295 373.655 192.479 373.179 192.847C372.719 193.215 372.491 193.623 372.496 194.071C372.502 194.711 373.043 195.191 374.119 195.511L377.537 196.519C378.452 196.791 379.168 197.167 379.685 197.647C380.218 198.111 380.488 198.775 380.497 199.639C380.508 200.695 380.054 201.575 379.133 202.279C378.228 202.967 377.072 203.311 375.664 203.311Z" fill="#5292C8"/>
<path d="M278.84 633L275.18 627.5H271.08V633H269.5V619H275.98C277.34 619 278.42 619.433 279.22 620.3C280.02 621.167 280.42 622.153 280.42 623.26C280.42 624.247 280.107 625.14 279.48 625.94C278.867 626.727 278.013 627.22 276.92 627.42L280.68 633H278.84ZM271.08 620.44V626.08H275.92C276.813 626.08 277.527 625.807 278.06 625.26C278.607 624.7 278.88 624.033 278.88 623.26C278.88 622.5 278.607 621.84 278.06 621.28C277.527 620.72 276.82 620.44 275.94 620.44H271.08ZM290.42 623.02H291.96V633H290.42V631.26C289.607 632.593 288.38 633.26 286.74 633.26C285.487 633.26 284.5 632.873 283.78 632.1C283.074 631.327 282.72 630.253 282.72 628.88V623.02H284.26V628.66C284.26 629.647 284.5 630.42 284.98 630.98C285.474 631.527 286.167 631.8 287.06 631.8C288.074 631.8 288.887 631.453 289.5 630.76C290.114 630.067 290.42 629.16 290.42 628.04V623.02ZM300.209 622.78C301.449 622.78 302.422 623.167 303.129 623.94C303.849 624.713 304.209 625.78 304.209 627.14V633H302.669V627.36C302.669 626.373 302.422 625.607 301.929 625.06C301.449 624.5 300.762 624.22 299.869 624.22C298.869 624.22 298.055 624.567 297.429 625.26C296.815 625.953 296.509 626.86 296.509 627.98V633H294.969V623.02H296.509V624.78C296.882 624.18 297.382 623.7 298.009 623.34C298.649 622.967 299.382 622.78 300.209 622.78ZM312.597 631.38L313.017 632.7C312.337 632.993 311.644 633.14 310.937 633.14C309.964 633.14 309.231 632.86 308.737 632.3C308.257 631.727 308.017 630.947 308.017 629.96V624.42H306.037V623.02H308.017V619.58H309.557V623.02H312.977V624.42H309.557V629.96C309.557 631.133 310.097 631.72 311.177 631.72C311.671 631.72 312.144 631.607 312.597 631.38ZM316.901 620.86C316.701 621.06 316.447 621.16 316.141 621.16C315.834 621.16 315.581 621.06 315.381 620.86C315.181 620.66 315.081 620.407 315.081 620.1C315.081 619.82 315.181 619.58 315.381 619.38C315.594 619.18 315.847 619.08 316.141 619.08C316.434 619.08 316.681 619.18 316.881 619.38C317.094 619.58 317.201 619.82 317.201 620.1C317.201 620.407 317.101 620.66 316.901 620.86ZM315.381 633V623.02H316.921V633H315.381ZM331.648 622.78C332.848 622.78 333.794 623.153 334.488 623.9C335.181 624.633 335.528 625.667 335.528 627V633H333.988V627.24C333.988 626.28 333.768 625.54 333.328 625.02C332.888 624.487 332.241 624.22 331.388 624.22C330.534 624.22 329.841 624.533 329.308 625.16C328.788 625.787 328.528 626.62 328.528 627.66V633H326.988V627.24C326.988 626.293 326.774 625.553 326.348 625.02C325.934 624.487 325.328 624.22 324.528 624.22C323.648 624.22 322.928 624.56 322.368 625.24C321.821 625.907 321.548 626.793 321.548 627.9V633H320.008V623.02H321.548V624.66C322.294 623.407 323.401 622.78 324.868 622.78C326.388 622.78 327.454 623.42 328.068 624.7C328.801 623.42 329.994 622.78 331.648 622.78ZM343.046 633.26C341.499 633.26 340.232 632.78 339.246 631.82C338.272 630.86 337.786 629.587 337.786 628C337.786 626.507 338.259 625.267 339.206 624.28C340.152 623.28 341.372 622.78 342.866 622.78C344.412 622.78 345.632 623.253 346.526 624.2C347.419 625.147 347.866 626.34 347.866 627.78C347.866 628.087 347.852 628.327 347.826 628.5H339.306C339.372 629.513 339.739 630.333 340.406 630.96C341.072 631.587 341.952 631.9 343.046 631.9C343.859 631.9 344.546 631.72 345.106 631.36C345.666 630.987 346.079 630.52 346.346 629.96L347.766 630.38C347.392 631.193 346.806 631.88 346.006 632.44C345.206 632.987 344.219 633.26 343.046 633.26ZM339.306 627.36L346.346 627.34C346.279 626.38 345.939 625.607 345.326 625.02C344.712 624.433 343.892 624.14 342.866 624.14C341.879 624.14 341.052 624.453 340.386 625.08C339.732 625.707 339.372 626.467 339.306 627.36ZM367.038 622.78C368.238 622.78 369.185 623.153 369.878 623.9C370.572 624.633 370.918 625.667 370.918 627V633H369.378V627.24C369.378 626.28 369.158 625.54 368.718 625.02C368.278 624.487 367.632 624.22 366.778 624.22C365.925 624.22 365.232 624.533 364.698 625.16C364.178 625.787 363.918 626.62 363.918 627.66V633H362.378V627.24C362.378 626.293 362.165 625.553 361.738 625.02C361.325 624.487 360.718 624.22 359.918 624.22C359.038 624.22 358.318 624.56 357.758 625.24C357.212 625.907 356.938 626.793 356.938 627.9V633H355.398V623.02H356.938V624.66C357.685 623.407 358.792 622.78 360.258 622.78C361.778 622.78 362.845 623.42 363.458 624.7C364.192 623.42 365.385 622.78 367.038 622.78ZM381.319 623.02H382.859V633H381.319V631.26C380.505 632.593 379.279 633.26 377.639 633.26C376.385 633.26 375.399 632.873 374.679 632.1C373.972 631.327 373.619 630.253 373.619 628.88V623.02H375.159V628.66C375.159 629.647 375.399 630.42 375.879 630.98C376.372 631.527 377.065 631.8 377.959 631.8C378.972 631.8 379.785 631.453 380.399 630.76C381.012 630.067 381.319 629.16 381.319 628.04V623.02ZM385.867 633V618.4H387.407V633H385.867ZM395.878 631.38L396.298 632.7C395.618 632.993 394.925 633.14 394.218 633.14C393.245 633.14 392.512 632.86 392.018 632.3C391.538 631.727 391.298 630.947 391.298 629.96V624.42H389.318V623.02H391.298V619.58H392.838V623.02H396.258V624.42H392.838V629.96C392.838 631.133 393.378 631.72 394.458 631.72C394.952 631.72 395.425 631.607 395.878 631.38ZM400.182 620.86C399.982 621.06 399.729 621.16 399.422 621.16C399.115 621.16 398.862 621.06 398.662 620.86C398.462 620.66 398.362 620.407 398.362 620.1C398.362 619.82 398.462 619.58 398.662 619.38C398.875 619.18 399.129 619.08 399.422 619.08C399.715 619.08 399.962 619.18 400.162 619.38C400.375 619.58 400.482 619.82 400.482 620.1C400.482 620.407 400.382 620.66 400.182 620.86ZM398.662 633V623.02H400.202V633H398.662ZM408.769 622.78C410.209 622.78 411.409 623.28 412.369 624.28C413.329 625.267 413.809 626.507 413.809 628C413.809 629.507 413.329 630.76 412.369 631.76C411.409 632.76 410.209 633.26 408.769 633.26C407.889 633.26 407.109 633.08 406.429 632.72C405.762 632.347 405.229 631.833 404.829 631.18V637.2H403.289V623.02H404.829V624.82C405.682 623.46 406.996 622.78 408.769 622.78ZM408.549 631.86C409.642 631.86 410.536 631.5 411.229 630.78C411.936 630.047 412.289 629.127 412.289 628.02C412.289 626.9 411.936 625.98 411.229 625.26C410.536 624.54 409.642 624.18 408.549 624.18C407.509 624.18 406.622 624.547 405.889 625.28C405.156 626.013 404.789 626.927 404.789 628.02C404.789 629.113 405.156 630.027 405.889 630.76C406.622 631.493 407.509 631.86 408.549 631.86ZM416.16 633V618.4H417.7V633H416.16ZM422.291 620.86C422.091 621.06 421.838 621.16 421.531 621.16C421.225 621.16 420.971 621.06 420.771 620.86C420.571 620.66 420.471 620.407 420.471 620.1C420.471 619.82 420.571 619.58 420.771 619.38C420.985 619.18 421.238 619.08 421.531 619.08C421.825 619.08 422.071 619.18 422.271 619.38C422.485 619.58 422.591 619.82 422.591 620.1C422.591 620.407 422.491 620.66 422.291 620.86ZM420.771 633V623.02H422.311V633H420.771ZM430.018 633.26C428.472 633.26 427.205 632.78 426.218 631.82C425.245 630.86 424.758 629.587 424.758 628C424.758 626.507 425.232 625.267 426.178 624.28C427.125 623.28 428.345 622.78 429.838 622.78C431.385 622.78 432.605 623.253 433.498 624.2C434.392 625.147 434.838 626.34 434.838 627.78C434.838 628.087 434.825 628.327 434.798 628.5H426.278C426.345 629.513 426.712 630.333 427.378 630.96C428.045 631.587 428.925 631.9 430.018 631.9C430.832 631.9 431.518 631.72 432.078 631.36C432.638 630.987 433.052 630.52 433.318 629.96L434.738 630.38C434.365 631.193 433.778 631.88 432.978 632.44C432.178 632.987 431.192 633.26 430.018 633.26ZM426.278 627.36L433.318 627.34C433.252 626.38 432.912 625.607 432.298 625.02C431.685 624.433 430.865 624.14 429.838 624.14C428.852 624.14 428.025 624.453 427.358 625.08C426.705 625.707 426.345 626.467 426.278 627.36ZM438.735 624.74C439.042 624.06 439.502 623.553 440.115 623.22C440.729 622.887 441.462 622.78 442.315 622.9V624.34C441.195 624.193 440.315 624.447 439.675 625.1C439.049 625.74 438.735 626.82 438.735 628.34V633H437.195V623.02H438.735V624.74Z" fill="#3287CE"/>
<path d="M100.58 310H107.94V312H98.4V298H100.58V310ZM113.893 312.26C112.467 312.26 111.273 311.76 110.313 310.76C109.367 309.747 108.893 308.48 108.893 306.96C108.893 305.453 109.367 304.2 110.313 303.2C111.273 302.187 112.467 301.68 113.893 301.68C115.467 301.68 116.673 302.273 117.513 303.46V301.94H119.593V312H117.513V310.48C116.673 311.667 115.467 312.26 113.893 312.26ZM114.233 310.38C115.167 310.38 115.953 310.06 116.593 309.42C117.233 308.767 117.553 307.947 117.553 306.96C117.553 305.987 117.233 305.18 116.593 304.54C115.953 303.887 115.167 303.56 114.233 303.56C113.273 303.56 112.487 303.88 111.873 304.52C111.26 305.16 110.953 305.973 110.953 306.96C110.953 307.947 111.26 308.767 111.873 309.42C112.487 310.06 113.273 310.38 114.233 310.38ZM128.024 309.96L128.544 311.68C127.784 312 127.044 312.16 126.324 312.16C125.271 312.16 124.484 311.86 123.964 311.26C123.444 310.647 123.184 309.807 123.184 308.74V303.8H121.344V301.94H123.184V298.58H125.264V301.94H128.464V303.8H125.264V308.74C125.264 309.767 125.744 310.28 126.704 310.28C127.144 310.28 127.584 310.173 128.024 309.96ZM134.781 312.26C133.194 312.26 131.901 311.773 130.901 310.8C129.914 309.827 129.421 308.553 129.421 306.98C129.421 305.46 129.901 304.2 130.861 303.2C131.821 302.187 133.067 301.68 134.601 301.68C136.187 301.68 137.434 302.167 138.341 303.14C139.261 304.1 139.721 305.313 139.721 306.78C139.721 307.033 139.701 307.313 139.661 307.62H131.481C131.547 308.473 131.874 309.16 132.461 309.68C133.047 310.2 133.834 310.46 134.821 310.46C136.207 310.46 137.161 309.92 137.681 308.84L139.601 309.4C139.241 310.187 138.647 310.86 137.821 311.42C136.994 311.98 135.981 312.26 134.781 312.26ZM131.481 306.22L137.661 306.2C137.594 305.4 137.287 304.747 136.741 304.24C136.207 303.733 135.494 303.48 134.601 303.48C133.734 303.48 133.014 303.747 132.441 304.28C131.881 304.813 131.561 305.46 131.481 306.22ZM147.437 301.68C148.717 301.68 149.703 302.073 150.397 302.86C151.09 303.647 151.437 304.727 151.437 306.1V312H149.357V306.48C149.357 305.587 149.143 304.893 148.717 304.4C148.303 303.893 147.69 303.64 146.877 303.64C145.997 303.64 145.29 303.947 144.757 304.56C144.237 305.173 143.977 305.987 143.977 307V312H141.877V301.94H143.977V303.44C144.803 302.267 145.957 301.68 147.437 301.68ZM158.802 312.26C157.282 312.26 156.022 311.753 155.022 310.74C154.022 309.727 153.522 308.467 153.522 306.96C153.522 305.453 154.016 304.2 155.002 303.2C156.002 302.187 157.262 301.68 158.782 301.68C160.036 301.68 161.089 302.007 161.942 302.66C162.809 303.3 163.349 304.033 163.562 304.86L161.622 305.42C161.476 304.927 161.142 304.493 160.622 304.12C160.102 303.747 159.496 303.56 158.802 303.56C157.842 303.56 157.062 303.893 156.462 304.56C155.862 305.213 155.562 306.013 155.562 306.96C155.562 307.893 155.862 308.7 156.462 309.38C157.076 310.047 157.856 310.38 158.802 310.38C159.496 310.38 160.102 310.207 160.622 309.86C161.142 309.5 161.476 309.073 161.622 308.58L163.562 309.12C163.349 309.933 162.816 310.66 161.962 311.3C161.109 311.94 160.056 312.26 158.802 312.26ZM172.951 301.94H175.191L169.071 316.2H166.911L168.791 311.78L164.191 301.94H166.471L169.831 309.42L172.951 301.94ZM185.638 312.26C184.491 312.26 183.478 311.967 182.598 311.38C181.731 310.78 181.165 310.053 180.898 309.2L182.798 308.64C182.985 309.187 183.338 309.64 183.858 310C184.391 310.36 185.005 310.54 185.698 310.54C186.325 310.54 186.831 310.407 187.218 310.14C187.605 309.873 187.798 309.553 187.798 309.18C187.798 308.873 187.698 308.633 187.498 308.46C187.298 308.273 186.965 308.113 186.498 307.98L183.798 307.18C182.198 306.7 181.398 305.84 181.398 304.6C181.398 303.8 181.771 303.113 182.518 302.54C183.265 301.967 184.171 301.68 185.238 301.68C186.291 301.68 187.205 301.913 187.978 302.38C188.751 302.847 189.291 303.46 189.598 304.22L187.738 304.76C187.538 304.36 187.218 304.027 186.778 303.76C186.338 303.493 185.818 303.36 185.218 303.36C184.711 303.36 184.291 303.487 183.958 303.74C183.625 303.98 183.458 304.26 183.458 304.58C183.458 305.02 183.818 305.353 184.538 305.58L187.218 306.36C188.045 306.6 188.691 306.927 189.158 307.34C189.625 307.74 189.858 308.327 189.858 309.1C189.858 310.007 189.458 310.76 188.658 311.36C187.871 311.96 186.865 312.26 185.638 312.26ZM197.811 301.68C199.238 301.68 200.431 302.187 201.391 303.2C202.351 304.2 202.831 305.453 202.831 306.96C202.831 308.48 202.351 309.747 201.391 310.76C200.431 311.76 199.238 312.26 197.811 312.26C196.251 312.26 195.051 311.667 194.211 310.48V316.2H192.111V301.94H194.211V303.46C195.051 302.273 196.251 301.68 197.811 301.68ZM197.471 310.38C198.431 310.38 199.218 310.06 199.831 309.42C200.444 308.767 200.751 307.947 200.751 306.96C200.751 305.973 200.444 305.16 199.831 304.52C199.218 303.88 198.431 303.56 197.471 303.56C196.538 303.56 195.751 303.887 195.111 304.54C194.471 305.18 194.151 305.987 194.151 306.96C194.151 307.947 194.471 308.767 195.111 309.42C195.751 310.06 196.538 310.38 197.471 310.38ZM209.722 312.26C208.135 312.26 206.842 311.773 205.842 310.8C204.855 309.827 204.362 308.553 204.362 306.98C204.362 305.46 204.842 304.2 205.802 303.2C206.762 302.187 208.009 301.68 209.542 301.68C211.129 301.68 212.375 302.167 213.282 303.14C214.202 304.1 214.662 305.313 214.662 306.78C214.662 307.033 214.642 307.313 214.602 307.62H206.422C206.489 308.473 206.815 309.16 207.402 309.68C207.989 310.2 208.775 310.46 209.762 310.46C211.149 310.46 212.102 309.92 212.622 308.84L214.542 309.4C214.182 310.187 213.589 310.86 212.762 311.42C211.935 311.98 210.922 312.26 209.722 312.26ZM206.422 306.22L212.602 306.2C212.535 305.4 212.229 304.747 211.682 304.24C211.149 303.733 210.435 303.48 209.542 303.48C208.675 303.48 207.955 303.747 207.382 304.28C206.822 304.813 206.502 305.46 206.422 306.22ZM221.558 312.26C219.971 312.26 218.678 311.773 217.678 310.8C216.691 309.827 216.198 308.553 216.198 306.98C216.198 305.46 216.678 304.2 217.638 303.2C218.598 302.187 219.845 301.68 221.378 301.68C222.965 301.68 224.211 302.167 225.118 303.14C226.038 304.1 226.498 305.313 226.498 306.78C226.498 307.033 226.478 307.313 226.438 307.62H218.258C218.325 308.473 218.651 309.16 219.238 309.68C219.825 310.2 220.611 310.46 221.598 310.46C222.985 310.46 223.938 309.92 224.458 308.84L226.378 309.4C226.018 310.187 225.425 310.86 224.598 311.42C223.771 311.98 222.758 312.26 221.558 312.26ZM218.258 306.22L224.438 306.2C224.371 305.4 224.065 304.747 223.518 304.24C222.985 303.733 222.271 303.48 221.378 303.48C220.511 303.48 219.791 303.747 219.218 304.28C218.658 304.813 218.338 305.46 218.258 306.22ZM236.654 297.4H238.734V312H236.654V310.48C235.814 311.667 234.607 312.26 233.034 312.26C231.607 312.26 230.414 311.76 229.454 310.76C228.507 309.747 228.034 308.48 228.034 306.96C228.034 305.453 228.507 304.2 229.454 303.2C230.414 302.187 231.607 301.68 233.034 301.68C234.607 301.68 235.814 302.273 236.654 303.46V297.4ZM233.374 310.38C234.307 310.38 235.094 310.06 235.734 309.42C236.374 308.767 236.694 307.947 236.694 306.96C236.694 305.987 236.374 305.18 235.734 304.54C235.094 303.887 234.307 303.56 233.374 303.56C232.414 303.56 231.627 303.88 231.014 304.52C230.401 305.16 230.094 305.973 230.094 306.96C230.094 307.947 230.401 308.767 231.014 309.42C231.627 310.06 232.414 310.38 233.374 310.38ZM248.905 301.94H250.985V312H248.905V310.48C248.092 311.667 246.932 312.26 245.425 312.26C244.158 312.26 243.172 311.867 242.465 311.08C241.772 310.293 241.425 309.213 241.425 307.84V301.94H243.525V307.46C243.525 308.353 243.732 309.053 244.145 309.56C244.572 310.053 245.192 310.3 246.005 310.3C246.872 310.3 247.572 309.993 248.105 309.38C248.638 308.767 248.905 307.953 248.905 306.94V301.94ZM259.491 301.68C260.917 301.68 262.111 302.187 263.071 303.2C264.031 304.2 264.511 305.453 264.511 306.96C264.511 308.48 264.031 309.747 263.071 310.76C262.111 311.76 260.917 312.26 259.491 312.26C257.931 312.26 256.731 311.667 255.891 310.48V316.2H253.791V301.94H255.891V303.46C256.731 302.273 257.931 301.68 259.491 301.68ZM259.151 310.38C260.111 310.38 260.897 310.06 261.511 309.42C262.124 308.767 262.431 307.947 262.431 306.96C262.431 305.973 262.124 305.16 261.511 304.52C260.897 303.88 260.111 303.56 259.151 303.56C258.217 303.56 257.431 303.887 256.791 304.54C256.151 305.18 255.831 305.987 255.831 306.96C255.831 307.947 256.151 308.767 256.791 309.42C257.431 310.06 258.217 310.38 259.151 310.38Z" fill="#01396C"/>
<path d="M354.26 412H356.34V426H354.16V415.76L349.36 422.48L344.58 415.76V426H342.4V412H344.48L349.38 419.04L354.26 412ZM363.878 426.26C362.292 426.26 360.998 425.773 359.998 424.8C359.012 423.827 358.518 422.553 358.518 420.98C358.518 419.46 358.998 418.2 359.958 417.2C360.918 416.187 362.165 415.68 363.698 415.68C365.285 415.68 366.532 416.167 367.438 417.14C368.358 418.1 368.818 419.313 368.818 420.78C368.818 421.033 368.798 421.313 368.758 421.62H360.578C360.645 422.473 360.972 423.16 361.558 423.68C362.145 424.2 362.932 424.46 363.918 424.46C365.305 424.46 366.258 423.92 366.778 422.84L368.698 423.4C368.338 424.187 367.745 424.86 366.918 425.42C366.092 425.98 365.078 426.26 363.878 426.26ZM360.578 420.22L366.758 420.2C366.692 419.4 366.385 418.747 365.838 418.24C365.305 417.733 364.592 417.48 363.698 417.48C362.832 417.48 362.112 417.747 361.538 418.28C360.978 418.813 360.658 419.46 360.578 420.22ZM382.854 415.68C384.054 415.68 385.008 416.06 385.714 416.82C386.434 417.58 386.794 418.633 386.794 419.98V426H384.694V420.38C384.694 419.513 384.501 418.84 384.114 418.36C383.741 417.88 383.181 417.64 382.434 417.64C381.661 417.64 381.048 417.92 380.594 418.48C380.141 419.04 379.914 419.793 379.914 420.74V426H377.834V420.38C377.834 419.513 377.648 418.84 377.274 418.36C376.914 417.88 376.374 417.64 375.654 417.64C374.854 417.64 374.221 417.933 373.754 418.52C373.301 419.107 373.074 419.907 373.074 420.92V426H370.974V415.94H373.074V417.34C373.834 416.233 374.888 415.68 376.234 415.68C377.701 415.68 378.734 416.253 379.334 417.4C380.094 416.253 381.268 415.68 382.854 415.68ZM398.03 424.76C397.017 425.76 395.743 426.26 394.21 426.26C392.677 426.26 391.403 425.76 390.39 424.76C389.377 423.747 388.87 422.48 388.87 420.96C388.87 419.453 389.377 418.2 390.39 417.2C391.403 416.187 392.677 415.68 394.21 415.68C395.743 415.68 397.017 416.187 398.03 417.2C399.043 418.2 399.55 419.453 399.55 420.96C399.55 422.48 399.043 423.747 398.03 424.76ZM391.83 423.4C392.457 424.04 393.25 424.36 394.21 424.36C395.17 424.36 395.957 424.04 396.57 423.4C397.197 422.747 397.51 421.94 397.51 420.98C397.51 420.007 397.197 419.2 396.57 418.56C395.957 417.907 395.17 417.58 394.21 417.58C393.25 417.58 392.457 417.907 391.83 418.56C391.217 419.2 390.91 420.007 390.91 420.98C390.91 421.94 391.217 422.747 391.83 423.4ZM403.816 417.54C404.123 416.913 404.57 416.447 405.156 416.14C405.756 415.82 406.456 415.713 407.256 415.82V417.78C406.15 417.62 405.296 417.84 404.696 418.44C404.11 419.027 403.816 420.033 403.816 421.46V426H401.716V415.94H403.816V417.54ZM416.834 415.94H419.074L412.954 430.2H410.794L412.674 425.78L408.074 415.94H410.354L413.714 423.42L416.834 415.94ZM431.241 426.26C429.681 426.26 428.341 425.853 427.221 425.04C426.101 424.227 425.341 423.227 424.941 422.04L427.001 421.42C427.321 422.273 427.861 422.973 428.621 423.52C429.394 424.067 430.307 424.34 431.361 424.34C432.294 424.34 433.054 424.12 433.641 423.68C434.241 423.24 434.541 422.733 434.541 422.16C434.541 421.693 434.367 421.3 434.021 420.98C433.687 420.66 433.121 420.373 432.321 420.12L428.801 419C426.707 418.347 425.661 417.207 425.661 415.58C425.661 414.527 426.121 413.627 427.041 412.88C427.961 412.12 429.114 411.74 430.501 411.74C431.927 411.74 433.154 412.073 434.181 412.74C435.221 413.393 435.954 414.22 436.381 415.22L434.361 415.82C434.027 415.167 433.521 414.647 432.841 414.26C432.174 413.86 431.394 413.66 430.501 413.66C429.727 413.66 429.087 413.847 428.581 414.22C428.087 414.58 427.841 415.013 427.841 415.52C427.841 415.92 427.981 416.253 428.261 416.52C428.541 416.773 428.994 416.993 429.621 417.18L433.061 418.28C434.274 418.667 435.187 419.14 435.801 419.7C436.414 420.247 436.721 421.02 436.721 422.02C436.721 423.22 436.207 424.227 435.181 425.04C434.167 425.853 432.854 426.26 431.241 426.26ZM443.382 426.26C441.955 426.26 440.762 425.76 439.802 424.76C438.855 423.747 438.382 422.48 438.382 420.96C438.382 419.453 438.855 418.2 439.802 417.2C440.762 416.187 441.955 415.68 443.382 415.68C444.955 415.68 446.162 416.273 447.002 417.46V415.94H449.082V426H447.002V424.48C446.162 425.667 444.955 426.26 443.382 426.26ZM443.722 424.38C444.655 424.38 445.442 424.06 446.082 423.42C446.722 422.767 447.042 421.947 447.042 420.96C447.042 419.987 446.722 419.18 446.082 418.54C445.442 417.887 444.655 417.56 443.722 417.56C442.762 417.56 441.975 417.88 441.362 418.52C440.748 419.16 440.442 419.973 440.442 420.96C440.442 421.947 440.748 422.767 441.362 423.42C441.975 424.06 442.762 424.38 443.722 424.38ZM459.115 415.94H461.395L457.135 426H454.795L450.535 415.94H452.815L455.955 423.72L459.115 415.94ZM464.967 413.94C464.714 414.18 464.401 414.3 464.027 414.3C463.654 414.3 463.341 414.18 463.087 413.94C462.834 413.687 462.707 413.373 462.707 413C462.707 412.653 462.834 412.353 463.087 412.1C463.341 411.847 463.654 411.72 464.027 411.72C464.401 411.72 464.714 411.847 464.967 412.1C465.221 412.353 465.347 412.653 465.347 413C465.347 413.373 465.221 413.687 464.967 413.94ZM462.967 426V415.94H465.047V426H462.967ZM473.468 415.68C474.748 415.68 475.734 416.073 476.428 416.86C477.121 417.647 477.468 418.727 477.468 420.1V426H475.388V420.48C475.388 419.587 475.174 418.893 474.748 418.4C474.334 417.893 473.721 417.64 472.908 417.64C472.028 417.64 471.321 417.947 470.788 418.56C470.268 419.173 470.008 419.987 470.008 421V426H467.908V415.94H470.008V417.44C470.834 416.267 471.988 415.68 473.468 415.68ZM488.113 415.94H490.213V425.64C490.213 427.053 489.74 428.207 488.793 429.1C487.86 430.007 486.633 430.46 485.113 430.46C482.887 430.46 481.287 429.587 480.313 427.84L482.153 427.16C482.767 428.187 483.767 428.7 485.153 428.7C486.087 428.7 486.807 428.413 487.313 427.84C487.833 427.28 488.1 426.553 488.113 425.66V424.18C487.273 425.313 486.093 425.88 484.573 425.88C483.12 425.88 481.92 425.393 480.973 424.42C480.027 423.447 479.553 422.233 479.553 420.78C479.553 419.287 480.02 418.067 480.953 417.12C481.9 416.16 483.107 415.68 484.573 415.68C486.093 415.68 487.273 416.24 488.113 417.36V415.94ZM484.893 424C485.827 424 486.607 423.693 487.233 423.08C487.86 422.467 488.173 421.7 488.173 420.78C488.173 419.86 487.86 419.1 487.233 418.5C486.607 417.887 485.827 417.58 484.893 417.58C483.933 417.58 483.147 417.88 482.533 418.48C481.92 419.08 481.613 419.847 481.613 420.78C481.613 421.713 481.92 422.487 482.533 423.1C483.147 423.7 483.933 424 484.893 424ZM496.825 426.26C495.679 426.26 494.665 425.967 493.785 425.38C492.919 424.78 492.352 424.053 492.085 423.2L493.985 422.64C494.172 423.187 494.525 423.64 495.045 424C495.579 424.36 496.192 424.54 496.885 424.54C497.512 424.54 498.019 424.407 498.405 424.14C498.792 423.873 498.985 423.553 498.985 423.18C498.985 422.873 498.885 422.633 498.685 422.46C498.485 422.273 498.152 422.113 497.685 421.98L494.985 421.18C493.385 420.7 492.585 419.84 492.585 418.6C492.585 417.8 492.959 417.113 493.705 416.54C494.452 415.967 495.359 415.68 496.425 415.68C497.479 415.68 498.392 415.913 499.165 416.38C499.939 416.847 500.479 417.46 500.785 418.22L498.925 418.76C498.725 418.36 498.405 418.027 497.965 417.76C497.525 417.493 497.005 417.36 496.405 417.36C495.899 417.36 495.479 417.487 495.145 417.74C494.812 417.98 494.645 418.26 494.645 418.58C494.645 419.02 495.005 419.353 495.725 419.58L498.405 420.36C499.232 420.6 499.879 420.927 500.345 421.34C500.812 421.74 501.045 422.327 501.045 423.1C501.045 424.007 500.645 424.76 499.845 425.36C499.059 425.96 498.052 426.26 496.825 426.26Z" fill="#01396C"/>
<path d="M246.48 525.96H238.54V529.94H245.46V531.82H238.54V536.02H246.46V538H236.4V524H246.48V525.96ZM254.44 527.68C255.72 527.68 256.707 528.073 257.4 528.86C258.094 529.647 258.44 530.727 258.44 532.1V538H256.36V532.48C256.36 531.587 256.147 530.893 255.72 530.4C255.307 529.893 254.694 529.64 253.88 529.64C253 529.64 252.294 529.947 251.76 530.56C251.24 531.173 250.98 531.987 250.98 533V538H248.88V527.94H250.98V529.44C251.807 528.267 252.96 527.68 254.44 527.68ZM265.886 538.26C264.299 538.26 263.006 537.773 262.006 536.8C261.019 535.827 260.526 534.553 260.526 532.98C260.526 531.46 261.006 530.2 261.966 529.2C262.926 528.187 264.173 527.68 265.706 527.68C267.293 527.68 268.539 528.167 269.446 529.14C270.366 530.1 270.826 531.313 270.826 532.78C270.826 533.033 270.806 533.313 270.766 533.62H262.586C262.653 534.473 262.979 535.16 263.566 535.68C264.153 536.2 264.939 536.46 265.926 536.46C267.313 536.46 268.266 535.92 268.786 534.84L270.706 535.4C270.346 536.187 269.753 536.86 268.926 537.42C268.099 537.98 267.086 538.26 265.886 538.26ZM262.586 532.22L268.766 532.2C268.699 531.4 268.393 530.747 267.846 530.24C267.313 529.733 266.599 529.48 265.706 529.48C264.839 529.48 264.119 529.747 263.546 530.28C262.986 530.813 262.666 531.46 262.586 532.22ZM275.082 529.54C275.389 528.913 275.835 528.447 276.422 528.14C277.022 527.82 277.722 527.713 278.522 527.82V529.78C277.415 529.62 276.562 529.84 275.962 530.44C275.375 531.027 275.082 532.033 275.082 533.46V538H272.982V527.94H275.082V529.54ZM287.719 527.94H289.819V537.64C289.819 539.053 289.346 540.207 288.399 541.1C287.466 542.007 286.239 542.46 284.719 542.46C282.492 542.46 280.892 541.587 279.919 539.84L281.759 539.16C282.372 540.187 283.372 540.7 284.759 540.7C285.692 540.7 286.412 540.413 286.919 539.84C287.439 539.28 287.706 538.553 287.719 537.66V536.18C286.879 537.313 285.699 537.88 284.179 537.88C282.726 537.88 281.526 537.393 280.579 536.42C279.632 535.447 279.159 534.233 279.159 532.78C279.159 531.287 279.626 530.067 280.559 529.12C281.506 528.16 282.712 527.68 284.179 527.68C285.699 527.68 286.879 528.24 287.719 529.36V527.94ZM284.499 536C285.432 536 286.212 535.693 286.839 535.08C287.466 534.467 287.779 533.7 287.779 532.78C287.779 531.86 287.466 531.1 286.839 530.5C286.212 529.887 285.432 529.58 284.499 529.58C283.539 529.58 282.752 529.88 282.139 530.48C281.526 531.08 281.219 531.847 281.219 532.78C281.219 533.713 281.526 534.487 282.139 535.1C282.752 535.7 283.539 536 284.499 536ZM300.033 527.94H302.273L296.153 542.2H293.993L295.873 537.78L291.273 527.94H293.553L296.913 535.42L300.033 527.94ZM314.44 538.26C312.88 538.26 311.54 537.853 310.42 537.04C309.3 536.227 308.54 535.227 308.14 534.04L310.2 533.42C310.52 534.273 311.06 534.973 311.82 535.52C312.593 536.067 313.507 536.34 314.56 536.34C315.493 536.34 316.253 536.12 316.84 535.68C317.44 535.24 317.74 534.733 317.74 534.16C317.74 533.693 317.567 533.3 317.22 532.98C316.887 532.66 316.32 532.373 315.52 532.12L312 531C309.907 530.347 308.86 529.207 308.86 527.58C308.86 526.527 309.32 525.627 310.24 524.88C311.16 524.12 312.313 523.74 313.7 523.74C315.127 523.74 316.353 524.073 317.38 524.74C318.42 525.393 319.153 526.22 319.58 527.22L317.56 527.82C317.227 527.167 316.72 526.647 316.04 526.26C315.373 525.86 314.593 525.66 313.7 525.66C312.927 525.66 312.287 525.847 311.78 526.22C311.287 526.58 311.04 527.013 311.04 527.52C311.04 527.92 311.18 528.253 311.46 528.52C311.74 528.773 312.193 528.993 312.82 529.18L316.26 530.28C317.473 530.667 318.387 531.14 319 531.7C319.613 532.247 319.92 533.02 319.92 534.02C319.92 535.22 319.407 536.227 318.38 537.04C317.367 537.853 316.053 538.26 314.44 538.26ZM326.581 538.26C325.154 538.26 323.961 537.76 323.001 536.76C322.054 535.747 321.581 534.48 321.581 532.96C321.581 531.453 322.054 530.2 323.001 529.2C323.961 528.187 325.154 527.68 326.581 527.68C328.154 527.68 329.361 528.273 330.201 529.46V527.94H332.281V538H330.201V536.48C329.361 537.667 328.154 538.26 326.581 538.26ZM326.921 536.38C327.854 536.38 328.641 536.06 329.281 535.42C329.921 534.767 330.241 533.947 330.241 532.96C330.241 531.987 329.921 531.18 329.281 530.54C328.641 529.887 327.854 529.56 326.921 529.56C325.961 529.56 325.174 529.88 324.561 530.52C323.947 531.16 323.641 531.973 323.641 532.96C323.641 533.947 323.947 534.767 324.561 535.42C325.174 536.06 325.961 536.38 326.921 536.38ZM342.314 527.94H344.594L340.334 538H337.994L333.734 527.94H336.014L339.154 535.72L342.314 527.94ZM348.167 525.94C347.913 526.18 347.6 526.3 347.227 526.3C346.853 526.3 346.54 526.18 346.287 525.94C346.033 525.687 345.907 525.373 345.907 525C345.907 524.653 346.033 524.353 346.287 524.1C346.54 523.847 346.853 523.72 347.227 523.72C347.6 523.72 347.913 523.847 348.167 524.1C348.42 524.353 348.547 524.653 348.547 525C348.547 525.373 348.42 525.687 348.167 525.94ZM346.167 538V527.94H348.247V538H346.167ZM356.667 527.68C357.947 527.68 358.934 528.073 359.627 528.86C360.32 529.647 360.667 530.727 360.667 532.1V538H358.587V532.48C358.587 531.587 358.374 530.893 357.947 530.4C357.534 529.893 356.92 529.64 356.107 529.64C355.227 529.64 354.52 529.947 353.987 530.56C353.467 531.173 353.207 531.987 353.207 533V538H351.107V527.94H353.207V529.44C354.034 528.267 355.187 527.68 356.667 527.68ZM371.313 527.94H373.413V537.64C373.413 539.053 372.939 540.207 371.993 541.1C371.059 542.007 369.833 542.46 368.313 542.46C366.086 542.46 364.486 541.587 363.513 539.84L365.353 539.16C365.966 540.187 366.966 540.7 368.353 540.7C369.286 540.7 370.006 540.413 370.513 539.84C371.033 539.28 371.299 538.553 371.313 537.66V536.18C370.473 537.313 369.293 537.88 367.773 537.88C366.319 537.88 365.119 537.393 364.173 536.42C363.226 535.447 362.753 534.233 362.753 532.78C362.753 531.287 363.219 530.067 364.153 529.12C365.099 528.16 366.306 527.68 367.773 527.68C369.293 527.68 370.473 528.24 371.313 529.36V527.94ZM368.093 536C369.026 536 369.806 535.693 370.433 535.08C371.059 534.467 371.373 533.7 371.373 532.78C371.373 531.86 371.059 531.1 370.433 530.5C369.806 529.887 369.026 529.58 368.093 529.58C367.133 529.58 366.346 529.88 365.733 530.48C365.119 531.08 364.813 531.847 364.813 532.78C364.813 533.713 365.119 534.487 365.733 535.1C366.346 535.7 367.133 536 368.093 536ZM380.025 538.26C378.878 538.26 377.865 537.967 376.985 537.38C376.118 536.78 375.551 536.053 375.285 535.2L377.185 534.64C377.371 535.187 377.725 535.64 378.245 536C378.778 536.36 379.391 536.54 380.085 536.54C380.711 536.54 381.218 536.407 381.605 536.14C381.991 535.873 382.185 535.553 382.185 535.18C382.185 534.873 382.085 534.633 381.885 534.46C381.685 534.273 381.351 534.113 380.885 533.98L378.185 533.18C376.585 532.7 375.785 531.84 375.785 530.6C375.785 529.8 376.158 529.113 376.905 528.54C377.651 527.967 378.558 527.68 379.625 527.68C380.678 527.68 381.591 527.913 382.365 528.38C383.138 528.847 383.678 529.46 383.985 530.22L382.125 530.76C381.925 530.36 381.605 530.027 381.165 529.76C380.725 529.493 380.205 529.36 379.605 529.36C379.098 529.36 378.678 529.487 378.345 529.74C378.011 529.98 377.845 530.26 377.845 530.58C377.845 531.02 378.205 531.353 378.925 531.58L381.605 532.36C382.431 532.6 383.078 532.927 383.545 533.34C384.011 533.74 384.245 534.327 384.245 535.1C384.245 536.007 383.845 536.76 383.045 537.36C382.258 537.96 381.251 538.26 380.025 538.26Z" fill="#01396C"/>
<defs>
<filter id="filter0_if_1153_483" x="45" y="212" width="87" height="486" filterUnits="userSpaceOnUse" color-interpolation-filters="sRGB">
<feFlood flood-opacity="0" result="BackgroundImageFix"/>
<feBlend mode="normal" in="SourceGraphic" in2="BackgroundImageFix" result="shape"/>
<feColorMatrix in="SourceAlpha" type="matrix" values="0 0 0 0 0 0 0 0 0 0 0 0 0 0 0 0 0 0 127 0" result="hardAlpha"/>
<feOffset dy="4"/>
<feGaussianBlur stdDeviation="20"/>
<feComposite in2="hardAlpha" operator="arithmetic" k2="-1" k3="1"/>
<feColorMatrix type="matrix" values="0 0 0 0 0.0215666 0 0 0 0 0.322844 0 0 0 0 0.597222 0 0 0 1 0"/>
<feBlend mode="normal" in2="shape" result="effect1_innerShadow_1153_483"/>
<feGaussianBlur stdDeviation="20" result="effect2_foregroundBlur_1153_483"/>
</filter>
<filter id="filter1_d_1153_483" x="259.26" y="241.6" width="179.624" height="129.736" filterUnits="userSpaceOnUse" color-interpolation-filters="sRGB">
<feFlood flood-opacity="0" result="BackgroundImageFix"/>
<feColorMatrix in="SourceAlpha" type="matrix" values="0 0 0 0 0 0 0 0 0 0 0 0 0 0 0 0 0 0 127 0" result="hardAlpha"/>
<feOffset/>
<feGaussianBlur stdDeviation="25"/>
<feComposite in2="hardAlpha" operator="out"/>
<feColorMatrix type="matrix" values="0 0 0 0 0 0 0 0 0 0.628056 0 0 0 0 0.897222 0 0 0 1 0"/>
<feBlend mode="normal" in2="BackgroundImageFix" result="effect1_dropShadow_1153_483"/>
<feBlend mode="normal" in="SourceGraphic" in2="effect1_dropShadow_1153_483" result="shape"/>
</filter>
<filter id="filter2_d_1153_483" x="525.756" y="356.012" width="200.103" height="130.576" filterUnits="userSpaceOnUse" color-interpolation-filters="sRGB">
<feFlood flood-opacity="0" result="BackgroundImageFix"/>
<feColorMatrix in="SourceAlpha" type="matrix" values="0 0 0 0 0 0 0 0 0 0 0 0 0 0 0 0 0 0 127 0" result="hardAlpha"/>
<feOffset/>
<feGaussianBlur stdDeviation="25"/>
<feComposite in2="hardAlpha" operator="out"/>
<feColorMatrix type="matrix" values="0 0 0 0 0 0 0 0 0 0.628056 0 0 0 0 0.897222 0 0 0 1 0"/>
<feBlend mode="normal" in2="BackgroundImageFix" result="effect1_dropShadow_1153_483"/>
<feBlend mode="normal" in="SourceGraphic" in2="effect1_dropShadow_1153_483" result="shape"/>
</filter>
<filter id="filter3_if_1153_483" x="44.9282" y="235.979" width="270.072" height="134.035" filterUnits="userSpaceOnUse" color-interpolation-filters="sRGB">
<feFlood flood-opacity="0" result="BackgroundImageFix"/>
<feBlend mode="normal" in="SourceGraphic" in2="BackgroundImageFix" result="shape"/>
<feColorMatrix in="SourceAlpha" type="matrix" values="0 0 0 0 0 0 0 0 0 0 0 0 0 0 0 0 0 0 127 0" result="hardAlpha"/>
<feOffset/>
<feGaussianBlur stdDeviation="12"/>
<feComposite in2="hardAlpha" operator="arithmetic" k2="-1" k3="1"/>
<feColorMatrix type="matrix" values="0 0 0 0 0.154854 0 0 0 0 0.777263 0 0 0 0 0.913889 0 0 0 1 0"/>
<feBlend mode="normal" in2="shape" result="effect1_innerShadow_1153_483"/>
<feGaussianBlur stdDeviation="19.5" result="effect2_foregroundBlur_1153_483"/>
</filter>
<filter id="filter4_if_1153_483" x="99.0479" y="235.979" width="214.891" height="137.3" filterUnits="userSpaceOnUse" color-interpolation-filters="sRGB">
<feFlood flood-opacity="0" result="BackgroundImageFix"/>
<feBlend mode="normal" in="SourceGraphic" in2="BackgroundImageFix" result="shape"/>
<feColorMatrix in="SourceAlpha" type="matrix" values="0 0 0 0 0 0 0 0 0 0 0 0 0 0 0 0 0 0 127 0" result="hardAlpha"/>
<feOffset/>
<feGaussianBlur stdDeviation="15"/>
<feComposite in2="hardAlpha" operator="arithmetic" k2="-1" k3="1"/>
<feColorMatrix type="matrix" values="0 0 0 0 0.105241 0 0 0 0 0.851389 0 0 0 0 0.269394 0 0 0 1 0"/>
<feBlend mode="normal" in2="shape" result="effect1_innerShadow_1153_483"/>
<feGaussianBlur stdDeviation="19.5" result="effect2_foregroundBlur_1153_483"/>
</filter>
<filter id="filter5_if_1153_483" x="226.312" y="268.788" width="55.6553" height="68.9629" filterUnits="userSpaceOnUse" color-interpolation-filters="sRGB">
<feFlood flood-opacity="0" result="BackgroundImageFix"/>
<feBlend mode="normal" in="SourceGraphic" in2="BackgroundImageFix" result="shape"/>
<feColorMatrix in="SourceAlpha" type="matrix" values="0 0 0 0 0 0 0 0 0 0 0 0 0 0 0 0 0 0 127 0" result="hardAlpha"/>
<feOffset/>
<feGaussianBlur stdDeviation="15"/>
<feComposite in2="hardAlpha" operator="arithmetic" k2="-1" k3="1"/>
<feColorMatrix type="matrix" values="0 0 0 0 0.419445 0 0 0 0 1 0 0 0 0 0.791 0 0 0 0.55 0"/>
<feBlend mode="normal" in2="shape" result="effect1_innerShadow_1153_483"/>
<feGaussianBlur stdDeviation="5" result="effect2_foregroundBlur_1153_483"/>
</filter>
<filter id="filter6_if_1153_483" x="44.9282" y="348.648" width="547.072" height="134.035" filterUnits="userSpaceOnUse" color-interpolation-filters="sRGB">
<feFlood flood-opacity="0" result="BackgroundImageFix"/>
<feBlend mode="normal" in="SourceGraphic" in2="BackgroundImageFix" result="shape"/>
<feColorMatrix in="SourceAlpha" type="matrix" values="0 0 0 0 0 0 0 0 0 0 0 0 0 0 0 0 0 0 127 0" result="hardAlpha"/>
<feOffset/>
<feGaussianBlur stdDeviation="12"/>
<feComposite in2="hardAlpha" operator="arithmetic" k2="-1" k3="1"/>
<feColorMatrix type="matrix" values="0 0 0 0 0.154854 0 0 0 0 0.777263 0 0 0 0 0.913889 0 0 0 1 0"/>
<feBlend mode="normal" in2="shape" result="effect1_innerShadow_1153_483"/>
<feGaussianBlur stdDeviation="19.5" result="effect2_foregroundBlur_1153_483"/>
</filter>
<filter id="filter7_if_1153_483" x="177.098" y="348.648" width="412.311" height="137.3" filterUnits="userSpaceOnUse" color-interpolation-filters="sRGB">
<feFlood flood-opacity="0" result="BackgroundImageFix"/>
<feBlend mode="normal" in="SourceGraphic" in2="BackgroundImageFix" result="shape"/>
<feColorMatrix in="SourceAlpha" type="matrix" values="0 0 0 0 0 0 0 0 0 0 0 0 0 0 0 0 0 0 127 0" result="hardAlpha"/>
<feOffset/>
<feGaussianBlur stdDeviation="15"/>
<feComposite in2="hardAlpha" operator="arithmetic" k2="-1" k3="1"/>
<feColorMatrix type="matrix" values="0 0 0 0 0.105241 0 0 0 0 0.851389 0 0 0 0 0.269394 0 0 0 1 0"/>
<feBlend mode="normal" in2="shape" result="effect1_innerShadow_1153_483"/>
<feGaussianBlur stdDeviation="19.5" result="effect2_foregroundBlur_1153_483"/>
</filter>
<filter id="filter8_if_1153_483" x="446.076" y="381.457" width="107.076" height="68.9629" filterUnits="userSpaceOnUse" color-interpolation-filters="sRGB">
<feFlood flood-opacity="0" result="BackgroundImageFix"/>
<feBlend mode="normal" in="SourceGraphic" in2="BackgroundImageFix" result="shape"/>
<feColorMatrix in="SourceAlpha" type="matrix" values="0 0 0 0 0 0 0 0 0 0 0 0 0 0 0 0 0 0 127 0" result="hardAlpha"/>
<feOffset/>
<feGaussianBlur stdDeviation="15"/>
<feComposite in2="hardAlpha" operator="arithmetic" k2="-1" k3="1"/>
<feColorMatrix type="matrix" values="0 0 0 0 0.419445 0 0 0 0 1 0 0 0 0 0.791 0 0 0 0.55 0"/>
<feBlend mode="normal" in2="shape" result="effect1_innerShadow_1153_483"/>
<feGaussianBlur stdDeviation="5" result="effect2_foregroundBlur_1153_483"/>
</filter>
<filter id="filter9_d_1153_483" x="386.47" y="466.012" width="147.053" height="130.576" filterUnits="userSpaceOnUse" color-interpolation-filters="sRGB">
<feFlood flood-opacity="0" result="BackgroundImageFix"/>
<feColorMatrix in="SourceAlpha" type="matrix" values="0 0 0 0 0 0 0 0 0 0 0 0 0 0 0 0 0 0 127 0" result="hardAlpha"/>
<feOffset/>
<feGaussianBlur stdDeviation="25"/>
<feComposite in2="hardAlpha" operator="out"/>
<feColorMatrix type="matrix" values="0 0 0 0 0 0 0 0 0 0.628056 0 0 0 0 0.897222 0 0 0 1 0"/>
<feBlend mode="normal" in2="BackgroundImageFix" result="effect1_dropShadow_1153_483"/>
<feBlend mode="normal" in="SourceGraphic" in2="effect1_dropShadow_1153_483" result="shape"/>
</filter>
<filter id="filter10_if_1153_483" x="44.9282" y="461.129" width="411.072" height="134.035" filterUnits="userSpaceOnUse" color-interpolation-filters="sRGB">
<feFlood flood-opacity="0" result="BackgroundImageFix"/>
<feBlend mode="normal" in="SourceGraphic" in2="BackgroundImageFix" result="shape"/>
<feColorMatrix in="SourceAlpha" type="matrix" values="0 0 0 0 0 0 0 0 0 0 0 0 0 0 0 0 0 0 127 0" result="hardAlpha"/>
<feOffset/>
<feGaussianBlur stdDeviation="12"/>
<feComposite in2="hardAlpha" operator="arithmetic" k2="-1" k3="1"/>
<feColorMatrix type="matrix" values="0 0 0 0 0.154854 0 0 0 0 0.777263 0 0 0 0 0.913889 0 0 0 1 0"/>
<feBlend mode="normal" in2="shape" result="effect1_innerShadow_1153_483"/>
<feGaussianBlur stdDeviation="19.5" result="effect2_foregroundBlur_1153_483"/>
</filter>
<filter id="filter11_if_1153_483" x="138.777" y="461.129" width="315.383" height="137.3" filterUnits="userSpaceOnUse" color-interpolation-filters="sRGB">
<feFlood flood-opacity="0" result="BackgroundImageFix"/>
<feBlend mode="normal" in="SourceGraphic" in2="BackgroundImageFix" result="shape"/>
<feColorMatrix in="SourceAlpha" type="matrix" values="0 0 0 0 0 0 0 0 0 0 0 0 0 0 0 0 0 0 127 0" result="hardAlpha"/>
<feOffset/>
<feGaussianBlur stdDeviation="15"/>
<feComposite in2="hardAlpha" operator="arithmetic" k2="-1" k3="1"/>
<feColorMatrix type="matrix" values="0 0 0 0 0.105241 0 0 0 0 0.851389 0 0 0 0 0.269394 0 0 0 1 0"/>
<feBlend mode="normal" in2="shape" result="effect1_innerShadow_1153_483"/>
<feGaussianBlur stdDeviation="19.5" result="effect2_foregroundBlur_1153_483"/>
</filter>
<filter id="filter12_if_1153_483" x="338.177" y="493.938" width="81.8298" height="68.9629" filterUnits="userSpaceOnUse" color-interpolation-filters="sRGB">
<feFlood flood-opacity="0" result="BackgroundImageFix"/>
<feBlend mode="normal" in="SourceGraphic" in2="BackgroundImageFix" result="shape"/>
<feColorMatrix in="SourceAlpha" type="matrix" values="0 0 0 0 0 0 0 0 0 0 0 0 0 0 0 0 0 0 127 0" result="hardAlpha"/>
<feOffset/>
<feGaussianBlur stdDeviation="15"/>
<feComposite in2="hardAlpha" operator="arithmetic" k2="-1" k3="1"/>
<feColorMatrix type="matrix" values="0 0 0 0 0.419445 0 0 0 0 1 0 0 0 0 0.791 0 0 0 0.55 0"/>
<feBlend mode="normal" in2="shape" result="effect1_innerShadow_1153_483"/>
<feGaussianBlur stdDeviation="5" result="effect2_foregroundBlur_1153_483"/>
</filter>
</defs>
</svg>
